<svg xmlns="http://www.w3.org/2000/svg" width="400" height="360" viewBox="0 0 400 360">
  <g id="t1-c1" transform="translate(8059.5 12392)">
    <rect id="Rectangle_36127" data-name="Rectangle 36127" width="400" height="360" rx="15" transform="translate(-8059.5 -12392)" fill="#ffefcc"/>
    <path id="Rectangle_36127_-_Outline" data-name="Rectangle 36127 - Outline" d="M15,3A12,12,0,0,0,3,15V345a12,12,0,0,0,12,12H385a12,12,0,0,0,12-12V15A12,12,0,0,0,385,3H15m0-3H385a15,15,0,0,1,15,15V345a15,15,0,0,1-15,15H15A15,15,0,0,1,0,345V15A15,15,0,0,1,15,0Z" transform="translate(-8059.5 -12392)" fill="#ffb206"/>
    <path id="Feature_One" data-name="Feature One" d="M27.577,21h-3.76V5.359h3.76ZM33.356,9.377l.118,1.364a3.942,3.942,0,0,1,3.319-1.579,3.316,3.316,0,0,1,2.712,1.085,5.165,5.165,0,0,1,.929,3.266V21H36.8V13.663a1.961,1.961,0,0,0-.354-1.294,1.64,1.64,0,0,0-1.289-.414,1.726,1.726,0,0,0-1.579.838V21h-3.62V9.377ZM43.239,21V11.891H41.553V9.377h1.687V8.453A4.016,4.016,0,0,1,44.41,5.37a4.626,4.626,0,0,1,3.287-1.1,7.2,7.2,0,0,1,1.7.226l.011,2.664a3.307,3.307,0,0,0-.892-.1q-1.644,0-1.644,1.418v.892h2.267v2.514H46.87V21Zm6.714-5.919a6.86,6.86,0,0,1,.677-3.1,4.84,4.84,0,0,1,1.944-2.089,5.856,5.856,0,0,1,2.976-.73,5.344,5.344,0,0,1,4.114,1.617,6.2,6.2,0,0,1,1.5,4.4v.129a6.019,6.019,0,0,1-1.509,4.313,5.359,5.359,0,0,1-4.087,1.6,5.42,5.42,0,0,1-3.985-1.488,5.819,5.819,0,0,1-1.622-4.034Zm3.62.226a4.325,4.325,0,0,0,.5,2.363,1.682,1.682,0,0,0,1.493.752q1.934,0,1.977-2.976v-.365q0-3.126-2-3.126-1.815,0-1.966,2.7Zm16.221-2.653L68.6,12.567a2.142,2.142,0,0,0-2.191,1.074V21H62.79V9.377h3.395L66.3,10.87a2.8,2.8,0,0,1,2.546-1.708,3.53,3.53,0,0,1,1.01.129Zm4.727-3.276.118,1.364a4,4,0,0,1,3.319-1.579,2.942,2.942,0,0,1,2.976,1.751A3.868,3.868,0,0,1,84.35,9.162q3.534,0,3.631,4.275V21H84.35V13.663a2.216,2.216,0,0,0-.3-1.3,1.28,1.28,0,0,0-1.1-.408,1.715,1.715,0,0,0-1.6.956l.011.15V21H77.732V13.685a2.329,2.329,0,0,0-.29-1.321,1.277,1.277,0,0,0-1.106-.408,1.736,1.736,0,0,0-1.59.956V21h-3.62V9.377ZM96.6,21a4.087,4.087,0,0,1-.344-1.042,3.366,3.366,0,0,1-2.793,1.257,4.124,4.124,0,0,1-2.793-.994,3.163,3.163,0,0,1-1.149-2.5,3.251,3.251,0,0,1,1.4-2.857,7.114,7.114,0,0,1,4.061-.967h1.117v-.615q0-1.608-1.386-1.608a1.133,1.133,0,0,0-1.289,1.274H89.8a3.245,3.245,0,0,1,1.434-2.736,6.027,6.027,0,0,1,3.658-1.051A5.284,5.284,0,0,1,98.4,10.247a3.772,3.772,0,0,1,1.321,2.976v5.146a5.269,5.269,0,0,0,.494,2.449V21Zm-2.267-2.363a2.019,2.019,0,0,0,1.123-.29,1.818,1.818,0,0,0,.639-.655V15.833H95.038q-1.891,0-1.891,1.7a1.036,1.036,0,0,0,.333.8A1.205,1.205,0,0,0,94.329,18.637Zm12.311-.215a1.61,1.61,0,0,0,1.182-.414,1.517,1.517,0,0,0,.408-1.155h3.395a4.018,4.018,0,0,1-1.37,3.137,5.1,5.1,0,0,1-3.529,1.225,5.158,5.158,0,0,1-4-1.59,6.264,6.264,0,0,1-1.461-4.4v-.15a7.08,7.08,0,0,1,.65-3.11,4.732,4.732,0,0,1,1.875-2.073,5.589,5.589,0,0,1,2.9-.725,5.03,5.03,0,0,1,3.6,1.257,4.458,4.458,0,0,1,1.332,3.405h-3.395a1.987,1.987,0,0,0-.44-1.386,1.52,1.52,0,0,0-1.182-.483q-1.407,0-1.644,1.794a12.658,12.658,0,0,0-.075,1.568,4.972,4.972,0,0,0,.419,2.428A1.45,1.45,0,0,0,106.64,18.422ZM116.974,21h-3.631V9.377h3.631ZM113.128,6.369a1.63,1.63,0,0,1,.559-1.275,2.364,2.364,0,0,1,2.9,0,1.63,1.63,0,0,1,.559,1.275,1.63,1.63,0,0,1-.559,1.275,2.364,2.364,0,0,1-2.9,0A1.63,1.63,0,0,1,113.128,6.369Zm5.618,8.712a6.86,6.86,0,0,1,.677-3.1,4.84,4.84,0,0,1,1.944-2.089,5.856,5.856,0,0,1,2.976-.73,5.344,5.344,0,0,1,4.114,1.617,6.2,6.2,0,0,1,1.5,4.4v.129a6.019,6.019,0,0,1-1.509,4.313,5.359,5.359,0,0,1-4.087,1.6,5.42,5.42,0,0,1-3.985-1.488,5.819,5.819,0,0,1-1.622-4.034Zm3.62.226a4.325,4.325,0,0,0,.5,2.363,1.682,1.682,0,0,0,1.493.752q1.934,0,1.977-2.976v-.365q0-3.126-2-3.126-1.815,0-1.966,2.7ZM124.837,4.5h3.824l-2.986,3.373-2.954-.005Zm10.044,4.877L135,10.741a3.942,3.942,0,0,1,3.319-1.579,3.316,3.316,0,0,1,2.712,1.085,5.165,5.165,0,0,1,.929,3.266V21h-3.631V13.663a1.961,1.961,0,0,0-.354-1.294,1.64,1.64,0,0,0-1.289-.414,1.726,1.726,0,0,0-1.579.838V21h-3.62V9.377Zm25.352,5.9a7.009,7.009,0,0,1-1.219,4.324,3.909,3.909,0,0,1-3.292,1.617,3.351,3.351,0,0,1-2.632-1.171v5.425h-3.62V9.377h3.384l.107,1.074A3.351,3.351,0,0,1,155.7,9.162a3.941,3.941,0,0,1,3.341,1.584,7.1,7.1,0,0,1,1.192,4.356Zm-3.62-.226q0-3.094-1.8-3.094a1.7,1.7,0,0,0-1.719.924v4.576a1.759,1.759,0,0,0,1.74.967q1.729,0,1.783-2.986ZM168.375,21a4.088,4.088,0,0,1-.344-1.042,3.366,3.366,0,0,1-2.793,1.257,4.124,4.124,0,0,1-2.793-.994,3.163,3.163,0,0,1-1.149-2.5,3.251,3.251,0,0,1,1.4-2.857,7.114,7.114,0,0,1,4.061-.967h1.117v-.615q0-1.608-1.386-1.608A1.133,1.133,0,0,0,165.2,12.95h-3.62a3.245,3.245,0,0,1,1.434-2.736,6.027,6.027,0,0,1,3.658-1.051,5.284,5.284,0,0,1,3.513,1.085,3.772,3.772,0,0,1,1.321,2.976v5.146A5.269,5.269,0,0,0,172,20.817V21Zm-2.267-2.363a2.019,2.019,0,0,0,1.123-.29,1.818,1.818,0,0,0,.639-.655V15.833h-1.053q-1.891,0-1.891,1.7a1.036,1.036,0,0,0,.333.8A1.205,1.205,0,0,0,166.108,18.637Zm14.427-5.983-1.192-.086a2.142,2.142,0,0,0-2.191,1.074V21h-3.62V9.377h3.395l.118,1.493a2.8,2.8,0,0,1,2.546-1.708,3.53,3.53,0,0,1,1.01.129ZM188.065,21a4.088,4.088,0,0,1-.344-1.042,3.366,3.366,0,0,1-2.793,1.257,4.124,4.124,0,0,1-2.793-.994,3.163,3.163,0,0,1-1.149-2.5,3.251,3.251,0,0,1,1.4-2.857,7.114,7.114,0,0,1,4.061-.967h1.117v-.615q0-1.608-1.386-1.608a1.133,1.133,0,0,0-1.289,1.274h-3.62a3.245,3.245,0,0,1,1.434-2.736,6.027,6.027,0,0,1,3.658-1.051,5.284,5.284,0,0,1,3.513,1.085,3.772,3.772,0,0,1,1.321,2.976v5.146a5.269,5.269,0,0,0,.494,2.449V21ZM185.8,18.637a2.019,2.019,0,0,0,1.123-.29,1.818,1.818,0,0,0,.639-.655V15.833h-1.053q-1.891,0-1.891,1.7a1.036,1.036,0,0,0,.333.8A1.205,1.205,0,0,0,185.8,18.637Zm17.789-.215a1.61,1.61,0,0,0,1.182-.414,1.517,1.517,0,0,0,.408-1.155h3.395a4.018,4.018,0,0,1-1.37,3.137,5.1,5.1,0,0,1-3.529,1.225,5.158,5.158,0,0,1-4-1.59,6.264,6.264,0,0,1-1.461-4.4v-.15a7.08,7.08,0,0,1,.65-3.11,4.732,4.732,0,0,1,1.875-2.073,5.589,5.589,0,0,1,2.9-.725,5.03,5.03,0,0,1,3.6,1.257,4.458,4.458,0,0,1,1.332,3.405h-3.395a1.987,1.987,0,0,0-.44-1.386,1.52,1.52,0,0,0-1.182-.483q-1.407,0-1.644,1.794a12.659,12.659,0,0,0-.075,1.568,4.972,4.972,0,0,0,.419,2.428A1.45,1.45,0,0,0,203.588,18.422ZM216.65,21a4.088,4.088,0,0,1-.344-1.042,3.366,3.366,0,0,1-2.793,1.257,4.124,4.124,0,0,1-2.793-.994,3.163,3.163,0,0,1-1.149-2.5,3.251,3.251,0,0,1,1.4-2.857,7.114,7.114,0,0,1,4.061-.967h1.117v-.615q0-1.608-1.386-1.608a1.133,1.133,0,0,0-1.289,1.274h-3.62a3.245,3.245,0,0,1,1.434-2.736,6.027,6.027,0,0,1,3.658-1.051,5.284,5.284,0,0,1,3.513,1.085,3.772,3.772,0,0,1,1.321,2.976v5.146a5.269,5.269,0,0,0,.494,2.449V21Zm-2.267-2.363a2.019,2.019,0,0,0,1.123-.29,1.818,1.818,0,0,0,.639-.655V15.833h-1.053q-1.891,0-1.891,1.7a1.036,1.036,0,0,0,.333.8A1.205,1.205,0,0,0,214.384,18.637Zm6.939-3.534a7.1,7.1,0,0,1,1.192-4.351,3.925,3.925,0,0,1,3.33-1.59,3.338,3.338,0,0,1,2.621,1.225V4.5H232.1V21h-3.255l-.183-1.246a3.428,3.428,0,0,1-2.836,1.461,3.918,3.918,0,0,1-3.287-1.59A7.325,7.325,0,0,1,221.323,15.1Zm3.62.226q0,3.094,1.8,3.094a1.782,1.782,0,0,0,1.719-1.01V12.986a1.734,1.734,0,0,0-1.7-1.031q-1.676,0-1.815,2.707ZM240.7,21a4.088,4.088,0,0,1-.344-1.042,3.366,3.366,0,0,1-2.793,1.257,4.124,4.124,0,0,1-2.793-.994,3.163,3.163,0,0,1-1.149-2.5,3.251,3.251,0,0,1,1.4-2.857,7.114,7.114,0,0,1,4.061-.967H240.2v-.615q0-1.608-1.386-1.608a1.133,1.133,0,0,0-1.289,1.274H233.9a3.245,3.245,0,0,1,1.434-2.736,6.027,6.027,0,0,1,3.658-1.051,5.284,5.284,0,0,1,3.513,1.085,3.772,3.772,0,0,1,1.321,2.976v5.146a5.269,5.269,0,0,0,.494,2.449V21Zm-2.267-2.363a2.019,2.019,0,0,0,1.123-.29,1.818,1.818,0,0,0,.639-.655V15.833h-1.053q-1.891,0-1.891,1.7a1.036,1.036,0,0,0,.333.8A1.205,1.205,0,0,0,238.436,18.637ZM262.1,15.274a7.009,7.009,0,0,1-1.219,4.324,3.909,3.909,0,0,1-3.292,1.617,3.351,3.351,0,0,1-2.632-1.171v5.425h-3.62V9.377h3.384l.107,1.074a3.351,3.351,0,0,1,2.739-1.289,3.941,3.941,0,0,1,3.341,1.584A7.1,7.1,0,0,1,262.1,15.1Zm-3.62-.226q0-3.094-1.8-3.094a1.7,1.7,0,0,0-1.719.924v4.576a1.759,1.759,0,0,0,1.74.967q1.729,0,1.783-2.986Zm12.246-2.4-1.192-.086a2.142,2.142,0,0,0-2.191,1.074V21h-3.62V9.377h3.395l.118,1.493a2.8,2.8,0,0,1,2.546-1.708,3.53,3.53,0,0,1,1.01.129Zm.462,2.428a6.86,6.86,0,0,1,.677-3.1,4.84,4.84,0,0,1,1.944-2.089,5.856,5.856,0,0,1,2.976-.73,5.344,5.344,0,0,1,4.114,1.617,6.2,6.2,0,0,1,1.5,4.4v.129a6.019,6.019,0,0,1-1.509,4.313,5.359,5.359,0,0,1-4.087,1.6,5.42,5.42,0,0,1-3.985-1.488,5.819,5.819,0,0,1-1.622-4.034Zm3.62.226a4.325,4.325,0,0,0,.5,2.363,1.682,1.682,0,0,0,1.493.752q1.934,0,1.977-2.976v-.365q0-3.126-2-3.126-1.815,0-1.966,2.7Zm19.98-.032A7.009,7.009,0,0,1,293.57,19.6a3.909,3.909,0,0,1-3.292,1.617,3.351,3.351,0,0,1-2.632-1.171v5.425h-3.62V9.377h3.384l.107,1.074a3.351,3.351,0,0,1,2.739-1.289,3.941,3.941,0,0,1,3.341,1.584,7.1,7.1,0,0,1,1.192,4.356Zm-3.62-.226q0-3.094-1.8-3.094a1.7,1.7,0,0,0-1.719.924v4.576a1.759,1.759,0,0,0,1.74.967q1.729,0,1.783-2.986Zm4.759.032a6.86,6.86,0,0,1,.677-3.1,4.84,4.84,0,0,1,1.944-2.089,5.856,5.856,0,0,1,2.976-.73,5.344,5.344,0,0,1,4.114,1.617,6.2,6.2,0,0,1,1.5,4.4v.129a6.019,6.019,0,0,1-1.509,4.313,5.359,5.359,0,0,1-4.087,1.6,5.42,5.42,0,0,1-3.985-1.488,5.819,5.819,0,0,1-1.622-4.034Zm3.62.226a4.325,4.325,0,0,0,.5,2.363,1.682,1.682,0,0,0,1.493.752q1.934,0,1.977-2.976v-.365q0-3.126-2-3.126-1.815,0-1.966,2.7ZM302.019,4.5h3.824l-2.986,3.373L299.9,7.868Zm12.8,13.234a.836.836,0,0,0-.483-.741,7.353,7.353,0,0,0-1.837-.58,8.376,8.376,0,0,1-2.234-.79,3.743,3.743,0,0,1-1.343-1.187,2.834,2.834,0,0,1-.462-1.6,3.212,3.212,0,0,1,1.321-2.637,5.443,5.443,0,0,1,3.459-1.037,6.03,6.03,0,0,1,3.7,1.042,3.258,3.258,0,0,1,1.4,2.739h-3.631q0-1.4-1.472-1.4a1.459,1.459,0,0,0-.956.317.981.981,0,0,0-.387.79.9.9,0,0,0,.473.784,4.466,4.466,0,0,0,1.509.494,13.043,13.043,0,0,1,1.821.462q2.621.9,2.621,3.233a3.044,3.044,0,0,1-1.413,2.589,6.2,6.2,0,0,1-3.658,1,6.322,6.322,0,0,1-2.664-.537,4.455,4.455,0,0,1-1.826-1.461,3.308,3.308,0,0,1-.655-1.944h3.384a1.4,1.4,0,0,0,.537,1.176,2.209,2.209,0,0,0,1.321.371,1.738,1.738,0,0,0,1.112-.3A.962.962,0,0,0,314.823,17.734Zm9,3.266h-3.631V9.377h3.631ZM319.979,6.369a1.63,1.63,0,0,1,.559-1.275,2.364,2.364,0,0,1,2.9,0A1.63,1.63,0,0,1,324,6.369a1.63,1.63,0,0,1-.559,1.275,2.364,2.364,0,0,1-2.9,0A1.63,1.63,0,0,1,319.979,6.369Zm10.291.118v2.89h1.912v2.514h-1.912v5.317a1.358,1.358,0,0,0,.236.913,1.268,1.268,0,0,0,.935.258,5.311,5.311,0,0,0,.9-.064V20.9a6.681,6.681,0,0,1-2.041.312,3.792,3.792,0,0,1-2.761-.881,3.61,3.61,0,0,1-.892-2.675V11.891h-1.482V9.377h1.482V6.487Zm2.557,8.594a6.86,6.86,0,0,1,.677-3.1,4.84,4.84,0,0,1,1.944-2.089,5.856,5.856,0,0,1,2.976-.73,5.344,5.344,0,0,1,4.114,1.617,6.2,6.2,0,0,1,1.5,4.4v.129a6.019,6.019,0,0,1-1.509,4.313,5.359,5.359,0,0,1-4.087,1.6,5.42,5.42,0,0,1-3.985-1.488,5.819,5.819,0,0,1-1.622-4.034Zm3.62.226a4.325,4.325,0,0,0,.5,2.363,1.682,1.682,0,0,0,1.493.752q1.934,0,1.977-2.976v-.365q0-3.126-2-3.126-1.815,0-1.966,2.7Z" transform="translate(-8042 -12118)" fill="#12263f"/>
    <ellipse id="Ellipse_5029" data-name="Ellipse 5029" cx="90.5" cy="91" rx="90.5" ry="91" transform="translate(-7949 -12352)" fill="#fff"/>
    <g id="descargar" transform="translate(-7957.47 -12311)">
      <g id="Group_106971" data-name="Group 106971" transform="translate(88.021 54.34)">
        <path id="Path_162958" data-name="Path 162958" d="M197.411,278.223v6.313h36.7V280.2a1.973,1.973,0,0,0-1.973-1.973H197.411Z" transform="translate(-197.411 -278.223)" fill="#ffb206"/>
      </g>
      <g id="Group_106972" data-name="Group 106972" transform="translate(70.264 54.34)">
        <path id="Path_162959" data-name="Path 162959" d="M162.922,284.537H130.171l-1.54-4.929a1.973,1.973,0,0,0-1.883-1.385H113.865a1.973,1.973,0,0,0-1.883,1.385l-1.54,4.929h-1.973a1.973,1.973,0,0,0-1.973,1.973v33.935a1.973,1.973,0,0,0,1.973,1.973h54.454a1.973,1.973,0,0,0,1.973-1.973V286.51A1.973,1.973,0,0,0,162.922,284.537Z" transform="translate(-106.495 -278.223)" fill="#ffd67a"/>
      </g>
      <g id="Group_106973" data-name="Group 106973" transform="translate(121.759 60.654)">
        <path id="Path_162960" data-name="Path 162960" d="M375.08,310.549h-4.932a1.973,1.973,0,0,1,1.973,1.973v33.935a1.973,1.973,0,0,1-1.973,1.973h4.932a1.973,1.973,0,0,0,1.973-1.973V312.522A1.973,1.973,0,0,0,375.08,310.549Z" transform="translate(-370.148 -310.549)" fill="#ffb206"/>
      </g>
      <g id="Group_106974" data-name="Group 106974" transform="translate(76.578 85.908)">
        <path id="Path_162961" data-name="Path 162961" d="M138.821,439.85H154.6v6.313H138.821Z" transform="translate(-138.821 -439.85)" fill="#8f52f5"/>
      </g>
      <g id="Group_106977" data-name="Group 106977" transform="translate(62.934 1.465)">
        <g id="Group_106975" data-name="Group 106975">
          <path id="Path_162962" data-name="Path 162962" d="M132.325,22.361a8.4,8.4,0,0,0-11.893-9.252A22.692,22.692,0,0,0,84.7,21.117a15.881,15.881,0,0,0,.154,31.761h41.294a15.885,15.885,0,0,0,6.18-30.517Z" transform="translate(-68.968 -7.5)" fill="#e6f7fe"/>
        </g>
        <g id="Group_106976" data-name="Group 106976" transform="translate(20.162 5.246)">
          <path id="Path_162963" data-name="Path 162963" d="M215.394,43.973a8.4,8.4,0,0,0-5.42-9.615c-.93,8.889-5.671,18.668-13.772,26.769-7.268,7.268-15.887,11.83-24,13.364h37.014a15.885,15.885,0,0,0,6.18-30.518Z" transform="translate(-172.199 -34.358)" fill="#d3effd"/>
        </g>
      </g>
      <g id="Group_106978" data-name="Group 106978" transform="translate(85.653 37.176)">
        <path id="Path_162964" data-name="Path 162964" d="M208.373,213.818V190.339H189.827v23.479h-4.538L199.1,229.8l13.811-15.981Z" transform="translate(-185.289 -190.339)" fill="#a87bf5"/>
      </g>
      <g id="Group_106979" data-name="Group 106979" transform="translate(90.12 37.176)">
        <path id="Path_162965" data-name="Path 162965" d="M226.774,213.818V190.339h-5.566c-.191,9.625-6.709,24.513-13.052,28.646L217.5,229.8l13.811-15.981Z" transform="translate(-208.156 -190.339)" fill="#8f52f5"/>
      </g>
      <g id="Group_106980" data-name="Group 106980" transform="translate(61.47 0)">
        <path id="Path_162966" data-name="Path 162966" d="M132.786,432.35a1.465,1.465,0,0,0-1.465,1.465v6.313a1.465,1.465,0,0,0,1.465,1.465H148.57a1.465,1.465,0,0,0,1.465-1.465v-6.313a1.465,1.465,0,0,0-1.465-1.465Zm14.319,6.313H134.251V435.28H147.1Z" transform="translate(-117.678 -347.907)"/>
        <path id="Path_162967" data-name="Path 162967" d="M120.111,48.309a17.35,17.35,0,0,0,7.784-32.855q.034-.411.034-.829a9.867,9.867,0,0,0-13.277-9.251,24.156,24.156,0,0,0-36.943,8.277,17.152,17.152,0,0,0-6.4,1.669,1.465,1.465,0,0,0,1.27,2.641,14.281,14.281,0,0,1,6.1-1.414,1.465,1.465,0,0,0,1.328-.879,21.226,21.226,0,0,1,33.427-7.492,1.465,1.465,0,0,0,1.607.214,6.858,6.858,0,0,1,3.03-.7A6.937,6.937,0,0,1,125,14.625a6.836,6.836,0,0,1-.143,1.4,1.465,1.465,0,0,0,.863,1.65,14.42,14.42,0,0,1-5.61,27.7H110.2v-8.2a1.465,1.465,0,0,0-1.465-1.465h-8.369a1.465,1.465,0,0,0,0,2.93h6.9V60.654a1.465,1.465,0,0,0,1.465,1.465h1.335L99.464,74.395,88.856,62.119h1.335a1.465,1.465,0,0,0,1.465-1.465V38.641h1.877a1.465,1.465,0,0,0,0-2.93H90.191a1.465,1.465,0,0,0-1.465,1.465v8.2H78.818a14.417,14.417,0,0,1-11.1-23.62,1.465,1.465,0,1,0-2.253-1.872A17.346,17.346,0,0,0,78.818,48.309h9.908v4.566H77.634a3.419,3.419,0,0,0-3.281,2.413l-1.22,3.9h-.9A3.441,3.441,0,0,0,68.8,62.627V96.562A3.442,3.442,0,0,0,72.238,100h54.453a3.441,3.441,0,0,0,3.438-3.437V73.34a1.465,1.465,0,1,0-2.93,0V96.562a.508.508,0,0,1-.508.508H72.238a.508.508,0,0,1-.508-.508V62.627a.509.509,0,0,1,.508-.508H74.21a1.465,1.465,0,0,0,1.4-1.028l1.542-4.932a.5.5,0,0,1,.484-.354H88.726v3.385H85.654a1.465,1.465,0,0,0-1.108,2.423l13.811,15.98a1.465,1.465,0,0,0,2.216,0l13.372-15.474h12.746a.508.508,0,0,1,.508.508V66.5a1.465,1.465,0,1,0,2.93,0V62.627a3.442,3.442,0,0,0-3.438-3.438h-.508V56.313a3.442,3.442,0,0,0-3.438-3.438H110.2V48.309Zm2.635,7.5a.509.509,0,0,1,.508.508V59.19H110.2V55.806h12.543Z" transform="translate(-61.47 0)"/>
      </g>
    </g>
  </g>
</svg>
