<svg xmlns="http://www.w3.org/2000/svg" width="400" height="360" viewBox="0 0 400 360">
  <g id="t1-c3" transform="translate(7196.5 12392)">
    <rect id="Rectangle_36125" data-name="Rectangle 36125" width="400" height="360" rx="15" transform="translate(-7196.5 -12392)" fill="#ffefcc"/>
    <path id="Rectangle_36125_-_Outline" data-name="Rectangle 36125 - Outline" d="M15,3A12,12,0,0,0,3,15V345a12,12,0,0,0,12,12H385a12,12,0,0,0,12-12V15A12,12,0,0,0,385,3H15m0-3H385a15,15,0,0,1,15,15V345a15,15,0,0,1-15,15H15A15,15,0,0,1,0,345V15A15,15,0,0,1,15,0Z" transform="translate(-7196.5 -12392)" fill="#ffb206"/>
    <path id="Feature_One" data-name="Feature One" d="M9.28,21H5.52V5.359H9.28ZM15.059,9.377l.118,1.364A3.942,3.942,0,0,1,18.5,9.162a3.316,3.316,0,0,1,2.712,1.085,5.165,5.165,0,0,1,.929,3.266V21H18.507V13.663a1.961,1.961,0,0,0-.354-1.294,1.64,1.64,0,0,0-1.289-.414,1.726,1.726,0,0,0-1.579.838V21h-3.62V9.377Zm13.3-2.89v2.89H30.27v2.514H28.358v5.317a1.358,1.358,0,0,0,.236.913,1.268,1.268,0,0,0,.935.258,5.311,5.311,0,0,0,.9-.064V20.9a6.681,6.681,0,0,1-2.041.312,3.792,3.792,0,0,1-2.761-.881,3.61,3.61,0,0,1-.892-2.675V11.891H23.255V9.377h1.482V6.487Zm8.959,14.728a5.975,5.975,0,0,1-4.329-1.6,5.509,5.509,0,0,1-1.654-4.152v-.3a7.138,7.138,0,0,1,.661-3.147,4.834,4.834,0,0,1,1.928-2.111,5.821,5.821,0,0,1,3.008-.747,5.031,5.031,0,0,1,3.867,1.52,5.973,5.973,0,0,1,1.418,4.238v1.407h-7.2a2.609,2.609,0,0,0,.849,1.536,2.525,2.525,0,0,0,1.7.559,3.254,3.254,0,0,0,2.686-1.2L41.9,19.174a4.624,4.624,0,0,1-1.917,1.488A6.48,6.48,0,0,1,37.317,21.215Zm-.408-9.26q-1.59,0-1.891,2.105H38.67v-.279a1.793,1.793,0,0,0-.44-1.348A1.753,1.753,0,0,0,36.909,11.955Zm13.793.7-1.192-.086a2.142,2.142,0,0,0-2.191,1.074V21H43.7V9.377h3.395l.118,1.493a2.8,2.8,0,0,1,2.546-1.708,3.53,3.53,0,0,1,1.01.129Zm6.016,5.769a1.61,1.61,0,0,0,1.182-.414,1.517,1.517,0,0,0,.408-1.155H61.7a4.018,4.018,0,0,1-1.37,3.137A5.1,5.1,0,0,1,56.8,21.215a5.158,5.158,0,0,1-4-1.59,6.264,6.264,0,0,1-1.461-4.4v-.15A7.08,7.08,0,0,1,52,11.96a4.732,4.732,0,0,1,1.875-2.073,5.589,5.589,0,0,1,2.9-.725,5.03,5.03,0,0,1,3.6,1.257A4.458,4.458,0,0,1,61.7,13.824H58.307a1.987,1.987,0,0,0-.44-1.386,1.52,1.52,0,0,0-1.182-.483q-1.407,0-1.644,1.794a12.659,12.659,0,0,0-.075,1.568,4.972,4.972,0,0,0,.419,2.428A1.45,1.45,0,0,0,56.717,18.422ZM69.78,21a4.087,4.087,0,0,1-.344-1.042,3.366,3.366,0,0,1-2.793,1.257,4.124,4.124,0,0,1-2.793-.994,3.163,3.163,0,0,1-1.149-2.5,3.251,3.251,0,0,1,1.4-2.857,7.114,7.114,0,0,1,4.061-.967h1.117v-.615q0-1.608-1.386-1.608A1.133,1.133,0,0,0,66.6,12.95H62.98a3.245,3.245,0,0,1,1.434-2.736,6.027,6.027,0,0,1,3.658-1.051,5.284,5.284,0,0,1,3.513,1.085,3.772,3.772,0,0,1,1.321,2.976v5.146a5.269,5.269,0,0,0,.494,2.449V21Zm-2.267-2.363a2.019,2.019,0,0,0,1.123-.29,1.818,1.818,0,0,0,.639-.655V15.833H68.222q-1.891,0-1.891,1.7a1.036,1.036,0,0,0,.333.8A1.205,1.205,0,0,0,67.513,18.637Zm10.817-9.26.118,1.364a4,4,0,0,1,3.319-1.579,2.942,2.942,0,0,1,2.976,1.751A3.868,3.868,0,0,1,88.16,9.162q3.534,0,3.631,4.275V21H88.16V13.663a2.216,2.216,0,0,0-.3-1.3,1.28,1.28,0,0,0-1.1-.408,1.715,1.715,0,0,0-1.6.956l.011.15V21H81.542V13.685a2.329,2.329,0,0,0-.29-1.321,1.277,1.277,0,0,0-1.106-.408,1.736,1.736,0,0,0-1.59.956V21h-3.62V9.377Zm26.318,5.908a7.084,7.084,0,0,1-1.182,4.394,3.958,3.958,0,0,1-3.33,1.536,3.435,3.435,0,0,1-2.857-1.407L97.129,21H93.885V4.5h3.62v5.812a3.314,3.314,0,0,1,2.61-1.149,3.959,3.959,0,0,1,3.352,1.558,7.121,7.121,0,0,1,1.182,4.383Zm-3.631-.231a4.725,4.725,0,0,0-.446-2.386,1.5,1.5,0,0,0-1.37-.713,1.733,1.733,0,0,0-1.7.933V17.5a1.743,1.743,0,0,0,1.719.922,1.537,1.537,0,0,0,1.622-1.244A8.933,8.933,0,0,0,101.018,15.054ZM110.063,21h-3.631V9.377h3.631ZM106.217,6.369a1.63,1.63,0,0,1,.559-1.275,2.364,2.364,0,0,1,2.9,0,1.63,1.63,0,0,1,.559,1.275,1.63,1.63,0,0,1-.559,1.275,2.364,2.364,0,0,1-2.9,0A1.63,1.63,0,0,1,106.217,6.369Zm5.618,8.712a6.86,6.86,0,0,1,.677-3.1,4.84,4.84,0,0,1,1.944-2.089,5.856,5.856,0,0,1,2.976-.73,5.344,5.344,0,0,1,4.114,1.617,6.2,6.2,0,0,1,1.5,4.4v.129a6.019,6.019,0,0,1-1.509,4.313,5.359,5.359,0,0,1-4.087,1.6,5.42,5.42,0,0,1-3.985-1.488,5.819,5.819,0,0,1-1.622-4.034Zm3.62.226a4.325,4.325,0,0,0,.5,2.363,1.682,1.682,0,0,0,1.493.752q1.934,0,1.977-2.976v-.365q0-3.126-2-3.126-1.815,0-1.966,2.7Zm14.212-.2a7.1,7.1,0,0,1,1.192-4.351,3.925,3.925,0,0,1,3.33-1.59,3.338,3.338,0,0,1,2.621,1.225V4.5h3.631V21h-3.255L137,19.754a3.428,3.428,0,0,1-2.836,1.461,3.918,3.918,0,0,1-3.287-1.59A7.325,7.325,0,0,1,129.667,15.1Zm3.62.226q0,3.094,1.8,3.094a1.782,1.782,0,0,0,1.719-1.01V12.986a1.734,1.734,0,0,0-1.7-1.031q-1.676,0-1.815,2.707Zm14.835,5.887a5.975,5.975,0,0,1-4.329-1.6,5.509,5.509,0,0,1-1.654-4.152v-.3a7.138,7.138,0,0,1,.661-3.147,4.834,4.834,0,0,1,1.928-2.111,5.821,5.821,0,0,1,3.008-.747,5.031,5.031,0,0,1,3.867,1.52,5.973,5.973,0,0,1,1.418,4.238v1.407h-7.2a2.609,2.609,0,0,0,.849,1.536,2.525,2.525,0,0,0,1.7.559,3.254,3.254,0,0,0,2.686-1.2l1.654,1.955a4.624,4.624,0,0,1-1.917,1.488A6.48,6.48,0,0,1,148.123,21.215Zm-.408-9.26q-1.59,0-1.891,2.105h3.652v-.279a1.793,1.793,0,0,0-.44-1.348A1.753,1.753,0,0,0,147.714,11.955ZM163.774,21h-3.631V9.377h3.631ZM159.928,6.369a1.63,1.63,0,0,1,.559-1.275,2.364,2.364,0,0,1,2.9,0,1.63,1.63,0,0,1,.559,1.275,1.63,1.63,0,0,1-.559,1.275,2.364,2.364,0,0,1-2.9,0A1.63,1.63,0,0,1,159.928,6.369Zm9.4,3.008.118,1.364a3.942,3.942,0,0,1,3.319-1.579,3.316,3.316,0,0,1,2.712,1.085,5.165,5.165,0,0,1,.929,3.266V21h-3.631V13.663a1.961,1.961,0,0,0-.354-1.294,1.64,1.64,0,0,0-1.289-.414,1.726,1.726,0,0,0-1.579.838V21h-3.62V9.377ZM179.21,21V11.891h-1.687V9.377h1.687V8.453a4.016,4.016,0,0,1,1.171-3.083,4.626,4.626,0,0,1,3.287-1.1,7.2,7.2,0,0,1,1.7.226l.011,2.664a3.307,3.307,0,0,0-.892-.1q-1.644,0-1.644,1.418v.892h2.267v2.514h-2.267V21Zm6.714-5.919a6.86,6.86,0,0,1,.677-3.1,4.84,4.84,0,0,1,1.944-2.089,5.856,5.856,0,0,1,2.976-.73,5.344,5.344,0,0,1,4.114,1.617,6.2,6.2,0,0,1,1.5,4.4v.129a6.019,6.019,0,0,1-1.509,4.313,5.359,5.359,0,0,1-4.087,1.6,5.42,5.42,0,0,1-3.985-1.488,5.819,5.819,0,0,1-1.622-4.034Zm3.62.226a4.325,4.325,0,0,0,.5,2.363,1.682,1.682,0,0,0,1.493.752q1.934,0,1.977-2.976v-.365q0-3.126-2-3.126-1.815,0-1.966,2.7Zm16.221-2.653-1.192-.086a2.142,2.142,0,0,0-2.191,1.074V21h-3.62V9.377h3.395l.118,1.493a2.8,2.8,0,0,1,2.546-1.708,3.53,3.53,0,0,1,1.01.129Zm4.727-3.276.118,1.364a4,4,0,0,1,3.319-1.579,2.942,2.942,0,0,1,2.976,1.751,3.868,3.868,0,0,1,3.416-1.751q3.534,0,3.631,4.275V21h-3.631V13.663a2.216,2.216,0,0,0-.3-1.3,1.28,1.28,0,0,0-1.1-.408,1.715,1.715,0,0,0-1.6.956l.011.15V21H213.7V13.685a2.329,2.329,0,0,0-.29-1.321,1.277,1.277,0,0,0-1.106-.408,1.736,1.736,0,0,0-1.59.956V21H207.1V9.377ZM232.567,21a4.088,4.088,0,0,1-.344-1.042,3.366,3.366,0,0,1-2.793,1.257,4.124,4.124,0,0,1-2.793-.994,3.163,3.163,0,0,1-1.149-2.5,3.251,3.251,0,0,1,1.4-2.857,7.114,7.114,0,0,1,4.061-.967h1.117v-.615q0-1.608-1.386-1.608a1.133,1.133,0,0,0-1.289,1.274h-3.62a3.245,3.245,0,0,1,1.434-2.736,6.027,6.027,0,0,1,3.658-1.051,5.284,5.284,0,0,1,3.513,1.085,3.772,3.772,0,0,1,1.321,2.976v5.146a5.269,5.269,0,0,0,.494,2.449V21ZM230.3,18.637a2.019,2.019,0,0,0,1.123-.29,1.818,1.818,0,0,0,.639-.655V15.833h-1.053q-1.891,0-1.891,1.7a1.036,1.036,0,0,0,.333.8A1.205,1.205,0,0,0,230.3,18.637Zm12.311-.215a1.61,1.61,0,0,0,1.182-.414,1.517,1.517,0,0,0,.408-1.155H247.6a4.018,4.018,0,0,1-1.37,3.137,5.1,5.1,0,0,1-3.529,1.225,5.158,5.158,0,0,1-4-1.59,6.264,6.264,0,0,1-1.461-4.4v-.15a7.08,7.08,0,0,1,.65-3.11,4.732,4.732,0,0,1,1.875-2.073,5.589,5.589,0,0,1,2.9-.725,5.03,5.03,0,0,1,3.6,1.257,4.458,4.458,0,0,1,1.332,3.405H244.2a1.987,1.987,0,0,0-.44-1.386,1.52,1.52,0,0,0-1.182-.483q-1.407,0-1.644,1.794a12.659,12.659,0,0,0-.075,1.568,4.972,4.972,0,0,0,.419,2.428A1.45,1.45,0,0,0,242.611,18.422ZM252.945,21h-3.631V9.377h3.631ZM249.1,6.369a1.63,1.63,0,0,1,.559-1.275,2.364,2.364,0,0,1,2.9,0,1.63,1.63,0,0,1,.559,1.275,1.63,1.63,0,0,1-.559,1.275,2.364,2.364,0,0,1-2.9,0A1.63,1.63,0,0,1,249.1,6.369Zm5.618,8.712a6.86,6.86,0,0,1,.677-3.1,4.84,4.84,0,0,1,1.944-2.089,5.856,5.856,0,0,1,2.976-.73,5.344,5.344,0,0,1,4.114,1.617,6.2,6.2,0,0,1,1.5,4.4v.129a6.019,6.019,0,0,1-1.509,4.313,5.359,5.359,0,0,1-4.087,1.6,5.42,5.42,0,0,1-3.985-1.488,5.819,5.819,0,0,1-1.622-4.034Zm3.62.226a4.325,4.325,0,0,0,.5,2.363,1.682,1.682,0,0,0,1.493.752q1.934,0,1.977-2.976v-.365q0-3.126-2-3.126-1.815,0-1.966,2.7ZM260.808,4.5h3.824l-2.986,3.373-2.954-.005Zm10.044,4.877.118,1.364a3.942,3.942,0,0,1,3.319-1.579A3.316,3.316,0,0,1,277,10.247a5.165,5.165,0,0,1,.929,3.266V21H274.3V13.663a1.961,1.961,0,0,0-.354-1.294,1.64,1.64,0,0,0-1.289-.414,1.726,1.726,0,0,0-1.579.838V21h-3.62V9.377ZM78.637,53.93l1.934-6.553h3.878L79.711,60.944l-.2.494a3.6,3.6,0,0,1-3.566,2.256,5.674,5.674,0,0,1-1.493-.214V60.9h.473a2.476,2.476,0,0,0,1.166-.22,1.337,1.337,0,0,0,.6-.79l.29-.774-4.039-11.74H76.8ZM90.41,53.1A7.1,7.1,0,0,1,91.6,48.752a3.925,3.925,0,0,1,3.33-1.59,3.338,3.338,0,0,1,2.621,1.225V42.5h3.631V59H97.93l-.183-1.246a3.428,3.428,0,0,1-2.836,1.461,3.918,3.918,0,0,1-3.287-1.59A7.325,7.325,0,0,1,90.41,53.1Zm3.62.226q0,3.094,1.8,3.094a1.782,1.782,0,0,0,1.719-1.01V50.986a1.734,1.734,0,0,0-1.7-1.031q-1.676,0-1.815,2.707ZM107.061,59H103.43V47.377h3.631Zm-3.846-14.631a1.63,1.63,0,0,1,.559-1.275,2.364,2.364,0,0,1,2.9,0,1.735,1.735,0,0,1,0,2.551,2.364,2.364,0,0,1-2.9,0A1.63,1.63,0,0,1,103.215,44.369Zm12.16,11.365a.836.836,0,0,0-.483-.741,7.353,7.353,0,0,0-1.837-.58,8.376,8.376,0,0,1-2.234-.79,3.743,3.743,0,0,1-1.343-1.187,2.834,2.834,0,0,1-.462-1.6,3.212,3.212,0,0,1,1.321-2.637,5.443,5.443,0,0,1,3.459-1.037,6.03,6.03,0,0,1,3.7,1.042,3.258,3.258,0,0,1,1.4,2.739h-3.631q0-1.4-1.472-1.4a1.459,1.459,0,0,0-.956.317.981.981,0,0,0-.387.79.9.9,0,0,0,.473.784,4.466,4.466,0,0,0,1.509.494,13.043,13.043,0,0,1,1.821.462q2.621.9,2.621,3.233a3.044,3.044,0,0,1-1.413,2.589,6.2,6.2,0,0,1-3.658,1,6.322,6.322,0,0,1-2.664-.537,4.455,4.455,0,0,1-1.826-1.461,3.308,3.308,0,0,1-.655-1.944h3.384a1.4,1.4,0,0,0,.537,1.176,2.209,2.209,0,0,0,1.321.371,1.738,1.738,0,0,0,1.112-.3A.962.962,0,0,0,115.375,55.734Zm15.974-2.46a7.009,7.009,0,0,1-1.219,4.324,3.909,3.909,0,0,1-3.292,1.617,3.351,3.351,0,0,1-2.632-1.171v5.425h-3.62V47.377h3.384l.107,1.074a3.351,3.351,0,0,1,2.739-1.289,3.941,3.941,0,0,1,3.341,1.584,7.1,7.1,0,0,1,1.192,4.356Zm-3.62-.226q0-3.094-1.8-3.094a1.7,1.7,0,0,0-1.719.924v4.576a1.759,1.759,0,0,0,1.74.967q1.729,0,1.783-2.986Zm4.759.032a6.86,6.86,0,0,1,.677-3.1,4.84,4.84,0,0,1,1.944-2.089,5.856,5.856,0,0,1,2.976-.73,5.344,5.344,0,0,1,4.114,1.617,6.2,6.2,0,0,1,1.5,4.4v.129a6.019,6.019,0,0,1-1.509,4.313,5.359,5.359,0,0,1-4.087,1.6,5.42,5.42,0,0,1-3.985-1.488,5.819,5.819,0,0,1-1.622-4.034Zm3.62.226a4.325,4.325,0,0,0,.5,2.363,1.682,1.682,0,0,0,1.493.752q1.934,0,1.977-2.976v-.365q0-3.126-2-3.126-1.815,0-1.966,2.7Zm15.275,2.428a.836.836,0,0,0-.483-.741,7.353,7.353,0,0,0-1.837-.58,8.376,8.376,0,0,1-2.234-.79,3.743,3.743,0,0,1-1.343-1.187,2.835,2.835,0,0,1-.462-1.6,3.212,3.212,0,0,1,1.321-2.637,5.443,5.443,0,0,1,3.459-1.037,6.03,6.03,0,0,1,3.7,1.042,3.258,3.258,0,0,1,1.4,2.739h-3.631q0-1.4-1.472-1.4a1.459,1.459,0,0,0-.956.317.981.981,0,0,0-.387.79.9.9,0,0,0,.473.784,4.466,4.466,0,0,0,1.509.494,13.042,13.042,0,0,1,1.821.462q2.621.9,2.621,3.233a3.044,3.044,0,0,1-1.413,2.589,6.2,6.2,0,0,1-3.658,1,6.322,6.322,0,0,1-2.664-.537,4.455,4.455,0,0,1-1.826-1.461,3.308,3.308,0,0,1-.655-1.944h3.384a1.4,1.4,0,0,0,.537,1.176,2.209,2.209,0,0,0,1.321.371,1.738,1.738,0,0,0,1.112-.3A.962.962,0,0,0,151.383,55.734Zm9,3.266h-3.631V47.377h3.631Zm-3.846-14.631a1.63,1.63,0,0,1,.559-1.275,2.364,2.364,0,0,1,2.9,0,1.735,1.735,0,0,1,0,2.551,2.364,2.364,0,0,1-2.9,0A1.63,1.63,0,0,1,156.539,44.369Zm10.291.118v2.89h1.912v2.514H166.83v5.317a1.358,1.358,0,0,0,.236.913,1.268,1.268,0,0,0,.935.258,5.311,5.311,0,0,0,.9-.064V58.9a6.681,6.681,0,0,1-2.041.312,3.792,3.792,0,0,1-2.761-.881,3.61,3.61,0,0,1-.892-2.675V49.891h-1.482V47.377h1.482v-2.89ZM173.984,59h-3.631V47.377h3.631Zm-3.846-14.631a1.63,1.63,0,0,1,.559-1.275,2.364,2.364,0,0,1,2.9,0,1.735,1.735,0,0,1,0,2.551,2.364,2.364,0,0,1-2.9,0A1.63,1.63,0,0,1,170.139,44.369Zm10.71,10.323,1.837-7.315H186.5L182.707,59h-3.7L175.22,47.377h3.824Zm6.112-1.611a6.86,6.86,0,0,1,.677-3.1,4.84,4.84,0,0,1,1.944-2.089,5.856,5.856,0,0,1,2.976-.73,5.344,5.344,0,0,1,4.114,1.617,6.2,6.2,0,0,1,1.5,4.4v.129a6.019,6.019,0,0,1-1.509,4.313,5.359,5.359,0,0,1-4.087,1.6,5.42,5.42,0,0,1-3.985-1.488,5.819,5.819,0,0,1-1.622-4.034Zm3.62.226a4.325,4.325,0,0,0,.5,2.363,1.682,1.682,0,0,0,1.493.752q1.934,0,1.977-2.976v-.365q0-3.126-2-3.126-1.815,0-1.966,2.7Zm15.275,2.428a.836.836,0,0,0-.483-.741,7.353,7.353,0,0,0-1.837-.58,8.376,8.376,0,0,1-2.234-.79,3.743,3.743,0,0,1-1.343-1.187,2.835,2.835,0,0,1-.462-1.6,3.212,3.212,0,0,1,1.321-2.637,5.443,5.443,0,0,1,3.459-1.037,6.03,6.03,0,0,1,3.7,1.042,3.258,3.258,0,0,1,1.4,2.739h-3.631q0-1.4-1.472-1.4a1.459,1.459,0,0,0-.956.317.981.981,0,0,0-.387.79.9.9,0,0,0,.473.784,4.466,4.466,0,0,0,1.509.494,13.042,13.042,0,0,1,1.821.462q2.621.9,2.621,3.233a3.044,3.044,0,0,1-1.413,2.589,6.2,6.2,0,0,1-3.658,1,6.322,6.322,0,0,1-2.664-.537,4.455,4.455,0,0,1-1.826-1.461,3.308,3.308,0,0,1-.655-1.944h3.384a1.4,1.4,0,0,0,.537,1.176,2.209,2.209,0,0,0,1.321.371,1.738,1.738,0,0,0,1.112-.3A.962.962,0,0,0,205.856,55.734Z" transform="translate(-7139 -12137)" fill="#12263f"/>
    <ellipse id="Ellipse_5027" data-name="Ellipse 5027" cx="90.5" cy="91" rx="90.5" ry="91" transform="translate(-7088 -12352)" fill="#fff"/>
    <g id="comparticion-de-archivos" transform="translate(-7047 -12310.999)">
      <g id="Group_106952" data-name="Group 106952" transform="translate(53.156 64.599)">
        <g id="Group_106948" data-name="Group 106948" transform="translate(2.96)">
          <path id="Path_162920" data-name="Path 162920" d="M326.774,358.374H287.315V332.725a1.973,1.973,0,0,1,1.973-1.973H324.8a1.973,1.973,0,0,1,1.973,1.973Z" transform="translate(-287.315 -330.752)" fill="#b893f5"/>
        </g>
        <g id="Group_106949" data-name="Group 106949" transform="translate(36.15)">
          <path id="Path_162921" data-name="Path 162921" d="M461.547,330.752h-4.3a1.973,1.973,0,0,1,1.973,1.973v25.649h4.3V332.725A1.973,1.973,0,0,0,461.547,330.752Z" transform="translate(-457.251 -330.752)" fill="#8f52f5"/>
        </g>
        <g id="Group_106950" data-name="Group 106950" transform="translate(0 27.621)">
          <path id="Path_162922" data-name="Path 162922" d="M315.567,478.488H274.135a1.973,1.973,0,0,1-1.973-1.973v-4.341H317.54v4.341A1.973,1.973,0,0,1,315.567,478.488Z" transform="translate(-272.162 -472.174)" fill="#efecef"/>
        </g>
        <g id="Group_106951" data-name="Group 106951" transform="translate(39.239 27.622)">
          <path id="Path_162923" data-name="Path 162923" d="M475.039,472.175v4.341a1.973,1.973,0,0,1-1.973,1.973h4.166a1.973,1.973,0,0,0,1.973-1.973v-4.341Z" transform="translate(-473.066 -472.175)" fill="#dddaec"/>
        </g>
      </g>
      <g id="Group_106957" data-name="Group 106957" transform="translate(1.465 64.599)">
        <g id="Group_106953" data-name="Group 106953" transform="translate(2.959)">
          <path id="Path_162924" data-name="Path 162924" d="M62.111,358.374H22.652V332.725a1.973,1.973,0,0,1,1.973-1.973H60.138a1.973,1.973,0,0,1,1.973,1.973Z" transform="translate(-22.652 -330.752)" fill="#b893f5"/>
        </g>
        <g id="Group_106954" data-name="Group 106954" transform="translate(36.15)">
          <path id="Path_162925" data-name="Path 162925" d="M196.884,330.752h-4.3a1.973,1.973,0,0,1,1.973,1.973v25.649h4.3V332.725A1.973,1.973,0,0,0,196.884,330.752Z" transform="translate(-192.588 -330.752)" fill="#8f52f5"/>
        </g>
        <g id="Group_106955" data-name="Group 106955" transform="translate(0 27.621)">
          <path id="Path_162926" data-name="Path 162926" d="M50.905,478.488H9.473A1.973,1.973,0,0,1,7.5,476.515v-4.341H52.878v4.341A1.973,1.973,0,0,1,50.905,478.488Z" transform="translate(-7.5 -472.174)" fill="#efecef"/>
        </g>
        <g id="Group_106956" data-name="Group 106956" transform="translate(39.239 27.622)">
          <path id="Path_162927" data-name="Path 162927" d="M210.377,472.175v4.341a1.973,1.973,0,0,1-1.973,1.973h4.166a1.973,1.973,0,0,0,1.973-1.973v-4.341Z" transform="translate(-208.404 -472.175)" fill="#dddaec"/>
        </g>
      </g>
      <g id="Group_106958" data-name="Group 106958" transform="translate(46.843 51.972)">
        <circle id="Ellipse_4988" data-name="Ellipse 4988" cx="3.157" cy="3.157" r="3.157" fill="#ffb206"/>
      </g>
      <g id="Group_106959" data-name="Group 106959" transform="translate(30.27 1.464)">
        <path id="Path_162928" data-name="Path 162928" d="M194.443,18.6V47.748a3.945,3.945,0,0,1-3.946,3.946H158.93a3.945,3.945,0,0,1-3.946-3.946v-36.3A3.945,3.945,0,0,1,158.93,7.5h24.409a3.72,3.72,0,0,1,.647.055,3.928,3.928,0,0,1,2.143,1.1l7.158,7.158a3.928,3.928,0,0,1,1.1,2.143,3.719,3.719,0,0,1,.055.647Z" transform="translate(-154.984 -7.5)" fill="#e6f7fe"/>
      </g>
      <g id="Group_106960" data-name="Group 106960" transform="translate(54.143 1.464)">
        <path id="Path_162929" data-name="Path 162929" d="M292.745,17.957a3.928,3.928,0,0,0-1.1-2.143l-7.158-7.158a3.929,3.929,0,0,0-2.143-1.1A3.72,3.72,0,0,0,281.7,7.5h-4.483v8.484a7.1,7.1,0,0,0,7.1,7.1H285.7a1.973,1.973,0,0,1,1.973,1.973V47.749a3.945,3.945,0,0,1-3.946,3.946h5.13a3.946,3.946,0,0,0,3.946-3.946V18.6A3.738,3.738,0,0,0,292.745,17.957Z" transform="translate(-277.214 -7.5)" fill="#d3effd"/>
      </g>
      <g id="Group_106961" data-name="Group 106961" transform="translate(59.273 1.519)">
        <path id="Path_162930" data-name="Path 162930" d="M313.879,18.185H305.45a1.973,1.973,0,0,1-1.973-1.973V7.783a3.928,3.928,0,0,1,2.143,1.1l7.158,7.158A3.925,3.925,0,0,1,313.879,18.185Z" transform="translate(-303.477 -7.783)" fill="#bed8fb"/>
      </g>
      <g id="Group_106962" data-name="Group 106962" transform="translate(0 -0.001)">
        <path id="Path_162931" data-name="Path 162931" d="M98.535,90.756H97.041V86.374a1.465,1.465,0,0,0-2.93,0v4.381H57.582V66.571a.508.508,0,0,1,.508-.508H93.6a.508.508,0,0,1,.508.508V79.538a1.465,1.465,0,1,0,2.93,0V66.571A3.441,3.441,0,0,0,93.6,63.134H77.311V55.129a1.465,1.465,0,0,0-1.465-1.465H54.382a4.642,4.642,0,0,0-2.917-2.917V47.124H65.783A5.418,5.418,0,0,0,71.2,41.712V30.731a1.465,1.465,0,0,0-2.93,0v10.98a2.485,2.485,0,0,1-2.482,2.482H34.217a2.485,2.485,0,0,1-2.482-2.482V5.409a2.484,2.484,0,0,1,2.482-2.48H57.808V9.948a3.442,3.442,0,0,0,3.438,3.438h7.02V23.9a1.465,1.465,0,1,0,2.93,0V12.568a5.114,5.114,0,0,0-.063-.781c0-.026-.007-.052-.01-.078s0-.024,0-.036l0-.014c0-.022-.008-.044-.013-.065a5.35,5.35,0,0,0-1.491-2.85L62.452,1.585a5.358,5.358,0,0,0-2.879-1.5l-.01,0L59.525.076c-.027,0-.056-.006-.083-.011l-.025,0A5.29,5.29,0,0,0,58.625,0H34.217A5.417,5.417,0,0,0,28.8,5.409v36.3a5.418,5.418,0,0,0,5.412,5.412H48.535v3.622a4.642,4.642,0,0,0-2.917,2.917H24.154a1.465,1.465,0,0,0-1.465,1.465v8.005H6.4a3.441,3.441,0,0,0-3.437,3.437v5.422a1.465,1.465,0,1,0,2.93,0V66.571a.508.508,0,0,1,.508-.508H41.91a.508.508,0,0,1,.508.508V90.754H5.889V78.829a1.465,1.465,0,0,0-2.93,0V90.755H1.465A1.465,1.465,0,0,0,0,92.22v4.341A3.442,3.442,0,0,0,3.438,100H44.87a3.442,3.442,0,0,0,3.438-3.438V92.22a1.465,1.465,0,0,0-1.465-1.465h-1.5V66.571a3.441,3.441,0,0,0-3.437-3.437H25.619v-6.54h20a4.62,4.62,0,0,0,8.764,0h20v6.54H58.09a3.441,3.441,0,0,0-3.437,3.437V90.756h-1.5a1.465,1.465,0,0,0-1.465,1.465v4.341A3.442,3.442,0,0,0,55.13,100H96.562A3.442,3.442,0,0,0,100,96.561V92.22a1.465,1.465,0,0,0-1.465-1.465ZM67.18,10.456H61.246a.509.509,0,0,1-.508-.508V4.014Zm-21.8,86.1a.509.509,0,0,1-.508.508H3.438a.509.509,0,0,1-.508-.508V93.685H45.378ZM50,56.821a1.692,1.692,0,1,1,1.692-1.692A1.694,1.694,0,0,1,50,56.821Zm47.07,39.74a.509.509,0,0,1-.508.508H55.129a.509.509,0,0,1-.508-.508V93.685H97.07Z" transform="translate(0 0.001)"/>
        <path id="Path_162932" data-name="Path 162932" d="M181.274,35.255h10.259a1.465,1.465,0,1,0,0-2.93H181.274a1.465,1.465,0,1,0,0,2.93Z" transform="translate(-144.69 -26.011)"/>
        <path id="Path_162933" data-name="Path 162933" d="M181.274,67.58h5.919a1.465,1.465,0,1,0,0-2.93h-5.919a1.465,1.465,0,1,0,0,2.93Z" transform="translate(-144.69 -52.023)"/>
        <path id="Path_162934" data-name="Path 162934" d="M260.13,96.976H245.925a1.465,1.465,0,0,0,0,2.93H260.13a1.465,1.465,0,1,0,0-2.93Z" transform="translate(-196.714 -78.035)"/>
        <path id="Path_162935" data-name="Path 162935" d="M181.274,99.906h6.313a1.465,1.465,0,1,0,0-2.93h-6.313a1.465,1.465,0,1,0,0,2.93Z" transform="translate(-144.69 -78.035)"/>
        <path id="Path_162936" data-name="Path 162936" d="M292.644,129.3h-6.313a1.465,1.465,0,1,0,0,2.93h6.313a1.465,1.465,0,1,0,0-2.93Z" transform="translate(-229.228 -104.047)"/>
        <path id="Path_162937" data-name="Path 162937" d="M196.945,130.766a1.465,1.465,0,0,0-1.465-1.465H181.275a1.465,1.465,0,0,0,0,2.93H195.48A1.465,1.465,0,0,0,196.945,130.766Z" transform="translate(-144.691 -104.047)"/>
        <path id="Path_162938" data-name="Path 162938" d="M266.633,161.626H254.006a1.465,1.465,0,1,0,0,2.93h12.627a1.465,1.465,0,1,0,0-2.93Z" transform="translate(-203.217 -130.058)"/>
        <path id="Path_162939" data-name="Path 162939" d="M190.63,163.091a1.465,1.465,0,0,0-1.465-1.465h-7.892a1.465,1.465,0,1,0,0,2.93h7.892A1.465,1.465,0,0,0,190.63,163.091Z" transform="translate(-144.69 -130.058)"/>
        <path id="Path_162940" data-name="Path 162940" d="M245.924,196.881h14.205a1.465,1.465,0,0,0,0-2.93H245.924a1.465,1.465,0,0,0,0,2.93Z" transform="translate(-196.713 -156.07)"/>
        <path id="Path_162941" data-name="Path 162941" d="M181.274,193.951a1.465,1.465,0,1,0,0,2.93h6.313a1.465,1.465,0,1,0,0-2.93Z" transform="translate(-144.69 -156.07)"/>
      </g>
    </g>
  </g>
</svg>
