<svg xmlns="http://www.w3.org/2000/svg" xmlns:xlink="http://www.w3.org/1999/xlink" width="263" height="268" viewBox="0 0 263 268">
  <defs>
    <clipPath id="clip-path">
      <path id="icon_arrow-right-circle" data-name="icon / arrow-right-circle" d="M6.328,12.657A6.31,6.31,0,0,1,0,6.328,6.31,6.31,0,0,1,6.328,0a6.31,6.31,0,0,1,6.328,6.328,6.31,6.31,0,0,1-6.328,6.328Zm0-11.506a5.178,5.178,0,1,0,5.178,5.178A5.184,5.184,0,0,0,6.328,1.151Zm0,8.055a.521.521,0,0,1-.4-.173.557.557,0,0,1,0-.805L7.249,6.9H4.027a.575.575,0,0,1,0-1.151H7.249L5.926,4.43a.558.558,0,0,1,0-.806.557.557,0,0,1,.806,0l2.3,2.3c.057.057.115.115.115.173a.207.207,0,0,0,.021.076.378.378,0,0,1,.036.154.349.349,0,0,1-.057.23c0,.058-.059.116-.115.172l-2.3,2.3A.52.52,0,0,1,6.328,9.205Z" transform="translate(0 0)" fill="#fff"/>
    </clipPath>
  </defs>
  <g id="t1-link2" transform="translate(-826 -7645.91)">
    <rect id="Rectangle_35876" data-name="Rectangle 35876" width="263" height="268" rx="15" transform="translate(826 7645.91)" fill="#500c75"/>
    <path id="Feature_One" data-name="Feature One" d="M71.114,21V5.359h5.038a7.411,7.411,0,0,1,3.728.94,6.607,6.607,0,0,1,2.583,2.653,8.011,8.011,0,0,1,.94,3.84v.72a8.057,8.057,0,0,1-.908,3.851,6.635,6.635,0,0,1-2.557,2.664A7.248,7.248,0,0,1,76.26,21ZM74.885,8.271V18.1H76.2a2.933,2.933,0,0,0,2.492-1.155,5.659,5.659,0,0,0,.87-3.432v-.677a5.613,5.613,0,0,0-.87-3.416,2.984,2.984,0,0,0-2.535-1.149ZM88.989,21H85.358V9.377h3.631ZM85.144,6.369A1.63,1.63,0,0,1,85.7,5.094a2.364,2.364,0,0,1,2.9,0,1.63,1.63,0,0,1,.559,1.275A1.63,1.63,0,0,1,88.6,7.644a2.364,2.364,0,0,1-2.9,0A1.63,1.63,0,0,1,85.144,6.369Zm9.4,3.008.118,1.364A3.942,3.942,0,0,1,97.98,9.162a3.316,3.316,0,0,1,2.712,1.085,5.165,5.165,0,0,1,.929,3.266V21H97.991V13.663a1.961,1.961,0,0,0-.354-1.294,1.64,1.64,0,0,0-1.289-.414,1.726,1.726,0,0,0-1.579.838V21h-3.62V9.377ZM110.173,21a4.087,4.087,0,0,1-.344-1.042,3.366,3.366,0,0,1-2.793,1.257,4.124,4.124,0,0,1-2.793-.994,3.163,3.163,0,0,1-1.149-2.5,3.251,3.251,0,0,1,1.4-2.857,7.114,7.114,0,0,1,4.061-.967h1.117v-.615q0-1.608-1.386-1.608a1.133,1.133,0,0,0-1.289,1.274h-3.62a3.245,3.245,0,0,1,1.434-2.736,6.027,6.027,0,0,1,3.658-1.051,5.284,5.284,0,0,1,3.513,1.085,3.772,3.772,0,0,1,1.321,2.976v5.146a5.269,5.269,0,0,0,.494,2.449V21Zm-2.267-2.363a2.019,2.019,0,0,0,1.123-.29,1.818,1.818,0,0,0,.639-.655V15.833h-1.053q-1.891,0-1.891,1.7a1.036,1.036,0,0,0,.333.8A1.205,1.205,0,0,0,107.906,18.637Zm.9-14.137h3.824l-2.986,3.373-2.954-.005Zm9.915,4.877.118,1.364a4,4,0,0,1,3.319-1.579,2.942,2.942,0,0,1,2.976,1.751,3.868,3.868,0,0,1,3.416-1.751q3.534,0,3.631,4.275V21h-3.631V13.663a2.216,2.216,0,0,0-.3-1.3,1.28,1.28,0,0,0-1.1-.408,1.715,1.715,0,0,0-1.6.956l.011.15V21h-3.631V13.685a2.329,2.329,0,0,0-.29-1.321,1.277,1.277,0,0,0-1.106-.408,1.736,1.736,0,0,0-1.59.956V21h-3.62V9.377ZM138.07,21h-3.631V9.377h3.631ZM134.225,6.369a1.63,1.63,0,0,1,.559-1.275,2.364,2.364,0,0,1,2.9,0,1.63,1.63,0,0,1,.559,1.275,1.63,1.63,0,0,1-.559,1.275,2.364,2.364,0,0,1-2.9,0A1.63,1.63,0,0,1,134.225,6.369Zm10.989,12.053a1.61,1.61,0,0,0,1.182-.414,1.517,1.517,0,0,0,.408-1.155H150.2a4.018,4.018,0,0,1-1.37,3.137,5.1,5.1,0,0,1-3.529,1.225,5.158,5.158,0,0,1-4-1.59,6.264,6.264,0,0,1-1.461-4.4v-.15a7.08,7.08,0,0,1,.65-3.11,4.732,4.732,0,0,1,1.875-2.073,5.589,5.589,0,0,1,2.9-.725,5.03,5.03,0,0,1,3.6,1.257,4.458,4.458,0,0,1,1.332,3.405H146.8a1.987,1.987,0,0,0-.44-1.386,1.52,1.52,0,0,0-1.182-.483q-1.407,0-1.644,1.794a12.659,12.659,0,0,0-.075,1.568,4.972,4.972,0,0,0,.419,2.428A1.45,1.45,0,0,0,145.214,18.422Zm6.059-3.341a6.86,6.86,0,0,1,.677-3.1,4.84,4.84,0,0,1,1.944-2.089,5.856,5.856,0,0,1,2.976-.73,5.344,5.344,0,0,1,4.114,1.617,6.2,6.2,0,0,1,1.5,4.4v.129a6.019,6.019,0,0,1-1.509,4.313,5.359,5.359,0,0,1-4.087,1.6,5.42,5.42,0,0,1-3.985-1.488,5.819,5.819,0,0,1-1.622-4.034Zm3.62.226a4.325,4.325,0,0,0,.5,2.363,1.682,1.682,0,0,0,1.493.752q1.934,0,1.977-2.976v-.365q0-3.126-2-3.126-1.815,0-1.966,2.7Z" transform="translate(841 7809.91)" fill="#fff"/>
    <g id="Group_107020" data-name="Group 107020" transform="translate(685.828 6926.91)">
      <path id="Path_165383" data-name="Path 165383" d="M2.828,13.773H8.219V15H1.32V3.625H2.828Zm10.383,1.383a3.693,3.693,0,0,1-2.8-1.129,4.19,4.19,0,0,1-1.078-3.02v-.266A5.073,5.073,0,0,1,9.816,8.5,3.748,3.748,0,0,1,11.16,6.949a3.378,3.378,0,0,1,1.871-.559,3.166,3.166,0,0,1,2.563,1.086,4.7,4.7,0,0,1,.914,3.109v.6H10.781a3,3,0,0,0,.73,2.02,2.3,2.3,0,0,0,1.777.77,2.517,2.517,0,0,0,1.3-.312,3.259,3.259,0,0,0,.93-.828l.883.688A3.55,3.55,0,0,1,13.211,15.156Zm-.18-7.578a1.928,1.928,0,0,0-1.469.637A3.1,3.1,0,0,0,10.828,10h4.234V9.891a2.753,2.753,0,0,0-.594-1.707A1.815,1.815,0,0,0,13.031,7.578Zm8.656,7.578a3.693,3.693,0,0,1-2.8-1.129,4.19,4.19,0,0,1-1.078-3.02v-.266a5.073,5.073,0,0,1,.48-2.246,3.748,3.748,0,0,1,1.344-1.547,3.378,3.378,0,0,1,1.871-.559A3.166,3.166,0,0,1,24.07,7.477a4.7,4.7,0,0,1,.914,3.109v.6H19.258a3,3,0,0,0,.73,2.02,2.3,2.3,0,0,0,1.777.77,2.517,2.517,0,0,0,1.3-.312,3.259,3.259,0,0,0,.93-.828l.883.688A3.55,3.55,0,0,1,21.688,15.156Zm-.18-7.578a1.928,1.928,0,0,0-1.469.637A3.1,3.1,0,0,0,19.3,10h4.234V9.891a2.753,2.753,0,0,0-.594-1.707A1.815,1.815,0,0,0,21.508,7.578Zm9.234.266a4.331,4.331,0,0,0-.711-.055A1.9,1.9,0,0,0,28.1,9v6H26.656V6.547h1.406l.023.977A2.251,2.251,0,0,1,30.1,6.391a1.477,1.477,0,0,1,.641.109Zm6.648-1.3.039.938a3.122,3.122,0,0,1,2.508-1.094A2.417,2.417,0,0,1,42.352,7.75a3.2,3.2,0,0,1,1.1-.984,3.242,3.242,0,0,1,1.6-.375q2.781,0,2.828,2.945V15H46.43V9.422a1.941,1.941,0,0,0-.414-1.355,1.823,1.823,0,0,0-1.391-.449,1.917,1.917,0,0,0-1.336.48,1.949,1.949,0,0,0-.617,1.293V15H41.219V9.461a1.613,1.613,0,0,0-1.8-1.844,1.934,1.934,0,0,0-1.945,1.211V15H36.023V6.547ZM55.273,15a3.036,3.036,0,0,1-.2-.891,3.225,3.225,0,0,1-2.406,1.047,2.984,2.984,0,0,1-2.051-.707,2.287,2.287,0,0,1-.8-1.793,2.39,2.39,0,0,1,1-2.051,4.733,4.733,0,0,1,2.824-.73h1.406V9.211A1.623,1.623,0,0,0,54.594,8a1.821,1.821,0,0,0-1.336-.449,2.107,2.107,0,0,0-1.3.391,1.151,1.151,0,0,0-.523.945H49.984a2,2,0,0,1,.449-1.223,3.066,3.066,0,0,1,1.219-.934,4.1,4.1,0,0,1,1.691-.344,3.342,3.342,0,0,1,2.289.73,2.635,2.635,0,0,1,.859,2.012v3.891a4.757,4.757,0,0,0,.3,1.852V15Zm-2.4-1.1a2.54,2.54,0,0,0,1.289-.352,2.127,2.127,0,0,0,.883-.914V10.9H53.914q-2.656,0-2.656,1.555a1.316,1.316,0,0,0,.453,1.063A1.742,1.742,0,0,0,52.875,13.9ZM54.211,3.016h1.75l-2.094,2.3-1.164,0Zm9.469,9.742a1.064,1.064,0,0,0-.441-.91,4.249,4.249,0,0,0-1.539-.559,7.277,7.277,0,0,1-1.742-.562A2.479,2.479,0,0,1,59,9.945,1.869,1.869,0,0,1,58.7,8.867a2.193,2.193,0,0,1,.879-1.758,3.432,3.432,0,0,1,2.246-.719,3.532,3.532,0,0,1,2.332.742,2.357,2.357,0,0,1,.895,1.9H63.594a1.3,1.3,0,0,0-.5-1.023,1.888,1.888,0,0,0-1.27-.43,1.976,1.976,0,0,0-1.234.344,1.082,1.082,0,0,0-.445.9.877.877,0,0,0,.414.789,5.1,5.1,0,0,0,1.5.508A7.8,7.8,0,0,1,63.8,10.7a2.558,2.558,0,0,1,1,.809,1.988,1.988,0,0,1,.324,1.152,2.163,2.163,0,0,1-.906,1.816,3.8,3.8,0,0,1-2.352.684,4.257,4.257,0,0,1-1.8-.359,2.922,2.922,0,0,1-1.223-1,2.42,2.42,0,0,1-.441-1.395h1.445a1.5,1.5,0,0,0,.582,1.152,2.258,2.258,0,0,0,1.434.426,2.331,2.331,0,0,0,1.316-.332A1.02,1.02,0,0,0,63.68,12.758Z" transform="translate(227.172 952)" fill="#fff"/>
      <g id="icon_arrow_arrow-right-circle" data-name="icon / arrow / arrow-right-circle" transform="translate(303.172 955.888)">
        <g id="Group_201" data-name="Group 201">
          <path id="icon_arrow-right-circle-2" data-name="icon / arrow-right-circle" d="M6.328,12.657A6.31,6.31,0,0,1,0,6.328,6.31,6.31,0,0,1,6.328,0a6.31,6.31,0,0,1,6.328,6.328,6.31,6.31,0,0,1-6.328,6.328Zm0-11.506a5.178,5.178,0,1,0,5.178,5.178A5.184,5.184,0,0,0,6.328,1.151Zm0,8.055a.521.521,0,0,1-.4-.173.557.557,0,0,1,0-.805L7.249,6.9H4.027a.575.575,0,0,1,0-1.151H7.249L5.926,4.43a.558.558,0,0,1,0-.806.557.557,0,0,1,.806,0l2.3,2.3c.057.057.115.115.115.173a.207.207,0,0,0,.021.076.378.378,0,0,1,.036.154.349.349,0,0,1-.057.23c0,.058-.059.116-.115.172l-2.3,2.3A.52.52,0,0,1,6.328,9.205Z" transform="translate(0 0)" fill="#fff"/>
        </g>
      </g>
    </g>
    <rect id="Rectangle_35878" data-name="Rectangle 35878" width="180" height="1.5" transform="translate(868 7860.91)" fill="#fff"/>
    <g id="Group_108269" data-name="Group 108269" transform="translate(3624.585 8983.253)">
      <path id="Path_165160" data-name="Path 165160" d="M-2367.5-1286.756a1.457,1.457,0,0,0,.8-.239,1.464,1.464,0,0,0,.426-2.027,11.94,11.94,0,0,1,0-13.053,1.464,1.464,0,0,0-.426-2.027,1.464,1.464,0,0,0-2.027.426,14.868,14.868,0,0,0,0,16.257A1.463,1.463,0,0,0-2367.5-1286.756Z" transform="translate(-277.967 -0.001)" fill="#fff"/>
      <path id="Path_165161" data-name="Path 165161" d="M-2335.571-1278.373a1.458,1.458,0,0,0,.956-.356,1.465,1.465,0,0,0,.153-2.066,5.673,5.673,0,0,1,0-7.367,1.465,1.465,0,0,0-.153-2.066,1.465,1.465,0,0,0-2.066.153,8.621,8.621,0,0,0,0,11.194A1.461,1.461,0,0,0-2335.571-1278.373Z" transform="translate(-304.043 -11.072)" fill="#fff"/>
      <path id="Path_165162" data-name="Path 165162" d="M-2236.105-1287a1.465,1.465,0,0,0,2.027-.426,14.869,14.869,0,0,0,0-16.257,1.465,1.465,0,0,0-2.027-.426,1.465,1.465,0,0,0-.426,2.027,11.938,11.938,0,0,1,0,13.053A1.466,1.466,0,0,0-2236.105-1287Z" transform="translate(-386.102 0)" fill="#fff"/>
      <path id="Path_165163" data-name="Path 165163" d="M-2266.253-1278.73a1.465,1.465,0,0,0,2.066-.152,8.619,8.619,0,0,0,0-11.195,1.465,1.465,0,0,0-2.066-.152,1.465,1.465,0,0,0-.152,2.066,5.673,5.673,0,0,1,0,7.367A1.465,1.465,0,0,0-2266.253-1278.73Z" transform="translate(-361.968 -11.071)" fill="#fff"/>
      <path id="Path_165164" data-name="Path 165164" d="M-2620.022-1208.537h-8.8v-44.5a4.629,4.629,0,0,0-3.156-4.382v-7.795a1.465,1.465,0,0,0-1.465-1.465,1.465,1.465,0,0,0-1.465,1.465v7.795a4.629,4.629,0,0,0-3.157,4.382v44.5h-1.825a1.465,1.465,0,0,0-1.465,1.465,1.465,1.465,0,0,0,1.465,1.465h19.864a.509.509,0,0,1,.508.51v15.5h-94.141v-15.5a.509.509,0,0,1,.508-.51h66.426a1.465,1.465,0,0,0,1.465-1.465,1.465,1.465,0,0,0-1.465-1.465h-48.387v-26.5a1.465,1.465,0,0,0-1.465-1.465,1.464,1.464,0,0,0-1.465,1.465v26.5h-3.385v-44.5a1.7,1.7,0,0,1,1.685-1.693,1.7,1.7,0,0,1,1.7,1.693v11.172a1.464,1.464,0,0,0,1.465,1.465,1.465,1.465,0,0,0,1.465-1.465v-11.172a4.582,4.582,0,0,0-1.353-3.266,4.592,4.592,0,0,0-1.8-1.119v-7.792a1.465,1.465,0,0,0-1.465-1.465,1.465,1.465,0,0,0-1.465,1.465v7.794a4.63,4.63,0,0,0-3.157,4.384v44.5h-8.794a3.442,3.442,0,0,0-3.437,3.44v21.307a3.441,3.441,0,0,0,3.438,3.438h2.481v2.876a3.442,3.442,0,0,0,3.438,3.438h8.681a3.442,3.442,0,0,0,3.438-3.438v-2.877h2.087a1.465,1.465,0,0,0,1.465-1.465,1.465,1.465,0,0,0-1.465-1.465h-20.125a.508.508,0,0,1-.508-.508v-2.875h94.14v2.875a.508.508,0,0,1-.508.508h-66.164a1.465,1.465,0,0,0-1.465,1.465,1.465,1.465,0,0,0,1.465,1.465h48.125v2.877a3.442,3.442,0,0,0,3.438,3.438h8.681a3.442,3.442,0,0,0,3.438-3.438v-2.877h2.481a3.442,3.442,0,0,0,3.438-3.437V-1205.1a3.443,3.443,0,0,0-3.437-3.439Zm-15.109-44.5a1.694,1.694,0,0,1,1.692-1.692,1.694,1.694,0,0,1,1.691,1.692v44.5h-3.384Zm-62.908,75.565a.508.508,0,0,1-.508.508h-8.681a.509.509,0,0,1-.509-.508v-2.877h9.7Zm72.605,0a.509.509,0,0,1-.508.508h-8.681a.509.509,0,0,1-.508-.508v-2.877h9.7v2.877Z" transform="translate(0 -30.304)" fill="#fff"/>
      <path id="Path_165165" data-name="Path 165165" d="M-2276.458-927.4a1.465,1.465,0,0,0,1.465-1.465v-6.313a1.465,1.465,0,0,0-1.465-1.465h-6.313a1.465,1.465,0,0,0-1.465,1.465v6.313a1.465,1.465,0,0,0,1.465,1.465Zm-4.849-6.314h3.384v3.384h-3.384Z" transform="translate(-347.906 -295.884)" fill="#fff"/>
      <path id="Path_165166" data-name="Path 165166" d="M-2348.886-935.178v6.313a1.465,1.465,0,0,0,1.465,1.465h6.313a1.465,1.465,0,0,0,1.465-1.465v-6.313a1.465,1.465,0,0,0-1.465-1.465h-6.313A1.465,1.465,0,0,0-2348.886-935.178Zm2.93,1.465h3.384v3.384h-3.384Z" transform="translate(-295.883 -295.884)" fill="#fff"/>
      <path id="Path_165167" data-name="Path 165167" d="M-2412.071-936.643a1.465,1.465,0,0,0-1.465,1.465v6.313a1.465,1.465,0,0,0,1.465,1.465h6.313a1.465,1.465,0,0,0,1.465-1.465v-6.313a1.465,1.465,0,0,0-1.465-1.465Zm4.849,6.313h-3.384v-3.384h3.384Z" transform="translate(-243.86 -295.884)" fill="#fff"/>
      <path id="Path_165168" data-name="Path 165168" d="M-2684.259-932.022a4.627,4.627,0,0,0,4.622,4.622,4.627,4.627,0,0,0,4.622-4.622,4.627,4.627,0,0,0-4.622-4.622A4.627,4.627,0,0,0-2684.259-932.022Zm6.314,0a1.694,1.694,0,0,1-1.692,1.692,1.694,1.694,0,0,1-1.692-1.692,1.694,1.694,0,0,1,1.692-1.692A1.694,1.694,0,0,1-2677.946-932.022Z" transform="translate(-26.012 -295.883)" fill="#fff"/>
      <path id="Path_165169" data-name="Path 165169" d="M-2619.609-932.022a4.627,4.627,0,0,0,4.622,4.622,4.627,4.627,0,0,0,4.622-4.622,4.627,4.627,0,0,0-4.622-4.622A4.627,4.627,0,0,0-2619.609-932.022Zm6.314,0a1.694,1.694,0,0,1-1.692,1.692,1.694,1.694,0,0,1-1.692-1.692,1.694,1.694,0,0,1,1.692-1.692A1.694,1.694,0,0,1-2613.3-932.022Z" transform="translate(-78.035 -295.883)" fill="#fff"/>
      <path id="Path_165170" data-name="Path 165170" d="M-2554.959-932.022a4.627,4.627,0,0,0,4.622,4.622,4.627,4.627,0,0,0,4.621-4.622,4.627,4.627,0,0,0-4.621-4.622A4.627,4.627,0,0,0-2554.959-932.022Zm6.313,0a1.694,1.694,0,0,1-1.692,1.692,1.694,1.694,0,0,1-1.692-1.692,1.694,1.694,0,0,1,1.692-1.692A1.694,1.694,0,0,1-2548.646-932.022Z" transform="translate(-130.058 -295.883)" fill="#fff"/>
      <path id="Path_165171" data-name="Path 165171" d="M-2575.519-1287a1.465,1.465,0,0,0,2.027-.426,14.869,14.869,0,0,0,0-16.257,1.465,1.465,0,0,0-2.027-.426,1.465,1.465,0,0,0-.426,2.027,11.939,11.939,0,0,1,0,13.053A1.465,1.465,0,0,0-2575.519-1287Z" transform="translate(-112.979 0)" fill="#fff"/>
      <path id="Path_165172" data-name="Path 165172" d="M-2605.666-1278.729a1.465,1.465,0,0,0,2.066-.152,8.62,8.62,0,0,0,0-11.194,1.465,1.465,0,0,0-2.066-.152,1.465,1.465,0,0,0-.152,2.066,5.673,5.673,0,0,1,0,7.367A1.465,1.465,0,0,0-2605.666-1278.729Z" transform="translate(-88.847 -11.072)" fill="#fff"/>
      <path id="Path_165173" data-name="Path 165173" d="M-2706.917-1286.756a1.458,1.458,0,0,0,.8-.239,1.464,1.464,0,0,0,.426-2.027,11.939,11.939,0,0,1,0-13.053,1.465,1.465,0,0,0-.426-2.027,1.465,1.465,0,0,0-2.027.426,14.869,14.869,0,0,0,0,16.257A1.463,1.463,0,0,0-2706.917-1286.756Z" transform="translate(-4.845 -0.001)" fill="#fff"/>
      <path id="Path_165174" data-name="Path 165174" d="M-2674.986-1278.374a1.461,1.461,0,0,0,.957-.356,1.465,1.465,0,0,0,.152-2.066,5.673,5.673,0,0,1,0-7.367,1.465,1.465,0,0,0-.152-2.066,1.465,1.465,0,0,0-2.066.152,8.619,8.619,0,0,0,0,11.195A1.461,1.461,0,0,0-2674.986-1278.374Z" transform="translate(-30.92 -11.071)" fill="#fff"/>
    </g>
  </g>
</svg>
