<svg xmlns="http://www.w3.org/2000/svg" width="80" height="80" viewBox="0 0 80 80">
  <g id="t10-ic2" transform="translate(-543 -1656)">
    <rect id="Rectangle_35982" data-name="Rectangle 35982" width="80" height="80" rx="10" transform="translate(543 1656)" fill="#e01650"/>
    <g id="crimen" transform="translate(556 1669)">
      <path id="Path_164123" data-name="Path 164123" d="M52.1,7.588H36.755a3.693,3.693,0,0,0-.657-.037V6.112A6.119,6.119,0,0,0,29.986,0H25.014A6.119,6.119,0,0,0,18.9,6.112V7.557a2.038,2.038,0,0,0-.3.031H2.9a2.9,2.9,0,0,0-2.9,2.9V39.707a2.9,2.9,0,0,0,2.9,2.9H22.146v1.678a6.759,6.759,0,0,1-3.73,6.022h-3.1a2.346,2.346,0,1,0,0,4.692H39.683a2.346,2.346,0,1,0,0-4.692h-3.1a6.759,6.759,0,0,1-3.73-6.022V42.607H52.1a2.9,2.9,0,0,0,2.9-2.9V10.488A2.9,2.9,0,0,0,52.1,7.588Zm1.4,2.9V33.656H45.54a7.8,7.8,0,0,0-5.613-6.2,17.72,17.72,0,0,0-3.582-.475c-.454-.028-.922-.1-1.375-.1-.932-.091-2.154-.211-2.3-1.379l-.289-2.258a7.611,7.611,0,0,0,2.187-2.987,14.8,14.8,0,0,0,.718-2.714l.008-.038c.089.009.179.014.269.014a2.886,2.886,0,0,0,.539-5.722v-.136h.3A2.054,2.054,0,0,0,38.446,9.6a2.032,2.032,0,0,0-.072-.512H52.1a1.4,1.4,0,0,1,1.4,1.4ZM19.4,16.009a1.383,1.383,0,0,1-.484-2.689,16.877,16.877,0,0,0,.484,2.689Zm-.614-6.918H36.574a.544.544,0,0,1-.18,1.06H18.962a.544.544,0,0,1-.18-1.06Zm17.145,5.457a7.764,7.764,0,0,0,.162-1.2,1.383,1.383,0,0,1-.482,2.661Zm-1.332-2.035a13.84,13.84,0,0,1-.423,3.008H30.789a.82.82,0,0,1-.721-.43,2.322,2.322,0,0,0-2.044-1.218H26.977a2.322,2.322,0,0,0-2.044,1.218.82.82,0,0,1-.721.43H20.829c-.135-.619-.29-1.236-.371-1.865a15.635,15.635,0,0,1-.052-2H23.17a1.509,1.509,0,1,0,1.762,0h5.136a1.51,1.51,0,1,0,1.762,0h2.764ZM24.211,17.026a2.322,2.322,0,0,0,2.043-1.218.819.819,0,0,1,.722-.43h1.046a.82.82,0,0,1,.721.43,2.322,2.322,0,0,0,2.044,1.218h3.061l-.043.219a13.663,13.663,0,0,1-.636,2.439,6.124,6.124,0,0,1-11.339,0,13.655,13.655,0,0,1-.637-2.44l-.043-.219Zm1.394,7.731a7.621,7.621,0,0,0,5.371-.6l.2,1.525a2.733,2.733,0,0,0,.078.387,9.03,9.03,0,0,1-7.5,0,2.691,2.691,0,0,0,.079-.387l.2-1.525a7.605,7.605,0,0,0,1.586.6Zm-2.867,2.836a2.879,2.879,0,0,0,.244-.22A10.342,10.342,0,0,0,27.5,28.391a10.232,10.232,0,0,0,4.519-1.016,2.868,2.868,0,0,0,.94.637,11.461,11.461,0,0,1-10.927,0,2.84,2.84,0,0,0,.705-.413Zm-2.879.791a12.871,12.871,0,0,0,15.264.012c.373.031.749.055,1.126.079a16.325,16.325,0,0,1,3.282.427,6.289,6.289,0,0,1,4.482,4.753H10.987A6.288,6.288,0,0,1,15.469,28.9a16.925,16.925,0,0,1,3.373-.444c.34-.022.68-.044,1.018-.072ZM20.405,6.11A4.614,4.614,0,0,1,25.014,1.5h4.971a4.614,4.614,0,0,1,4.608,4.608V7.551H20.406ZM1.5,10.488a1.4,1.4,0,0,1,1.4-1.4H16.983a2.02,2.02,0,0,0,1.92,2.557v.129a2.884,2.884,0,1,0,.807,5.712l.009.045a14.8,14.8,0,0,0,.719,2.715,7.613,7.613,0,0,0,2.186,2.986l-.288,2.258c-.2,1.565-2.449,1.388-3.59,1.461a18.339,18.339,0,0,0-3.672.494A7.794,7.794,0,0,0,9.46,33.656H1.5ZM40.525,52.654a.843.843,0,0,1-.842.842H15.317a.842.842,0,1,1,0-1.684H39.683a.843.843,0,0,1,.842.842Zm-6.553-2.346H21.028a8.272,8.272,0,0,0,2.621-6.022V42.607h7.7v1.678a8.273,8.273,0,0,0,2.622,6.022ZM53.5,39.707a1.4,1.4,0,0,1-1.4,1.4H2.9a1.4,1.4,0,0,1-1.4-1.4V35.16H53.5Z" fill="#fff"/>
      <path id="Path_164124" data-name="Path 164124" d="M62.6,86.993H57.182a.807.807,0,0,0,0,1.613H62.6a.807.807,0,0,0,0-1.613Z" transform="translate(-32.39 -49.69)" fill="#fff"/>
    </g>
  </g>
</svg>
