<svg xmlns="http://www.w3.org/2000/svg" width="80" height="80" viewBox="0 0 80 80">
  <g id="t10-ic4" transform="translate(-18875 9813)">
    <rect id="Rectangle_35986" data-name="Rectangle 35986" width="80" height="80" rx="10" transform="translate(18875 -9813)" fill="#e01650"/>
    <g id="contrasena" transform="translate(18888 -9805.83)">
      <path id="Path_165315" data-name="Path 165315" d="M52.1,8.83H2.9A2.9,2.9,0,0,0,0,11.73V40.949a2.9,2.9,0,0,0,2.9,2.9H22.146v1.678a6.759,6.759,0,0,1-3.73,6.022h-3.1a2.346,2.346,0,0,0,0,4.692H39.683a2.346,2.346,0,1,0,0-4.692h-3.1a6.758,6.758,0,0,1-3.729-6.022V43.85H52.1a2.9,2.9,0,0,0,2.9-2.9V11.73a2.9,2.9,0,0,0-2.9-2.9ZM1.5,11.73a1.4,1.4,0,0,1,1.4-1.4H52.1a1.4,1.4,0,0,1,1.4,1.4V34.9H1.5ZM40.525,53.9a.843.843,0,0,1-.842.842H15.317a.842.842,0,1,1,0-1.684H39.683a.843.843,0,0,1,.842.842ZM33.972,51.55H21.028a8.271,8.271,0,0,0,2.621-6.022V43.85h7.7v1.678a8.271,8.271,0,0,0,2.622,6.022ZM53.5,40.949a1.4,1.4,0,0,1-1.4,1.4H2.9a1.4,1.4,0,0,1-1.4-1.4V36.4H53.5Z" fill="#fff"/>
      <path id="Path_165316" data-name="Path 165316" d="M56.357,23.83H15.752a.752.752,0,0,0-.752.752V37.759a.752.752,0,0,0,.752.753H56.357a.752.752,0,0,0,.752-.752V24.582a.752.752,0,0,0-.752-.752Zm-.752,13.179H16.5V25.334h39.1Z" transform="translate(-8.555 -8.555)" fill="#fff"/>
      <path id="Path_165317" data-name="Path 165317" d="M57.127,79.667h5.049a.752.752,0,1,0,0-1.5H57.127a.752.752,0,0,0,0,1.5Z" transform="translate(-32.151 -39.541)" fill="#fff"/>
      <path id="Path_165318" data-name="Path 165318" d="M54.669,35.914h1.765l-1.248,1.248a.752.752,0,0,0,1.063,1.063L57.5,36.978v1.766a.752.752,0,0,0,1.5,0V36.978l1.248,1.248a.752.752,0,1,0,1.063-1.063l-1.248-1.248H61.83a.752.752,0,1,0,0-1.5H60.065l1.248-1.246A.752.752,0,0,0,60.25,32.1L59,33.347V31.582a.752.752,0,0,0-1.5,0v1.765L56.249,32.1a.752.752,0,0,0-1.063,1.063l1.248,1.246H54.669a.752.752,0,0,0,0,1.5Z" transform="translate(-30.75 -12.547)" fill="#fff"/>
      <path id="Path_165319" data-name="Path 165319" d="M82.669,35.914h1.765l-1.248,1.248a.752.752,0,0,0,1.063,1.063L85.5,36.978v1.766a.752.752,0,1,0,1.5,0V36.978l1.248,1.248a.752.752,0,0,0,1.063-1.063l-1.248-1.248H89.83a.752.752,0,1,0,0-1.5H88.065l1.248-1.246A.752.752,0,0,0,88.25,32.1L87,33.347V31.582a.752.752,0,1,0-1.5,0v1.765L84.249,32.1a.752.752,0,0,0-1.063,1.063l1.248,1.246H82.669a.752.752,0,1,0,0,1.5Z" transform="translate(-46.718 -12.547)" fill="#fff"/>
      <path id="Path_165320" data-name="Path 165320" d="M26.669,35.914h1.765l-1.246,1.248a.752.752,0,0,0,1.063,1.063L29.5,36.978v1.766a.752.752,0,1,0,1.5,0V36.978l1.248,1.248a.752.752,0,0,0,1.063-1.063l-1.248-1.248h1.765a.752.752,0,1,0,0-1.5H32.065l1.248-1.246A.752.752,0,0,0,32.25,32.1L31,33.347V31.582a.752.752,0,0,0-1.5,0v1.765L28.249,32.1a.752.752,0,0,0-1.063,1.063l1.246,1.246H26.669a.752.752,0,1,0,0,1.5Z" transform="translate(-14.781 -12.547)" fill="#fff"/>
    </g>
  </g>
</svg>
