<svg xmlns="http://www.w3.org/2000/svg" width="295" height="269" viewBox="0 0 295 269">
  <g id="t7-h2" transform="translate(-7115 8234)">
    <rect id="Rectangle_36121" data-name="Rectangle 36121" width="295" height="269" rx="15" transform="translate(7115 -8234)" fill="#e8dbfc"/>
    <path id="Rectangle_36121_-_Outline" data-name="Rectangle 36121 - Outline" d="M15,3A12,12,0,0,0,3,15V254a12,12,0,0,0,12,12H280a12,12,0,0,0,12-12V15A12,12,0,0,0,280,3H15m0-3H280a15,15,0,0,1,15,15V254a15,15,0,0,1-15,15H15A15,15,0,0,1,0,254V15A15,15,0,0,1,15,0Z" transform="translate(7115 -8234)" fill="#8f52f5"/>
    <path id="Feature_One" data-name="Feature One" d="M64.865,16.843a1.549,1.549,0,0,0-.585-1.289,7.277,7.277,0,0,0-2.057-.956,19.736,19.736,0,0,1-2.406-.956q-3.04-1.493-3.04-4.1a3.68,3.68,0,0,1,.757-2.293A4.9,4.9,0,0,1,59.677,5.7a8.34,8.34,0,0,1,3.115-.553,7.3,7.3,0,0,1,3.024.6,4.788,4.788,0,0,1,2.079,1.713A4.474,4.474,0,0,1,68.636,10h-3.76a1.891,1.891,0,0,0-.585-1.482,2.282,2.282,0,0,0-1.584-.526,2.573,2.573,0,0,0-1.6.446,1.313,1.313,0,0,0,.059,2.224,8.128,8.128,0,0,0,2.267,1.01A13.885,13.885,0,0,1,66.1,12.793a4.477,4.477,0,0,1,2.535,4.028,3.819,3.819,0,0,1-1.547,3.223,6.88,6.88,0,0,1-4.243,1.171,8.418,8.418,0,0,1-3.443-.682,5.191,5.191,0,0,1-2.32-1.869A4.87,4.87,0,0,1,56.3,15.93h3.781a2.4,2.4,0,0,0,.65,1.853,3.072,3.072,0,0,0,2.111.6,2.427,2.427,0,0,0,1.477-.4A1.33,1.33,0,0,0,64.865,16.843Zm12.461,2.9a3.732,3.732,0,0,1-3.1,1.472,3.661,3.661,0,0,1-2.9-1.112,4.676,4.676,0,0,1-.983-3.2V9.377h3.62v7.552a1.3,1.3,0,0,0,1.45,1.493,1.892,1.892,0,0,0,1.772-.892V9.377h3.642V21H77.434ZM93.6,15.285a7.084,7.084,0,0,1-1.182,4.394,3.958,3.958,0,0,1-3.33,1.536,3.435,3.435,0,0,1-2.857-1.407L86.081,21H82.837V4.5h3.62v5.812a3.314,3.314,0,0,1,2.61-1.149,3.959,3.959,0,0,1,3.352,1.558A7.121,7.121,0,0,1,93.6,15.1Zm-3.631-.231a4.725,4.725,0,0,0-.446-2.386,1.5,1.5,0,0,0-1.37-.713,1.733,1.733,0,0,0-1.7.933V17.5a1.743,1.743,0,0,0,1.719.922A1.537,1.537,0,0,0,89.8,17.178,8.933,8.933,0,0,0,89.97,15.054Zm10.85,6.16a5.975,5.975,0,0,1-4.329-1.6,5.509,5.509,0,0,1-1.654-4.152v-.3A7.138,7.138,0,0,1,95.5,12.02a4.834,4.834,0,0,1,1.928-2.111,5.821,5.821,0,0,1,3.008-.747,5.031,5.031,0,0,1,3.867,1.52,5.973,5.973,0,0,1,1.418,4.238v1.407h-7.2a2.609,2.609,0,0,0,.849,1.536,2.525,2.525,0,0,0,1.7.559,3.254,3.254,0,0,0,2.686-1.2l1.654,1.955a4.624,4.624,0,0,1-1.917,1.488A6.48,6.48,0,0,1,100.819,21.215Zm-.408-9.26q-1.59,0-1.891,2.105h3.652v-.279a1.793,1.793,0,0,0-.44-1.348A1.753,1.753,0,0,0,100.411,11.955Zm12.848,5.779a.836.836,0,0,0-.483-.741,7.353,7.353,0,0,0-1.837-.58,8.376,8.376,0,0,1-2.234-.79,3.743,3.743,0,0,1-1.343-1.187,2.834,2.834,0,0,1-.462-1.6,3.212,3.212,0,0,1,1.321-2.637,5.443,5.443,0,0,1,3.459-1.037,6.03,6.03,0,0,1,3.7,1.042,3.258,3.258,0,0,1,1.4,2.739h-3.631q0-1.4-1.472-1.4a1.459,1.459,0,0,0-.956.317.981.981,0,0,0-.387.79.9.9,0,0,0,.473.784,4.466,4.466,0,0,0,1.509.494,13.043,13.043,0,0,1,1.821.462q2.621.9,2.621,3.233a3.044,3.044,0,0,1-1.413,2.589,6.2,6.2,0,0,1-3.658,1,6.322,6.322,0,0,1-2.664-.537,4.455,4.455,0,0,1-1.826-1.461,3.308,3.308,0,0,1-.655-1.944h3.384a1.4,1.4,0,0,0,.537,1.176,2.209,2.209,0,0,0,1.321.371,1.738,1.738,0,0,0,1.112-.3A.962.962,0,0,0,113.259,17.734Zm9.4-11.247v2.89h1.912v2.514h-1.912v5.317a1.358,1.358,0,0,0,.236.913,1.268,1.268,0,0,0,.935.258,5.311,5.311,0,0,0,.9-.064V20.9a6.681,6.681,0,0,1-2.041.312,3.792,3.792,0,0,1-2.761-.881,3.61,3.61,0,0,1-.892-2.675V11.891h-1.482V9.377h1.482V6.487ZM132.541,21a4.088,4.088,0,0,1-.344-1.042,3.366,3.366,0,0,1-2.793,1.257,4.124,4.124,0,0,1-2.793-.994,3.163,3.163,0,0,1-1.149-2.5,3.251,3.251,0,0,1,1.4-2.857,7.114,7.114,0,0,1,4.061-.967h1.117v-.615q0-1.608-1.386-1.608a1.133,1.133,0,0,0-1.289,1.274h-3.62a3.245,3.245,0,0,1,1.434-2.736,6.027,6.027,0,0,1,3.658-1.051,5.284,5.284,0,0,1,3.513,1.085,3.772,3.772,0,0,1,1.321,2.976v5.146a5.269,5.269,0,0,0,.494,2.449V21Zm-2.267-2.363a2.019,2.019,0,0,0,1.123-.29,1.818,1.818,0,0,0,.639-.655V15.833h-1.053q-1.891,0-1.891,1.7a1.036,1.036,0,0,0,.333.8A1.205,1.205,0,0,0,130.274,18.637Zm6.939-3.534a7.1,7.1,0,0,1,1.192-4.351,3.925,3.925,0,0,1,3.33-1.59,3.338,3.338,0,0,1,2.621,1.225V4.5h3.631V21h-3.255l-.183-1.246a3.428,3.428,0,0,1-2.836,1.461,3.918,3.918,0,0,1-3.287-1.59A7.325,7.325,0,0,1,137.214,15.1Zm3.62.226q0,3.094,1.8,3.094a1.782,1.782,0,0,0,1.719-1.01V12.986a1.734,1.734,0,0,0-1.7-1.031q-1.676,0-1.815,2.707Zm8.755-.247a6.86,6.86,0,0,1,.677-3.1,4.84,4.84,0,0,1,1.944-2.089,5.856,5.856,0,0,1,2.976-.73,5.344,5.344,0,0,1,4.114,1.617,6.2,6.2,0,0,1,1.5,4.4v.129a6.019,6.019,0,0,1-1.509,4.313,5.359,5.359,0,0,1-4.087,1.6,5.42,5.42,0,0,1-3.985-1.488,5.819,5.819,0,0,1-1.622-4.034Zm3.62.226a4.325,4.325,0,0,0,.5,2.363,1.682,1.682,0,0,0,1.493.752q1.934,0,1.977-2.976v-.365q0-3.126-2-3.126-1.815,0-1.966,2.7ZM32.123,50.422a1.61,1.61,0,0,0,1.182-.414,1.517,1.517,0,0,0,.408-1.155h3.395a4.018,4.018,0,0,1-1.37,3.137,5.1,5.1,0,0,1-3.529,1.225,5.158,5.158,0,0,1-4-1.59,6.264,6.264,0,0,1-1.461-4.4v-.15a7.08,7.08,0,0,1,.65-3.11,4.732,4.732,0,0,1,1.875-2.073,5.589,5.589,0,0,1,2.9-.725,5.03,5.03,0,0,1,3.6,1.257,4.458,4.458,0,0,1,1.332,3.405H33.713a1.987,1.987,0,0,0-.44-1.386,1.52,1.52,0,0,0-1.182-.483q-1.407,0-1.644,1.794a12.658,12.658,0,0,0-.075,1.568,4.972,4.972,0,0,0,.419,2.428A1.45,1.45,0,0,0,32.123,50.422Zm6.059-3.341a6.86,6.86,0,0,1,.677-3.1A4.84,4.84,0,0,1,40.8,41.893a5.856,5.856,0,0,1,2.976-.73,5.344,5.344,0,0,1,4.114,1.617,6.2,6.2,0,0,1,1.5,4.4v.129a6.019,6.019,0,0,1-1.509,4.313,5.359,5.359,0,0,1-4.087,1.6,5.42,5.42,0,0,1-3.985-1.488,5.819,5.819,0,0,1-1.622-4.034Zm3.62.226a4.325,4.325,0,0,0,.5,2.363,1.682,1.682,0,0,0,1.493.752q1.934,0,1.977-2.976v-.365q0-3.126-2-3.126-1.815,0-1.966,2.7Zm12.515-5.93.118,1.364a3.942,3.942,0,0,1,3.319-1.579,3.316,3.316,0,0,1,2.712,1.085,5.165,5.165,0,0,1,.929,3.266V53H57.765V45.663a1.961,1.961,0,0,0-.354-1.294,1.64,1.64,0,0,0-1.289-.414,1.726,1.726,0,0,0-1.579.838V53h-3.62V41.377ZM64.242,53V43.891H62.556V41.377h1.687V40.99a4.438,4.438,0,0,1,1.525-3.556,6.1,6.1,0,0,1,3.964-1.16,14.066,14.066,0,0,1,3.781.623l-.494,2.857-.6-.161a9.572,9.572,0,0,0-2.471-.312q-2.073,0-2.073,1.891v.2H70.15v2.514H67.873V53Zm10.936,0H71.536V41.377h3.642Zm1.751-5.9a7.1,7.1,0,0,1,1.192-4.351,3.925,3.925,0,0,1,3.33-1.59,3.338,3.338,0,0,1,2.621,1.225V36.5H87.7V53H84.448l-.183-1.246a3.428,3.428,0,0,1-2.836,1.461,3.918,3.918,0,0,1-3.287-1.59A7.325,7.325,0,0,1,76.929,47.1Zm3.62.226q0,3.094,1.8,3.094a1.782,1.782,0,0,0,1.719-1.01V44.986a1.734,1.734,0,0,0-1.7-1.031q-1.676,0-1.815,2.707Zm14.835,5.887a5.975,5.975,0,0,1-4.329-1.6A5.509,5.509,0,0,1,89.4,47.468v-.3a7.138,7.138,0,0,1,.661-3.147,4.834,4.834,0,0,1,1.928-2.111A5.821,5.821,0,0,1,95,41.162a5.031,5.031,0,0,1,3.867,1.52,5.973,5.973,0,0,1,1.418,4.238v1.407h-7.2a2.609,2.609,0,0,0,.849,1.536,2.525,2.525,0,0,0,1.7.559,3.254,3.254,0,0,0,2.686-1.2l1.654,1.955a4.624,4.624,0,0,1-1.917,1.488A6.48,6.48,0,0,1,95.384,53.215Zm-.408-9.26q-1.59,0-1.891,2.105h3.652v-.279a1.793,1.793,0,0,0-.44-1.348A1.753,1.753,0,0,0,94.976,43.955Zm10.087-2.578.118,1.364a3.942,3.942,0,0,1,3.319-1.579,3.316,3.316,0,0,1,2.712,1.085,5.165,5.165,0,0,1,.929,3.266V53h-3.631V45.663a1.961,1.961,0,0,0-.354-1.294,1.64,1.64,0,0,0-1.289-.414,1.726,1.726,0,0,0-1.579.838V53h-3.62V41.377Zm14,9.045a1.61,1.61,0,0,0,1.182-.414,1.517,1.517,0,0,0,.408-1.155h3.395a4.018,4.018,0,0,1-1.37,3.137,5.1,5.1,0,0,1-3.529,1.225,5.158,5.158,0,0,1-4-1.59,6.264,6.264,0,0,1-1.461-4.4v-.15a7.08,7.08,0,0,1,.65-3.11,4.732,4.732,0,0,1,1.875-2.073,5.589,5.589,0,0,1,2.9-.725,5.03,5.03,0,0,1,3.6,1.257,4.458,4.458,0,0,1,1.332,3.405h-3.395a1.987,1.987,0,0,0-.44-1.386,1.52,1.52,0,0,0-1.182-.483q-1.407,0-1.644,1.794a12.658,12.658,0,0,0-.075,1.568,4.972,4.972,0,0,0,.419,2.428A1.45,1.45,0,0,0,119.06,50.422ZM129.394,53h-3.631V41.377h3.631Zm-3.846-14.631a1.63,1.63,0,0,1,.559-1.275,2.364,2.364,0,0,1,2.9,0,1.735,1.735,0,0,1,0,2.551,2.364,2.364,0,0,1-2.9,0A1.63,1.63,0,0,1,125.548,38.369ZM138.17,53a4.088,4.088,0,0,1-.344-1.042,3.366,3.366,0,0,1-2.793,1.257,4.124,4.124,0,0,1-2.793-.994,3.163,3.163,0,0,1-1.149-2.5,3.251,3.251,0,0,1,1.4-2.857,7.114,7.114,0,0,1,4.061-.967h1.117v-.615q0-1.608-1.386-1.608a1.133,1.133,0,0,0-1.289,1.274h-3.62a3.245,3.245,0,0,1,1.434-2.736,6.027,6.027,0,0,1,3.658-1.051,5.284,5.284,0,0,1,3.513,1.085,3.772,3.772,0,0,1,1.321,2.976v5.146a5.269,5.269,0,0,0,.494,2.449V53ZM135.9,50.637a2.019,2.019,0,0,0,1.123-.29,1.818,1.818,0,0,0,.639-.655V47.833h-1.053q-1.891,0-1.891,1.7a1.036,1.036,0,0,0,.333.8A1.205,1.205,0,0,0,135.9,50.637ZM147.118,53h-3.631V36.5h3.631Zm6.048,0h-3.631V41.377h3.631ZM149.32,38.369a1.63,1.63,0,0,1,.559-1.275,2.364,2.364,0,0,1,2.9,0,1.735,1.735,0,0,1,0,2.551,2.364,2.364,0,0,1-2.9,0A1.63,1.63,0,0,1,149.32,38.369Zm5.618,8.733a7.1,7.1,0,0,1,1.192-4.351,3.925,3.925,0,0,1,3.33-1.59,3.338,3.338,0,0,1,2.621,1.225V36.5h3.631V53h-3.255l-.183-1.246a3.428,3.428,0,0,1-2.836,1.461,3.918,3.918,0,0,1-3.287-1.59A7.325,7.325,0,0,1,154.938,47.1Zm3.62.226q0,3.094,1.8,3.094a1.782,1.782,0,0,0,1.719-1.01V44.986a1.734,1.734,0,0,0-1.7-1.031q-1.676,0-1.815,2.707ZM174.317,53a4.088,4.088,0,0,1-.344-1.042,3.366,3.366,0,0,1-2.793,1.257,4.124,4.124,0,0,1-2.793-.994,3.163,3.163,0,0,1-1.149-2.5,3.251,3.251,0,0,1,1.4-2.857A7.114,7.114,0,0,1,172.7,45.9h1.117v-.615q0-1.608-1.386-1.608a1.133,1.133,0,0,0-1.289,1.274h-3.62a3.245,3.245,0,0,1,1.434-2.736,6.027,6.027,0,0,1,3.658-1.051,5.284,5.284,0,0,1,3.513,1.085,3.772,3.772,0,0,1,1.321,2.976v5.146a5.269,5.269,0,0,0,.494,2.449V53Zm-2.267-2.363a2.019,2.019,0,0,0,1.123-.29,1.818,1.818,0,0,0,.639-.655V47.833H172.76q-1.891,0-1.891,1.7a1.036,1.036,0,0,0,.333.8A1.205,1.205,0,0,0,172.051,50.637ZM178.99,47.1a7.1,7.1,0,0,1,1.192-4.351,3.925,3.925,0,0,1,3.33-1.59,3.338,3.338,0,0,1,2.621,1.225V36.5h3.631V53H186.51l-.183-1.246a3.428,3.428,0,0,1-2.836,1.461,3.918,3.918,0,0,1-3.287-1.59A7.325,7.325,0,0,1,178.99,47.1Zm3.62.226q0,3.094,1.8,3.094a1.782,1.782,0,0,0,1.719-1.01V44.986a1.734,1.734,0,0,0-1.7-1.031q-1.676,0-1.815,2.707Z" transform="translate(7154 -8064)" fill="#12263f"/>
    <g id="t7-ic6" transform="translate(7213 -8194)">
      <path id="Path_163003" data-name="Path 163003" d="M232,40.258V8h38.71V20.9h12.9V69.29h-12.9V59.613A16.129,16.129,0,1,0,244.9,46.71a16.4,16.4,0,0,0,.323,3.226H244.9a3.2,3.2,0,0,0-2.016.71l-7.178,5.742H232Zm0,0" transform="translate(-185.226 -6.387)" fill="#e6f7fe"/>
      <path id="Path_163004" data-name="Path 163004" d="M436.9,20.9H424V8Zm0,0" transform="translate(-338.517 -6.387)" fill="#bed8fb"/>
      <path id="Path_163005" data-name="Path 163005" d="M328.258,136.129a16.09,16.09,0,0,1-6.452,12.9v-6.452a3.235,3.235,0,0,0-3.226-3.226H296.323a16.4,16.4,0,0,1-.323-3.226,16.129,16.129,0,0,1,32.258,0Zm0,0" transform="translate(-236.323 -95.806)" fill="#b487ff"/>
      <path id="Path_163006" data-name="Path 163006" d="M53.161,168v6.452H14.452v45.161H20.9a6.452,6.452,0,0,1-12.9,0V171.226A3.235,3.235,0,0,1,11.226,168Zm0,0" transform="translate(-6.388 -134.129)" fill="#ffb206"/>
      <path id="Path_163007" data-name="Path 163007" d="M78.71,200v9.677H46.452v35.484H40V200Zm0,0" transform="translate(-31.936 -159.677)" fill="#d3effd"/>
      <path id="Path_163008" data-name="Path 163008" d="M114.194,216H91.613a3.2,3.2,0,0,0-2.016.71l-7.178,5.742H46.452v35.484A6.443,6.443,0,0,1,40,264.387h70.968a6.45,6.45,0,0,0,6.452-6.452v-38.71A3.235,3.235,0,0,0,114.194,216Zm0,0" transform="translate(-31.936 -172.452)" fill="#ffce61"/>
      <path id="Path_163009" data-name="Path 163009" d="M209.806,363.226V372.9a12.9,12.9,0,0,1-25.806,0v-9.677A3.235,3.235,0,0,1,187.226,360h19.355A3.235,3.235,0,0,1,209.806,363.226Zm0,0" transform="translate(-146.904 -287.419)" fill="#fa4d7f"/>
      <path id="Path_163010" data-name="Path 163010" d="M238.452,395.226A3.226,3.226,0,1,1,235.226,392,3.226,3.226,0,0,1,238.452,395.226Zm0,0" transform="translate(-185.226 -312.968)" fill="#e01650"/>
      <path id="Path_163011" data-name="Path 163011" d="M100,13.848,86.151,0H45.161V32.258H4.838A4.845,4.845,0,0,0,0,37.1V85.484a8.074,8.074,0,0,0,8.065,8.065H37.938a14.5,14.5,0,0,0,24.123,0H79.032A8.074,8.074,0,0,0,87.1,85.484V64.516H100ZM87.1,5.507l7.4,7.4H87.1ZM12.9,48.387V83.871H9.677V41.936H45.161v6.452Zm-9.677,37.1V37.1a1.616,1.616,0,0,1,1.613-1.613H45.161V38.71H6.451V87.1h6.155a4.827,4.827,0,0,1-9.381-1.613ZM50,96.774a11.3,11.3,0,0,1-11.29-11.29V75.807a1.615,1.615,0,0,1,1.613-1.613H59.677a1.615,1.615,0,0,1,1.613,1.613v9.677A11.3,11.3,0,0,1,50,96.774Zm8.065-25.806H41.935V66.129a8.065,8.065,0,0,1,16.129,0ZM83.871,85.484a4.845,4.845,0,0,1-4.839,4.839H63.669a14.412,14.412,0,0,0,.847-4.839V75.807a4.832,4.832,0,0,0-3.226-4.542V66.129a11.29,11.29,0,0,0-22.581,0v5.136a4.832,4.832,0,0,0-3.226,4.542v9.677a14.412,14.412,0,0,0,.847,4.839H14.474a7.983,7.983,0,0,0,1.655-4.839V51.613H51.046l7.624-6.1a1.615,1.615,0,0,1,1.006-.354H82.258a1.616,1.616,0,0,1,1.613,1.613ZM61.29,40.323a14.516,14.516,0,1,1,29.032,0A14.385,14.385,0,0,1,87.1,49.443V46.774a4.845,4.845,0,0,0-4.839-4.839H61.385a14.485,14.485,0,0,1-.1-1.613ZM87.1,61.29V53.972a17.578,17.578,0,0,0,6.452-13.65,17.742,17.742,0,1,0-35.384,1.863,4.839,4.839,0,0,0-1.51.81l-6.738,5.392H48.387V3.226H83.871v12.9h12.9V61.29Zm0,0"/>
      <path id="Path_163012" data-name="Path 163012" d="M228.839,384a4.827,4.827,0,0,0-1.613,9.381v6.749h3.226v-6.749A4.827,4.827,0,0,0,228.839,384Zm0,6.452a1.613,1.613,0,1,1,1.613-1.613A1.615,1.615,0,0,1,228.839,390.452Zm0,0" transform="translate(-178.839 -306.581)"/>
      <path id="Path_163013" data-name="Path 163013" d="M304,240h19.355v3.226H304Zm0,0" transform="translate(-242.71 -191.613)"/>
      <path id="Path_163014" data-name="Path 163014" d="M256,32h3.226v3.226H256Zm0,0" transform="translate(-204.387 -25.548)"/>
      <path id="Path_163015" data-name="Path 163015" d="M288,32h22.581v3.226H288Zm0,0" transform="translate(-229.936 -25.548)"/>
      <path id="Path_163016" data-name="Path 163016" d="M256,64h29.032v3.226H256Zm0,0" transform="translate(-204.387 -51.097)"/>
      <path id="Path_163017" data-name="Path 163017" d="M256,96h9.677v3.226H256Zm0,0" transform="translate(-204.387 -76.645)"/>
    </g>
  </g>
</svg>
