<svg xmlns="http://www.w3.org/2000/svg" width="295" height="269" viewBox="0 0 295 269">
  <g id="t7-h4" transform="translate(-7760 8230)">
    <rect id="Rectangle_36123" data-name="Rectangle 36123" width="295" height="269" rx="15" transform="translate(7760 -8230)" fill="#e8dbfc"/>
    <path id="Rectangle_36123_-_Outline" data-name="Rectangle 36123 - Outline" d="M15,3A12,12,0,0,0,3,15V254a12,12,0,0,0,12,12H280a12,12,0,0,0,12-12V15A12,12,0,0,0,280,3H15m0-3H280a15,15,0,0,1,15,15V254a15,15,0,0,1-15,15H15A15,15,0,0,1,0,254V15A15,15,0,0,1,15,0Z" transform="translate(7760 -8230)" fill="#8f52f5"/>
    <path id="Feature_One" data-name="Feature One" d="M59.865,16.843a1.549,1.549,0,0,0-.585-1.289,7.277,7.277,0,0,0-2.057-.956,19.736,19.736,0,0,1-2.406-.956q-3.04-1.493-3.04-4.1a3.68,3.68,0,0,1,.757-2.293A4.9,4.9,0,0,1,54.677,5.7a8.34,8.34,0,0,1,3.115-.553,7.3,7.3,0,0,1,3.024.6,4.788,4.788,0,0,1,2.079,1.713A4.474,4.474,0,0,1,63.636,10h-3.76a1.891,1.891,0,0,0-.585-1.482,2.282,2.282,0,0,0-1.584-.526,2.573,2.573,0,0,0-1.6.446,1.313,1.313,0,0,0,.059,2.224,8.128,8.128,0,0,0,2.267,1.01A13.885,13.885,0,0,1,61.1,12.793a4.477,4.477,0,0,1,2.535,4.028,3.819,3.819,0,0,1-1.547,3.223,6.88,6.88,0,0,1-4.243,1.171,8.418,8.418,0,0,1-3.443-.682,5.191,5.191,0,0,1-2.32-1.869A4.87,4.87,0,0,1,51.3,15.93h3.781a2.4,2.4,0,0,0,.65,1.853,3.072,3.072,0,0,0,2.111.6,2.427,2.427,0,0,0,1.477-.4A1.33,1.33,0,0,0,59.865,16.843Zm12.461,2.9a3.732,3.732,0,0,1-3.1,1.472,3.661,3.661,0,0,1-2.9-1.112,4.676,4.676,0,0,1-.983-3.2V9.377h3.62v7.552a1.3,1.3,0,0,0,1.45,1.493,1.892,1.892,0,0,0,1.772-.892V9.377h3.642V21H72.434ZM88.6,15.285a7.084,7.084,0,0,1-1.182,4.394,3.958,3.958,0,0,1-3.33,1.536,3.435,3.435,0,0,1-2.857-1.407L81.081,21H77.837V4.5h3.62v5.812a3.314,3.314,0,0,1,2.61-1.149,3.959,3.959,0,0,1,3.352,1.558A7.121,7.121,0,0,1,88.6,15.1Zm-3.631-.231a4.725,4.725,0,0,0-.446-2.386,1.5,1.5,0,0,0-1.37-.713,1.733,1.733,0,0,0-1.7.933V17.5a1.743,1.743,0,0,0,1.719.922A1.537,1.537,0,0,0,84.8,17.178,8.933,8.933,0,0,0,84.97,15.054Zm10.85,6.16a5.975,5.975,0,0,1-4.329-1.6,5.509,5.509,0,0,1-1.654-4.152v-.3A7.138,7.138,0,0,1,90.5,12.02a4.834,4.834,0,0,1,1.928-2.111,5.821,5.821,0,0,1,3.008-.747,5.031,5.031,0,0,1,3.867,1.52,5.973,5.973,0,0,1,1.418,4.238v1.407h-7.2a2.609,2.609,0,0,0,.849,1.536,2.525,2.525,0,0,0,1.7.559,3.254,3.254,0,0,0,2.686-1.2l1.654,1.955a4.624,4.624,0,0,1-1.917,1.488A6.48,6.48,0,0,1,95.819,21.215Zm-.408-9.26q-1.59,0-1.891,2.105h3.652v-.279a1.793,1.793,0,0,0-.44-1.348A1.753,1.753,0,0,0,95.411,11.955Zm12.848,5.779a.836.836,0,0,0-.483-.741,7.353,7.353,0,0,0-1.837-.58,8.376,8.376,0,0,1-2.234-.79,3.743,3.743,0,0,1-1.343-1.187,2.834,2.834,0,0,1-.462-1.6,3.212,3.212,0,0,1,1.321-2.637,5.443,5.443,0,0,1,3.459-1.037,6.03,6.03,0,0,1,3.7,1.042,3.258,3.258,0,0,1,1.4,2.739h-3.631q0-1.4-1.472-1.4a1.459,1.459,0,0,0-.956.317.981.981,0,0,0-.387.79.9.9,0,0,0,.473.784,4.466,4.466,0,0,0,1.509.494,13.043,13.043,0,0,1,1.821.462q2.621.9,2.621,3.233a3.044,3.044,0,0,1-1.413,2.589,6.2,6.2,0,0,1-3.658,1,6.322,6.322,0,0,1-2.664-.537,4.455,4.455,0,0,1-1.826-1.461,3.308,3.308,0,0,1-.655-1.944h3.384a1.4,1.4,0,0,0,.537,1.176,2.209,2.209,0,0,0,1.321.371,1.738,1.738,0,0,0,1.112-.3A.962.962,0,0,0,108.259,17.734Zm9.4-11.247v2.89h1.912v2.514h-1.912v5.317a1.358,1.358,0,0,0,.236.913,1.268,1.268,0,0,0,.935.258,5.311,5.311,0,0,0,.9-.064V20.9a6.681,6.681,0,0,1-2.041.312,3.792,3.792,0,0,1-2.761-.881,3.61,3.61,0,0,1-.892-2.675V11.891h-1.482V9.377h1.482V6.487ZM127.541,21a4.087,4.087,0,0,1-.344-1.042,3.366,3.366,0,0,1-2.793,1.257,4.124,4.124,0,0,1-2.793-.994,3.163,3.163,0,0,1-1.149-2.5,3.251,3.251,0,0,1,1.4-2.857,7.114,7.114,0,0,1,4.061-.967h1.117v-.615q0-1.608-1.386-1.608a1.133,1.133,0,0,0-1.289,1.274h-3.62a3.245,3.245,0,0,1,1.434-2.736,6.027,6.027,0,0,1,3.658-1.051,5.284,5.284,0,0,1,3.513,1.085,3.772,3.772,0,0,1,1.321,2.976v5.146a5.269,5.269,0,0,0,.494,2.449V21Zm-2.267-2.363a2.019,2.019,0,0,0,1.123-.29,1.818,1.818,0,0,0,.639-.655V15.833h-1.053q-1.891,0-1.891,1.7a1.036,1.036,0,0,0,.333.8A1.205,1.205,0,0,0,125.274,18.637Zm6.939-3.534a7.1,7.1,0,0,1,1.192-4.351,3.925,3.925,0,0,1,3.33-1.59,3.338,3.338,0,0,1,2.621,1.225V4.5h3.631V21h-3.255l-.183-1.246a3.428,3.428,0,0,1-2.836,1.461,3.918,3.918,0,0,1-3.287-1.59A7.325,7.325,0,0,1,132.214,15.1Zm3.62.226q0,3.094,1.8,3.094a1.782,1.782,0,0,0,1.719-1.01V12.986a1.734,1.734,0,0,0-1.7-1.031q-1.676,0-1.815,2.707Zm8.755-.247a6.86,6.86,0,0,1,.677-3.1,4.84,4.84,0,0,1,1.944-2.089,5.856,5.856,0,0,1,2.976-.73,5.344,5.344,0,0,1,4.114,1.617,6.2,6.2,0,0,1,1.5,4.4v.129a6.019,6.019,0,0,1-1.509,4.313,5.359,5.359,0,0,1-4.087,1.6,5.42,5.42,0,0,1-3.985-1.488,5.819,5.819,0,0,1-1.622-4.034Zm3.62.226a4.325,4.325,0,0,0,.5,2.363,1.682,1.682,0,0,0,1.493.752q1.934,0,1.977-2.976v-.365q0-3.126-2-3.126-1.815,0-1.966,2.7ZM34.138,47.1a7.1,7.1,0,0,1,1.192-4.351,3.925,3.925,0,0,1,3.33-1.59,3.338,3.338,0,0,1,2.621,1.225V36.5h3.631V53H41.657l-.183-1.246a3.428,3.428,0,0,1-2.836,1.461,3.918,3.918,0,0,1-3.287-1.59A7.325,7.325,0,0,1,34.138,47.1Zm3.62.226q0,3.094,1.8,3.094a1.782,1.782,0,0,0,1.719-1.01V44.986a1.734,1.734,0,0,0-1.7-1.031q-1.676,0-1.815,2.707ZM50.788,53H47.157V41.377h3.631ZM46.942,38.369a1.63,1.63,0,0,1,.559-1.275,2.364,2.364,0,0,1,2.9,0,1.735,1.735,0,0,1,0,2.551,2.364,2.364,0,0,1-2.9,0A1.63,1.63,0,0,1,46.942,38.369ZM59.1,49.734a.836.836,0,0,0-.483-.741,7.353,7.353,0,0,0-1.837-.58,8.376,8.376,0,0,1-2.234-.79,3.743,3.743,0,0,1-1.343-1.187,2.835,2.835,0,0,1-.462-1.6A3.212,3.212,0,0,1,54.064,42.2a5.443,5.443,0,0,1,3.459-1.037,6.03,6.03,0,0,1,3.7,1.042,3.258,3.258,0,0,1,1.4,2.739H58.984q0-1.4-1.472-1.4a1.459,1.459,0,0,0-.956.317.981.981,0,0,0-.387.79.9.9,0,0,0,.473.784,4.466,4.466,0,0,0,1.509.494,13.043,13.043,0,0,1,1.821.462q2.621.9,2.621,3.233a3.044,3.044,0,0,1-1.413,2.589,6.2,6.2,0,0,1-3.658,1,6.322,6.322,0,0,1-2.664-.537,4.455,4.455,0,0,1-1.826-1.461,3.308,3.308,0,0,1-.655-1.944h3.384a1.4,1.4,0,0,0,.537,1.176,2.209,2.209,0,0,0,1.321.371,1.738,1.738,0,0,0,1.112-.3A.962.962,0,0,0,59.1,49.734Zm15.974-2.46A7.009,7.009,0,0,1,73.857,51.6a3.909,3.909,0,0,1-3.292,1.617,3.351,3.351,0,0,1-2.632-1.171v5.425h-3.62V41.377H67.7l.107,1.074a3.351,3.351,0,0,1,2.739-1.289,3.941,3.941,0,0,1,3.341,1.584A7.1,7.1,0,0,1,75.076,47.1Zm-3.62-.226q0-3.094-1.8-3.094a1.7,1.7,0,0,0-1.719.924v4.576a1.759,1.759,0,0,0,1.74.967q1.729,0,1.783-2.986Zm4.759.032a6.86,6.86,0,0,1,.677-3.1,4.84,4.84,0,0,1,1.944-2.089,5.856,5.856,0,0,1,2.976-.73,5.344,5.344,0,0,1,4.114,1.617,6.2,6.2,0,0,1,1.5,4.4v.129A6.019,6.019,0,0,1,85.92,51.62a5.359,5.359,0,0,1-4.087,1.6,5.42,5.42,0,0,1-3.985-1.488,5.819,5.819,0,0,1-1.622-4.034Zm3.62.226a4.325,4.325,0,0,0,.5,2.363,1.682,1.682,0,0,0,1.493.752q1.934,0,1.977-2.976v-.365q0-3.126-2-3.126-1.815,0-1.966,2.7Zm12.515-5.93.118,1.364a3.942,3.942,0,0,1,3.319-1.579A3.316,3.316,0,0,1,98.5,42.247a5.165,5.165,0,0,1,.929,3.266V53H95.8V45.663a1.961,1.961,0,0,0-.354-1.294,1.64,1.64,0,0,0-1.289-.414,1.726,1.726,0,0,0-1.579.838V53h-3.62V41.377ZM105.251,53H101.62V41.377h3.631Zm-3.846-14.631a1.63,1.63,0,0,1,.559-1.275,2.364,2.364,0,0,1,2.9,0,1.735,1.735,0,0,1,0,2.551,2.364,2.364,0,0,1-2.9,0A1.63,1.63,0,0,1,101.405,38.369Zm16.865,8.916a7.084,7.084,0,0,1-1.182,4.394,3.958,3.958,0,0,1-3.33,1.536,3.435,3.435,0,0,1-2.857-1.407L110.751,53h-3.244V36.5h3.62v5.812a3.314,3.314,0,0,1,2.61-1.149,3.959,3.959,0,0,1,3.352,1.558,7.121,7.121,0,0,1,1.182,4.383Zm-3.631-.231a4.725,4.725,0,0,0-.446-2.386,1.5,1.5,0,0,0-1.37-.713,1.733,1.733,0,0,0-1.7.933V49.5a1.743,1.743,0,0,0,1.719.922,1.537,1.537,0,0,0,1.622-1.244A8.933,8.933,0,0,0,114.64,47.054ZM123.685,53h-3.631V41.377h3.631Zm-3.846-14.631a1.63,1.63,0,0,1,.559-1.275,2.364,2.364,0,0,1,2.9,0,1.735,1.735,0,0,1,0,2.551,2.364,2.364,0,0,1-2.9,0A1.63,1.63,0,0,1,119.839,38.369ZM129.732,53H126.1V36.5h3.631Zm6.048,0h-3.631V41.377h3.631Zm-3.846-14.631a1.63,1.63,0,0,1,.559-1.275,2.364,2.364,0,0,1,2.9,0,1.735,1.735,0,0,1,0,2.551,2.364,2.364,0,0,1-2.9,0A1.63,1.63,0,0,1,131.935,38.369Zm5.618,8.733a7.1,7.1,0,0,1,1.192-4.351,3.925,3.925,0,0,1,3.33-1.59,3.338,3.338,0,0,1,2.621,1.225V36.5h3.631V53h-3.255l-.183-1.246a3.428,3.428,0,0,1-2.836,1.461,3.918,3.918,0,0,1-3.287-1.59A7.325,7.325,0,0,1,137.553,47.1Zm3.62.226q0,3.094,1.8,3.094a1.782,1.782,0,0,0,1.719-1.01V44.986a1.734,1.734,0,0,0-1.7-1.031q-1.676,0-1.815,2.707ZM156.932,53a4.088,4.088,0,0,1-.344-1.042,3.366,3.366,0,0,1-2.793,1.257A4.124,4.124,0,0,1,151,52.221a3.163,3.163,0,0,1-1.149-2.5,3.251,3.251,0,0,1,1.4-2.857,7.114,7.114,0,0,1,4.061-.967h1.117v-.615q0-1.608-1.386-1.608a1.133,1.133,0,0,0-1.289,1.274h-3.62a3.245,3.245,0,0,1,1.434-2.736,6.027,6.027,0,0,1,3.658-1.051,5.284,5.284,0,0,1,3.513,1.085,3.772,3.772,0,0,1,1.321,2.976v5.146a5.269,5.269,0,0,0,.494,2.449V53Zm-2.267-2.363a2.019,2.019,0,0,0,1.123-.29,1.818,1.818,0,0,0,.639-.655V47.833h-1.053q-1.891,0-1.891,1.7a1.036,1.036,0,0,0,.333.8A1.205,1.205,0,0,0,154.665,50.637ZM161.6,47.1a7.1,7.1,0,0,1,1.192-4.351,3.925,3.925,0,0,1,3.33-1.59,3.338,3.338,0,0,1,2.621,1.225V36.5h3.631V53h-3.255l-.183-1.246a3.428,3.428,0,0,1-2.836,1.461,3.918,3.918,0,0,1-3.287-1.59A7.325,7.325,0,0,1,161.6,47.1Zm3.62.226q0,3.094,1.8,3.094a1.782,1.782,0,0,0,1.719-1.01V44.986a1.734,1.734,0,0,0-1.7-1.031q-1.676,0-1.815,2.707Z" transform="translate(7804 -8060)" fill="#12263f"/>
    <g id="t7-ic8" transform="translate(7858 -8190)">
      <g id="XMLID_1256_" transform="translate(1.953 1.953)">
        <g id="XMLID_1294_" transform="translate(0 5.469)">
          <path id="XMLID_1571_" d="M64.434,38H13.906A3.906,3.906,0,0,0,10,41.906v75a3.906,3.906,0,0,0,3.906,3.906h3.467Z" transform="translate(-10 -38)" fill="#ffb206"/>
          <path id="XMLID_1305_" d="M70.313,78h41.016a5.859,5.859,0,0,1,5.859,5.859v71.094a5.859,5.859,0,0,1-5.859,5.859H55.859A5.859,5.859,0,0,1,50,154.953V98.313Z" transform="translate(-42.188 -70.188)" fill="#fff"/>
          <path id="XMLID_1304_" d="M50,98.313H66.406a3.906,3.906,0,0,0,3.906-3.906V78Z" transform="translate(-42.188 -70.188)" fill="#bed8fb"/>
        </g>
        <g id="XMLID_1337_" transform="translate(44.531)">
          <path id="XMLID_2240_" d="M25.781,0A25.781,25.781,0,1,1,0,25.781,25.781,25.781,0,0,1,25.781,0Z" fill="#c7acf5"/>
        </g>
      </g>
      <g id="XMLID_382_">
        <g id="XMLID_383_">
          <path id="XMLID_398_" d="M119.482,247.906H141.9a1.953,1.953,0,0,0,0-3.906H119.482a1.953,1.953,0,0,0,0,3.906Z" transform="translate(-94.574 -196.344)"/>
          <path id="XMLID_397_" d="M156.385,316h-36.9a1.953,1.953,0,0,0,0,3.906h36.9a1.953,1.953,0,0,0,0-3.906Z" transform="translate(-94.574 -254.281)"/>
          <path id="XMLID_396_" d="M188.951,388h-29a1.953,1.953,0,0,0,0,3.906h29a1.953,1.953,0,0,0,0-3.906Z" transform="translate(-127.141 -312.219)"/>
          <path id="XMLID_395_" d="M384.572,304.572a1.952,1.952,0,1,0,1.381-.572A1.968,1.968,0,0,0,384.572,304.572Z" transform="translate(-309 -244.625)"/>
          <path id="XMLID_390_" d="M72.266,0A27.589,27.589,0,0,0,55.748,5.469H5.859A5.866,5.866,0,0,0,0,11.328v75a5.866,5.866,0,0,0,5.859,5.859H7.813A7.821,7.821,0,0,0,15.625,100H71.094a7.821,7.821,0,0,0,7.813-7.812V69.141a1.953,1.953,0,0,0-3.906,0V92.188a3.911,3.911,0,0,1-3.906,3.906H15.625a3.911,3.911,0,0,1-3.906-3.906V37.5H26.172a5.866,5.866,0,0,0,5.859-5.859V17.188H46.617a27.736,27.736,0,0,0-1.46,16.406H37.565a1.953,1.953,0,0,0,0,3.906h8.743A27.734,27.734,0,1,0,72.266,0ZM28.125,31.641a1.955,1.955,0,0,1-1.953,1.953H14.481L28.125,19.95Zm1.953-18.359a1.947,1.947,0,0,0-1.38.571h0L8.385,34.166v0a1.947,1.947,0,0,0-.571,1.379V88.281H5.859a1.955,1.955,0,0,1-1.953-1.953v-75A1.955,1.955,0,0,1,5.859,9.375H51.5A27.9,27.9,0,0,0,48.6,13.281ZM72.266,51.563A23.828,23.828,0,1,1,96.094,27.734,23.855,23.855,0,0,1,72.266,51.563Z"/>
          <path id="XMLID_389_" d="M448.5,132.106h-1.575a1.953,1.953,0,0,0,0,3.906H448.5a1.953,1.953,0,0,0,0-3.906Z" transform="translate(-358.066 -106.304)"/>
          <path id="XMLID_388_" d="M270.49,131.894h-1.575a1.953,1.953,0,0,0,0,3.906h1.575a1.953,1.953,0,0,0,0-3.906Z" transform="translate(-214.821 -106.133)"/>
          <path id="XMLID_387_" d="M362.059,44.444a1.953,1.953,0,0,0,1.953-1.953V40.916a1.953,1.953,0,0,0-3.906,0v1.574A1.953,1.953,0,0,0,362.059,44.444Z" transform="translate(-289.773 -31.353)"/>
          <path id="XMLID_386_" d="M361.847,216.976a1.953,1.953,0,0,0-1.953,1.953V220.5a1.953,1.953,0,0,0,3.906,0v-1.574A1.953,1.953,0,0,0,361.847,216.976Z" transform="translate(-289.602 -174.598)"/>
          <path id="XMLID_385_" d="M325.874,79.71a1.953,1.953,0,0,0,2.759,0l13.5-13.5a1.953,1.953,0,0,0-2.762-2.762L327.252,75.563l-7.041-7.041a1.953,1.953,0,0,0-2.762,2.762l8.4,8.4Z" transform="translate(-254.986 -50.591)"/>
          <path id="XMLID_384_" d="M118.572,388.572a1.952,1.952,0,1,0,1.381-.572A1.968,1.968,0,0,0,118.572,388.572Z" transform="translate(-94.953 -312.219)"/>
        </g>
      </g>
    </g>
  </g>
</svg>
