<svg id="t7-ic8" xmlns="http://www.w3.org/2000/svg" width="100" height="100" viewBox="0 0 100 100">
  <g id="XMLID_1256_" transform="translate(1.953 1.953)">
    <g id="XMLID_1294_" transform="translate(0 5.469)">
      <path id="XMLID_1571_" d="M64.434,38H13.906A3.906,3.906,0,0,0,10,41.906v75a3.906,3.906,0,0,0,3.906,3.906h3.467Z" transform="translate(-10 -38)" fill="#ffb206"/>
      <path id="XMLID_1305_" d="M70.313,78h41.016a5.859,5.859,0,0,1,5.859,5.859v71.094a5.859,5.859,0,0,1-5.859,5.859H55.859A5.859,5.859,0,0,1,50,154.953V98.313Z" transform="translate(-42.188 -70.188)" fill="#fff"/>
      <path id="XMLID_1304_" d="M50,98.313H66.406a3.906,3.906,0,0,0,3.906-3.906V78Z" transform="translate(-42.188 -70.188)" fill="#bed8fb"/>
    </g>
    <g id="XMLID_1337_" transform="translate(44.531)">
      <path id="XMLID_2240_" d="M25.781,0A25.781,25.781,0,1,1,0,25.781,25.781,25.781,0,0,1,25.781,0Z" fill="#c7acf5"/>
    </g>
  </g>
  <g id="XMLID_382_">
    <g id="XMLID_383_">
      <path id="XMLID_398_" d="M119.482,247.906H141.9a1.953,1.953,0,0,0,0-3.906H119.482a1.953,1.953,0,0,0,0,3.906Z" transform="translate(-94.574 -196.344)"/>
      <path id="XMLID_397_" d="M156.385,316h-36.9a1.953,1.953,0,0,0,0,3.906h36.9a1.953,1.953,0,0,0,0-3.906Z" transform="translate(-94.574 -254.281)"/>
      <path id="XMLID_396_" d="M188.951,388h-29a1.953,1.953,0,0,0,0,3.906h29a1.953,1.953,0,0,0,0-3.906Z" transform="translate(-127.141 -312.219)"/>
      <path id="XMLID_395_" d="M384.572,304.572a1.952,1.952,0,1,0,1.381-.572A1.968,1.968,0,0,0,384.572,304.572Z" transform="translate(-309 -244.625)"/>
      <path id="XMLID_390_" d="M72.266,0A27.589,27.589,0,0,0,55.748,5.469H5.859A5.866,5.866,0,0,0,0,11.328v75a5.866,5.866,0,0,0,5.859,5.859H7.813A7.821,7.821,0,0,0,15.625,100H71.094a7.821,7.821,0,0,0,7.813-7.812V69.141a1.953,1.953,0,0,0-3.906,0V92.188a3.911,3.911,0,0,1-3.906,3.906H15.625a3.911,3.911,0,0,1-3.906-3.906V37.5H26.172a5.866,5.866,0,0,0,5.859-5.859V17.188H46.617a27.736,27.736,0,0,0-1.46,16.406H37.565a1.953,1.953,0,0,0,0,3.906h8.743A27.734,27.734,0,1,0,72.266,0ZM28.125,31.641a1.955,1.955,0,0,1-1.953,1.953H14.481L28.125,19.95Zm1.953-18.359a1.947,1.947,0,0,0-1.38.571h0L8.385,34.166v0a1.947,1.947,0,0,0-.571,1.379V88.281H5.859a1.955,1.955,0,0,1-1.953-1.953v-75A1.955,1.955,0,0,1,5.859,9.375H51.5A27.9,27.9,0,0,0,48.6,13.281ZM72.266,51.563A23.828,23.828,0,1,1,96.094,27.734,23.855,23.855,0,0,1,72.266,51.563Z"/>
      <path id="XMLID_389_" d="M448.5,132.106h-1.575a1.953,1.953,0,0,0,0,3.906H448.5a1.953,1.953,0,0,0,0-3.906Z" transform="translate(-358.066 -106.304)"/>
      <path id="XMLID_388_" d="M270.49,131.894h-1.575a1.953,1.953,0,0,0,0,3.906h1.575a1.953,1.953,0,0,0,0-3.906Z" transform="translate(-214.821 -106.133)"/>
      <path id="XMLID_387_" d="M362.059,44.444a1.953,1.953,0,0,0,1.953-1.953V40.916a1.953,1.953,0,0,0-3.906,0v1.574A1.953,1.953,0,0,0,362.059,44.444Z" transform="translate(-289.773 -31.353)"/>
      <path id="XMLID_386_" d="M361.847,216.976a1.953,1.953,0,0,0-1.953,1.953V220.5a1.953,1.953,0,0,0,3.906,0v-1.574A1.953,1.953,0,0,0,361.847,216.976Z" transform="translate(-289.602 -174.598)"/>
      <path id="XMLID_385_" d="M325.874,79.71a1.953,1.953,0,0,0,2.759,0l13.5-13.5a1.953,1.953,0,0,0-2.762-2.762L327.252,75.563l-7.041-7.041a1.953,1.953,0,0,0-2.762,2.762l8.4,8.4Z" transform="translate(-254.986 -50.591)"/>
      <path id="XMLID_384_" d="M118.572,388.572a1.952,1.952,0,1,0,1.381-.572A1.968,1.968,0,0,0,118.572,388.572Z" transform="translate(-94.953 -312.219)"/>
    </g>
  </g>
</svg>
