<svg xmlns="http://www.w3.org/2000/svg" width="100" height="100" viewBox="0 0 100 100">
  <g id="t7-ic6" transform="translate(0)">
    <path id="Path_163003" data-name="Path 163003" d="M232,40.258V8h38.71V20.9h12.9V69.29h-12.9V59.613A16.129,16.129,0,1,0,244.9,46.71a16.4,16.4,0,0,0,.323,3.226H244.9a3.2,3.2,0,0,0-2.016.71l-7.178,5.742H232Zm0,0" transform="translate(-185.226 -6.387)" fill="#e6f7fe"/>
    <path id="Path_163004" data-name="Path 163004" d="M436.9,20.9H424V8Zm0,0" transform="translate(-338.517 -6.387)" fill="#bed8fb"/>
    <path id="Path_163005" data-name="Path 163005" d="M328.258,136.129a16.09,16.09,0,0,1-6.452,12.9v-6.452a3.235,3.235,0,0,0-3.226-3.226H296.323a16.4,16.4,0,0,1-.323-3.226,16.129,16.129,0,0,1,32.258,0Zm0,0" transform="translate(-236.323 -95.806)" fill="#b487ff"/>
    <path id="Path_163006" data-name="Path 163006" d="M53.161,168v6.452H14.452v45.161H20.9a6.452,6.452,0,0,1-12.9,0V171.226A3.235,3.235,0,0,1,11.226,168Zm0,0" transform="translate(-6.388 -134.129)" fill="#ffb206"/>
    <path id="Path_163007" data-name="Path 163007" d="M78.71,200v9.677H46.452v35.484H40V200Zm0,0" transform="translate(-31.936 -159.677)" fill="#d3effd"/>
    <path id="Path_163008" data-name="Path 163008" d="M114.194,216H91.613a3.2,3.2,0,0,0-2.016.71l-7.178,5.742H46.452v35.484A6.443,6.443,0,0,1,40,264.387h70.968a6.45,6.45,0,0,0,6.452-6.452v-38.71A3.235,3.235,0,0,0,114.194,216Zm0,0" transform="translate(-31.936 -172.452)" fill="#ffce61"/>
    <path id="Path_163009" data-name="Path 163009" d="M209.806,363.226V372.9a12.9,12.9,0,0,1-25.806,0v-9.677A3.235,3.235,0,0,1,187.226,360h19.355A3.235,3.235,0,0,1,209.806,363.226Zm0,0" transform="translate(-146.904 -287.419)" fill="#fa4d7f"/>
    <path id="Path_163010" data-name="Path 163010" d="M238.452,395.226A3.226,3.226,0,1,1,235.226,392,3.226,3.226,0,0,1,238.452,395.226Zm0,0" transform="translate(-185.226 -312.968)" fill="#e01650"/>
    <path id="Path_163011" data-name="Path 163011" d="M100,13.848,86.151,0H45.161V32.258H4.838A4.845,4.845,0,0,0,0,37.1V85.484a8.074,8.074,0,0,0,8.065,8.065H37.938a14.5,14.5,0,0,0,24.123,0H79.032A8.074,8.074,0,0,0,87.1,85.484V64.516H100ZM87.1,5.507l7.4,7.4H87.1ZM12.9,48.387V83.871H9.677V41.936H45.161v6.452Zm-9.677,37.1V37.1a1.616,1.616,0,0,1,1.613-1.613H45.161V38.71H6.451V87.1h6.155a4.827,4.827,0,0,1-9.381-1.613ZM50,96.774a11.3,11.3,0,0,1-11.29-11.29V75.807a1.615,1.615,0,0,1,1.613-1.613H59.677a1.615,1.615,0,0,1,1.613,1.613v9.677A11.3,11.3,0,0,1,50,96.774Zm8.065-25.806H41.935V66.129a8.065,8.065,0,0,1,16.129,0ZM83.871,85.484a4.845,4.845,0,0,1-4.839,4.839H63.669a14.412,14.412,0,0,0,.847-4.839V75.807a4.832,4.832,0,0,0-3.226-4.542V66.129a11.29,11.29,0,0,0-22.581,0v5.136a4.832,4.832,0,0,0-3.226,4.542v9.677a14.412,14.412,0,0,0,.847,4.839H14.474a7.983,7.983,0,0,0,1.655-4.839V51.613H51.046l7.624-6.1a1.615,1.615,0,0,1,1.006-.354H82.258a1.616,1.616,0,0,1,1.613,1.613ZM61.29,40.323a14.516,14.516,0,1,1,29.032,0A14.385,14.385,0,0,1,87.1,49.443V46.774a4.845,4.845,0,0,0-4.839-4.839H61.385a14.485,14.485,0,0,1-.1-1.613ZM87.1,61.29V53.972a17.578,17.578,0,0,0,6.452-13.65,17.742,17.742,0,1,0-35.384,1.863,4.839,4.839,0,0,0-1.51.81l-6.738,5.392H48.387V3.226H83.871v12.9h12.9V61.29Zm0,0"/>
    <path id="Path_163012" data-name="Path 163012" d="M228.839,384a4.827,4.827,0,0,0-1.613,9.381v6.749h3.226v-6.749A4.827,4.827,0,0,0,228.839,384Zm0,6.452a1.613,1.613,0,1,1,1.613-1.613A1.615,1.615,0,0,1,228.839,390.452Zm0,0" transform="translate(-178.839 -306.581)"/>
    <path id="Path_163013" data-name="Path 163013" d="M304,240h19.355v3.226H304Zm0,0" transform="translate(-242.71 -191.613)"/>
    <path id="Path_163014" data-name="Path 163014" d="M256,32h3.226v3.226H256Zm0,0" transform="translate(-204.387 -25.548)"/>
    <path id="Path_163015" data-name="Path 163015" d="M288,32h22.581v3.226H288Zm0,0" transform="translate(-229.936 -25.548)"/>
    <path id="Path_163016" data-name="Path 163016" d="M256,64h29.032v3.226H256Zm0,0" transform="translate(-204.387 -51.097)"/>
    <path id="Path_163017" data-name="Path 163017" d="M256,96h9.677v3.226H256Zm0,0" transform="translate(-204.387 -76.645)"/>
  </g>
</svg>
