<svg id="t7-ic5" xmlns="http://www.w3.org/2000/svg" width="101.414" height="100" viewBox="0 0 101.414 100">
  <path id="Path_163107" data-name="Path 163107" d="M46.03,104.02l16.86-11.235a47.539,47.539,0,0,0,21.17-39.567V27.959L46.03,8.944,8,27.959V53.218A47.539,47.539,0,0,0,29.17,92.785Zm0,0" transform="translate(-6.416 -7.173)" fill="#8f52f5"/>
  <path id="Path_163108" data-name="Path 163108" d="M58.347,116.2A41.141,41.141,0,0,1,40,81.907V60.565L71.692,44.719l31.692,15.846V81.907a41.146,41.146,0,0,1-18.35,34.3l-13.342,8.889Zm0,0" transform="translate(-32.077 -35.861)" fill="#b893f5"/>
  <path id="Path_163109" data-name="Path 163109" d="M122.745,262.032l-12.637-3.169H97.431l-12.637,3.169A6.338,6.338,0,0,0,80,268.179v9.744a41.241,41.241,0,0,0,10.424,10l13.345,8.892,13.342-8.889a41.213,41.213,0,0,0,10.427-10.007v-9.744A6.337,6.337,0,0,0,122.745,262.032Zm0,0" transform="translate(-64.154 -207.589)" fill="#ff366f"/>
  <path id="Path_163110" data-name="Path 163110" d="M168,232.945v6.338a6.338,6.338,0,1,0,12.677,0v-6.338Zm0,0" transform="translate(-134.724 -186.805)" fill="#ffdecf"/>
  <path id="Path_163111" data-name="Path 163111" d="M171.015,144.945v15.846l-6.338,4.754h-6.338L152,160.791V144.945Zm0,0" transform="translate(-121.893 -116.235)" fill="#ffdecf"/>
  <path id="Path_163112" data-name="Path 163112" d="M155.015,116.007h-1.585C152.321,114.422,136,112.44,136,123.93h9.134a15.006,15.006,0,0,0,6.712-1.585h1.585l4.754,6.338v-9.508A3.169,3.169,0,0,0,155.015,116.007Zm0,0" transform="translate(-109.062 -92.051)" fill="#50575e"/>
  <path id="Path_163113" data-name="Path 163113" d="M298.707,266.3a25.354,25.354,0,1,1-25.354-25.354A25.354,25.354,0,0,1,298.707,266.3Zm0,0" transform="translate(-198.878 -193.22)" fill="#ffc33d"/>
  <path id="Path_163114" data-name="Path 163114" d="M312.332,295.406l-15.687,15.687-5.6-5.6-6.722,6.722,5.6,5.6,5.6,5.6,1.12,1.12,22.41-22.41Zm0,0" transform="translate(-228.004 -236.894)" fill="#fff"/>
  <path id="Path_163115" data-name="Path 163115" d="M79.22,46.585c0-.18.009-26.779.009-26.779L39.615,0,0,19.807V46.045A49.053,49.053,0,0,0,21.875,86.927L39.615,98.748l13.666-9.1A26.916,26.916,0,1,0,79.22,46.584ZM39.615,94.946,23.634,84.294A45.885,45.885,0,0,1,3.169,46.045V21.765L39.615,3.543,76.061,21.765V46.221c-.526-.032-1.048-.08-1.585-.08s-1.06.049-1.585.08V23.72L39.615,7.083,6.338,23.721V46.045A42.734,42.734,0,0,0,25.393,81.653l14.222,9.476,10.366-6.907a26.853,26.853,0,0,0,1.5,2.815ZM48.8,81.206l-9.181,6.116-12.462-8.3c-.615-.411-1.211-.842-1.8-1.284V63.571H22.184v11.5A39.584,39.584,0,0,1,17.43,69.8V60.59a4.754,4.754,0,0,1,3.6-4.609l10.746-2.694a7.914,7.914,0,0,0,6.258,6.957v6.5H41.2v-6.5a7.911,7.911,0,0,0,6.256-6.957l7.054,1.772A26.8,26.8,0,0,0,48.8,81.2Zm-17.1-47.742h4.38a16.691,16.691,0,0,0,7.075-1.585h.429l3.961,5.281v6.6l-5.281,3.961H36.973l-5.281-3.961Zm-3.038-3.169a6.2,6.2,0,0,1,3.394-4.58,16,16,0,0,1,11.127-.7l.364.526h2.413a1.585,1.585,0,0,1,1.585,1.585v4.754L45.161,28.71H42.41l-.334.166a13.512,13.512,0,0,1-6,1.418ZM44.369,50.1v2.377a4.754,4.754,0,0,1-9.508,0V50.1l1.057.792h7.394Zm3.169-.062V47.725l3.169-2.377V27.125a4.754,4.754,0,0,0-4.754-4.754H44.9c-2.293-1.393-8-1.675-12.043-.411a9.861,9.861,0,0,0-7.5,9.918v1.585h3.169V45.348l3.169,2.377v2.307L20.254,52.908a7.909,7.909,0,0,0-5.993,7.682v4.279A39.573,39.573,0,0,1,9.507,46.045V25.68L39.615,10.626,69.722,25.68V46.045c0,.182-.011.363-.012.543a26.813,26.813,0,0,0-12.538,5.873ZM74.476,96.848A23.769,23.769,0,1,1,98.245,73.079,23.769,23.769,0,0,1,74.476,96.848Zm0,0"/>
  <path id="Path_163116" data-name="Path 163116" d="M416,136.945h19.015v3.169H416Zm0,0" transform="translate(-333.601 -109.82)"/>
  <path id="Path_163117" data-name="Path 163117" d="M416,168.945h12.677v3.169H416Zm0,0" transform="translate(-333.601 -135.481)"/>
  <path id="Path_163118" data-name="Path 163118" d="M416,200.945h6.338v3.169H416Zm0,0" transform="translate(-333.601 -161.143)"/>
  <path id="Path_163119" data-name="Path 163119" d="M287.573,299.784l-5.6-5.6-8.964,8.963,14.565,14.565,24.65-24.65-8.964-8.962Zm0,13.445-10.084-10.084,4.483-4.481,5.6,5.6,15.687-15.687,4.483,4.481Zm0,0" transform="translate(-218.932 -227.825)"/>
</svg>
