<svg id="t7-ic7" xmlns="http://www.w3.org/2000/svg" width="100" height="100" viewBox="0 0 100 100">
  <g id="Group_107187" data-name="Group 107187" transform="translate(1.465 50)">
    <g id="Group_107183" data-name="Group 107183" transform="translate(0 0)">
      <path id="Path_163120" data-name="Path 163120" d="M50.834,268.195V300.2a4.332,4.332,0,0,1-4.334,4.334H11.833A4.332,4.332,0,0,1,7.5,300.2V260.334A4.333,4.333,0,0,1,11.833,256H38.64a4.082,4.082,0,0,1,.711.061A4.313,4.313,0,0,1,41.7,257.27l7.861,7.861a4.313,4.313,0,0,1,1.209,2.353,4.1,4.1,0,0,1,.061.711Z" transform="translate(-7.499 -256)" fill="#e6f7fe"/>
    </g>
    <g id="Group_107184" data-name="Group 107184" transform="translate(26.218)">
      <path id="Path_163121" data-name="Path 163121" d="M158.791,267.484a4.315,4.315,0,0,0-1.209-2.353l-7.861-7.861a4.313,4.313,0,0,0-2.353-1.209,4.084,4.084,0,0,0-.711-.061h-4.923v9.317a7.8,7.8,0,0,0,7.8,7.8h1.517a2.167,2.167,0,0,1,2.167,2.167V300.2a4.332,4.332,0,0,1-4.334,4.334h5.634a4.334,4.334,0,0,0,4.334-4.334V268.194A4.1,4.1,0,0,0,158.791,267.484Z" transform="translate(-141.734 -256)" fill="#d3effd"/>
    </g>
    <g id="Group_107185" data-name="Group 107185" transform="translate(31.851 0.061)">
      <path id="Path_163122" data-name="Path 163122" d="M182,267.734h-9.256a2.167,2.167,0,0,1-2.167-2.167v-9.256a4.313,4.313,0,0,1,2.353,1.209l7.861,7.861A4.312,4.312,0,0,1,182,267.734Z" transform="translate(-170.577 -256.311)" fill="#bed8fb"/>
    </g>
    <g id="Group_107186" data-name="Group 107186" transform="translate(6.934 6.934)">
      <path id="Path_163123" data-name="Path 163123" d="M43,291.5H61.6v6.934H43Z" transform="translate(-43 -291.5)" fill="#b893f5"/>
    </g>
  </g>
  <g id="Group_107192" data-name="Group 107192" transform="translate(55.2 1.465)">
    <g id="Group_107188" data-name="Group 107188">
      <path id="Path_163124" data-name="Path 163124" d="M325.959,19.695V51.7a4.332,4.332,0,0,1-4.334,4.334H286.958a4.332,4.332,0,0,1-4.334-4.334V11.834A4.332,4.332,0,0,1,286.958,7.5h26.807a4.084,4.084,0,0,1,.711.061,4.314,4.314,0,0,1,2.353,1.209l7.861,7.861a4.313,4.313,0,0,1,1.209,2.353,4.084,4.084,0,0,1,.061.711Z" transform="translate(-282.624 -7.5)" fill="#e6f7fe"/>
    </g>
    <g id="Group_107189" data-name="Group 107189" transform="translate(26.218 0)">
      <path id="Path_163125" data-name="Path 163125" d="M433.916,18.984a4.315,4.315,0,0,0-1.209-2.353L424.846,8.77a4.313,4.313,0,0,0-2.353-1.209,4.082,4.082,0,0,0-.711-.061h-4.923v9.317a7.8,7.8,0,0,0,7.8,7.8h1.517a2.167,2.167,0,0,1,2.167,2.167V51.7a4.332,4.332,0,0,1-4.334,4.334h5.634a4.334,4.334,0,0,0,4.334-4.334V19.695a4.1,4.1,0,0,0-.061-.711Z" transform="translate(-416.859 -7.5)" fill="#d3effd"/>
    </g>
    <g id="Group_107190" data-name="Group 107190" transform="translate(31.851 0.061)">
      <path id="Path_163126" data-name="Path 163126" d="M457.125,19.234h-9.256a2.167,2.167,0,0,1-2.167-2.167V7.811a4.313,4.313,0,0,1,2.353,1.209l7.861,7.861A4.312,4.312,0,0,1,457.125,19.234Z" transform="translate(-445.702 -7.811)" fill="#bed8fb"/>
    </g>
    <g id="Group_107191" data-name="Group 107191" transform="translate(6.934 6.934)">
      <path id="Path_163127" data-name="Path 163127" d="M318.125,43h18.6v6.934h-18.6Z" transform="translate(-318.125 -43)" fill="#fa4d7f"/>
    </g>
  </g>
  <g id="Group_107193" data-name="Group 107193" transform="translate(16.457 15.589)">
    <path id="Path_163128" data-name="Path 163128" d="M113.2,87.727l-6.987-6.987a3.157,3.157,0,0,0-4.464,4.464l1.6,1.6H87.416a3.157,3.157,0,0,0-3.157,3.157V104.62a3.157,3.157,0,1,0,6.314,0v-11.5h12.776l-1.6,1.6a3.157,3.157,0,0,0,4.464,4.464l6.987-6.987A3.157,3.157,0,0,0,113.2,87.727Z" transform="translate(-84.259 -79.816)" fill="#ffb206"/>
  </g>
  <g id="Group_107194" data-name="Group 107194" transform="translate(53.676 56.45)">
    <path id="Path_163129" data-name="Path 163129" d="M275.745,309.073l6.987,6.987A3.157,3.157,0,1,0,287.2,311.6l-1.6-1.6h15.933a3.157,3.157,0,0,0,3.157-3.157V292.18a3.157,3.157,0,0,0-6.314,0v11.5H285.6l1.6-1.6a3.157,3.157,0,0,0-4.464-4.464l-6.987,6.987a3.157,3.157,0,0,0,0,4.464Z" transform="translate(-274.82 -289.023)" fill="#e01650"/>
  </g>
  <g id="Group_107195" data-name="Group 107195" transform="translate(0 0)">
    <path id="Path_163130" data-name="Path 163130" d="M44.565,258.06,36.7,250.2a5.74,5.74,0,0,0-3.136-1.615,5.609,5.609,0,0,0-.963-.082H5.8A5.805,5.805,0,0,0,0,254.3v39.867a5.805,5.805,0,0,0,5.8,5.8H40.467a5.805,5.805,0,0,0,5.8-5.8V285.9a1.465,1.465,0,0,0-2.93,0v8.264a2.872,2.872,0,0,1-2.869,2.869H5.8a2.872,2.872,0,0,1-2.869-2.869V254.3A2.872,2.872,0,0,1,5.8,251.43H31.851v7.852a3.636,3.636,0,0,0,3.632,3.632h7.853v16.153a1.465,1.465,0,0,0,2.93,0V262.16a5.333,5.333,0,0,0-.084-.961,5.728,5.728,0,0,0-1.616-3.139Zm-9.784,1.222v-6.865l7.565,7.567H35.483A.7.7,0,0,1,34.781,259.282Z" transform="translate(0 -199.965)"/>
    <path id="Path_163131" data-name="Path 163131" d="M36.965,293.863h18.6a1.465,1.465,0,0,0,1.465-1.465v-6.934A1.465,1.465,0,0,0,55.569,284h-18.6a1.465,1.465,0,0,0-1.465,1.465V292.4A1.465,1.465,0,0,0,36.965,293.863Zm1.465-6.934H54.1v4H38.43Z" transform="translate(-28.566 -228.531)"/>
    <path id="Path_163132" data-name="Path 163132" d="M123.565,355h-15.6a1.465,1.465,0,0,0,0,2.93h15.6a1.465,1.465,0,0,0,0-2.93Z" transform="translate(-85.699 -285.664)"/>
    <path id="Path_163133" data-name="Path 163133" d="M36.965,357.93H43.9a1.465,1.465,0,0,0,0-2.93H36.965a1.465,1.465,0,0,0,0,2.93Z" transform="translate(-28.566 -285.664)"/>
    <path id="Path_163134" data-name="Path 163134" d="M159.273,390.5H152.34a1.465,1.465,0,0,0,0,2.93h6.934a1.465,1.465,0,0,0,0-2.93Z" transform="translate(-121.407 -314.23)"/>
    <path id="Path_163135" data-name="Path 163135" d="M54.03,391.965a1.465,1.465,0,0,0-1.465-1.465h-15.6a1.465,1.465,0,0,0,0,2.93h15.6A1.465,1.465,0,0,0,54.03,391.965Z" transform="translate(-28.566 -314.23)"/>
    <path id="Path_163136" data-name="Path 163136" d="M130.707,426H116.84a1.465,1.465,0,0,0,0,2.93h13.867a1.465,1.465,0,0,0,0-2.93Z" transform="translate(-92.841 -342.797)"/>
    <path id="Path_163137" data-name="Path 163137" d="M47.1,427.465A1.465,1.465,0,0,0,45.632,426H36.965a1.465,1.465,0,0,0,0,2.93h8.667A1.465,1.465,0,0,0,47.1,427.465Z" transform="translate(-28.566 -342.797)"/>
    <path id="Path_163138" data-name="Path 163138" d="M107.965,464.43h15.6a1.465,1.465,0,0,0,0-2.93h-15.6a1.465,1.465,0,0,0,0,2.93Z" transform="translate(-85.699 -371.363)"/>
    <path id="Path_163139" data-name="Path 163139" d="M36.965,461.5a1.465,1.465,0,0,0,0,2.93H43.9a1.465,1.465,0,0,0,0-2.93Z" transform="translate(-28.566 -371.363)"/>
    <path id="Path_163140" data-name="Path 163140" d="M319.922,27.246a1.465,1.465,0,0,0,1.465-1.465V13.66a5.48,5.48,0,0,0-.079-.947,5.743,5.743,0,0,0-1.619-3.154L311.827,1.7A5.727,5.727,0,0,0,308.692.083,5.584,5.584,0,0,0,307.726,0H280.92a5.805,5.805,0,0,0-5.8,5.8V45.666a5.805,5.805,0,0,0,5.8,5.8h34.668a5.805,5.805,0,0,0,5.8-5.8V32.617a1.465,1.465,0,1,0-2.93,0V45.666a2.872,2.872,0,0,1-2.869,2.869H280.92a2.872,2.872,0,0,1-2.869-2.869V5.8A2.872,2.872,0,0,1,280.92,2.93h26.054v7.852a3.636,3.636,0,0,0,3.632,3.632h7.852V25.781A1.465,1.465,0,0,0,319.922,27.246ZM309.9,10.782V3.918l7.566,7.566H310.6a.7.7,0,0,1-.7-.7Z" transform="translate(-221.386 0)"/>
    <path id="Path_163141" data-name="Path 163141" d="M312.09,45.363h18.6a1.465,1.465,0,0,0,1.465-1.465V36.965a1.465,1.465,0,0,0-1.465-1.465h-18.6a1.465,1.465,0,0,0-1.465,1.465V43.9A1.465,1.465,0,0,0,312.09,45.363Zm1.465-6.934h15.674v4H313.555Z" transform="translate(-249.956 -28.566)"/>
    <path id="Path_163142" data-name="Path 163142" d="M398.69,106.5h-15.6a1.465,1.465,0,0,0,0,2.93h15.6a1.465,1.465,0,0,0,0-2.93Z" transform="translate(-307.089 -85.699)"/>
    <path id="Path_163143" data-name="Path 163143" d="M312.09,109.43h6.934a1.465,1.465,0,0,0,0-2.93H312.09a1.465,1.465,0,0,0,0,2.93Z" transform="translate(-249.956 -85.699)"/>
    <path id="Path_163144" data-name="Path 163144" d="M434.4,142h-6.934a1.465,1.465,0,0,0,0,2.93H434.4a1.465,1.465,0,0,0,0-2.93Z" transform="translate(-342.797 -114.266)"/>
    <path id="Path_163145" data-name="Path 163145" d="M329.155,143.465A1.465,1.465,0,0,0,327.69,142h-15.6a1.465,1.465,0,0,0,0,2.93h15.6A1.465,1.465,0,0,0,329.155,143.465Z" transform="translate(-249.956 -114.266)"/>
    <path id="Path_163146" data-name="Path 163146" d="M405.832,177.5H391.965a1.465,1.465,0,0,0,0,2.93h13.867a1.465,1.465,0,0,0,0-2.93Z" transform="translate(-314.23 -142.832)"/>
    <path id="Path_163147" data-name="Path 163147" d="M322.222,178.965a1.465,1.465,0,0,0-1.465-1.465H312.09a1.465,1.465,0,0,0,0,2.93h8.667A1.465,1.465,0,0,0,322.222,178.965Z" transform="translate(-249.956 -142.832)"/>
    <path id="Path_163148" data-name="Path 163148" d="M383.09,215.93h15.6a1.465,1.465,0,0,0,0-2.93h-15.6a1.465,1.465,0,0,0,0,2.93Z" transform="translate(-307.089 -171.398)"/>
    <path id="Path_163149" data-name="Path 163149" d="M312.09,213a1.465,1.465,0,0,0,0,2.93h6.934a1.465,1.465,0,0,0,0-2.93Z" transform="translate(-249.956 -171.398)"/>
    <path id="Path_163150" data-name="Path 163150" d="M101.216,73.671a4.623,4.623,0,0,0-7.24,5.634h-2.2a1.465,1.465,0,0,0,0,2.93h5.539a1.465,1.465,0,0,0,1.036-2.5l-1.6-1.6a1.692,1.692,0,1,1,2.391-2.393l6.988,6.986a1.694,1.694,0,0,1,0,2.393l-6.988,6.987a1.692,1.692,0,1,1-2.391-2.393l1.6-1.6a1.465,1.465,0,0,0-1.036-2.5H84.537a1.465,1.465,0,0,0-1.465,1.465v11.5a1.691,1.691,0,1,1-3.383,0V83.926a1.693,1.693,0,0,1,1.691-1.691H84.94a1.465,1.465,0,0,0,0-2.93H81.381a4.626,4.626,0,0,0-4.621,4.621v14.66a4.621,4.621,0,1,0,9.242,0V88.547h7.974a4.622,4.622,0,0,0,7.239,5.634l6.988-6.987a4.628,4.628,0,0,0,0-6.537Z" transform="translate(-61.768 -58.193)"/>
    <path id="Path_163151" data-name="Path 163151" d="M295.495,281.524a4.627,4.627,0,0,0-4.622,4.622v10.039H282.9a4.622,4.622,0,0,0-7.239-5.633l-6.987,6.987a4.621,4.621,0,0,0,0,6.536h0l6.987,6.987a4.623,4.623,0,0,0,7.241-5.633h12.594a4.627,4.627,0,0,0,4.621-4.622V286.146A4.626,4.626,0,0,0,295.495,281.524Zm1.692,19.282a1.694,1.694,0,0,1-1.692,1.692H279.562a1.465,1.465,0,0,0-1.036,2.5l1.6,1.6a1.692,1.692,0,1,1-2.393,2.393L270.745,302h0a1.692,1.692,0,0,1,0-2.393l6.987-6.987a1.692,1.692,0,0,1,2.393,2.393l-1.6,1.6a1.465,1.465,0,0,0,1.036,2.5h12.776a1.465,1.465,0,0,0,1.465-1.465v-11.5a1.692,1.692,0,1,1,3.384,0Z" transform="translate(-215.108 -226.539)"/>
  </g>
</svg>
