<svg xmlns="http://www.w3.org/2000/svg" xmlns:xlink="http://www.w3.org/1999/xlink" width="190" height="100" viewBox="0 0 190 100">
  <defs>
    <linearGradient id="linear-gradient" x1="0.5" x2="0.5" y2="1" gradientUnits="objectBoundingBox">
      <stop offset="0" stop-color="#f95d2c" stop-opacity="0"/>
      <stop offset="0.091" stop-color="#f96826" stop-opacity="0.133"/>
      <stop offset="0.283" stop-color="#fb7e1d" stop-opacity="0.392"/>
      <stop offset="0.465" stop-color="#fc9014" stop-opacity="0.612"/>
      <stop offset="0.633" stop-color="#fd9f0e" stop-opacity="0.78"/>
      <stop offset="0.784" stop-color="#fea909" stop-opacity="0.898"/>
      <stop offset="0.911" stop-color="#feaf07" stop-opacity="0.973"/>
      <stop offset="1" stop-color="#ffb206"/>
    </linearGradient>
    <linearGradient id="linear-gradient-2" x1="0.5" x2="0.5" y2="1" gradientUnits="objectBoundingBox">
      <stop offset="0" stop-color="#ea3065" stop-opacity="0"/>
      <stop offset="0.091" stop-color="#ea3065" stop-opacity="0.133"/>
      <stop offset="0.283" stop-color="#ea3065" stop-opacity="0.392"/>
      <stop offset="0.465" stop-color="#ea3065" stop-opacity="0.612"/>
      <stop offset="0.633" stop-color="#ea3065" stop-opacity="0.78"/>
      <stop offset="0.784" stop-color="#ea3065" stop-opacity="0.898"/>
      <stop offset="0.911" stop-color="#ea3065" stop-opacity="0.973"/>
      <stop offset="1" stop-color="#ea3065"/>
    </linearGradient>
  </defs>
  <g id="t8-ic3" transform="translate(-180 -4162)">
    <g id="Group_107139" data-name="Group 107139" transform="translate(0 2550)">
      <g id="Group_96874" data-name="Group 96874" transform="translate(180 1665.666)">
        <rect id="Rectangle_5242" data-name="Rectangle 5242" width="12" height="46.333" transform="translate(0 0)" fill="url(#linear-gradient)"/>
      </g>
      <g id="Group_96875" data-name="Group 96875" transform="translate(370 1664) rotate(180)">
        <rect id="Rectangle_5242-2" data-name="Rectangle 5242" width="12" height="52" transform="translate(0 0)" fill="url(#linear-gradient-2)"/>
      </g>
    </g>
    <g id="virus" transform="translate(222.297 4148.869)">
      <g id="Group_107320" data-name="Group 107320" transform="translate(56.031 75.817)">
        <g id="Group_107316" data-name="Group 107316" transform="translate(3.12 0)">
          <path id="Path_163566" data-name="Path 163566" d="M328.908,346.734H287.315V319.7a2.08,2.08,0,0,1,2.08-2.08h37.434a2.08,2.08,0,0,1,2.08,2.08Z" transform="translate(-287.315 -317.619)" fill="#b893f5"/>
        </g>
        <g id="Group_107317" data-name="Group 107317" transform="translate(38.105)">
          <path id="Path_163567" data-name="Path 163567" d="M461.779,317.619h-4.528a2.08,2.08,0,0,1,2.08,2.08v27.035h4.528V319.7A2.08,2.08,0,0,0,461.779,317.619Z" transform="translate(-457.251 -317.619)" fill="#8f52f5"/>
        </g>
        <g id="Group_107318" data-name="Group 107318" transform="translate(0 29.115)">
          <path id="Path_163568" data-name="Path 163568" d="M317.914,465.7H274.242a2.08,2.08,0,0,1-2.08-2.08v-4.575h47.832v4.575A2.08,2.08,0,0,1,317.914,465.7Z" transform="translate(-272.162 -459.041)" fill="#efecef"/>
        </g>
        <g id="Group_107319" data-name="Group 107319" transform="translate(41.361 29.115)">
          <path id="Path_163569" data-name="Path 163569" d="M475.146,459.042v4.575a2.08,2.08,0,0,1-2.08,2.08h4.392a2.08,2.08,0,0,0,2.08-2.08v-4.575Z" transform="translate(-473.066 -459.042)" fill="#dddaec"/>
        </g>
      </g>
      <g id="Group_107325" data-name="Group 107325" transform="translate(1.544 75.817)">
        <g id="Group_107321" data-name="Group 107321" transform="translate(3.119 0)">
          <path id="Path_163570" data-name="Path 163570" d="M64.245,346.734H22.652V319.7a2.08,2.08,0,0,1,2.08-2.08H62.165a2.08,2.08,0,0,1,2.08,2.08Z" transform="translate(-22.652 -317.619)" fill="#b893f5"/>
        </g>
        <g id="Group_107322" data-name="Group 107322" transform="translate(38.104)">
          <path id="Path_163571" data-name="Path 163571" d="M197.116,317.619h-4.528a2.08,2.08,0,0,1,2.08,2.08v27.035H199.2V319.7A2.08,2.08,0,0,0,197.116,317.619Z" transform="translate(-192.588 -317.619)" fill="#8f52f5"/>
        </g>
        <g id="Group_107323" data-name="Group 107323" transform="translate(0 29.115)">
          <path id="Path_163572" data-name="Path 163572" d="M53.252,465.7H9.58a2.08,2.08,0,0,1-2.08-2.08v-4.575H55.332v4.575A2.08,2.08,0,0,1,53.252,465.7Z" transform="translate(-7.5 -459.041)" fill="#efecef"/>
        </g>
        <g id="Group_107324" data-name="Group 107324" transform="translate(41.361 29.115)">
          <path id="Path_163573" data-name="Path 163573" d="M210.484,459.042v4.575a2.08,2.08,0,0,1-2.08,2.08H212.8a2.08,2.08,0,0,0,2.08-2.08v-4.575Z" transform="translate(-208.404 -459.042)" fill="#dddaec"/>
        </g>
      </g>
      <g id="Group_107339" data-name="Group 107339" transform="translate(21.508 14.675)">
        <g id="Group_107326" data-name="Group 107326" transform="translate(22.876)">
          <path id="Path_163574" data-name="Path 163574" d="M215.593,28.95a8.319,8.319,0,1,1,16.637,0Z" transform="translate(-215.593 -20.631)" fill="#b893f5"/>
        </g>
        <g id="Group_107327" data-name="Group 107327" transform="translate(17.885 8.319)">
          <path id="Path_163575" data-name="Path 163575" d="M191.35,79.755V65.2a4.159,4.159,0,0,1,4.159-4.159h18.3a4.159,4.159,0,0,1,4.159,4.159V79.755a13.31,13.31,0,1,1-26.619,0Z" transform="translate(-191.35 -61.038)" fill="#ffb206"/>
        </g>
        <g id="Group_107328" data-name="Group 107328" transform="translate(28.491 8.319)" style="mix-blend-mode: multiply;isolation: isolate">
          <path id="Path_163576" data-name="Path 163576" d="M254.722,61.038h-5.407a4.159,4.159,0,0,1,4.159,4.159V79.755a13.314,13.314,0,0,1-10.606,13.034,13.319,13.319,0,0,0,16.013-13.034V65.2A4.159,4.159,0,0,0,254.722,61.038Z" transform="translate(-242.868 -61.038)" fill="#ffb206"/>
        </g>
        <g id="Group_107329" data-name="Group 107329" transform="translate(55.735 19.693)">
          <circle id="Ellipse_4997" data-name="Ellipse 4997" cx="3.328" cy="3.328" r="3.328" fill="#ffb206"/>
        </g>
        <g id="Group_107331" data-name="Group 107331" transform="translate(51.575 6.383)">
          <g id="Group_107330" data-name="Group 107330">
            <circle id="Ellipse_4998" data-name="Ellipse 4998" cx="3.328" cy="3.328" r="3.328" fill="#ffb206"/>
          </g>
        </g>
        <g id="Group_107333" data-name="Group 107333" transform="translate(51.575 33.002)">
          <g id="Group_107332" data-name="Group 107332">
            <circle id="Ellipse_4999" data-name="Ellipse 4999" cx="3.328" cy="3.328" r="3.328" fill="#ffb206"/>
          </g>
        </g>
        <g id="Group_107334" data-name="Group 107334" transform="translate(0 19.693)">
          <circle id="Ellipse_5000" data-name="Ellipse 5000" cx="3.328" cy="3.328" r="3.328" fill="#ffb206"/>
        </g>
        <g id="Group_107336" data-name="Group 107336" transform="translate(4.159 6.383)">
          <g id="Group_107335" data-name="Group 107335">
            <circle id="Ellipse_5001" data-name="Ellipse 5001" cx="3.328" cy="3.328" r="3.328" fill="#ffb206"/>
          </g>
        </g>
        <g id="Group_107338" data-name="Group 107338" transform="translate(4.159 33.002)">
          <g id="Group_107337" data-name="Group 107337">
            <circle id="Ellipse_5002" data-name="Ellipse 5002" cx="3.328" cy="3.328" r="3.328" fill="#ffb206"/>
          </g>
        </g>
      </g>
      <g id="Group_107340" data-name="Group 107340" transform="translate(49.376 62.507)">
        <circle id="Ellipse_5003" data-name="Ellipse 5003" cx="3.328" cy="3.328" r="3.328" fill="#ffb206"/>
      </g>
      <path id="Path_163577" data-name="Path 163577" d="M103.863,103.388h-1.575V77.9a3.628,3.628,0,0,0-3.623-3.623H94.882a1.544,1.544,0,0,0,0,3.088h3.782a.536.536,0,0,1,.535.535v25.491H60.7V77.9a.536.536,0,0,1,.535-.535H87.677a1.544,1.544,0,0,0,0-3.088H81.491V65.834a1.544,1.544,0,0,0-1.544-1.544H57.323a4.893,4.893,0,0,0-3.075-3.075V56.483a14.878,14.878,0,0,0,11.431-7.554l3.442,3.206a1.544,1.544,0,0,0,1.052.414h1.62a4.872,4.872,0,1,0,0-3.088H70.78L66.952,45.9a14.805,14.805,0,0,0,.6-4.186V39.239h8.394a4.872,4.872,0,1,0,0-3.088H67.557V28.883l3.217-2.953h1.018a4.872,4.872,0,1,0,0-3.088h-1.62a1.543,1.543,0,0,0-1.044.407l-1.971,1.81a5.716,5.716,0,0,0-4.707-3.577,9.863,9.863,0,0,0-19.493,0,5.716,5.716,0,0,0-4.707,3.577l-1.971-1.81a1.543,1.543,0,0,0-1.044-.407h-1.62a4.871,4.871,0,1,0,0,3.088h1.018l3.217,2.953v7.268H29.455a4.871,4.871,0,1,0,0,3.088H37.85V41.71a14.853,14.853,0,0,0,.605,4.185l-3.828,3.566H33.615a4.871,4.871,0,1,0,0,3.088h1.62a1.543,1.543,0,0,0,1.052-.414l3.44-3.2a14.741,14.741,0,0,0,1.642,2.377,1.544,1.544,0,0,0,2.354-2,11.75,11.75,0,0,1-2.785-7.6V27.152a2.617,2.617,0,0,1,2.615-2.615h7.607V40.2a1.544,1.544,0,1,0,3.088,0V24.538h7.607a2.617,2.617,0,0,1,2.615,2.615V41.71A11.774,11.774,0,0,1,48.94,52.86a1.544,1.544,0,1,0-.988,2.926,14.767,14.767,0,0,0,3.207.694v4.734a4.893,4.893,0,0,0-3.075,3.075H25.46a1.544,1.544,0,0,0-1.544,1.544v8.438H6.743A3.628,3.628,0,0,0,3.119,77.9v25.491H1.544A1.544,1.544,0,0,0,0,104.931v4.576a3.628,3.628,0,0,0,3.623,3.624H6.289a1.544,1.544,0,0,0,0-3.088H3.623a.536.536,0,0,1-.535-.535v-3.032H47.832v3.032a.536.536,0,0,1-.535.535h-33.8a1.544,1.544,0,0,0,0,3.088H47.3a3.628,3.628,0,0,0,3.623-3.624v-4.576a1.544,1.544,0,0,0-1.544-1.544H47.8V77.9a3.628,3.628,0,0,0-3.624-3.624H27V67.378h21.08a4.87,4.87,0,0,0,9.239,0H78.4v6.894H61.23A3.628,3.628,0,0,0,57.607,77.9v25.492H56.031a1.544,1.544,0,0,0-1.544,1.544v4.575a3.628,3.628,0,0,0,3.624,3.624h43.673a3.628,3.628,0,0,0,3.624-3.624v-4.575a1.544,1.544,0,0,0-1.544-1.544ZM76.411,49.221A1.783,1.783,0,1,1,74.628,51,1.786,1.786,0,0,1,76.411,49.221Zm4.159-13.31A1.783,1.783,0,1,1,78.787,37.7a1.786,1.786,0,0,1,1.783-1.783ZM76.411,22.6a1.783,1.783,0,1,1-1.783,1.783A1.786,1.786,0,0,1,76.411,22.6ZM29,26.169a1.783,1.783,0,1,1,1.783-1.783A1.786,1.786,0,0,1,29,26.169Zm-4.159,13.31A1.783,1.783,0,1,1,26.619,37.7,1.786,1.786,0,0,1,24.836,39.478ZM29,52.788A1.783,1.783,0,1,1,30.779,51,1.786,1.786,0,0,1,29,52.788ZM52.7,16.219A6.785,6.785,0,0,1,59.3,21.45H46.108A6.785,6.785,0,0,1,52.7,16.219ZM44.712,77.9v25.491H6.207V77.9a.536.536,0,0,1,.536-.536H44.177A.536.536,0,0,1,44.712,77.9ZM52.7,67.618a1.783,1.783,0,1,1,1.783-1.783A1.786,1.786,0,0,1,52.7,67.618Zm49.615,41.889a.536.536,0,0,1-.536.536H58.111a.536.536,0,0,1-.536-.536v-3.031h44.744Z"/>
    </g>
  </g>
</svg>
