<svg xmlns="http://www.w3.org/2000/svg" width="80" height="80" viewBox="0 0 80 80">
  <g id="t9-ic2" transform="translate(-15933 10643)">
    <rect id="Rectangle_35957" data-name="Rectangle 35957" width="80" height="80" rx="10" transform="translate(15933 -10643)" fill="none"/>
    <g id="suplantacion-de-identidad" transform="translate(15933 -10648.748)">
      <g id="Group_108304" data-name="Group 108304" transform="translate(1.094 15.843)">
        <path id="Path_165278" data-name="Path 165278" d="M1.75,35.373H79.563V80.156a2.8,2.8,0,0,1-2.8,2.8H4.548a2.8,2.8,0,0,1-2.8-2.8V35.373Z" transform="translate(-1.75 -23.577)" fill="#c7acf5"/>
        <path id="Path_165279" data-name="Path 165279" d="M4.875,16.5H76.438a3.125,3.125,0,0,1,3.125,3.125V28.3H1.75V19.625A3.125,3.125,0,0,1,4.875,16.5Z" transform="translate(-1.75 -16.5)" fill="#ffb206"/>
        <g id="Group_108302" data-name="Group 108302" transform="translate(3.906 4.804)">
          <path id="Path_165280" data-name="Path 165280" d="M91.883,26.374H49.032a1.094,1.094,0,0,1,0-2.187H91.883a1.094,1.094,0,1,1,0,2.188Z" transform="translate(-22.977 -24.186)" fill="#94e0da"/>
          <path id="Path_165281" data-name="Path 165281" d="M11.986,26.374H9.094a1.094,1.094,0,0,1,0-2.187h2.892a1.094,1.094,0,0,1,0,2.188Z" transform="translate(-8 -24.186)" fill="#94e0da"/>
          <path id="Path_165282" data-name="Path 165282" d="M25.3,26.374H22.407a1.094,1.094,0,0,1,0-2.187H25.3a1.094,1.094,0,0,1,0,2.188Z" transform="translate(-12.992 -24.186)" fill="#94e0da"/>
          <path id="Path_165283" data-name="Path 165283" d="M38.609,26.374H35.719a1.094,1.094,0,0,1,0-2.187h2.891a1.094,1.094,0,0,1,0,2.188Z" transform="translate(-17.984 -24.186)" fill="#94e0da"/>
        </g>
        <rect id="Rectangle_36115" data-name="Rectangle 36115" width="12.969" height="5.608" rx="2.804" transform="translate(58.589 26.503)" fill="#ffb206"/>
        <g id="Group_108303" data-name="Group 108303" transform="translate(45.541 11.796)">
          <path id="Path_165284" data-name="Path 165284" d="M101.867,35.373h5V50.08h-5Z" transform="translate(-84.835 -35.373)" fill="#eaeaf0"/>
          <path id="Path_165285" data-name="Path 165285" d="M91.648,77.872a6.023,6.023,0,0,1-6.428,6,6.157,6.157,0,0,1-5.6-6.214v-1.9h6.255l-2.141-1.477a16.044,16.044,0,0,0-9.115-2.841v6.134a11.259,11.259,0,0,0,11.2,11.306A11.029,11.029,0,0,0,96.647,77.871V67.877h-5Z" transform="translate(-74.616 -47.562)" fill="#eaeaf0"/>
        </g>
        <path id="Path_165286" data-name="Path 165286" d="M33.688,62.79c-3.871,0-7.341,1.954-9.708,3.741L16.5,63.1,19,69.445l-2.5,6.308,7.481-3.432c2.368,1.788,5.837,3.741,9.706,3.741,12.5,0,12.915-6.636,12.915-6.636s-.415-6.636-12.915-6.636Z" transform="translate(-7.281 -33.859)" fill="#e01650"/>
        <path id="Path_165287" data-name="Path 165287" d="M59.073,69.791s-.277-4.39-7.1-6.029a9.3,9.3,0,0,0,0,12.057c6.828-1.639,7.105-6.028,7.105-6.028Z" transform="translate(-19.75 -34.223)" fill="#ffb206"/>
        <path id="Path_165288" data-name="Path 165288" d="M42.382,74.962a1.094,1.094,0,0,1-1.069-.87,14.719,14.719,0,0,1,0-6.034,1.094,1.094,0,1,1,2.141.447,12.531,12.531,0,0,0,0,5.139,1.094,1.094,0,0,1-.847,1.294A1.067,1.067,0,0,1,42.382,74.962Z" transform="translate(-16.469 -35.508)" fill="#607880"/>
        <path id="Path_165289" data-name="Path 165289" d="M37.384,60.816a12.559,12.559,0,0,1,3.194-.431,28.852,28.852,0,0,1,3.5.2,5.194,5.194,0,0,0-5.1-4.211h-4.1a5.188,5.188,0,0,0,2.509,4.441Z" transform="translate(-14.172 -31.453)" fill="#e8e8e8"/>
        <path id="Path_165290" data-name="Path 165290" d="M55.454,71.813h-.547a1.094,1.094,0,1,1,0-2.187h.547a1.094,1.094,0,0,1,0,2.188Z" transform="translate(-21.274 -36.422)" fill="#f4d844"/>
      </g>
      <g id="Group_108305" data-name="Group 108305" transform="translate(0 14.748)">
        <path id="Path_165291" data-name="Path 165291" d="M75.781,14.748H31.094a1.094,1.094,0,0,0,0,2.188H75.781a2.034,2.034,0,0,1,2.031,2.031v7.578H2.188V18.968a2.034,2.034,0,0,1,2.031-2.031h7.969a1.094,1.094,0,0,0,0-2.188H4.219A4.224,4.224,0,0,0,0,18.968V72.423a3.9,3.9,0,0,0,3.891,3.891H76.109A3.9,3.9,0,0,0,80,72.422V18.968a4.224,4.224,0,0,0-4.219-4.22ZM67.573,28.732V41.252H64.761V28.732ZM62.486,46.857a1.71,1.71,0,1,1,0-3.421h7.361a1.71,1.71,0,1,1,0,3.421ZM77.813,72.42a1.706,1.706,0,0,1-1.7,1.7H3.891a1.706,1.706,0,0,1-1.7-1.7V28.734H62.573V41.252h-.087a3.9,3.9,0,1,0,0,7.8h.087v8.9a4.928,4.928,0,0,1-5.261,4.911,5.048,5.048,0,0,1-4.583-5.125v-.8h5.161a1.094,1.094,0,0,0,.621-1.994l-2.137-1.478a17.067,17.067,0,0,0-9.736-3.034,1.094,1.094,0,0,0-1.094,1.094v6.134A12.576,12.576,0,0,0,50.608,67.7a1.094,1.094,0,0,0,1.305-1.756,10.375,10.375,0,0,1-4.183-8.286v-5a14.868,14.868,0,0,1,6.6,2.091H51.636a1.094,1.094,0,0,0-1.094,1.094v1.9a7.239,7.239,0,0,0,6.625,7.306,7.055,7.055,0,0,0,5.339-1.9,7.136,7.136,0,0,0,2.256-5.192v-8.9h2.813v8.9a9.966,9.966,0,0,1-9.755,9.921,1.094,1.094,0,1,0,.018,2.188h.019a12.164,12.164,0,0,0,11.9-12.108v-8.9h.087a3.9,3.9,0,1,0,0-7.8h-.087V28.732h8.052Z" transform="translate(0 -14.748)"/>
        <path id="Path_165292" data-name="Path 165292" d="M31.094,16.935h3.594a1.094,1.094,0,0,0,0-2.187H31.094a1.094,1.094,0,0,0,0,2.188Z" transform="translate(-11.25 -14.748)"/>
        <path id="Path_165293" data-name="Path 165293" d="M91.883,26.374a1.094,1.094,0,1,0,0-2.187H49.032a1.094,1.094,0,0,0,0,2.188Z" transform="translate(-17.977 -18.287)"/>
        <path id="Path_165294" data-name="Path 165294" d="M9.094,24.186a1.094,1.094,0,0,0,0,2.188h2.892a1.094,1.094,0,1,0,0-2.187Z" transform="translate(-3 -18.287)"/>
        <path id="Path_165295" data-name="Path 165295" d="M22.407,26.374H25.3a1.094,1.094,0,0,0,0-2.187H22.407a1.094,1.094,0,0,0,0,2.188Z" transform="translate(-7.992 -18.287)"/>
        <path id="Path_165296" data-name="Path 165296" d="M34.625,25.28a1.094,1.094,0,0,0,1.094,1.094h2.891a1.094,1.094,0,0,0,0-2.187H35.719A1.094,1.094,0,0,0,34.625,25.28Z" transform="translate(-12.984 -18.287)"/>
        <path id="Path_165297" data-name="Path 165297" d="M47.031,66.217a.623.623,0,0,0-.012-.1c-.139-1.02-1.241-5.9-9.625-7.174a6.291,6.291,0,0,0-5.963-4.313h-4.1a1.094,1.094,0,0,0-1.094,1.094,6.225,6.225,0,0,0,1.453,4A21.369,21.369,0,0,0,23.2,62.208l-6.9-3.164a1.094,1.094,0,0,0-1.473,1.4l2.344,5.944L14.827,72.29a1.094,1.094,0,0,0,1.473,1.4l6.9-3.164A17.446,17.446,0,0,0,33.031,74.1a24.971,24.971,0,0,0,6.75-.812h.006c6.208-1.744,7.109-5.75,7.234-6.664a1.516,1.516,0,0,0,.011-.4Zm-7.77-4.639c4.838,1.391,5.5,4.25,5.586,4.788-.083.536-.75,3.4-5.586,4.788a8.2,8.2,0,0,1,0-9.576Zm-9.214-2.592a4.062,4.062,0,0,1-1.478-2.169H31.43a4.106,4.106,0,0,1,3.442,1.875A17.379,17.379,0,0,0,30.047,58.986Zm-6.063,9.4a1.091,1.091,0,0,0-.659-.221,1.1,1.1,0,0,0-.456.1l-5,2.3,1.5-3.774a1.1,1.1,0,0,0,0-.805l-1.505-3.817,5.011,2.3a1.1,1.1,0,0,0,1.115-.125,18.145,18.145,0,0,1,6.184-3.137,17.353,17.353,0,0,1,6.8-.117,10.375,10.375,0,0,0,0,10.552,27.129,27.129,0,0,1-3.937.266c-3.629,0-6.924-1.914-9.051-3.519Z" transform="translate(-5.531 -29.703)"/>
        <path id="Path_165298" data-name="Path 165298" d="M42.607,67.212a1.091,1.091,0,0,0-1.294.847,14.719,14.719,0,0,0,0,6.034,1.094,1.094,0,0,0,1.069.87,1.067,1.067,0,0,0,.225-.024,1.094,1.094,0,0,0,.847-1.294,12.531,12.531,0,0,1,0-5.139A1.093,1.093,0,0,0,42.607,67.212Z" transform="translate(-15.375 -34.413)"/>
        <path id="Path_165299" data-name="Path 165299" d="M54.907,71.813h.547a1.094,1.094,0,1,0,0-2.187h-.547a1.094,1.094,0,0,0,0,2.188Z" transform="translate(-20.18 -35.327)"/>
      </g>
    </g>
  </g>
</svg>
