<svg xmlns="http://www.w3.org/2000/svg" width="80" height="80" viewBox="0 0 80 80">
  <g id="t9-ic6" transform="translate(-15933 9995)">
    <rect id="Rectangle_35963" data-name="Rectangle 35963" width="80" height="80" rx="10" transform="translate(15933 -9995)" fill="none"/>
    <g id="troyano" transform="translate(15933 -9995)">
      <g id="Group_108249" data-name="Group 108249" transform="translate(1.094 1.094)">
        <path id="Path_165119" data-name="Path 165119" d="M10.371,50.371V48.208a16.25,16.25,0,0,1,16.25-16.25h11.63A19.584,19.584,0,0,1,57.834,12.375H73.009a4.217,4.217,0,0,1-3.281,4.111A33.427,33.427,0,0,1,66.04,31.749l-2.567,5H57.835v9.2A10.678,10.678,0,0,1,54.708,53.5a10.679,10.679,0,0,0-3.123,7.549V73.154H42.959V56.626h-20a12.03,12.03,0,0,1-10.286,5.8H10.371V73.154H1.75v-13.7a7.5,7.5,0,0,1,3.984-6.625Z" transform="translate(4.804 -6.125)" fill="#ffb206"/>
        <path id="Path_165120" data-name="Path 165120" d="M89.1,43.708h18.3a16.206,16.206,0,0,0-12.109,5.417H92.325A6.823,6.823,0,0,0,85.5,55.948a9.531,9.531,0,0,1-9.531,9.531V56.833A13.125,13.125,0,0,1,89.1,43.708Z" transform="translate(-75.971 -17.875)" fill="#e01650"/>
        <path id="Path_165121" data-name="Path 165121" d="M33.93,8.625H27.584A19.584,19.584,0,0,0,8,28.208H1.75A25.862,25.862,0,0,1,27.584,2.375H42.758v6.25Z" transform="translate(35.054 -2.375)" fill="#e01650"/>
        <path id="Path_165122" data-name="Path 165122" d="M15.272,28.336a1.094,1.094,0,0,0,1.094-1.094V25.774a1.094,1.094,0,1,0-2.187,0v1.468a1.093,1.093,0,0,0,1.094,1.094Z" transform="translate(53.679 -10.739)" fill="#607880"/>
        <rect id="Rectangle_36090" data-name="Rectangle 36090" width="62.937" height="5.469" rx="2.734" transform="translate(0 67.029)" fill="#e8e8e8"/>
        <g id="Group_108248" data-name="Group 108248" transform="translate(6.114 72.498)">
          <path id="Path_165123" data-name="Path 165123" d="M45.594,118.372H35.333a4.533,4.533,0,0,0,4.533,4.533H41.06a4.533,4.533,0,0,0,4.533-4.533Z" transform="translate(5.116 -118.372)" fill="#afafaf"/>
          <path id="Path_165124" data-name="Path 165124" d="M77.953,118.372H67.692a4.533,4.533,0,0,0,4.533,4.533h1.194a4.533,4.533,0,0,0,4.533-4.533h0Z" transform="translate(-47.468 -118.372)" fill="#afafaf"/>
          <path id="Path_165125" data-name="Path 165125" d="M110.308,118.372H100.047a4.533,4.533,0,0,0,4.533,4.533h1.2a4.533,4.533,0,0,0,4.533-4.533Z" transform="translate(-100.047 -118.372)" fill="#afafaf"/>
        </g>
        <path id="Path_165126" data-name="Path 165126" d="M25.37,25.3A1.094,1.094,0,0,1,26.464,26.4v1.653A2.536,2.536,0,0,0,29,30.586a1.094,1.094,0,0,1,1.094,1.094v6.169a1.094,1.094,0,0,1-2.187,0V32.637a4.726,4.726,0,0,1-3.625-4.588V26.4A1.093,1.093,0,0,1,25.37,25.3Z" transform="translate(33.64 -10.974)" fill="#607880"/>
      </g>
      <g id="Group_108250" data-name="Group 108250" transform="translate(0 0)">
        <path id="Path_165127" data-name="Path 165127" d="M11.719,39.792A10.637,10.637,0,0,1,1.094,50.417,1.093,1.093,0,0,1,0,49.323V40.677A14.173,14.173,0,0,1,5.229,29.66a1.094,1.094,0,1,1,1.384,1.694,11.992,11.992,0,0,0-4.426,9.322v7.482a8.451,8.451,0,0,0,7.344-8.367,7.926,7.926,0,0,1,7.917-7.917h2.5A17.446,17.446,0,0,1,24.1,28.646H14.219a1.094,1.094,0,0,1,0-2.187H36.832A26.956,26.956,0,0,1,63.732.625H78.906A1.094,1.094,0,0,1,80,1.719v6.25a5.277,5.277,0,0,1-3.291,4.912,34.691,34.691,0,0,1-3.8,14.96l-2.567,5a1.093,1.093,0,0,1-.973.594H64.826v8.106a11.693,11.693,0,0,1-3.451,8.324,9.522,9.522,0,0,0-2.807,6.777V67.654h3.587a2.972,2.972,0,0,1,2.969,2.969v1.719a2.972,2.972,0,0,1-2.969,2.969H58.9a5.635,5.635,0,0,1-5.518,4.533h-1.2a5.635,5.635,0,0,1-5.518-4.533H38.676a5.635,5.635,0,0,1-5.518,4.533H31.964a5.636,5.636,0,0,1-5.519-4.533H18.454a5.636,5.636,0,0,1-5.519,4.533H11.741a5.635,5.635,0,0,1-5.518-4.533H2.969A2.973,2.973,0,0,1,0,72.342V70.623a2.972,2.972,0,0,1,2.969-2.969H6.554v-12.6a8.574,8.574,0,0,1,4.563-7.59l4.056-2.154V43.8a17.244,17.244,0,0,1,3-9.739h-.727a5.736,5.736,0,0,0-5.726,5.729ZM63.732,2.812A24.769,24.769,0,0,0,39.016,26.458h4.067A20.7,20.7,0,0,1,63.732,6.875H77.812V2.812ZM52.187,77.656h1.2a3.446,3.446,0,0,0,3.261-2.346H48.928A3.446,3.446,0,0,0,52.187,77.656Zm-20.224,0h1.194a3.444,3.444,0,0,0,3.261-2.346H28.7a3.445,3.445,0,0,0,3.261,2.346Zm-20.225,0h1.2A3.445,3.445,0,0,0,16.2,75.311H8.482a3.446,3.446,0,0,0,3.259,2.346ZM2.187,70.623v1.719a.782.782,0,0,0,.781.781H62.156a.781.781,0,0,0,.781-.781V70.623a.782.782,0,0,0-.781-.781H42.083a1.094,1.094,0,1,1,0-2.187h5.679V53.314h-18.3a13.043,13.043,0,0,1-10.884,5.8H17.362v8.545h5.971a1.094,1.094,0,0,1,0,2.188H2.969a.782.782,0,0,0-.781.781ZM16.781,46.931l-4.637,2.463a6.392,6.392,0,0,0-3.4,5.658v12.6h6.433V58.016a1.094,1.094,0,0,1,1.094-1.094h2.306a10.886,10.886,0,0,0,9.353-5.271,1.092,1.092,0,0,1,.934-.524h20A1.094,1.094,0,0,1,49.95,52.22V67.654h6.433V56.642a11.694,11.694,0,0,1,3.447-8.323,9.524,9.524,0,0,0,2.807-6.778V23.382a4.726,4.726,0,0,1-3.625-4.588V17.144a1.094,1.094,0,0,1,2.187,0V18.8a2.536,2.536,0,0,0,2.534,2.534,1.094,1.094,0,0,1,1.094,1.094V31.25H68.7l2.262-4.407a32.475,32.475,0,0,0,3.566-14.763,1.093,1.093,0,0,1,.851-1.066,3.1,3.1,0,0,0,2.235-1.951H63.732a18.511,18.511,0,0,0-18.49,18.489,1.093,1.093,0,0,1-1.094,1.094H32.518A15.174,15.174,0,0,0,17.362,43.8v2.163a1.094,1.094,0,0,1-.581.966Z" transform="translate(0 -0.625)"/>
        <path id="Path_165128" data-name="Path 165128" d="M15.272,24.68a1.094,1.094,0,0,1,1.094,1.094v1.468a1.094,1.094,0,1,1-2.187,0V25.774a1.093,1.093,0,0,1,1.094-1.094Z" transform="translate(54.773 -9.646)"/>
        <path id="Path_165129" data-name="Path 165129" d="M73.011,107.872h2.5a1.094,1.094,0,0,1,0,2.188h-2.5a1.094,1.094,0,0,1,0-2.187Z" transform="translate(-41.553 -40.843)"/>
      </g>
    </g>
  </g>
</svg>
