<svg xmlns="http://www.w3.org/2000/svg" width="80" height="70.212" viewBox="0 0 80 70.212">
  <g id="t9-ic9" transform="translate(0 -31.32)">
    <path id="Path_164203" data-name="Path 164203" d="M85.156,53.967H7.5v-12a3.157,3.157,0,0,1,3.157-3.157H82a3.157,3.157,0,0,1,3.157,3.157Z" transform="translate(-6.328 -6.324)" fill="#b893f5"/>
    <path id="Path_164204" data-name="Path 164204" d="M462.989,38.815h-3.946a3.157,3.157,0,0,1,3.157,3.157v12h3.946v-12A3.157,3.157,0,0,0,462.989,38.815Z" transform="translate(-387.318 -6.324)" fill="#8f52f5"/>
    <path id="Path_164205" data-name="Path 164205" d="M82,188.509H10.657A3.157,3.157,0,0,1,7.5,185.352V135.791H85.156v49.561A3.157,3.157,0,0,1,82,188.509Z" transform="translate(-6.328 -88.147)" fill="#e6f7fe"/>
    <path id="Path_164206" data-name="Path 164206" d="M462.2,135.791v49.561a3.157,3.157,0,0,1-3.157,3.157h3.946a3.157,3.157,0,0,0,3.157-3.157V135.791Z" transform="translate(-387.318 -88.147)" fill="#d3effd"/>
    <path id="Path_164207" data-name="Path 164207" d="M0,0H5.051V37.25H0Z" transform="translate(73.777 37.542) rotate(90)" fill="#d2e1f1"/>
    <circle id="Ellipse_5008" data-name="Ellipse 5008" cx="2.525" cy="2.525" r="2.525" transform="translate(6.223 37.542)" fill="#e01650"/>
    <circle id="Ellipse_5009" data-name="Ellipse 5009" cx="2.525" cy="2.525" r="2.525" transform="translate(16.324 37.542)" fill="#ffb206"/>
    <circle id="Ellipse_5010" data-name="Ellipse 5010" cx="2.525" cy="2.525" r="2.525" transform="translate(26.426 37.542)" fill="#e8e8e8"/>
    <g id="Group_107832" data-name="Group 107832" transform="translate(52.611 75.711)">
      <path id="Path_164208" data-name="Path 164208" d="M347.835,329.642l-3.471-6.012,3.281-1.894-10.935-6.314V328.05l3.281-1.894,3.471,6.012Z" transform="translate(-336.71 -315.423)" fill="#ffb206"/>
    </g>
    <g id="Group_107833" data-name="Group 107833" transform="translate(0 31.32)">
      <path id="Path_164209" data-name="Path 164209" d="M416.952,270.71a1.578,1.578,0,1,0,1.578-1.578A1.578,1.578,0,0,0,416.952,270.71Z" transform="translate(-351.803 -231.974)"/>
      <path id="Path_164210" data-name="Path 164210" d="M159.625,31.32H100.672a1.172,1.172,0,0,0,0,2.344h58.953a1.987,1.987,0,0,1,1.984,1.984V46.472h-8.2a1.172,1.172,0,0,0,0,2.344h8.2V97.2a1.987,1.987,0,0,1-1.984,1.984H105.273a1.172,1.172,0,0,0,0,2.344h54.352a4.333,4.333,0,0,0,4.328-4.328V35.648A4.333,4.333,0,0,0,159.625,31.32Z" transform="translate(-83.953 -31.32)"/>
      <path id="Path_164211" data-name="Path 164211" d="M15.852,99.189H4.328A1.987,1.987,0,0,1,2.344,97.2V48.815H63.992a1.172,1.172,0,0,0,0-2.344H2.344V35.648a1.987,1.987,0,0,1,1.984-1.984H11.25a1.172,1.172,0,0,0,0-2.344H4.328A4.333,4.333,0,0,0,0,35.648V97.2a4.333,4.333,0,0,0,4.328,4.328H15.852a1.172,1.172,0,0,0,0-2.344Z" transform="translate(0 -31.32)"/>
      <path id="Path_164212" data-name="Path 164212" d="M265.87,69.863V64.812A1.172,1.172,0,0,0,264.7,63.64h-37.25a1.172,1.172,0,0,0-1.172,1.172v5.051a1.172,1.172,0,0,0,1.172,1.172H264.7A1.172,1.172,0,0,0,265.87,69.863Zm-2.344-1.172H228.62V65.984h34.906v2.707Z" transform="translate(-190.92 -58.59)"/>
      <path id="Path_164213" data-name="Path 164213" d="M36.022,63.64a3.7,3.7,0,1,0,3.7,3.7A3.7,3.7,0,0,0,36.022,63.64Zm0,5.051a1.354,1.354,0,1,1,1.353-1.354A1.355,1.355,0,0,1,36.022,68.691Z" transform="translate(-27.274 -58.59)"/>
      <path id="Path_164214" data-name="Path 164214" d="M104.371,67.337a3.7,3.7,0,1,0-3.7,3.7A3.7,3.7,0,0,0,104.371,67.337Zm-5.051,0a1.354,1.354,0,1,1,1.354,1.354A1.355,1.355,0,0,1,99.32,67.337Z" transform="translate(-81.823 -58.59)"/>
      <path id="Path_164215" data-name="Path 164215" d="M169.021,67.337a3.7,3.7,0,1,0-3.7,3.7A3.7,3.7,0,0,0,169.021,67.337Zm-5.051,0a1.354,1.354,0,1,1,1.354,1.354A1.355,1.355,0,0,1,163.97,67.337Z" transform="translate(-136.372 -58.59)"/>
      <path id="Path_164216" data-name="Path 164216" d="M114.817,222.558a1.4,1.4,0,0,0,1.315-.949l.01-.031,1.954-6.312,1.945,6.314c0,.016.01.032.016.048a1.4,1.4,0,0,0,1.319.931h.01a1.4,1.4,0,0,0,1.315-.949,1.184,1.184,0,0,0,.04-.149l1.976-9.928a1.172,1.172,0,1,0-2.3-.457l-1.241,6.234-1.962-6.369a1.172,1.172,0,0,0-2.268.11l-1.938,6.26-1.237-6.252a1.172,1.172,0,1,0-2.3.455l1.968,9.95a1.184,1.184,0,0,0,.045.165,1.4,1.4,0,0,0,1.319.931Z" transform="translate(-94.038 -182.176)"/>
      <path id="Path_164217" data-name="Path 164217" d="M224.446,211.075l-1.241,6.234-1.962-6.369a1.172,1.172,0,0,0-2.268.11l-1.938,6.26-1.237-6.252a1.172,1.172,0,0,0-2.3.455l1.968,9.95a1.182,1.182,0,0,0,.045.165,1.4,1.4,0,0,0,1.319.931h.01a1.4,1.4,0,0,0,1.315-.949l.01-.031,1.954-6.313,1.945,6.314c0,.016.01.032.016.048a1.4,1.4,0,0,0,1.319.931h.01a1.4,1.4,0,0,0,1.315-.949,1.183,1.183,0,0,0,.04-.149l1.976-9.928a1.172,1.172,0,1,0-2.3-.457Z" transform="translate(-180.124 -182.177)"/>
      <path id="Path_164218" data-name="Path 164218" d="M318.862,222.557h.01a1.4,1.4,0,0,0,1.316-.949l.01-.031,1.954-6.312,1.945,6.314c0,.016.01.032.016.047a1.4,1.4,0,0,0,1.319.931h.01a1.4,1.4,0,0,0,1.316-.949,1.184,1.184,0,0,0,.04-.149l1.976-9.928a1.172,1.172,0,1,0-2.3-.458l-1.241,6.234-1.962-6.369a1.172,1.172,0,0,0-2.268.11l-1.937,6.26-1.237-6.252a1.172,1.172,0,1,0-2.3.455l1.968,9.95a1.162,1.162,0,0,0,.045.165A1.4,1.4,0,0,0,318.862,222.557Z" transform="translate(-266.209 -182.175)"/>
      <path id="Path_164219" data-name="Path 164219" d="M329.8,322.736a1.172,1.172,0,0,0,1.172,0l2.266-1.308,2.885,5a1.171,1.171,0,0,0,1.6.429l4.374-2.525a1.172,1.172,0,0,0,.429-1.6l-2.885-5,2.266-1.308a1.172,1.172,0,0,0,0-2.03l-10.935-6.314a1.172,1.172,0,0,0-1.758,1.015v12.627A1.172,1.172,0,0,0,329.8,322.736Zm1.758-11.612,7.42,4.284-1.523.879a1.172,1.172,0,0,0-.429,1.6l2.885,5-2.344,1.354-2.885-5a1.171,1.171,0,0,0-1.6-.429l-1.523.879Z" transform="translate(-277.771 -264.703)"/>
    </g>
  </g>
</svg>
