<svg xmlns="http://www.w3.org/2000/svg" width="80" height="80" viewBox="0 0 80 80">
  <g id="t9-ic3" transform="translate(-15933 10643)">
    <rect id="Rectangle_35955" data-name="Rectangle 35955" width="80" height="80" rx="10" transform="translate(15933 -10643)" fill="none"/>
    <g id="lavado-de-dinero" transform="translate(15933 -10645.299)">
      <g id="Group_108310" data-name="Group 108310" transform="translate(1.094 6.393)">
        <path id="Path_165300" data-name="Path 165300" d="M23.386,30.378V36.1H14.333V30.378H1.75V86.986H35.969V30.378Z" transform="translate(-1.75 -15.797)" fill="#c7acf5"/>
        <path id="Path_165301" data-name="Path 165301" d="M93.136,30.378V36.1H84.082V30.378H71.5V86.986h34.219V30.378Z" transform="translate(-27.906 -15.797)" fill="#c7acf5"/>
        <path id="Path_165302" data-name="Path 165302" d="M15.092,84.7h14.4A4.193,4.193,0,0,1,33.682,80.5V43.72a4.193,4.193,0,0,1-4.193-4.193h-14.4A4.193,4.193,0,0,1,10.9,43.72V80.506A4.193,4.193,0,0,1,15.092,84.7Z" transform="translate(-5.181 -19.228)" fill="#8f52f5"/>
        <circle id="Ellipse_5024" data-name="Ellipse 5024" cx="11.391" cy="11.391" r="11.391" transform="translate(5.718 31.494)" fill="#eaeaf0"/>
        <path id="Path_165303" data-name="Path 165303" d="M31.4,71.718H29.925v-.6a3.385,3.385,0,0,0-3.381-3.381H24.066a1.094,1.094,0,0,0-1.094,1.094V75.7H21.588A1.2,1.2,0,0,1,20.395,74.5V68.833a1.094,1.094,0,0,0-2.187,0v2.885H16.728a1.094,1.094,0,0,0,0,2.188h1.479v.6a3.385,3.385,0,0,0,3.381,3.381h2.477a1.094,1.094,0,0,0,1.094-1.094V69.926h1.384a1.2,1.2,0,0,1,1.194,1.193v5.671a1.094,1.094,0,0,0,2.188,0V73.905H31.4a1.094,1.094,0,1,0,0-2.187Z" transform="translate(-6.956 -29.808)" fill="#607880"/>
        <path id="Path_165304" data-name="Path 165304" d="M21.882,7.049h9.054v20.3H21.882Z" transform="translate(-9.299 -7.049)" fill="#ffb206"/>
        <path id="Path_165305" data-name="Path 165305" d="M84.842,84.7h14.4a4.193,4.193,0,0,1,4.193-4.193V43.72a4.193,4.193,0,0,1-4.193-4.193h-14.4a4.193,4.193,0,0,1-4.193,4.193V80.506A4.193,4.193,0,0,1,84.842,84.7Z" transform="translate(-31.337 -19.228)" fill="#8f52f5"/>
        <circle id="Ellipse_5025" data-name="Ellipse 5025" cx="11.391" cy="11.391" r="11.391" transform="translate(49.312 31.494)" fill="#eaeaf0"/>
        <path id="Path_165306" data-name="Path 165306" d="M101.154,71.718H99.675v-.6a3.385,3.385,0,0,0-3.381-3.381H93.816a1.094,1.094,0,0,0-1.094,1.094V75.7H91.338A1.2,1.2,0,0,1,90.144,74.5V68.833a1.094,1.094,0,0,0-2.187,0v2.885H86.478a1.094,1.094,0,0,0,0,2.188h1.479v.6a3.385,3.385,0,0,0,3.381,3.381h2.478a1.094,1.094,0,0,0,1.094-1.094V69.926h1.384a1.2,1.2,0,0,1,1.194,1.193v5.671a1.094,1.094,0,0,0,2.188,0V73.905h1.479a1.094,1.094,0,1,0,0-2.187Z" transform="translate(-33.113 -29.808)" fill="#607880"/>
        <path id="Path_165307" data-name="Path 165307" d="M91.632,7.049h9.054v20.3H91.632Z" transform="translate(-35.456 -7.049)" fill="#ffb206"/>
        <g id="Group_108309" data-name="Group 108309">
          <path id="Path_165308" data-name="Path 165308" d="M1.75,7.049H14.333v5.156H1.75Z" transform="translate(-1.75 -7.049)" fill="#afafaf"/>
          <path id="Path_165309" data-name="Path 165309" d="M36.368,7.049h34.54v5.156H36.368Z" transform="translate(-14.732 -7.049)" fill="#afafaf"/>
          <path id="Path_165310" data-name="Path 165310" d="M106.118,7.049H118.7v5.156H106.118Z" transform="translate(-40.888 -7.049)" fill="#afafaf"/>
        </g>
      </g>
      <g id="Group_108311" data-name="Group 108311" transform="translate(0 5.299)">
        <path id="Path_165311" data-name="Path 165311" d="M18.207,74.5a3.385,3.385,0,0,0,3.381,3.381h2.477a1.094,1.094,0,0,0,1.094-1.094V69.926h1.384a1.2,1.2,0,0,1,1.194,1.193v5.671a1.094,1.094,0,0,0,2.188,0V73.905H31.4a1.094,1.094,0,1,0,0-2.187H29.925v-.6a3.385,3.385,0,0,0-3.381-3.381H24.066a1.094,1.094,0,0,0-1.094,1.094V75.7H21.588A1.2,1.2,0,0,1,20.395,74.5V68.833a1.094,1.094,0,0,0-2.187,0v2.885H16.728a1.094,1.094,0,0,0,0,2.188h1.479Z" transform="translate(-5.863 -28.714)"/>
        <path id="Path_165312" data-name="Path 165312" d="M55.844,47.936A1.094,1.094,0,0,0,54.75,49.03v2.75a1.094,1.094,0,0,0,2.188,0V49.03a1.094,1.094,0,0,0-1.094-1.094Z" transform="translate(-20.531 -21.288)"/>
        <path id="Path_165313" data-name="Path 165313" d="M87.956,74.5a3.385,3.385,0,0,0,3.381,3.381h2.477a1.094,1.094,0,0,0,1.094-1.094V69.926h1.384a1.2,1.2,0,0,1,1.194,1.193v5.671a1.094,1.094,0,0,0,2.188,0V73.905h1.479a1.094,1.094,0,1,0,0-2.187H99.674v-.6a3.385,3.385,0,0,0-3.381-3.381H93.816a1.094,1.094,0,0,0-1.094,1.094V75.7H91.338A1.2,1.2,0,0,1,90.144,74.5V68.833a1.094,1.094,0,1,0-2.187,0v2.885H86.478a1.094,1.094,0,0,0,0,2.188h1.479Z" transform="translate(-32.019 -28.714)"/>
        <path id="Path_165314" data-name="Path 165314" d="M78.906,12.643A1.094,1.094,0,0,0,80,11.55V6.393A1.094,1.094,0,0,0,78.906,5.3H1.094A1.094,1.094,0,0,0,0,6.393V11.55a1.094,1.094,0,0,0,1.094,1.094H12.583V19.88H1.094A1.094,1.094,0,0,0,0,20.973V77.581a1.094,1.094,0,0,0,1.094,1.094H35.313a1.094,1.094,0,0,0,1.094-1.094V42.138a1.094,1.094,0,1,0-2.187,0V76.487H2.188V22.067h10.4V25.6H11.005a1.094,1.094,0,0,0-1.094,1.094,3.1,3.1,0,0,1-3.1,3.1,1.094,1.094,0,0,0-1.094,1.094V67.671a1.094,1.094,0,0,0,1.094,1.094,3.1,3.1,0,0,1,3.1,3.1,1.094,1.094,0,0,0,1.094,1.094H25.4A1.094,1.094,0,0,0,26.5,71.864a3.1,3.1,0,0,1,3.1-3.1,1.094,1.094,0,0,0,1.094-1.094V30.885a1.094,1.094,0,0,0-1.094-1.094,3.1,3.1,0,0,1-3.1-3.1A1.094,1.094,0,0,0,25.4,25.6H23.824V22.067h10.4v4.625a1.094,1.094,0,0,0,2.188,0V20.973a1.094,1.094,0,0,0-1.094-1.094H23.824V12.643H56.176V19.88H44.688a1.094,1.094,0,0,0-1.094,1.094V77.581a1.094,1.094,0,0,0,1.094,1.094H78.906A1.094,1.094,0,0,0,80,77.581V25.189a1.094,1.094,0,1,0-2.187,0v51.3H45.781V22.067h10.4V25.6H54.6a1.094,1.094,0,0,0-1.094,1.094,3.1,3.1,0,0,1-3.1,3.1,1.094,1.094,0,0,0-1.094,1.094V67.671a1.094,1.094,0,0,0,1.094,1.094,3.1,3.1,0,0,1,3.1,3.1A1.094,1.094,0,0,0,54.6,72.958h14.4a1.094,1.094,0,0,0,1.094-1.094,3.1,3.1,0,0,1,3.1-3.1,1.094,1.094,0,0,0,1.094-1.094V30.885a1.094,1.094,0,0,0-1.094-1.094,3.1,3.1,0,0,1-3.1-3.1A1.094,1.094,0,0,0,68.995,25.6H67.417V22.067h6.958a1.094,1.094,0,0,0,0-2.187H67.417V12.643Zm-1.094-2.187h-10.4V7.487h10.4Zm-75.625,0V7.487h10.4v2.969ZM28.5,66.69a5.3,5.3,0,0,0-4.079,4.08H11.983A5.3,5.3,0,0,0,7.9,66.69V56.323a12.467,12.467,0,0,0,20.6,0ZM7.906,49.278a10.3,10.3,0,1,1,10.3,10.3A10.3,10.3,0,0,1,7.906,49.278ZM28.5,31.865V42.232a12.466,12.466,0,0,0-20.595,0V31.865a5.3,5.3,0,0,0,4.079-4.08H24.422a5.3,5.3,0,0,0,4.078,4.08ZM14.77,25.6V7.487h6.866V25.6Zm9.054-15.142V7.487H56.176v2.969ZM72.094,66.69a5.3,5.3,0,0,0-4.079,4.08H55.577A5.3,5.3,0,0,0,51.5,66.69V56.323a12.467,12.467,0,0,0,20.6,0ZM51.5,49.278a10.3,10.3,0,1,1,10.3,10.3,10.3,10.3,0,0,1-10.3-10.3ZM72.095,31.865V42.232a12.466,12.466,0,0,0-20.6,0V31.865a5.3,5.3,0,0,0,4.079-4.08H68.017a5.3,5.3,0,0,0,4.077,4.08ZM58.364,25.6V7.487H65.23V25.6Z" transform="translate(0 -5.299)"/>
      </g>
    </g>
  </g>
</svg>
