<svg xmlns="http://www.w3.org/2000/svg" width="80" height="80" viewBox="0 0 80 80">
  <g id="t9-ic7" transform="translate(-15933 9772)">
    <rect id="Rectangle_35965" data-name="Rectangle 35965" width="80" height="80" rx="10" transform="translate(15933 -9772)" fill="none"/>
    <g id="iniciar-sesion" transform="translate(15933 -9777.748)">
      <g id="Group_108300" data-name="Group 108300" transform="translate(1.094 15.843)">
        <path id="Path_165262" data-name="Path 165262" d="M1.75,35.373H79.563V80.156a2.8,2.8,0,0,1-2.8,2.8H4.548a2.8,2.8,0,0,1-2.8-2.8V35.373Z" transform="translate(-1.75 -23.577)" fill="#c7acf5"/>
        <path id="Path_165263" data-name="Path 165263" d="M4.875,16.5H76.438a3.125,3.125,0,0,1,3.125,3.125V28.3H1.75V19.625A3.125,3.125,0,0,1,4.875,16.5Z" transform="translate(-1.75 -16.5)" fill="#ffb206"/>
        <g id="Group_108299" data-name="Group 108299" transform="translate(3.906 4.804)">
          <path id="Path_165264" data-name="Path 165264" d="M91.883,26.374H49.031a1.094,1.094,0,0,1,0-2.187H91.883a1.094,1.094,0,1,1,0,2.188Z" transform="translate(-22.976 -24.186)" fill="#94e0da"/>
          <path id="Path_165265" data-name="Path 165265" d="M11.986,26.374H9.094a1.094,1.094,0,0,1,0-2.187h2.892a1.094,1.094,0,0,1,0,2.188Z" transform="translate(-8 -24.186)" fill="#94e0da"/>
          <path id="Path_165266" data-name="Path 165266" d="M25.3,26.374H22.406a1.094,1.094,0,0,1,0-2.187H25.3a1.094,1.094,0,0,1,0,2.188Z" transform="translate(-12.992 -24.186)" fill="#94e0da"/>
          <path id="Path_165267" data-name="Path 165267" d="M38.609,26.374H35.719a1.094,1.094,0,0,1,0-2.187h2.891a1.094,1.094,0,0,1,0,2.188Z" transform="translate(-17.984 -24.186)" fill="#94e0da"/>
        </g>
        <circle id="Ellipse_5023" data-name="Ellipse 5023" cx="10.816" cy="10.816" r="10.816" transform="translate(28.09 18.046)" fill="#500c75"/>
        <rect id="Rectangle_36114" data-name="Rectangle 36114" width="34.531" height="7.579" rx="3.79" transform="translate(21.641 45.547)" fill="#eaeaf0"/>
        <path id="Path_165268" data-name="Path 165268" d="M59.465,71.289A10.775,10.775,0,0,0,67.023,68.2l-.367-1.217a5,5,0,0,0-4.786-3.554H61.63a3.672,3.672,0,1,0-4.331,0H57.06a5,5,0,0,0-4.786,3.554L51.906,68.2A10.775,10.775,0,0,0,59.465,71.289Z" transform="translate(-20.558 -31.61)" fill="#ffb206"/>
        <path id="Path_165269" data-name="Path 165269" d="M77.5,89.375h6.328a2.5,2.5,0,0,1,2.5,2.5v2.578a2.5,2.5,0,0,1-2.5,2.5H77.5Z" transform="translate(-30.156 -43.828)" fill="#e01650"/>
      </g>
      <g id="Group_108301" data-name="Group 108301" transform="translate(0 14.748)">
        <path id="Path_165270" data-name="Path 165270" d="M34.1,109.752h-2.7a1.094,1.094,0,0,0,0,2.188h2.7a1.094,1.094,0,0,0,0-2.187Z" transform="translate(-11.367 -50.375)"/>
        <path id="Path_165271" data-name="Path 165271" d="M75.781,14.748H4.219A4.224,4.224,0,0,0,0,18.968V72.423a3.9,3.9,0,0,0,3.891,3.891h8.921a1.094,1.094,0,0,0,0-2.187H3.891a1.706,1.706,0,0,1-1.7-1.705V28.734H77.813V72.422a1.706,1.706,0,0,1-1.7,1.7H29.961a1.094,1.094,0,0,0,0,2.188H76.109A3.9,3.9,0,0,0,80,72.422V18.968A4.224,4.224,0,0,0,75.781,14.748ZM2.188,26.545V18.968a2.034,2.034,0,0,1,2.031-2.031H75.781a2.034,2.034,0,0,1,2.031,2.031v7.577Z" transform="translate(0 -14.748)"/>
        <path id="Path_165272" data-name="Path 165272" d="M91.883,24.186H49.031a1.094,1.094,0,0,0,0,2.188H91.883a1.094,1.094,0,1,0,0-2.187Z" transform="translate(-17.976 -18.287)"/>
        <path id="Path_165273" data-name="Path 165273" d="M11.986,24.186H9.094a1.094,1.094,0,0,0,0,2.188h2.892a1.094,1.094,0,0,0,0-2.187Z" transform="translate(-3 -18.287)"/>
        <path id="Path_165274" data-name="Path 165274" d="M25.3,24.186H22.406a1.094,1.094,0,0,0,0,2.188H25.3a1.094,1.094,0,0,0,0-2.187Z" transform="translate(-7.992 -18.287)"/>
        <path id="Path_165275" data-name="Path 165275" d="M38.609,24.186H35.719a1.094,1.094,0,0,0,0,2.188h2.891a1.094,1.094,0,0,0,0-2.187Z" transform="translate(-12.984 -18.287)"/>
        <path id="Path_165276" data-name="Path 165276" d="M56.854,45.811a1.094,1.094,0,1,0,0-2.187,11.909,11.909,0,1,0,7.652,2.782A1.094,1.094,0,0,0,63.1,48.082,9.7,9.7,0,0,1,64.844,61.06a6.041,6.041,0,0,0-3.74-3.379,4.766,4.766,0,1,0-8.5,0,6.041,6.041,0,0,0-3.741,3.379,9.712,9.712,0,0,1,7.991-15.249Zm-2.4,13.778h.239a1.094,1.094,0,0,0,.647-1.976,2.578,2.578,0,1,1,3.038,0,1.094,1.094,0,0,0,.646,1.976h.24A3.884,3.884,0,0,1,63,62.363l.166.553a9.678,9.678,0,0,1-12.622,0l.167-.552A3.884,3.884,0,0,1,54.449,59.588Z" transform="translate(-16.854 -25.576)"/>
        <path id="Path_165277" data-name="Path 165277" d="M67.75,97.392A3.6,3.6,0,0,0,71.344,93.8V91.219a3.6,3.6,0,0,0-3.594-3.594H38.219a3.6,3.6,0,0,0-3.594,3.594V93.8a3.6,3.6,0,0,0,3.594,3.594H67.75Zm0-7.579a1.408,1.408,0,0,1,1.406,1.406V93.8A1.408,1.408,0,0,1,67.75,95.2H62.516V89.813ZM36.813,93.8V91.219a1.408,1.408,0,0,1,1.406-1.406H60.328V95.2H38.219A1.408,1.408,0,0,1,36.813,93.8Z" transform="translate(-12.984 -42.077)"/>
      </g>
    </g>
  </g>
</svg>
