<svg xmlns="http://www.w3.org/2000/svg" width="400" height="360" viewBox="0 0 400 360">
  <g id="t1-c2" transform="translate(7616.5 12392)">
    <rect id="Rectangle_36126" data-name="Rectangle 36126" width="400" height="360" rx="15" transform="translate(-7616.5 -12392)" fill="#e8dbfc"/>
    <path id="Rectangle_36126_-_Outline" data-name="Rectangle 36126 - Outline" d="M15,3A12,12,0,0,0,3,15V345a12,12,0,0,0,12,12H385a12,12,0,0,0,12-12V15A12,12,0,0,0,385,3H15m0-3H385a15,15,0,0,1,15,15V345a15,15,0,0,1-15,15H15A15,15,0,0,1,0,345V15A15,15,0,0,1,15,0Z" transform="translate(-7616.5 -12392)" fill="#8f52f5"/>
    <path id="Feature_One" data-name="Feature One" d="M84.94,15.7a5.712,5.712,0,0,1-.881,2.884A5.316,5.316,0,0,1,81.8,20.527a7.7,7.7,0,0,1-3.325.688,6.142,6.142,0,0,1-4.855-2.009,8.294,8.294,0,0,1-1.772-5.672v-.773a9.467,9.467,0,0,1,.8-4.023,6.064,6.064,0,0,1,2.3-2.664,6.429,6.429,0,0,1,3.48-.94,6.741,6.741,0,0,1,4.576,1.5,5.921,5.921,0,0,1,1.966,4.13h-3.76a2.8,2.8,0,0,0-.72-2.052,2.96,2.96,0,0,0-2.062-.623,2.252,2.252,0,0,0-2.062,1.053A6.766,6.766,0,0,0,75.68,12.5v1.106a7.487,7.487,0,0,0,.628,3.577,2.3,2.3,0,0,0,2.165,1.074,2.9,2.9,0,0,0,1.987-.612,2.6,2.6,0,0,0,.73-1.944Zm1.16-.623a6.86,6.86,0,0,1,.677-3.1,4.84,4.84,0,0,1,1.944-2.089,5.856,5.856,0,0,1,2.976-.73,5.344,5.344,0,0,1,4.114,1.617,6.2,6.2,0,0,1,1.5,4.4v.129a6.019,6.019,0,0,1-1.509,4.313,5.359,5.359,0,0,1-4.087,1.6,5.42,5.42,0,0,1-3.985-1.488,5.819,5.819,0,0,1-1.622-4.034Zm3.62.226a4.325,4.325,0,0,0,.5,2.363,1.682,1.682,0,0,0,1.493.752q1.934,0,1.977-2.976v-.365q0-3.126-2-3.126-1.815,0-1.966,2.7Zm12.515-5.93.118,1.364a3.942,3.942,0,0,1,3.319-1.579,3.316,3.316,0,0,1,2.712,1.085,5.165,5.165,0,0,1,.929,3.266V21h-3.631V13.663a1.961,1.961,0,0,0-.354-1.294,1.64,1.64,0,0,0-1.289-.414,1.726,1.726,0,0,0-1.579.838V21H98.84V9.377Zm14.706,11.838a5.975,5.975,0,0,1-4.329-1.6,5.509,5.509,0,0,1-1.654-4.152v-.3a7.138,7.138,0,0,1,.661-3.147,4.834,4.834,0,0,1,1.928-2.111,5.821,5.821,0,0,1,3.008-.747,5.031,5.031,0,0,1,3.867,1.52,5.973,5.973,0,0,1,1.418,4.238v1.407h-7.2a2.609,2.609,0,0,0,.849,1.536,2.525,2.525,0,0,0,1.7.559,3.254,3.254,0,0,0,2.686-1.2l1.654,1.955a4.624,4.624,0,0,1-1.917,1.488A6.48,6.48,0,0,1,116.941,21.215Zm-.408-9.26q-1.59,0-1.891,2.105h3.652v-.279a1.793,1.793,0,0,0-.44-1.348A1.753,1.753,0,0,0,116.533,11.955Zm11.473.623,1.687-3.2h3.76l-3.062,5.661L133.6,21h-3.781l-1.826-3.437L126.2,21h-3.8l3.223-5.962L122.57,9.377h3.8ZM138.436,21h-3.631V9.377h3.631ZM134.59,6.369a1.63,1.63,0,0,1,.559-1.275,2.364,2.364,0,0,1,2.9,0,1.63,1.63,0,0,1,.559,1.275,1.63,1.63,0,0,1-.559,1.275,2.364,2.364,0,0,1-2.9,0A1.63,1.63,0,0,1,134.59,6.369Zm5.618,8.712a6.86,6.86,0,0,1,.677-3.1,4.84,4.84,0,0,1,1.944-2.089,5.856,5.856,0,0,1,2.976-.73,5.344,5.344,0,0,1,4.114,1.617,6.2,6.2,0,0,1,1.5,4.4v.129a6.019,6.019,0,0,1-1.509,4.313,5.359,5.359,0,0,1-4.087,1.6,5.42,5.42,0,0,1-3.985-1.488,5.819,5.819,0,0,1-1.622-4.034Zm3.62.226a4.325,4.325,0,0,0,.5,2.363,1.682,1.682,0,0,0,1.493.752q1.934,0,1.977-2.976v-.365q0-3.126-2-3.126-1.815,0-1.966,2.7ZM146.3,4.5h3.824l-2.986,3.373-2.954-.005Zm10.044,4.877.118,1.364a3.942,3.942,0,0,1,3.319-1.579,3.316,3.316,0,0,1,2.712,1.085,5.165,5.165,0,0,1,.929,3.266V21h-3.631V13.663a1.961,1.961,0,0,0-.354-1.294,1.64,1.64,0,0,0-1.289-.414,1.726,1.726,0,0,0-1.579.838V21h-3.62V9.377Zm21.484,10.366a3.732,3.732,0,0,1-3.1,1.472,3.661,3.661,0,0,1-2.9-1.112,4.676,4.676,0,0,1-.983-3.2V9.377h3.62v7.552a1.3,1.3,0,0,0,1.45,1.493,1.892,1.892,0,0,0,1.772-.892V9.377h3.642V21h-3.395Zm8.809-10.366.118,1.364a3.942,3.942,0,0,1,3.319-1.579,3.316,3.316,0,0,1,2.712,1.085,5.165,5.165,0,0,1,.929,3.266V21h-3.631V13.663a1.961,1.961,0,0,0-.354-1.294,1.64,1.64,0,0,0-1.289-.414,1.726,1.726,0,0,0-1.579.838V21h-3.62V9.377ZM199.538,21h-3.631V9.377h3.631ZM195.692,6.369a1.63,1.63,0,0,1,.559-1.275,2.364,2.364,0,0,1,2.9,0,1.63,1.63,0,0,1,.559,1.275,1.63,1.63,0,0,1-.559,1.275,2.364,2.364,0,0,1-2.9,0A1.63,1.63,0,0,1,195.692,6.369ZM202.61,21V11.891h-1.687V9.377h1.687V8.99a4.438,4.438,0,0,1,1.525-3.556,6.1,6.1,0,0,1,3.964-1.16,14.066,14.066,0,0,1,3.781.623l-.494,2.857-.6-.161a9.572,9.572,0,0,0-2.471-.312q-2.073,0-2.073,1.891v.2h2.277v2.514h-2.277V21Zm10.936,0H209.9V9.377h3.642Zm7.122-2.578a1.61,1.61,0,0,0,1.182-.414,1.517,1.517,0,0,0,.408-1.155h3.395a4.018,4.018,0,0,1-1.37,3.137,5.1,5.1,0,0,1-3.529,1.225,5.158,5.158,0,0,1-4-1.59,6.264,6.264,0,0,1-1.461-4.4v-.15a7.08,7.08,0,0,1,.65-3.11,4.732,4.732,0,0,1,1.875-2.073,5.589,5.589,0,0,1,2.9-.725,5.03,5.03,0,0,1,3.6,1.257,4.458,4.458,0,0,1,1.332,3.405h-3.395a1.987,1.987,0,0,0-.44-1.386,1.52,1.52,0,0,0-1.182-.483q-1.407,0-1.644,1.794a12.659,12.659,0,0,0-.075,1.568,4.972,4.972,0,0,0,.419,2.428A1.45,1.45,0,0,0,220.667,18.422ZM233.73,21a4.088,4.088,0,0,1-.344-1.042,3.366,3.366,0,0,1-2.793,1.257,4.124,4.124,0,0,1-2.793-.994,3.163,3.163,0,0,1-1.149-2.5,3.251,3.251,0,0,1,1.4-2.857,7.114,7.114,0,0,1,4.061-.967h1.117v-.615q0-1.608-1.386-1.608a1.133,1.133,0,0,0-1.289,1.274h-3.62a3.245,3.245,0,0,1,1.434-2.736,6.027,6.027,0,0,1,3.658-1.051,5.284,5.284,0,0,1,3.513,1.085,3.772,3.772,0,0,1,1.321,2.976v5.146a5.269,5.269,0,0,0,.494,2.449V21Zm-2.267-2.363a2.019,2.019,0,0,0,1.123-.29,1.818,1.818,0,0,0,.639-.655V15.833h-1.053q-1.891,0-1.891,1.7a1.036,1.036,0,0,0,.333.8A1.205,1.205,0,0,0,231.463,18.637ZM238.4,15.1a7.1,7.1,0,0,1,1.192-4.351,3.925,3.925,0,0,1,3.33-1.59,3.338,3.338,0,0,1,2.621,1.225V4.5h3.631V21h-3.255l-.183-1.246a3.428,3.428,0,0,1-2.836,1.461,3.918,3.918,0,0,1-3.287-1.59A7.325,7.325,0,0,1,238.4,15.1Zm3.62.226q0,3.094,1.8,3.094a1.782,1.782,0,0,0,1.719-1.01V12.986a1.734,1.734,0,0,0-1.7-1.031q-1.676,0-1.815,2.707ZM257.782,21a4.087,4.087,0,0,1-.344-1.042,3.366,3.366,0,0,1-2.793,1.257,4.124,4.124,0,0,1-2.793-.994,3.163,3.163,0,0,1-1.149-2.5,3.251,3.251,0,0,1,1.4-2.857,7.114,7.114,0,0,1,4.061-.967h1.117v-.615q0-1.608-1.386-1.608A1.133,1.133,0,0,0,254.6,12.95h-3.62a3.245,3.245,0,0,1,1.434-2.736,6.027,6.027,0,0,1,3.658-1.051,5.284,5.284,0,0,1,3.513,1.085,3.772,3.772,0,0,1,1.321,2.976v5.146a5.269,5.269,0,0,0,.494,2.449V21Zm-2.267-2.363a2.019,2.019,0,0,0,1.123-.29,1.818,1.818,0,0,0,.639-.655V15.833h-1.053q-1.891,0-1.891,1.7a1.036,1.036,0,0,0,.333.8A1.205,1.205,0,0,0,255.515,18.637Z" transform="translate(-7583 -12118)" fill="#12263f"/>
    <ellipse id="Ellipse_5028" data-name="Ellipse 5028" cx="90.5" cy="91" rx="90.5" ry="91" transform="translate(-7507 -12352)" fill="#fff"/>
    <g id="la-red" transform="translate(-7507.45 -12311)">
      <g id="Group_106963" data-name="Group 106963" transform="translate(81.138 88.272)">
        <path id="Path_162942" data-name="Path 162942" d="M222.7,462.217h-17.96a1.283,1.283,0,0,1-1.283-1.283v-7.7a1.283,1.283,0,0,1,1.283-1.283H222.7a1.283,1.283,0,0,1,1.283,1.283v7.7A1.283,1.283,0,0,1,222.7,462.217Z" transform="translate(-203.454 -451.954)" fill="#f5d07c"/>
      </g>
      <g id="Group_106964" data-name="Group 106964" transform="translate(81.138 88.272)">
        <path id="Path_162943" data-name="Path 162943" d="M220.88,451.954v2.566A4.276,4.276,0,0,1,216.6,458.8H203.454v2.138a1.283,1.283,0,0,0,1.283,1.283H222.7a1.283,1.283,0,0,0,1.283-1.283v-7.7a1.283,1.283,0,0,0-1.283-1.283Z" transform="translate(-203.454 -451.954)" fill="#f5bb3a"/>
      </g>
      <g id="Group_106965" data-name="Group 106965" transform="translate(88.244 76.94)">
        <path id="Path_162944" data-name="Path 162944" d="M239.837,393.934h6.313v11.332h-6.313Z" transform="translate(-239.837 -393.934)" fill="#efecef"/>
      </g>
      <g id="Group_106966" data-name="Group 106966" transform="translate(101.664 90.247)">
        <path id="Path_162945" data-name="Path 162945" d="M0,0H6.313V15.784H0Z" transform="translate(15.784 0) rotate(90)" fill="#efecef"/>
      </g>
      <g id="Group_106967" data-name="Group 106967" transform="translate(65.354 90.247)">
        <path id="Path_162946" data-name="Path 162946" d="M0,0H6.313V15.784H0Z" transform="translate(15.784 0) rotate(90)" fill="#efecef"/>
      </g>
      <g id="Group_106968" data-name="Group 106968" transform="translate(52.915 1.465)">
        <path id="Path_162947" data-name="Path 162947" d="M97.438,7.5a38.486,38.486,0,1,0,38.486,38.486A38.486,38.486,0,0,0,97.438,7.5ZM128.9,42.565H119.8c-.462-9.387-2.807-17.714-6.408-23.9A31.7,31.7,0,0,1,128.9,42.565ZM107.887,22.823c2.892,5.329,4.654,12.242,5.065,19.742H100.859V15.195C103.409,16.459,105.86,19.088,107.887,22.823Zm-13.87-7.628v27.37H81.924c.412-7.5,2.173-14.413,5.065-19.742C89.016,19.088,91.467,16.459,94.017,15.195ZM81.481,18.67c-3.6,6.181-5.946,14.508-6.408,23.9H65.98A31.7,31.7,0,0,1,81.481,18.67ZM65.98,49.407h9.093c.462,9.387,2.807,17.714,6.408,23.9A31.7,31.7,0,0,1,65.98,49.407ZM86.989,69.149C84.1,63.82,82.335,56.907,81.924,49.407H94.017v27.37C91.467,75.513,89.016,72.884,86.989,69.149Zm13.87,7.628V49.407h12.093c-.412,7.5-2.173,14.413-5.065,19.742C105.86,72.884,103.409,75.513,100.859,76.777ZM113.395,73.3c3.6-6.181,5.946-14.508,6.408-23.9H128.9A31.7,31.7,0,0,1,113.395,73.3Z" transform="translate(-58.952 -7.5)" fill="#ccb3f5"/>
      </g>
      <g id="Group_106969" data-name="Group 106969" transform="translate(59.761 8.311)">
        <path id="Path_162948" data-name="Path 162948" d="M147.555,42.551a38.265,38.265,0,0,1,6.653,18.042A31.4,31.4,0,0,1,157.1,70.77h-3.218a38.216,38.216,0,0,1-1.788,6.842H157.1a31.7,31.7,0,0,1-15.5,23.9,47.064,47.064,0,0,0,5.167-14.034,38.691,38.691,0,0,1-10.586,9.711c-.03.056-.058.115-.088.17-2.027,3.735-4.478,6.364-7.028,7.628v-4.34a38.215,38.215,0,0,1-6.842,1.788v2.551a12.278,12.278,0,0,1-3.009-2.176c-1.088.092-2.187.142-3.3.142A38.3,38.3,0,0,1,94,96.1a38.487,38.487,0,1,0,53.552-53.552Z" transform="translate(-94.003 -42.551)" fill="#a173ee"/>
      </g>
      <g id="Group_106970" data-name="Group 106970" transform="translate(51.45 0)">
        <path id="Path_162949" data-name="Path 162949" d="M268.131,39.549a1.465,1.465,0,0,0-2.115,1.313v27.37a1.465,1.465,0,0,0,1.465,1.465h12.093a1.465,1.465,0,0,0,1.463-1.545A48.641,48.641,0,0,0,275.8,47.792c-2.158-3.977-4.808-6.827-7.665-8.242Zm.814,27.218V43.6a19.772,19.772,0,0,1,4.276,5.586,44.667,44.667,0,0,1,4.786,17.579Z" transform="translate(-224.109 -31.702)"/>
        <path id="Path_162950" data-name="Path 162950" d="M338.073,84.013h9.093a1.465,1.465,0,0,0,1.456-1.622,33.271,33.271,0,0,0-16.216-25,1.465,1.465,0,0,0-2.007,2c3.57,6.128,5.775,14.378,6.21,23.23A1.465,1.465,0,0,0,338.073,84.013Zm7.416-2.93h-6.035a59.142,59.142,0,0,0-3.94-17.861A30.333,30.333,0,0,1,345.489,81.084Z" transform="translate(-275.757 -46.019)"/>
        <path id="Path_162951" data-name="Path 162951" d="M91.4,0a39.951,39.951,0,0,0-4.622,79.634v7.173H82.421a2.751,2.751,0,0,0-2.636,1.975H65.354a1.465,1.465,0,0,0,0,2.93H79.673V95.1H65.354a1.465,1.465,0,1,0,0,2.93H79.785A2.751,2.751,0,0,0,82.421,100h9.639a1.465,1.465,0,0,0,0-2.93H82.6V89.736h17.6V97.07H98.9a1.465,1.465,0,0,0,0,2.93h1.486a2.751,2.751,0,0,0,2.635-1.975h14.431a1.465,1.465,0,0,0,0-2.93H103.129V91.712h14.318a1.465,1.465,0,0,0,0-2.93H103.017a2.751,2.751,0,0,0-2.636-1.975H96.023v-7.17a39.708,39.708,0,0,0,17.734-6.568,1.465,1.465,0,0,0-1.641-2.427,37.077,37.077,0,1,1,5.1-4.149,1.465,1.465,0,0,0,2.043,2.1A39.952,39.952,0,0,0,91.4,0Zm1.692,79.866v6.941H89.709V79.864c.561.023,1.125.038,1.692.038S92.531,79.889,93.093,79.866Z" transform="translate(-51.45 0)"/>
        <path id="Path_162952" data-name="Path 162952" d="M266.016,243.4a1.465,1.465,0,0,0,2.115,1.313c2.856-1.416,5.507-4.266,7.665-8.242a48.647,48.647,0,0,0,5.241-20.36,1.465,1.465,0,0,0-1.463-1.545H267.481a1.465,1.465,0,0,0-1.465,1.465Zm2.93-25.905h9.061a44.667,44.667,0,0,1-4.786,17.579,19.77,19.77,0,0,1-4.276,5.587Z" transform="translate(-224.109 -172.657)"/>
        <path id="Path_162953" data-name="Path 162953" d="M87.445,216.186a33.272,33.272,0,0,0,16.216,25,1.465,1.465,0,0,0,2.007-2c-3.57-6.128-5.775-14.378-6.211-23.23a1.465,1.465,0,0,0-1.463-1.393H88.9a1.465,1.465,0,0,0-1.456,1.622Zm9.169,1.307a59.142,59.142,0,0,0,3.94,17.861,30.333,30.333,0,0,1-9.976-17.861Z" transform="translate(-80.408 -172.657)"/>
        <path id="Path_162954" data-name="Path 162954" d="M184.09,40.861a1.465,1.465,0,0,0-2.115-1.313c-2.856,1.415-5.507,4.265-7.665,8.242a48.647,48.647,0,0,0-5.241,20.361,1.465,1.465,0,0,0,1.463,1.545h12.093a1.465,1.465,0,0,0,1.465-1.465Zm-2.93,25.905H172.1a44.667,44.667,0,0,1,4.786-17.579A19.769,19.769,0,0,1,181.16,43.6Z" transform="translate(-146.095 -31.702)"/>
        <path id="Path_162955" data-name="Path 162955" d="M181.974,244.712a1.465,1.465,0,0,0,2.115-1.312v-27.37a1.465,1.465,0,0,0-1.465-1.465H170.532a1.465,1.465,0,0,0-1.463,1.545,48.644,48.644,0,0,0,5.241,20.36C176.467,240.446,179.118,243.3,181.974,244.712Zm-.814-27.218v23.165a19.771,19.771,0,0,1-4.276-5.587,44.667,44.667,0,0,1-4.786-17.579h9.061Z" transform="translate(-146.095 -172.657)"/>
        <path id="Path_162956" data-name="Path 162956" d="M331.666,241.389a1.462,1.462,0,0,0,.741-.2,33.271,33.271,0,0,0,16.216-25,1.465,1.465,0,0,0-1.456-1.622h-9.093a1.465,1.465,0,0,0-1.463,1.393c-.435,8.852-2.641,17.1-6.211,23.23a1.465,1.465,0,0,0,1.266,2.2Zm7.788-23.9h6.035a30.333,30.333,0,0,1-9.976,17.861A59.136,59.136,0,0,0,339.453,217.494Z" transform="translate(-275.757 -172.657)"/>
        <path id="Path_162957" data-name="Path 162957" d="M92.4,71.111a1.465,1.465,0,0,0-1.952.694,32.776,32.776,0,0,0-2.995,10.587,1.465,1.465,0,0,0,1.456,1.622H98a1.465,1.465,0,0,0,1.463-1.393c.436-8.851,2.642-17.1,6.211-23.229a1.465,1.465,0,0,0-2.007-2,33.151,33.151,0,0,0-9.478,8.329A1.465,1.465,0,1,0,96.5,67.514a30.4,30.4,0,0,1,4.062-4.3,59.152,59.152,0,0,0-3.947,17.874H90.581a29.844,29.844,0,0,1,2.508-8.021,1.465,1.465,0,0,0-.694-1.952Z" transform="translate(-80.411 -46.019)"/>
      </g>
    </g>
  </g>
</svg>
