<svg xmlns="http://www.w3.org/2000/svg" xmlns:xlink="http://www.w3.org/1999/xlink" width="190" height="100" viewBox="0 0 190 100">
  <defs>
    <linearGradient id="linear-gradient" x1="0.5" x2="0.5" y2="1" gradientUnits="objectBoundingBox">
      <stop offset="0" stop-color="#f95d2c" stop-opacity="0"/>
      <stop offset="0.091" stop-color="#f96826" stop-opacity="0.133"/>
      <stop offset="0.283" stop-color="#fb7e1d" stop-opacity="0.392"/>
      <stop offset="0.465" stop-color="#fc9014" stop-opacity="0.612"/>
      <stop offset="0.633" stop-color="#fd9f0e" stop-opacity="0.78"/>
      <stop offset="0.784" stop-color="#fea909" stop-opacity="0.898"/>
      <stop offset="0.911" stop-color="#feaf07" stop-opacity="0.973"/>
      <stop offset="1" stop-color="#ffb206"/>
    </linearGradient>
    <linearGradient id="linear-gradient-2" x1="0.5" x2="0.5" y2="1" gradientUnits="objectBoundingBox">
      <stop offset="0" stop-color="#ea3065" stop-opacity="0"/>
      <stop offset="0.091" stop-color="#ea3065" stop-opacity="0.133"/>
      <stop offset="0.283" stop-color="#ea3065" stop-opacity="0.392"/>
      <stop offset="0.465" stop-color="#ea3065" stop-opacity="0.612"/>
      <stop offset="0.633" stop-color="#ea3065" stop-opacity="0.78"/>
      <stop offset="0.784" stop-color="#ea3065" stop-opacity="0.898"/>
      <stop offset="0.911" stop-color="#ea3065" stop-opacity="0.973"/>
      <stop offset="1" stop-color="#ea3065"/>
    </linearGradient>
  </defs>
  <g id="t1-ic2" transform="translate(-180 -1567)">
    <g id="Group_96925" data-name="Group 96925" transform="translate(0 -45)">
      <g id="Group_96874" data-name="Group 96874" transform="translate(180 1665.666)">
        <rect id="Rectangle_5242" data-name="Rectangle 5242" width="12" height="46.333" transform="translate(0 0)" fill="url(#linear-gradient)"/>
      </g>
      <g id="Group_96875" data-name="Group 96875" transform="translate(370 1664) rotate(180)">
        <rect id="Rectangle_5242-2" data-name="Rectangle 5242" width="12" height="52" transform="translate(0 0)" fill="url(#linear-gradient-2)"/>
      </g>
    </g>
    <g id="servidor" transform="translate(179.431 1567)">
      <g id="Group_96902" data-name="Group 96902" transform="translate(69.474 79.2)">
        <g id="Group_96897" data-name="Group 96897" transform="translate(15.784 9.072)">
          <path id="Path_151565" data-name="Path 151565" d="M222.7,462.217h-17.96a1.283,1.283,0,0,1-1.283-1.283v-7.7a1.283,1.283,0,0,1,1.283-1.283H222.7a1.283,1.283,0,0,1,1.283,1.283v7.7A1.283,1.283,0,0,1,222.7,462.217Z" transform="translate(-203.454 -451.954)" fill="#ffcd5e"/>
        </g>
        <g id="Group_96898" data-name="Group 96898" transform="translate(15.784 9.072)">
          <path id="Path_151566" data-name="Path 151566" d="M220.88,451.954v2.566A4.276,4.276,0,0,1,216.6,458.8H203.454v2.138a1.283,1.283,0,0,0,1.283,1.283H222.7a1.283,1.283,0,0,0,1.283-1.283v-7.7a1.283,1.283,0,0,0-1.283-1.283Z" transform="translate(-203.454 -451.954)" fill="#ffb206"/>
        </g>
        <g id="Group_96899" data-name="Group 96899" transform="translate(22.89)">
          <path id="Path_151567" data-name="Path 151567" d="M239.837,405.5h6.313v9.072h-6.313Z" transform="translate(-239.837 -405.504)" fill="#efecef"/>
        </g>
        <g id="Group_96900" data-name="Group 96900" transform="translate(36.31 11.047)">
          <path id="Path_151568" data-name="Path 151568" d="M0,0H6.313V15.784H0Z" transform="translate(15.784) rotate(90)" fill="#efecef"/>
        </g>
        <g id="Group_96901" data-name="Group 96901" transform="translate(0 11.047)">
          <path id="Path_151569" data-name="Path 151569" d="M0,0H6.313V15.784H0Z" transform="translate(15.784) rotate(90)" fill="#efecef"/>
        </g>
      </g>
      <g id="Group_96923" data-name="Group 96923" transform="translate(58.035 1.465)">
        <g id="Group_96903" data-name="Group 96903" transform="translate(4.143 49.719)">
          <path id="Path_151570" data-name="Path 151570" d="M85.283,262.061H151.97v6.313H85.283Z" transform="translate(-85.283 -262.061)" fill="#8f52f5"/>
        </g>
        <g id="Group_96909" data-name="Group 96909" transform="translate(0 56.032)">
          <g id="Group_96904" data-name="Group 96904">
            <path id="Path_151571" data-name="Path 151571" d="M135.885,316.088H67.226a3.157,3.157,0,0,1-3.157-3.157V297.542a3.157,3.157,0,0,1,3.157-3.157h68.66a3.157,3.157,0,0,1,3.157,3.157v15.389A3.157,3.157,0,0,1,135.885,316.088Z" transform="translate(-64.069 -294.385)" fill="#f6f6f6"/>
          </g>
          <g id="Group_96905" data-name="Group 96905" transform="translate(66.687 0)">
            <path id="Path_151572" data-name="Path 151572" d="M410.634,294.386H405.5a3.157,3.157,0,0,1,3.157,3.157v15.389a3.157,3.157,0,0,1-3.157,3.157h5.13a3.157,3.157,0,0,0,3.157-3.157V297.543A3.157,3.157,0,0,0,410.634,294.386Z" transform="translate(-405.504 -294.386)" fill="#d3effd"/>
          </g>
          <g id="Group_96906" data-name="Group 96906" transform="translate(6.313 7.695)">
            <circle id="Ellipse_4413" data-name="Ellipse 4413" cx="3.157" cy="3.157" r="3.157" fill="#e01650"/>
          </g>
          <g id="Group_96907" data-name="Group 96907" transform="translate(18.94 7.695)">
            <circle id="Ellipse_4414" data-name="Ellipse 4414" cx="3.157" cy="3.157" r="3.157" fill="#ffb206"/>
          </g>
          <g id="Group_96908" data-name="Group 96908" transform="translate(31.568 7.695)">
            <circle id="Ellipse_4415" data-name="Ellipse 4415" cx="3.157" cy="3.157" r="3.157" fill="#ffb206"/>
          </g>
        </g>
        <g id="Group_96910" data-name="Group 96910" transform="translate(4.143 21.703)">
          <path id="Path_151573" data-name="Path 151573" d="M85.283,118.618H151.97v6.313H85.283Z" transform="translate(-85.283 -118.618)" fill="#8f52f5"/>
        </g>
        <g id="Group_96916" data-name="Group 96916">
          <g id="Group_96911" data-name="Group 96911">
            <path id="Path_151574" data-name="Path 151574" d="M135.885,29.2H67.226a3.157,3.157,0,0,1-3.157-3.157V10.657A3.157,3.157,0,0,1,67.226,7.5h68.66a3.157,3.157,0,0,1,3.157,3.157V26.046A3.157,3.157,0,0,1,135.885,29.2Z" transform="translate(-64.069 -7.5)" fill="#f6f6f6"/>
          </g>
          <g id="Group_96912" data-name="Group 96912" transform="translate(66.687 0)">
            <path id="Path_151575" data-name="Path 151575" d="M410.634,7.5H405.5a3.157,3.157,0,0,1,3.157,3.157V26.046A3.157,3.157,0,0,1,405.5,29.2h5.13a3.157,3.157,0,0,0,3.157-3.157V10.657A3.157,3.157,0,0,0,410.634,7.5Z" transform="translate(-405.504 -7.5)" fill="#d3effd"/>
          </g>
          <g id="Group_96913" data-name="Group 96913" transform="translate(6.313 7.695)">
            <circle id="Ellipse_4416" data-name="Ellipse 4416" cx="3.157" cy="3.157" r="3.157" fill="#e01650"/>
          </g>
          <g id="Group_96914" data-name="Group 96914" transform="translate(18.94 7.695)">
            <circle id="Ellipse_4417" data-name="Ellipse 4417" cx="3.157" cy="3.157" r="3.157" fill="#ffb206"/>
          </g>
          <g id="Group_96915" data-name="Group 96915" transform="translate(31.568 7.695)">
            <circle id="Ellipse_4418" data-name="Ellipse 4418" cx="3.157" cy="3.157" r="3.157" fill="#ffb206"/>
          </g>
        </g>
        <g id="Group_96922" data-name="Group 96922" transform="translate(0 28.016)">
          <g id="Group_96917" data-name="Group 96917">
            <path id="Path_151576" data-name="Path 151576" d="M135.885,172.645H67.226a3.157,3.157,0,0,1-3.157-3.157V154.1a3.157,3.157,0,0,1,3.157-3.157h68.66a3.157,3.157,0,0,1,3.157,3.157v15.389A3.157,3.157,0,0,1,135.885,172.645Z" transform="translate(-64.069 -150.942)" fill="#f6f6f6"/>
          </g>
          <g id="Group_96918" data-name="Group 96918" transform="translate(66.687 0)">
            <path id="Path_151577" data-name="Path 151577" d="M410.634,150.943H405.5a3.157,3.157,0,0,1,3.157,3.157v15.389a3.157,3.157,0,0,1-3.157,3.157h5.13a3.157,3.157,0,0,0,3.157-3.157V154.1A3.157,3.157,0,0,0,410.634,150.943Z" transform="translate(-405.504 -150.943)" fill="#d3effd"/>
          </g>
          <g id="Group_96919" data-name="Group 96919" transform="translate(6.313 7.695)">
            <circle id="Ellipse_4419" data-name="Ellipse 4419" cx="3.157" cy="3.157" r="3.157" fill="#e01650"/>
          </g>
          <g id="Group_96920" data-name="Group 96920" transform="translate(18.94 7.695)">
            <circle id="Ellipse_4420" data-name="Ellipse 4420" cx="3.157" cy="3.157" r="3.157" fill="#ffb206"/>
          </g>
          <g id="Group_96921" data-name="Group 96921" transform="translate(31.568 7.695)">
            <circle id="Ellipse_4421" data-name="Ellipse 4421" cx="3.157" cy="3.157" r="3.157" fill="#ffb206"/>
          </g>
        </g>
      </g>
      <g id="Group_96924" data-name="Group 96924" transform="translate(56.57 0)">
        <path id="Path_151578" data-name="Path 151578" d="M285.483,326.282h-1.172a1.465,1.465,0,0,0,0,2.93h1.172a1.465,1.465,0,1,0,0-2.93Z" transform="translate(-238.651 -262.555)"/>
        <path id="Path_151579" data-name="Path 151579" d="M323.1,326.282H321.04a1.465,1.465,0,0,0,0,2.93H323.1a1.465,1.465,0,0,0,0-2.93Z" transform="translate(-268.207 -262.555)"/>
        <path id="Path_151580" data-name="Path 151580" d="M364.363,326.282H362.3a1.465,1.465,0,0,0,0,2.93h2.058a1.465,1.465,0,0,0,0-2.93Z" transform="translate(-301.412 -262.555)"/>
        <path id="Path_151581" data-name="Path 151581" d="M403.57,329.212h1.172a1.465,1.465,0,0,0,0-2.93H403.57a1.465,1.465,0,0,0,0,2.93Z" transform="translate(-334.618 -262.555)"/>
        <path id="Path_151582" data-name="Path 151582" d="M403.57,361.537h1.172a1.465,1.465,0,0,0,0-2.93H403.57a1.465,1.465,0,0,0,0,2.93Z" transform="translate(-334.618 -288.567)"/>
        <path id="Path_151583" data-name="Path 151583" d="M364.363,358.607H362.3a1.465,1.465,0,0,0,0,2.93h2.058a1.465,1.465,0,0,0,0-2.93Z" transform="translate(-301.412 -288.567)"/>
        <path id="Path_151584" data-name="Path 151584" d="M323.1,358.607H321.04a1.465,1.465,0,0,0,0,2.93H323.1a1.465,1.465,0,0,0,0-2.93Z" transform="translate(-268.207 -288.567)"/>
        <path id="Path_151585" data-name="Path 151585" d="M285.483,358.607h-1.172a1.465,1.465,0,0,0,0,2.93h1.172a1.465,1.465,0,0,0,0-2.93Z" transform="translate(-238.651 -288.567)"/>
        <path id="Path_151586" data-name="Path 151586" d="M88.895,330.9a4.622,4.622,0,1,0,4.622-4.622A4.627,4.627,0,0,0,88.895,330.9Zm6.313,0a1.692,1.692,0,1,1-1.692-1.692A1.694,1.694,0,0,1,95.208,330.9Z" transform="translate(-82.582 -262.555)"/>
        <path id="Path_151587" data-name="Path 151587" d="M153.545,330.9a4.622,4.622,0,1,0,4.622-4.622A4.627,4.627,0,0,0,153.545,330.9Zm6.313,0a1.692,1.692,0,1,1-1.692-1.692A1.694,1.694,0,0,1,159.858,330.9Z" transform="translate(-134.605 -262.555)"/>
        <path id="Path_151588" data-name="Path 151588" d="M218.2,330.9a4.622,4.622,0,1,0,4.622-4.622A4.627,4.627,0,0,0,218.2,330.9Zm6.314,0a1.692,1.692,0,1,1-1.692-1.692A1.694,1.694,0,0,1,224.509,330.9Z" transform="translate(-186.628 -262.555)"/>
        <path id="Path_151589" data-name="Path 151589" d="M134.472,20.012V4.621A4.626,4.626,0,0,0,129.851,0h-6.828a1.465,1.465,0,1,0,0,2.93h6.828a1.693,1.693,0,0,1,1.691,1.691V20.012a1.693,1.693,0,0,1-1.691,1.691H61.191A1.693,1.693,0,0,1,59.5,20.012V4.621A1.693,1.693,0,0,1,61.191,2.93h55a1.465,1.465,0,1,0,0-2.93h-55A4.626,4.626,0,0,0,56.57,4.621V20.012a4.628,4.628,0,0,0,4.143,4.6V28.04a4.629,4.629,0,0,0-4.143,4.6V48.027a4.628,4.628,0,0,0,4.143,4.6v3.434a4.627,4.627,0,0,0-4.143,4.6V76.043a4.626,4.626,0,0,0,4.621,4.621H90.9v6.143H86.541a2.751,2.751,0,0,0-2.635,1.975H69.474a1.465,1.465,0,1,0,0,2.93H83.793V95.1H69.474a1.465,1.465,0,0,0,0,2.93H83.906A2.751,2.751,0,0,0,86.541,100H104.5a2.751,2.751,0,0,0,2.635-1.975h14.432a1.465,1.465,0,0,0,0-2.93H107.249V91.712h14.319a1.465,1.465,0,1,0,0-2.93H107.136a2.751,2.751,0,0,0-2.635-1.975h-4.358V80.664h16.171a1.465,1.465,0,1,0,0-2.93H61.191A1.693,1.693,0,0,1,59.5,76.043V60.654a1.693,1.693,0,0,1,1.691-1.691h68.66a1.693,1.693,0,0,1,1.691,1.691V76.043a1.693,1.693,0,0,1-1.691,1.691h-6.7a1.465,1.465,0,0,0,0,2.93h6.7a4.626,4.626,0,0,0,4.621-4.621V60.654a4.627,4.627,0,0,0-4.143-4.6V52.624a4.628,4.628,0,0,0,4.143-4.6V32.639a4.629,4.629,0,0,0-4.143-4.6V24.608A4.628,4.628,0,0,0,134.472,20.012ZM104.319,97.07h-17.6V89.737h17.6ZM97.213,86.807H93.829V80.664h3.384ZM127.4,52.648v3.385H63.643V52.648Zm4.143-20.01V48.027a1.693,1.693,0,0,1-1.691,1.691H61.191A1.693,1.693,0,0,1,59.5,48.027V32.639a1.694,1.694,0,0,1,1.691-1.693h6.053a1.465,1.465,0,0,0,0-2.93h-3.6V24.633H127.4v3.383H74.08a1.465,1.465,0,0,0,0,2.93h55.771a1.694,1.694,0,0,1,1.691,1.693Z" transform="translate(-56.57 0)"/>
        <path id="Path_151590" data-name="Path 151590" d="M285.483,39.4h-1.172a1.465,1.465,0,0,0,0,2.93h1.172a1.465,1.465,0,0,0,0-2.93Z" transform="translate(-238.651 -31.701)"/>
        <path id="Path_151591" data-name="Path 151591" d="M360.84,40.861a1.465,1.465,0,0,0,1.465,1.465h2.058a1.465,1.465,0,0,0,0-2.93H362.3A1.465,1.465,0,0,0,360.84,40.861Z" transform="translate(-301.412 -31.701)"/>
        <path id="Path_151592" data-name="Path 151592" d="M323.1,39.4H321.04a1.465,1.465,0,0,0,0,2.93H323.1a1.465,1.465,0,0,0,0-2.93Z" transform="translate(-268.207 -31.701)"/>
        <path id="Path_151593" data-name="Path 151593" d="M403.57,42.326h1.172a1.465,1.465,0,0,0,0-2.93H403.57a1.465,1.465,0,0,0,0,2.93Z" transform="translate(-334.618 -31.701)"/>
        <path id="Path_151594" data-name="Path 151594" d="M403.57,74.652h1.172a1.465,1.465,0,0,0,0-2.93H403.57a1.465,1.465,0,0,0,0,2.93Z" transform="translate(-334.618 -57.714)"/>
        <path id="Path_151595" data-name="Path 151595" d="M364.363,71.722H362.3a1.465,1.465,0,0,0,0,2.93h2.058a1.465,1.465,0,0,0,0-2.93Z" transform="translate(-301.412 -57.714)"/>
        <path id="Path_151596" data-name="Path 151596" d="M323.1,71.722H321.04a1.465,1.465,0,0,0,0,2.93H323.1a1.465,1.465,0,0,0,0-2.93Z" transform="translate(-268.207 -57.714)"/>
        <path id="Path_151597" data-name="Path 151597" d="M285.483,71.722h-1.172a1.465,1.465,0,0,0,0,2.93h1.172a1.465,1.465,0,0,0,0-2.93Z" transform="translate(-238.651 -57.714)"/>
        <path id="Path_151598" data-name="Path 151598" d="M88.895,44.018A4.622,4.622,0,1,0,93.517,39.4,4.627,4.627,0,0,0,88.895,44.018Zm6.313,0a1.692,1.692,0,1,1-1.692-1.692A1.694,1.694,0,0,1,95.208,44.018Z" transform="translate(-82.582 -31.701)"/>
        <path id="Path_151599" data-name="Path 151599" d="M153.545,44.018a4.622,4.622,0,1,0,4.622-4.622A4.627,4.627,0,0,0,153.545,44.018Zm6.313,0a1.692,1.692,0,1,1-1.692-1.692A1.694,1.694,0,0,1,159.858,44.018Z" transform="translate(-134.605 -31.701)"/>
        <path id="Path_151600" data-name="Path 151600" d="M218.2,44.018a4.622,4.622,0,1,0,4.622-4.622A4.627,4.627,0,0,0,218.2,44.018Zm6.314,0a1.692,1.692,0,1,1-1.692-1.692A1.694,1.694,0,0,1,224.509,44.018Z" transform="translate(-186.628 -31.701)"/>
        <path id="Path_151601" data-name="Path 151601" d="M285.483,182.839h-1.172a1.465,1.465,0,0,0,0,2.93h1.172a1.465,1.465,0,0,0,0-2.93Z" transform="translate(-238.651 -147.128)"/>
        <path id="Path_151602" data-name="Path 151602" d="M323.1,182.839H321.04a1.465,1.465,0,0,0,0,2.93H323.1a1.465,1.465,0,0,0,0-2.93Z" transform="translate(-268.207 -147.128)"/>
        <path id="Path_151603" data-name="Path 151603" d="M364.363,182.839H362.3a1.465,1.465,0,0,0,0,2.93h2.058a1.465,1.465,0,0,0,0-2.93Z" transform="translate(-301.412 -147.128)"/>
        <path id="Path_151604" data-name="Path 151604" d="M404.742,182.839H403.57a1.465,1.465,0,0,0,0,2.93h1.172a1.465,1.465,0,0,0,0-2.93Z" transform="translate(-334.618 -147.128)"/>
        <path id="Path_151605" data-name="Path 151605" d="M404.742,215.165H403.57a1.465,1.465,0,0,0,0,2.93h1.172a1.465,1.465,0,0,0,0-2.93Z" transform="translate(-334.618 -173.141)"/>
        <path id="Path_151606" data-name="Path 151606" d="M364.363,215.165H362.3a1.465,1.465,0,0,0,0,2.93h2.058a1.465,1.465,0,0,0,0-2.93Z" transform="translate(-301.412 -173.141)"/>
        <path id="Path_151607" data-name="Path 151607" d="M323.1,215.165H321.04a1.465,1.465,0,0,0,0,2.93H323.1a1.465,1.465,0,0,0,0-2.93Z" transform="translate(-268.207 -173.141)"/>
        <path id="Path_151608" data-name="Path 151608" d="M285.483,215.165h-1.172a1.465,1.465,0,0,0,0,2.93h1.172a1.465,1.465,0,0,0,0-2.93Z" transform="translate(-238.651 -173.141)"/>
        <path id="Path_151609" data-name="Path 151609" d="M93.516,182.839a4.622,4.622,0,1,0,4.622,4.622A4.627,4.627,0,0,0,93.516,182.839Zm0,6.314a1.692,1.692,0,1,1,1.692-1.692A1.694,1.694,0,0,1,93.516,189.153Z" transform="translate(-82.581 -147.128)"/>
        <path id="Path_151610" data-name="Path 151610" d="M158.167,182.839a4.622,4.622,0,1,0,4.622,4.622A4.627,4.627,0,0,0,158.167,182.839Zm0,6.314a1.692,1.692,0,1,1,1.692-1.692A1.694,1.694,0,0,1,158.167,189.153Z" transform="translate(-134.605 -147.128)"/>
        <path id="Path_151611" data-name="Path 151611" d="M222.817,182.839a4.622,4.622,0,1,0,4.622,4.622A4.627,4.627,0,0,0,222.817,182.839Zm0,6.314a1.692,1.692,0,1,1,1.692-1.692A1.694,1.694,0,0,1,222.817,189.153Z" transform="translate(-186.628 -147.128)"/>
      </g>
    </g>
  </g>
</svg>
