<svg xmlns="http://www.w3.org/2000/svg" xmlns:xlink="http://www.w3.org/1999/xlink" width="263" height="268" viewBox="0 0 263 268">
  <defs>
    <clipPath id="clip-path">
      <path id="icon_arrow-right-circle" data-name="icon / arrow-right-circle" d="M6.328,12.657A6.31,6.31,0,0,1,0,6.328,6.31,6.31,0,0,1,6.328,0a6.31,6.31,0,0,1,6.328,6.328,6.31,6.31,0,0,1-6.328,6.328Zm0-11.506a5.178,5.178,0,1,0,5.178,5.178A5.184,5.184,0,0,0,6.328,1.151Zm0,8.055a.521.521,0,0,1-.4-.173.557.557,0,0,1,0-.805L7.249,6.9H4.027a.575.575,0,0,1,0-1.151H7.249L5.926,4.43a.558.558,0,0,1,0-.806.557.557,0,0,1,.806,0l2.3,2.3c.057.057.115.115.115.173a.207.207,0,0,0,.021.076.378.378,0,0,1,.036.154.349.349,0,0,1-.057.23c0,.058-.059.116-.115.172l-2.3,2.3A.52.52,0,0,1,6.328,9.205Z" transform="translate(0 0)" fill="#fff"/>
    </clipPath>
  </defs>
  <g id="t1-link1" transform="translate(-511 -7645.91)">
    <rect id="Rectangle_35879" data-name="Rectangle 35879" width="263" height="268" rx="15" transform="translate(511 7645.91)" fill="#e01650"/>
    <path id="Feature_One" data-name="Feature One" d="M87.287,14.361h-5.93V18.1h7V21H77.586V5.359h10.8V8.271H81.357v3.3h5.93Zm8.529,3.373a.836.836,0,0,0-.483-.741,7.353,7.353,0,0,0-1.837-.58,8.376,8.376,0,0,1-2.234-.79,3.743,3.743,0,0,1-1.343-1.187,2.834,2.834,0,0,1-.462-1.6A3.212,3.212,0,0,1,90.778,10.2a5.443,5.443,0,0,1,3.459-1.037,6.03,6.03,0,0,1,3.7,1.042,3.258,3.258,0,0,1,1.4,2.739H95.7q0-1.4-1.472-1.4a1.459,1.459,0,0,0-.956.317.981.981,0,0,0-.387.79.9.9,0,0,0,.473.784,4.466,4.466,0,0,0,1.509.494,13.043,13.043,0,0,1,1.821.462q2.621.9,2.621,3.233a3.044,3.044,0,0,1-1.413,2.589,6.2,6.2,0,0,1-3.658,1,6.322,6.322,0,0,1-2.664-.537,4.455,4.455,0,0,1-1.826-1.461,3.308,3.308,0,0,1-.655-1.944h3.384a1.4,1.4,0,0,0,.537,1.176,2.209,2.209,0,0,0,1.321.371,1.738,1.738,0,0,0,1.112-.3A.962.962,0,0,0,95.816,17.734Zm9.4-11.247v2.89h1.912v2.514h-1.912v5.317a1.358,1.358,0,0,0,.236.913,1.268,1.268,0,0,0,.935.258,5.311,5.311,0,0,0,.9-.064V20.9a6.681,6.681,0,0,1-2.041.312,3.792,3.792,0,0,1-2.761-.881,3.61,3.61,0,0,1-.892-2.675V11.891h-1.482V9.377H101.6V6.487ZM115.1,21a4.087,4.087,0,0,1-.344-1.042,3.366,3.366,0,0,1-2.793,1.257,4.124,4.124,0,0,1-2.793-.994,3.163,3.163,0,0,1-1.149-2.5,3.251,3.251,0,0,1,1.4-2.857,7.114,7.114,0,0,1,4.061-.967h1.117v-.615q0-1.608-1.386-1.608a1.133,1.133,0,0,0-1.289,1.274H108.3a3.245,3.245,0,0,1,1.434-2.736,6.027,6.027,0,0,1,3.658-1.051,5.284,5.284,0,0,1,3.513,1.085,3.772,3.772,0,0,1,1.321,2.976v5.146a5.269,5.269,0,0,0,.494,2.449V21Zm-2.267-2.363a2.019,2.019,0,0,0,1.123-.29,1.818,1.818,0,0,0,.639-.655V15.833h-1.053q-1.891,0-1.891,1.7a1.036,1.036,0,0,0,.333.8A1.205,1.205,0,0,0,112.832,18.637Zm.9-14.137h3.824l-2.986,3.373-2.954-.005Zm10.71,1.987v2.89h1.912v2.514h-1.912v5.317a1.358,1.358,0,0,0,.236.913,1.268,1.268,0,0,0,.935.258,5.311,5.311,0,0,0,.9-.064V20.9a6.681,6.681,0,0,1-2.041.312,3.792,3.792,0,0,1-2.761-.881,3.61,3.61,0,0,1-.892-2.675V11.891h-1.482V9.377h1.482V6.487ZM131.6,21h-3.631V9.377H131.6ZM127.752,6.369a1.63,1.63,0,0,1,.559-1.275,2.364,2.364,0,0,1,2.9,0,1.63,1.63,0,0,1,.559,1.275,1.63,1.63,0,0,1-.559,1.275,2.364,2.364,0,0,1-2.9,0A1.63,1.63,0,0,1,127.752,6.369Zm10.989,12.053a1.61,1.61,0,0,0,1.182-.414,1.517,1.517,0,0,0,.408-1.155h3.395a4.018,4.018,0,0,1-1.37,3.137,5.1,5.1,0,0,1-3.529,1.225,5.158,5.158,0,0,1-4-1.59,6.264,6.264,0,0,1-1.461-4.4v-.15a7.08,7.08,0,0,1,.65-3.11A4.732,4.732,0,0,1,135.9,9.887a5.589,5.589,0,0,1,2.9-.725,5.03,5.03,0,0,1,3.6,1.257,4.458,4.458,0,0,1,1.332,3.405h-3.395a1.987,1.987,0,0,0-.44-1.386,1.52,1.52,0,0,0-1.182-.483q-1.407,0-1.644,1.794a12.659,12.659,0,0,0-.075,1.568,4.972,4.972,0,0,0,.419,2.428A1.45,1.45,0,0,0,138.742,18.422Zm6.059-3.341a6.86,6.86,0,0,1,.677-3.1,4.84,4.84,0,0,1,1.944-2.089,5.856,5.856,0,0,1,2.976-.73,5.344,5.344,0,0,1,4.114,1.617,6.2,6.2,0,0,1,1.5,4.4v.129a6.019,6.019,0,0,1-1.509,4.313,5.359,5.359,0,0,1-4.087,1.6,5.42,5.42,0,0,1-3.985-1.488,5.819,5.819,0,0,1-1.622-4.034Zm3.62.226a4.325,4.325,0,0,0,.5,2.363,1.682,1.682,0,0,0,1.493.752q1.934,0,1.977-2.976v-.365q0-3.126-2-3.126-1.815,0-1.966,2.7Z" transform="translate(526 7809.91)" fill="#fff"/>
    <g id="Group_100232" data-name="Group 100232" transform="translate(370.828 6926.91)">
      <path id="Path_165382" data-name="Path 165382" d="M2.828,13.773H8.219V15H1.32V3.625H2.828Zm10.383,1.383a3.693,3.693,0,0,1-2.8-1.129,4.19,4.19,0,0,1-1.078-3.02v-.266A5.073,5.073,0,0,1,9.816,8.5,3.748,3.748,0,0,1,11.16,6.949a3.378,3.378,0,0,1,1.871-.559,3.166,3.166,0,0,1,2.563,1.086,4.7,4.7,0,0,1,.914,3.109v.6H10.781a3,3,0,0,0,.73,2.02,2.3,2.3,0,0,0,1.777.77,2.517,2.517,0,0,0,1.3-.312,3.259,3.259,0,0,0,.93-.828l.883.688A3.55,3.55,0,0,1,13.211,15.156Zm-.18-7.578a1.928,1.928,0,0,0-1.469.637A3.1,3.1,0,0,0,10.828,10h4.234V9.891a2.753,2.753,0,0,0-.594-1.707A1.815,1.815,0,0,0,13.031,7.578Zm8.656,7.578a3.693,3.693,0,0,1-2.8-1.129,4.19,4.19,0,0,1-1.078-3.02v-.266a5.073,5.073,0,0,1,.48-2.246,3.748,3.748,0,0,1,1.344-1.547,3.378,3.378,0,0,1,1.871-.559A3.166,3.166,0,0,1,24.07,7.477a4.7,4.7,0,0,1,.914,3.109v.6H19.258a3,3,0,0,0,.73,2.02,2.3,2.3,0,0,0,1.777.77,2.517,2.517,0,0,0,1.3-.312,3.259,3.259,0,0,0,.93-.828l.883.688A3.55,3.55,0,0,1,21.688,15.156Zm-.18-7.578a1.928,1.928,0,0,0-1.469.637A3.1,3.1,0,0,0,19.3,10h4.234V9.891a2.753,2.753,0,0,0-.594-1.707A1.815,1.815,0,0,0,21.508,7.578Zm9.234.266a4.331,4.331,0,0,0-.711-.055A1.9,1.9,0,0,0,28.1,9v6H26.656V6.547h1.406l.023.977A2.251,2.251,0,0,1,30.1,6.391a1.477,1.477,0,0,1,.641.109Zm6.648-1.3.039.938a3.122,3.122,0,0,1,2.508-1.094A2.417,2.417,0,0,1,42.352,7.75a3.2,3.2,0,0,1,1.1-.984,3.242,3.242,0,0,1,1.6-.375q2.781,0,2.828,2.945V15H46.43V9.422a1.941,1.941,0,0,0-.414-1.355,1.823,1.823,0,0,0-1.391-.449,1.917,1.917,0,0,0-1.336.48,1.949,1.949,0,0,0-.617,1.293V15H41.219V9.461a1.613,1.613,0,0,0-1.8-1.844,1.934,1.934,0,0,0-1.945,1.211V15H36.023V6.547ZM55.273,15a3.036,3.036,0,0,1-.2-.891,3.225,3.225,0,0,1-2.406,1.047,2.984,2.984,0,0,1-2.051-.707,2.287,2.287,0,0,1-.8-1.793,2.39,2.39,0,0,1,1-2.051,4.733,4.733,0,0,1,2.824-.73h1.406V9.211A1.623,1.623,0,0,0,54.594,8a1.821,1.821,0,0,0-1.336-.449,2.107,2.107,0,0,0-1.3.391,1.151,1.151,0,0,0-.523.945H49.984a2,2,0,0,1,.449-1.223,3.066,3.066,0,0,1,1.219-.934,4.1,4.1,0,0,1,1.691-.344,3.342,3.342,0,0,1,2.289.73,2.635,2.635,0,0,1,.859,2.012v3.891a4.757,4.757,0,0,0,.3,1.852V15Zm-2.4-1.1a2.54,2.54,0,0,0,1.289-.352,2.127,2.127,0,0,0,.883-.914V10.9H53.914q-2.656,0-2.656,1.555a1.316,1.316,0,0,0,.453,1.063A1.742,1.742,0,0,0,52.875,13.9ZM54.211,3.016h1.75l-2.094,2.3-1.164,0Zm9.469,9.742a1.064,1.064,0,0,0-.441-.91,4.249,4.249,0,0,0-1.539-.559,7.277,7.277,0,0,1-1.742-.562A2.479,2.479,0,0,1,59,9.945,1.869,1.869,0,0,1,58.7,8.867a2.193,2.193,0,0,1,.879-1.758,3.432,3.432,0,0,1,2.246-.719,3.532,3.532,0,0,1,2.332.742,2.357,2.357,0,0,1,.895,1.9H63.594a1.3,1.3,0,0,0-.5-1.023,1.888,1.888,0,0,0-1.27-.43,1.976,1.976,0,0,0-1.234.344,1.082,1.082,0,0,0-.445.9.877.877,0,0,0,.414.789,5.1,5.1,0,0,0,1.5.508A7.8,7.8,0,0,1,63.8,10.7a2.558,2.558,0,0,1,1,.809,1.988,1.988,0,0,1,.324,1.152,2.163,2.163,0,0,1-.906,1.816,3.8,3.8,0,0,1-2.352.684,4.257,4.257,0,0,1-1.8-.359,2.922,2.922,0,0,1-1.223-1,2.42,2.42,0,0,1-.441-1.395h1.445a1.5,1.5,0,0,0,.582,1.152,2.258,2.258,0,0,0,1.434.426,2.331,2.331,0,0,0,1.316-.332A1.02,1.02,0,0,0,63.68,12.758Z" transform="translate(227.172 952)" fill="#fff"/>
      <g id="icon_arrow_arrow-right-circle" data-name="icon / arrow / arrow-right-circle" transform="translate(303.172 955.888)">
        <g id="Group_201" data-name="Group 201">
          <path id="icon_arrow-right-circle-2" data-name="icon / arrow-right-circle" d="M6.328,12.657A6.31,6.31,0,0,1,0,6.328,6.31,6.31,0,0,1,6.328,0a6.31,6.31,0,0,1,6.328,6.328,6.31,6.31,0,0,1-6.328,6.328Zm0-11.506a5.178,5.178,0,1,0,5.178,5.178A5.184,5.184,0,0,0,6.328,1.151Zm0,8.055a.521.521,0,0,1-.4-.173.557.557,0,0,1,0-.805L7.249,6.9H4.027a.575.575,0,0,1,0-1.151H7.249L5.926,4.43a.558.558,0,0,1,0-.806.557.557,0,0,1,.806,0l2.3,2.3c.057.057.115.115.115.173a.207.207,0,0,0,.021.076.378.378,0,0,1,.036.154.349.349,0,0,1-.057.23c0,.058-.059.116-.115.172l-2.3,2.3A.52.52,0,0,1,6.328,9.205Z" transform="translate(0 0)" fill="#fff"/>
        </g>
      </g>
    </g>
    <rect id="Rectangle_35877" data-name="Rectangle 35877" width="180" height="1.5" transform="translate(553 7860.91)" fill="#fff"/>
    <g id="Group_108270" data-name="Group 108270" transform="translate(5663.292 9001.85)">
      <path id="Path_165175" data-name="Path 165175" d="M-4970.821-1022.594h1.147a1.434,1.434,0,0,0,1.434-1.434,1.434,1.434,0,0,0-1.434-1.434h-1.147a1.433,1.433,0,0,0-1.434,1.434A1.433,1.433,0,0,0-4970.821-1022.594Z" transform="translate(-78.437 -240.61)" fill="#fff"/>
      <path id="Path_165176" data-name="Path 165176" d="M-4926.49-1022.594h2.748a1.433,1.433,0,0,0,1.434-1.434,1.433,1.433,0,0,0-1.434-1.434h-2.748a1.433,1.433,0,0,0-1.434,1.434A1.433,1.433,0,0,0-4926.49-1022.594Z" transform="translate(-114.294 -240.61)" fill="#fff"/>
      <path id="Path_165177" data-name="Path 165177" d="M-4873.786-1022.594h1.147a1.434,1.434,0,0,0,1.434-1.434,1.434,1.434,0,0,0-1.434-1.434h-1.147a1.434,1.434,0,0,0-1.434,1.434A1.434,1.434,0,0,0-4873.786-1022.594Z" transform="translate(-156.923 -240.61)" fill="#fff"/>
      <path id="Path_165178" data-name="Path 165178" d="M-4873.786-990.268h1.147a1.434,1.434,0,0,0,1.434-1.434,1.434,1.434,0,0,0-1.434-1.434h-1.147a1.434,1.434,0,0,0-1.434,1.434A1.434,1.434,0,0,0-4873.786-990.268Z" transform="translate(-156.923 -266.756)" fill="#fff"/>
      <path id="Path_165179" data-name="Path 165179" d="M-4926.49-990.268h2.748a1.433,1.433,0,0,0,1.434-1.434,1.433,1.433,0,0,0-1.434-1.434h-2.748a1.433,1.433,0,0,0-1.434,1.434A1.433,1.433,0,0,0-4926.49-990.268Z" transform="translate(-114.294 -266.756)" fill="#fff"/>
      <path id="Path_165180" data-name="Path 165180" d="M-4970.821-990.268h1.147a1.434,1.434,0,0,0,1.434-1.434,1.434,1.434,0,0,0-1.434-1.434h-1.147a1.433,1.433,0,0,0-1.434,1.434A1.433,1.433,0,0,0-4970.821-990.268Z" transform="translate(-78.437 -266.756)" fill="#fff"/>
      <path id="Path_165181" data-name="Path 165181" d="M-5032.382-1016.414a4.528,4.528,0,0,0,4.523-4.523,4.528,4.528,0,0,0-4.523-4.524,4.529,4.529,0,0,0-4.523,4.524A4.529,4.529,0,0,0-5032.382-1016.414Zm0-6.18a1.658,1.658,0,0,1,1.656,1.656,1.658,1.658,0,0,1-1.656,1.656,1.658,1.658,0,0,1-1.656-1.656A1.658,1.658,0,0,1-5032.382-1022.594Z" transform="translate(-26.146 -240.61)" fill="#fff"/>
      <path id="Path_165182" data-name="Path 165182" d="M-5026-1036.476v-3.36a4.53,4.53,0,0,0,4.055-4.5v-14.483a4.528,4.528,0,0,0-4.523-4.524h-38.236a4.529,4.529,0,0,0-4.523,4.524v14.483a4.53,4.53,0,0,0,4.055,4.5v3.36a4.53,4.53,0,0,0-4.055,4.5v14.483a4.528,4.528,0,0,0,4.523,4.523h38.236a4.529,4.529,0,0,0,4.525-4.523v-14.483a4.531,4.531,0,0,0-4.056-4.5Zm-40.36-7.859v-14.483a1.658,1.658,0,0,1,1.656-1.656h38.236a1.658,1.658,0,0,1,1.656,1.656v14.483a1.658,1.658,0,0,1-1.656,1.656h-38.236A1.658,1.658,0,0,1-5066.363-1044.335Zm41.548,26.843a1.658,1.658,0,0,1-1.657,1.656h-38.236a1.657,1.657,0,0,1-1.655-1.656v-14.483a1.658,1.658,0,0,1,1.655-1.657h25.7a1.433,1.433,0,0,0,1.434-1.434A1.433,1.433,0,0,0-5039-1036.5h-23.3v-3.312h33.438v3.312h-3.442a1.433,1.433,0,0,0-1.434,1.434,1.433,1.433,0,0,0,1.434,1.434h5.84a1.659,1.659,0,0,1,1.657,1.657Z" transform="translate(0 -209.971)" fill="#fff"/>
      <path id="Path_165183" data-name="Path 165183" d="M-4969.674-885.048h-1.147a1.433,1.433,0,0,0-1.434,1.434,1.433,1.433,0,0,0,1.434,1.434h1.147a1.434,1.434,0,0,0,1.434-1.434A1.434,1.434,0,0,0-4969.674-885.048Z" transform="translate(-78.437 -354.181)" fill="#fff"/>
      <path id="Path_165184" data-name="Path 165184" d="M-4923.742-885.048h-2.748a1.433,1.433,0,0,0-1.434,1.434,1.433,1.433,0,0,0,1.434,1.434h2.748a1.433,1.433,0,0,0,1.434-1.434A1.434,1.434,0,0,0-4923.742-885.048Z" transform="translate(-114.294 -354.181)" fill="#fff"/>
      <path id="Path_165185" data-name="Path 165185" d="M-4872.639-885.048h-1.147a1.434,1.434,0,0,0-1.434,1.434,1.434,1.434,0,0,0,1.434,1.434h1.147a1.434,1.434,0,0,0,1.434-1.434A1.434,1.434,0,0,0-4872.639-885.048Z" transform="translate(-156.923 -354.181)" fill="#fff"/>
      <path id="Path_165186" data-name="Path 165186" d="M-4872.639-852.723h-1.147a1.434,1.434,0,0,0-1.434,1.434,1.434,1.434,0,0,0,1.434,1.434h1.147a1.434,1.434,0,0,0,1.434-1.434A1.434,1.434,0,0,0-4872.639-852.723Z" transform="translate(-156.923 -380.326)" fill="#fff"/>
      <path id="Path_165187" data-name="Path 165187" d="M-4923.742-852.723h-2.748a1.433,1.433,0,0,0-1.434,1.434,1.433,1.433,0,0,0,1.434,1.434h2.748a1.433,1.433,0,0,0,1.434-1.434A1.434,1.434,0,0,0-4923.742-852.723Z" transform="translate(-114.294 -380.326)" fill="#fff"/>
      <path id="Path_165188" data-name="Path 165188" d="M-4969.674-852.723h-1.147a1.433,1.433,0,0,0-1.434,1.434,1.433,1.433,0,0,0,1.434,1.434h1.147a1.434,1.434,0,0,0,1.434-1.434A1.434,1.434,0,0,0-4969.674-852.723Z" transform="translate(-78.437 -380.326)" fill="#fff"/>
      <path id="Path_165189" data-name="Path 165189" d="M-5032.382-885.048a4.529,4.529,0,0,0-4.523,4.523,4.529,4.529,0,0,0,4.523,4.524,4.528,4.528,0,0,0,4.523-4.524A4.528,4.528,0,0,0-5032.382-885.048Zm0,6.18a1.658,1.658,0,0,1-1.656-1.656,1.658,1.658,0,0,1,1.656-1.656,1.658,1.658,0,0,1,1.656,1.656A1.658,1.658,0,0,1-5032.382-878.868Z" transform="translate(-26.146 -354.181)" fill="#fff"/>
      <path id="Path_165190" data-name="Path 165190" d="M-4757.287-1044.336v-14.483a4.528,4.528,0,0,0-4.523-4.523h-3.525a1.433,1.433,0,0,0-1.434,1.434,1.433,1.433,0,0,0,1.434,1.434h3.525a1.657,1.657,0,0,1,1.656,1.656v14.483a1.658,1.658,0,0,1-1.656,1.657h-38.235a1.659,1.659,0,0,1-1.657-1.657v-14.483a1.658,1.658,0,0,1,1.657-1.656h28.02a1.433,1.433,0,0,0,1.434-1.434,1.433,1.433,0,0,0-1.434-1.434h-28.02a4.529,4.529,0,0,0-4.525,4.523v14.483a4.531,4.531,0,0,0,4.056,4.5v3.36a4.53,4.53,0,0,0-4.055,4.5v14.483a4.529,4.529,0,0,0,4.523,4.524h38.236a4.529,4.529,0,0,0,4.524-4.524v-14.483a4.53,4.53,0,0,0-4.056-4.5v-3.36a4.53,4.53,0,0,0,4.056-4.5Zm-40.36,7.837v-3.312h33.438v3.312Zm37.493,4.523v14.483a1.658,1.658,0,0,1-1.656,1.656h-38.236a1.658,1.658,0,0,1-1.656-1.656v-14.483a1.658,1.658,0,0,1,1.656-1.656h38.236A1.658,1.658,0,0,1-4760.155-1031.976Z" transform="translate(-214.065 -209.971)" fill="#fff"/>
      <path id="Path_165191" data-name="Path 165191" d="M-4705.011-1025.461h-1.147a1.433,1.433,0,0,0-1.434,1.434,1.433,1.433,0,0,0,1.434,1.434h1.147a1.434,1.434,0,0,0,1.434-1.434A1.434,1.434,0,0,0-4705.011-1025.461Z" transform="translate(-292.505 -240.61)" fill="#fff"/>
      <path id="Path_165192" data-name="Path 165192" d="M-4659.08-1025.461h-2.748a1.434,1.434,0,0,0-1.434,1.434,1.434,1.434,0,0,0,1.434,1.434h2.748a1.433,1.433,0,0,0,1.434-1.434A1.433,1.433,0,0,0-4659.08-1025.461Z" transform="translate(-328.361 -240.61)" fill="#fff"/>
      <path id="Path_165193" data-name="Path 165193" d="M-4609.123-1022.594h1.147a1.433,1.433,0,0,0,1.434-1.434,1.433,1.433,0,0,0-1.434-1.434h-1.147a1.433,1.433,0,0,0-1.434,1.434A1.433,1.433,0,0,0-4609.123-1022.594Z" transform="translate(-370.991 -240.61)" fill="#fff"/>
      <path id="Path_165194" data-name="Path 165194" d="M-4609.123-990.268h1.147a1.433,1.433,0,0,0,1.434-1.434,1.433,1.433,0,0,0-1.434-1.434h-1.147a1.433,1.433,0,0,0-1.434,1.434A1.433,1.433,0,0,0-4609.123-990.268Z" transform="translate(-370.991 -266.756)" fill="#fff"/>
      <path id="Path_165195" data-name="Path 165195" d="M-4659.08-993.136h-2.748a1.434,1.434,0,0,0-1.434,1.434,1.434,1.434,0,0,0,1.434,1.434h2.748a1.433,1.433,0,0,0,1.434-1.434A1.433,1.433,0,0,0-4659.08-993.136Z" transform="translate(-328.361 -266.756)" fill="#fff"/>
      <path id="Path_165196" data-name="Path 165196" d="M-4705.011-993.136h-1.147a1.433,1.433,0,0,0-1.434,1.434,1.433,1.433,0,0,0,1.434,1.434h1.147a1.434,1.434,0,0,0,1.434-1.434A1.434,1.434,0,0,0-4705.011-993.136Z" transform="translate(-292.505 -266.756)" fill="#fff"/>
      <path id="Path_165197" data-name="Path 165197" d="M-4772.243-1020.937a4.529,4.529,0,0,0,4.523,4.523,4.529,4.529,0,0,0,4.523-4.523,4.529,4.529,0,0,0-4.523-4.524A4.529,4.529,0,0,0-4772.243-1020.937Zm6.18,0a1.658,1.658,0,0,1-1.656,1.656,1.658,1.658,0,0,1-1.656-1.656,1.658,1.658,0,0,1,1.656-1.656A1.658,1.658,0,0,1-4766.063-1020.937Z" transform="translate(-240.213 -240.61)" fill="#fff"/>
      <path id="Path_165198" data-name="Path 165198" d="M-4705.011-885.048h-1.147a1.433,1.433,0,0,0-1.434,1.434,1.433,1.433,0,0,0,1.434,1.434h1.147a1.434,1.434,0,0,0,1.434-1.434A1.434,1.434,0,0,0-4705.011-885.048Z" transform="translate(-292.505 -354.181)" fill="#fff"/>
      <path id="Path_165199" data-name="Path 165199" d="M-4659.08-885.048h-2.748a1.434,1.434,0,0,0-1.434,1.434,1.434,1.434,0,0,0,1.434,1.434h2.748a1.433,1.433,0,0,0,1.434-1.434A1.433,1.433,0,0,0-4659.08-885.048Z" transform="translate(-328.361 -354.181)" fill="#fff"/>
      <path id="Path_165200" data-name="Path 165200" d="M-4607.976-885.048h-1.147a1.433,1.433,0,0,0-1.434,1.434,1.433,1.433,0,0,0,1.434,1.434h1.147a1.433,1.433,0,0,0,1.434-1.434A1.433,1.433,0,0,0-4607.976-885.048Z" transform="translate(-370.991 -354.181)" fill="#fff"/>
      <path id="Path_165201" data-name="Path 165201" d="M-4607.976-852.723h-1.147a1.433,1.433,0,0,0-1.434,1.434,1.433,1.433,0,0,0,1.434,1.434h1.147a1.433,1.433,0,0,0,1.434-1.434A1.433,1.433,0,0,0-4607.976-852.723Z" transform="translate(-370.991 -380.326)" fill="#fff"/>
      <path id="Path_165202" data-name="Path 165202" d="M-4659.08-852.723h-2.748a1.434,1.434,0,0,0-1.434,1.434,1.434,1.434,0,0,0,1.434,1.434h2.748a1.433,1.433,0,0,0,1.434-1.434A1.433,1.433,0,0,0-4659.08-852.723Z" transform="translate(-328.361 -380.326)" fill="#fff"/>
      <path id="Path_165203" data-name="Path 165203" d="M-4705.011-852.723h-1.147a1.433,1.433,0,0,0-1.434,1.434,1.433,1.433,0,0,0,1.434,1.434h1.147a1.434,1.434,0,0,0,1.434-1.434A1.434,1.434,0,0,0-4705.011-852.723Z" transform="translate(-292.505 -380.326)" fill="#fff"/>
      <path id="Path_165204" data-name="Path 165204" d="M-4767.72-885.048a4.529,4.529,0,0,0-4.523,4.523A4.529,4.529,0,0,0-4767.72-876a4.529,4.529,0,0,0,4.523-4.524A4.529,4.529,0,0,0-4767.72-885.048Zm0,6.18a1.658,1.658,0,0,1-1.656-1.656,1.658,1.658,0,0,1,1.656-1.656,1.658,1.658,0,0,1,1.656,1.656A1.658,1.658,0,0,1-4767.72-878.868Z" transform="translate(-240.213 -354.181)" fill="#fff"/>
      <path id="Path_165205" data-name="Path 165205" d="M-4685.956-1238.263h8.608v26.374a1.433,1.433,0,0,0,1.434,1.434,1.433,1.433,0,0,0,1.434-1.434V-1239.7a1.433,1.433,0,0,0-1.434-1.434h-10.042a1.433,1.433,0,0,0-1.434,1.434,1.433,1.433,0,0,0,1.434,1.434Z" transform="translate(-308.846 -66.17)" fill="#fff"/>
      <path id="Path_165206" data-name="Path 165206" d="M-5005.167-1210.455a1.433,1.433,0,0,0,1.434-1.434v-26.374h8.608a1.434,1.434,0,0,0,1.434-1.434,1.434,1.434,0,0,0-1.434-1.434h-10.042a1.433,1.433,0,0,0-1.434,1.434v27.808A1.433,1.433,0,0,0-5005.167-1210.455Z" transform="translate(-50.657 -66.17)" fill="#fff"/>
      <path id="Path_165207" data-name="Path 165207" d="M-4927.342-1306.715a.76.76,0,0,1-.448.433l-5.11,1.757a1.434,1.434,0,0,0-.968,1.356v6.583a1.434,1.434,0,0,0,.968,1.356l5.11,1.756a.81.81,0,0,1,.446,1.078l-2.371,4.855a1.434,1.434,0,0,0,.274,1.643l4.654,4.655a1.433,1.433,0,0,0,1.643.275l4.855-2.371a.808.808,0,0,1,1.078.446l1.756,5.11a1.434,1.434,0,0,0,1.356.968h6.583a1.434,1.434,0,0,0,1.356-.968l1.756-5.11a.81.81,0,0,1,1.078-.446l4.855,2.371a1.434,1.434,0,0,0,1.643-.275l4.654-4.655a1.434,1.434,0,0,0,.275-1.643l-2.372-4.855a.808.808,0,0,1,.446-1.078l5.11-1.756a1.434,1.434,0,0,0,.968-1.356v-6.583a1.434,1.434,0,0,0-.968-1.356l-5.11-1.757a.81.81,0,0,1-.446-1.078l2.372-4.855a1.434,1.434,0,0,0-.275-1.643l-4.654-4.655a1.434,1.434,0,0,0-1.643-.274l-4.855,2.371a.808.808,0,0,1-1.078-.446l-1.756-5.11a1.434,1.434,0,0,0-1.356-.968h-6.583a1.434,1.434,0,0,0-1.356.968l-1.756,5.11a.81.81,0,0,1-1.078.446l-4.855-2.371a1.434,1.434,0,0,0-1.643.274l-4.654,4.655a1.434,1.434,0,0,0-.274,1.643l2.371,4.855a.766.766,0,0,1,0,.644Zm.483,3.145a3.627,3.627,0,0,0,2.167-2.049l.007-.016a3.628,3.628,0,0,0-.082-2.982l-1.922-3.936,3.208-3.207,3.936,1.922a3.638,3.638,0,0,0,3,.075,3.627,3.627,0,0,0,2.049-2.166l1.424-4.142h4.537l1.424,4.142a3.636,3.636,0,0,0,2.065,2.173,3.629,3.629,0,0,0,2.982-.082l3.936-1.922,3.208,3.207-1.922,3.936a3.629,3.629,0,0,0-.082,2.983l.007.018a3.626,3.626,0,0,0,2.166,2.048l4.142,1.424v4.536l-4.143,1.424a3.629,3.629,0,0,0-2.166,2.049l-.007.017a3.628,3.628,0,0,0,.082,2.982l1.922,3.936-3.207,3.208-3.936-1.922a3.638,3.638,0,0,0-3-.075,3.627,3.627,0,0,0-2.049,2.166l-1.424,4.142h-4.536l-1.424-4.142a3.637,3.637,0,0,0-2.066-2.173,3.629,3.629,0,0,0-2.982.082l-3.936,1.922-3.207-3.208,1.922-3.936a3.638,3.638,0,0,0,.075-3,3.627,3.627,0,0,0-2.166-2.049l-4.143-1.424v-4.536Z" transform="translate(-109.486)" fill="#fff"/>
      <path id="Path_165208" data-name="Path 165208" d="M-4859.083-1237.316a10.85,10.85,0,0,0,10.837-10.837,10.85,10.85,0,0,0-10.837-10.837,10.849,10.849,0,0,0-10.837,10.837A10.849,10.849,0,0,0-4859.083-1237.316Zm0-18.807a7.979,7.979,0,0,1,7.97,7.97,7.979,7.979,0,0,1-7.97,7.97,7.979,7.979,0,0,1-7.97-7.97A7.979,7.979,0,0,1-4859.083-1256.124Z" transform="translate(-161.209 -51.724)" fill="#fff"/>
    </g>
  </g>
</svg>
