<svg xmlns="http://www.w3.org/2000/svg" width="80" height="80" viewBox="0 0 80 80">
  <g id="t1-m1" transform="translate(6398.667 4097.943)">
    <rect id="Rectangle_36105" data-name="Rectangle 36105" width="80" height="80" rx="10" transform="translate(-6398.667 -4097.943)" fill="#e01650"/>
    <g id="Group_108271" data-name="Group 108271" transform="translate(-1313.436 -2760.003)">
      <path id="Path_165175" data-name="Path 165175" d="M-4971.538-1024.027h.573a.717.717,0,0,0,.717-.717.717.717,0,0,0-.717-.717h-.573a.717.717,0,0,0-.717.717A.717.717,0,0,0-4971.538-1024.027Z" transform="translate(-87.707 -269.045)" fill="#fff"/>
      <path id="Path_165176" data-name="Path 165176" d="M-4927.207-1024.027h1.374a.717.717,0,0,0,.717-.717.717.717,0,0,0-.717-.717h-1.374a.717.717,0,0,0-.717.717A.717.717,0,0,0-4927.207-1024.027Z" transform="translate(-127.8 -269.045)" fill="#fff"/>
      <path id="Path_165177" data-name="Path 165177" d="M-4874.5-1024.027h.574a.717.717,0,0,0,.717-.717.717.717,0,0,0-.717-.717h-.574a.717.717,0,0,0-.717.717A.717.717,0,0,0-4874.5-1024.027Z" transform="translate(-175.467 -269.045)" fill="#fff"/>
      <path id="Path_165178" data-name="Path 165178" d="M-4874.5-991.7h.574a.717.717,0,0,0,.717-.717.717.717,0,0,0-.717-.717h-.574a.717.717,0,0,0-.717.717A.717.717,0,0,0-4874.5-991.7Z" transform="translate(-175.467 -298.28)" fill="#fff"/>
      <path id="Path_165179" data-name="Path 165179" d="M-4927.207-991.7h1.374a.717.717,0,0,0,.717-.717.717.717,0,0,0-.717-.717h-1.374a.717.717,0,0,0-.717.717A.717.717,0,0,0-4927.207-991.7Z" transform="translate(-127.8 -298.28)" fill="#fff"/>
      <path id="Path_165180" data-name="Path 165180" d="M-4971.538-991.7h.573a.717.717,0,0,0,.717-.717.717.717,0,0,0-.717-.717h-.573a.717.717,0,0,0-.717.717A.717.717,0,0,0-4971.538-991.7Z" transform="translate(-87.707 -298.28)" fill="#fff"/>
      <path id="Path_165181" data-name="Path 165181" d="M-5034.644-1020.937a2.264,2.264,0,0,0,2.262-2.262,2.264,2.264,0,0,0-2.262-2.262,2.264,2.264,0,0,0-2.262,2.262A2.264,2.264,0,0,0-5034.644-1020.937Zm0-3.09a.829.829,0,0,1,.828.828.829.829,0,0,1-.828.828.829.829,0,0,1-.828-.828A.829.829,0,0,1-5034.644-1024.027Z" transform="translate(-29.235 -269.045)" fill="#fff"/>
      <path id="Path_165182" data-name="Path 165182" d="M-5047.617-1049.909v-1.68a2.264,2.264,0,0,0,2.027-2.25v-7.242a2.264,2.264,0,0,0-2.262-2.262h-19.118a2.264,2.264,0,0,0-2.262,2.262v7.242a2.265,2.265,0,0,0,2.028,2.25v1.68a2.265,2.265,0,0,0-2.028,2.25v7.242a2.264,2.264,0,0,0,2.261,2.261h19.118a2.265,2.265,0,0,0,2.263-2.261v-7.242a2.266,2.266,0,0,0-2.028-2.25Zm-20.18-3.93v-7.242a.829.829,0,0,1,.828-.828h19.118a.829.829,0,0,1,.828.828v7.242a.829.829,0,0,1-.828.828h-19.118A.829.829,0,0,1-5067.8-1053.839Zm20.774,13.422a.829.829,0,0,1-.829.828h-19.118a.828.828,0,0,1-.827-.828v-7.242a.829.829,0,0,1,.827-.829h12.853a.717.717,0,0,0,.717-.717.717.717,0,0,0-.717-.717h-11.652v-1.656h16.719v1.656h-1.721a.716.716,0,0,0-.717.717.716.716,0,0,0,.717.717h2.92a.83.83,0,0,1,.829.829Z" transform="translate(0 -234.784)" fill="#fff"/>
      <path id="Path_165183" data-name="Path 165183" d="M-4970.965-885.048h-.573a.717.717,0,0,0-.717.717.717.717,0,0,0,.717.717h.573a.717.717,0,0,0,.717-.717A.717.717,0,0,0-4970.965-885.048Z" transform="translate(-87.707 -396.036)" fill="#fff"/>
      <path id="Path_165184" data-name="Path 165184" d="M-4925.833-885.048h-1.374a.717.717,0,0,0-.717.717.717.717,0,0,0,.717.717h1.374a.717.717,0,0,0,.717-.717A.717.717,0,0,0-4925.833-885.048Z" transform="translate(-127.8 -396.036)" fill="#fff"/>
      <path id="Path_165185" data-name="Path 165185" d="M-4873.929-885.048h-.574a.717.717,0,0,0-.717.717.717.717,0,0,0,.717.717h.574a.717.717,0,0,0,.717-.717A.717.717,0,0,0-4873.929-885.048Z" transform="translate(-175.467 -396.036)" fill="#fff"/>
      <path id="Path_165186" data-name="Path 165186" d="M-4873.929-852.723h-.574a.717.717,0,0,0-.717.717.717.717,0,0,0,.717.717h.574a.717.717,0,0,0,.717-.717A.717.717,0,0,0-4873.929-852.723Z" transform="translate(-175.467 -425.272)" fill="#fff"/>
      <path id="Path_165187" data-name="Path 165187" d="M-4925.833-852.723h-1.374a.717.717,0,0,0-.717.717.717.717,0,0,0,.717.717h1.374a.717.717,0,0,0,.717-.717A.717.717,0,0,0-4925.833-852.723Z" transform="translate(-127.8 -425.272)" fill="#fff"/>
      <path id="Path_165188" data-name="Path 165188" d="M-4970.965-852.723h-.573a.717.717,0,0,0-.717.717.717.717,0,0,0,.717.717h.573a.717.717,0,0,0,.717-.717A.717.717,0,0,0-4970.965-852.723Z" transform="translate(-87.707 -425.272)" fill="#fff"/>
      <path id="Path_165189" data-name="Path 165189" d="M-5034.644-885.048a2.264,2.264,0,0,0-2.262,2.262,2.264,2.264,0,0,0,2.262,2.262,2.264,2.264,0,0,0,2.262-2.262A2.264,2.264,0,0,0-5034.644-885.048Zm0,3.09a.829.829,0,0,1-.828-.828.829.829,0,0,1,.828-.828.829.829,0,0,1,.828.828A.829.829,0,0,1-5034.644-881.958Z" transform="translate(-29.235 -396.036)" fill="#fff"/>
      <path id="Path_165190" data-name="Path 165190" d="M-4780.929-1053.839v-7.242a2.264,2.264,0,0,0-2.262-2.261h-1.763a.717.717,0,0,0-.717.717.717.717,0,0,0,.717.717h1.763a.829.829,0,0,1,.828.828v7.242a.829.829,0,0,1-.828.829h-19.118a.829.829,0,0,1-.828-.829v-7.242a.829.829,0,0,1,.828-.828h14.01a.716.716,0,0,0,.717-.717.716.716,0,0,0-.717-.717h-14.01a2.265,2.265,0,0,0-2.262,2.261v7.242a2.266,2.266,0,0,0,2.028,2.25v1.68a2.264,2.264,0,0,0-2.027,2.25v7.242a2.264,2.264,0,0,0,2.262,2.262h19.118a2.264,2.264,0,0,0,2.262-2.262v-7.242a2.266,2.266,0,0,0-2.028-2.25v-1.68a2.266,2.266,0,0,0,2.028-2.25Zm-20.181,3.918v-1.656h16.719v1.656Zm18.747,2.262v7.242a.829.829,0,0,1-.828.828h-19.118a.829.829,0,0,1-.828-.828v-7.242a.829.829,0,0,1,.828-.828h19.118A.829.829,0,0,1-4782.363-1047.659Z" transform="translate(-239.363 -234.784)" fill="#fff"/>
      <path id="Path_165191" data-name="Path 165191" d="M-4706.3-1025.461h-.573a.717.717,0,0,0-.717.717.717.717,0,0,0,.717.717h.573a.717.717,0,0,0,.717-.717A.717.717,0,0,0-4706.3-1025.461Z" transform="translate(-327.072 -269.045)" fill="#fff"/>
      <path id="Path_165192" data-name="Path 165192" d="M-4661.17-1025.461h-1.374a.717.717,0,0,0-.717.717.717.717,0,0,0,.717.717h1.374a.717.717,0,0,0,.717-.717A.717.717,0,0,0-4661.17-1025.461Z" transform="translate(-367.165 -269.045)" fill="#fff"/>
      <path id="Path_165193" data-name="Path 165193" d="M-4609.839-1024.027h.574a.717.717,0,0,0,.717-.717.717.717,0,0,0-.717-.717h-.574a.717.717,0,0,0-.717.717A.717.717,0,0,0-4609.839-1024.027Z" transform="translate(-414.833 -269.045)" fill="#fff"/>
      <path id="Path_165194" data-name="Path 165194" d="M-4609.839-991.7h.574a.717.717,0,0,0,.717-.717.717.717,0,0,0-.717-.717h-.574a.717.717,0,0,0-.717.717A.717.717,0,0,0-4609.839-991.7Z" transform="translate(-414.833 -298.28)" fill="#fff"/>
      <path id="Path_165195" data-name="Path 165195" d="M-4661.17-993.136h-1.374a.717.717,0,0,0-.717.717.717.717,0,0,0,.717.717h1.374a.717.717,0,0,0,.717-.717A.717.717,0,0,0-4661.17-993.136Z" transform="translate(-367.165 -298.28)" fill="#fff"/>
      <path id="Path_165196" data-name="Path 165196" d="M-4706.3-993.136h-.573a.717.717,0,0,0-.717.717.717.717,0,0,0,.717.717h.573a.717.717,0,0,0,.717-.717A.717.717,0,0,0-4706.3-993.136Z" transform="translate(-327.072 -298.28)" fill="#fff"/>
      <path id="Path_165197" data-name="Path 165197" d="M-4772.243-1023.2a2.264,2.264,0,0,0,2.262,2.262,2.264,2.264,0,0,0,2.262-2.262,2.264,2.264,0,0,0-2.262-2.262A2.264,2.264,0,0,0-4772.243-1023.2Zm3.09,0a.829.829,0,0,1-.828.828.829.829,0,0,1-.828-.828.829.829,0,0,1,.828-.828A.829.829,0,0,1-4769.153-1023.2Z" transform="translate(-268.6 -269.045)" fill="#fff"/>
      <path id="Path_165198" data-name="Path 165198" d="M-4706.3-885.048h-.573a.717.717,0,0,0-.717.717.717.717,0,0,0,.717.717h.573a.717.717,0,0,0,.717-.717A.717.717,0,0,0-4706.3-885.048Z" transform="translate(-327.072 -396.036)" fill="#fff"/>
      <path id="Path_165199" data-name="Path 165199" d="M-4661.17-885.048h-1.374a.717.717,0,0,0-.717.717.717.717,0,0,0,.717.717h1.374a.717.717,0,0,0,.717-.717A.717.717,0,0,0-4661.17-885.048Z" transform="translate(-367.165 -396.036)" fill="#fff"/>
      <path id="Path_165200" data-name="Path 165200" d="M-4609.266-885.048h-.574a.717.717,0,0,0-.717.717.717.717,0,0,0,.717.717h.574a.717.717,0,0,0,.717-.717A.717.717,0,0,0-4609.266-885.048Z" transform="translate(-414.833 -396.036)" fill="#fff"/>
      <path id="Path_165201" data-name="Path 165201" d="M-4609.266-852.723h-.574a.717.717,0,0,0-.717.717.717.717,0,0,0,.717.717h.574a.717.717,0,0,0,.717-.717A.717.717,0,0,0-4609.266-852.723Z" transform="translate(-414.833 -425.272)" fill="#fff"/>
      <path id="Path_165202" data-name="Path 165202" d="M-4661.17-852.723h-1.374a.717.717,0,0,0-.717.717.717.717,0,0,0,.717.717h1.374a.717.717,0,0,0,.717-.717A.717.717,0,0,0-4661.17-852.723Z" transform="translate(-367.165 -425.272)" fill="#fff"/>
      <path id="Path_165203" data-name="Path 165203" d="M-4706.3-852.723h-.573a.717.717,0,0,0-.717.717.717.717,0,0,0,.717.717h.573a.717.717,0,0,0,.717-.717A.717.717,0,0,0-4706.3-852.723Z" transform="translate(-327.072 -425.272)" fill="#fff"/>
      <path id="Path_165204" data-name="Path 165204" d="M-4769.981-885.048a2.264,2.264,0,0,0-2.262,2.262,2.264,2.264,0,0,0,2.262,2.262,2.264,2.264,0,0,0,2.262-2.262A2.264,2.264,0,0,0-4769.981-885.048Zm0,3.09a.829.829,0,0,1-.828-.828.829.829,0,0,1,.828-.828.829.829,0,0,1,.828.828A.829.829,0,0,1-4769.981-881.958Z" transform="translate(-268.6 -396.036)" fill="#fff"/>
      <path id="Path_165205" data-name="Path 165205" d="M-4686.672-1239.7h4.3v13.187a.717.717,0,0,0,.717.717.717.717,0,0,0,.717-.717v-13.9a.717.717,0,0,0-.717-.717h-5.021a.717.717,0,0,0-.717.717.717.717,0,0,0,.717.717Z" transform="translate(-345.344 -73.989)" fill="#fff"/>
      <path id="Path_165206" data-name="Path 165206" d="M-5005.884-1225.793a.717.717,0,0,0,.717-.717V-1239.7h4.3a.717.717,0,0,0,.717-.717.717.717,0,0,0-.717-.717h-5.021a.717.717,0,0,0-.717.717v13.9A.717.717,0,0,0-5005.884-1225.793Z" transform="translate(-56.643 -73.989)" fill="#fff"/>
      <path id="Path_165207" data-name="Path 165207" d="M-4930.6-1314.827a.38.38,0,0,1-.224.217l-2.555.878a.717.717,0,0,0-.484.678v3.291a.717.717,0,0,0,.484.678l2.555.878a.405.405,0,0,1,.223.539l-1.186,2.428a.716.716,0,0,0,.137.822l2.327,2.327a.717.717,0,0,0,.821.137l2.428-1.186a.4.4,0,0,1,.539.223l.878,2.555a.717.717,0,0,0,.678.484h3.291a.717.717,0,0,0,.678-.484l.878-2.555a.4.4,0,0,1,.539-.223l2.428,1.186a.717.717,0,0,0,.821-.137l2.327-2.327a.717.717,0,0,0,.138-.822l-1.186-2.428a.4.4,0,0,1,.223-.539l2.555-.878a.717.717,0,0,0,.484-.678v-3.291a.717.717,0,0,0-.484-.678l-2.555-.878a.405.405,0,0,1-.223-.539l1.186-2.428a.717.717,0,0,0-.138-.822l-2.327-2.327a.717.717,0,0,0-.821-.137l-2.428,1.186a.4.4,0,0,1-.539-.223l-.878-2.555a.717.717,0,0,0-.678-.484h-3.291a.717.717,0,0,0-.678.484l-.878,2.555a.405.405,0,0,1-.539.223l-2.428-1.186a.717.717,0,0,0-.821.137l-2.327,2.327a.716.716,0,0,0-.137.822l1.186,2.428a.383.383,0,0,1,0,.322Zm.242,1.573a1.813,1.813,0,0,0,1.083-1.025l0-.008a1.817,1.817,0,0,0-.041-1.491l-.961-1.968,1.6-1.6,1.968.961a1.819,1.819,0,0,0,1.5.037,1.814,1.814,0,0,0,1.025-1.083l.712-2.071h2.268l.712,2.071a1.818,1.818,0,0,0,1.033,1.087,1.815,1.815,0,0,0,1.491-.041l1.968-.961,1.6,1.6-.961,1.968a1.814,1.814,0,0,0-.041,1.491l0,.009a1.814,1.814,0,0,0,1.083,1.024l2.071.712v2.268l-2.071.712a1.814,1.814,0,0,0-1.083,1.025l0,.008a1.817,1.817,0,0,0,.041,1.491l.961,1.968-1.6,1.6-1.968-.961a1.819,1.819,0,0,0-1.5-.038,1.815,1.815,0,0,0-1.025,1.083l-.712,2.071h-2.268l-.712-2.071a1.819,1.819,0,0,0-1.033-1.086,1.814,1.814,0,0,0-1.491.041l-1.968.961-1.6-1.6.961-1.968a1.818,1.818,0,0,0,.038-1.5,1.814,1.814,0,0,0-1.083-1.025l-2.071-.712v-2.268Z" transform="translate(-122.424)" fill="#fff"/>
      <path id="Path_165208" data-name="Path 165208" d="M-4864.5-1248.154a5.425,5.425,0,0,0,5.418-5.419,5.425,5.425,0,0,0-5.418-5.419,5.425,5.425,0,0,0-5.419,5.419A5.425,5.425,0,0,0-4864.5-1248.154Zm0-9.4a3.989,3.989,0,0,1,3.984,3.985,3.989,3.989,0,0,1-3.984,3.985,3.99,3.99,0,0,1-3.985-3.985A3.99,3.99,0,0,1-4864.5-1257.557Z" transform="translate(-180.26 -57.836)" fill="#fff"/>
    </g>
  </g>
</svg>
