<svg xmlns="http://www.w3.org/2000/svg" width="80" height="80" viewBox="0 0 80 80">
  <g id="t1-m2" transform="translate(6399 3479.943)">
    <rect id="Rectangle_36111" data-name="Rectangle 36111" width="80" height="80" rx="10" transform="translate(-6399 -3479.943)" fill="#723f8e"/>
    <g id="Group_108286" data-name="Group 108286" transform="translate(-3667.415 -2160.6)">
      <path id="Path_165160" data-name="Path 165160" d="M-2369.327-1295.549a.729.729,0,0,0,.4-.119.732.732,0,0,0,.213-1.014,5.97,5.97,0,0,1,0-6.527.732.732,0,0,0-.213-1.014.732.732,0,0,0-1.013.213,7.434,7.434,0,0,0,0,8.128A.731.731,0,0,0-2369.327-1295.549Z" transform="translate(-311.701 -0.002)" fill="#fff"/>
      <path id="Path_165161" data-name="Path 165161" d="M-2337.158-1284.479a.729.729,0,0,0,.478-.178.732.732,0,0,0,.076-1.033,2.837,2.837,0,0,1,0-3.684.732.732,0,0,0-.076-1.033.732.732,0,0,0-1.033.076,4.31,4.31,0,0,0,0,5.6A.73.73,0,0,0-2337.158-1284.479Z" transform="translate(-340.941 -12.415)" fill="#fff"/>
      <path id="Path_165162" data-name="Path 165162" d="M-2236.437-1295.67a.733.733,0,0,0,1.014-.213,7.435,7.435,0,0,0,0-8.129.732.732,0,0,0-1.014-.213.733.733,0,0,0-.213,1.014,5.969,5.969,0,0,1,0,6.527A.733.733,0,0,0-2236.437-1295.67Z" transform="translate(-432.959 0)" fill="#fff"/>
      <path id="Path_165163" data-name="Path 165163" d="M-2266.507-1284.657a.732.732,0,0,0,1.033-.076,4.31,4.31,0,0,0,0-5.6.732.732,0,0,0-1.033-.076.733.733,0,0,0-.076,1.033,2.836,2.836,0,0,1,0,3.684A.733.733,0,0,0-2266.507-1284.657Z" transform="translate(-405.896 -12.414)" fill="#fff"/>
      <path id="Path_165164" data-name="Path 165164" d="M-2668.3-1237.61h-4.4v-22.252a2.314,2.314,0,0,0-1.578-2.191v-3.9a.733.733,0,0,0-.732-.732.732.732,0,0,0-.732.732v3.9a2.315,2.315,0,0,0-1.579,2.191v22.252h-.913a.733.733,0,0,0-.732.732.733.733,0,0,0,.732.732h9.932a.255.255,0,0,1,.254.255v7.751h-47.07v-7.751a.255.255,0,0,1,.254-.255h33.213a.733.733,0,0,0,.732-.732.733.733,0,0,0-.732-.732h-24.193v-13.248a.732.732,0,0,0-.732-.732.732.732,0,0,0-.732.732v13.248H-2709v-22.252a.847.847,0,0,1,.842-.846.851.851,0,0,1,.85.846v5.586a.732.732,0,0,0,.732.732.732.732,0,0,0,.732-.732v-5.586a2.291,2.291,0,0,0-.677-1.633,2.3,2.3,0,0,0-.9-.56v-3.9a.732.732,0,0,0-.732-.732.732.732,0,0,0-.732.732v3.9a2.315,2.315,0,0,0-1.579,2.192v22.252h-4.4a1.721,1.721,0,0,0-1.719,1.72v10.653a1.721,1.721,0,0,0,1.719,1.719h1.24v1.438a1.721,1.721,0,0,0,1.719,1.719h4.34a1.721,1.721,0,0,0,1.719-1.719v-1.438h1.043a.732.732,0,0,0,.732-.732.732.732,0,0,0-.732-.732h-10.062a.254.254,0,0,1-.254-.254v-1.437h47.07v1.438a.254.254,0,0,1-.254.254h-33.082a.732.732,0,0,0-.732.732.732.732,0,0,0,.732.732h24.063v1.438a1.721,1.721,0,0,0,1.719,1.719h4.34a1.721,1.721,0,0,0,1.719-1.719v-1.438h1.241a1.721,1.721,0,0,0,1.719-1.719v-10.653a1.722,1.722,0,0,0-1.719-1.72Zm-7.555-22.252a.847.847,0,0,1,.846-.846.847.847,0,0,1,.846.846v22.252h-1.692Zm-31.454,37.782a.254.254,0,0,1-.254.254h-4.34a.254.254,0,0,1-.254-.254v-1.438h4.849Zm36.3,0a.254.254,0,0,1-.254.254h-4.34a.255.255,0,0,1-.254-.254v-1.438h4.849v1.438Z" transform="translate(0 -33.982)" fill="#fff"/>
      <path id="Path_165165" data-name="Path 165165" d="M-2280.347-932.021a.732.732,0,0,0,.732-.732v-3.157a.732.732,0,0,0-.732-.732h-3.157a.732.732,0,0,0-.732.732v3.157a.732.732,0,0,0,.732.732Zm-2.424-3.157h1.692v1.692h-1.692Z" transform="translate(-390.127 -331.792)" fill="#fff"/>
      <path id="Path_165166" data-name="Path 165166" d="M-2348.886-935.911v3.157a.733.733,0,0,0,.732.732H-2345a.732.732,0,0,0,.732-.732v-3.157a.732.732,0,0,0-.732-.732h-3.157A.732.732,0,0,0-2348.886-935.911Zm1.465.732h1.692v1.692h-1.692Z" transform="translate(-331.791 -331.792)" fill="#fff"/>
      <path id="Path_165167" data-name="Path 165167" d="M-2412.8-936.643a.732.732,0,0,0-.732.732v3.157a.732.732,0,0,0,.732.732h3.157a.732.732,0,0,0,.732-.732v-3.157a.732.732,0,0,0-.732-.732Zm2.424,3.157h-1.692v-1.692h1.692Z" transform="translate(-273.454 -331.792)" fill="#fff"/>
      <path id="Path_165168" data-name="Path 165168" d="M-2684.259-934.333a2.314,2.314,0,0,0,2.311,2.311,2.313,2.313,0,0,0,2.311-2.311,2.313,2.313,0,0,0-2.311-2.311A2.314,2.314,0,0,0-2684.259-934.333Zm3.157,0a.847.847,0,0,1-.846.846.847.847,0,0,1-.846-.846.847.847,0,0,1,.846-.846A.847.847,0,0,1-2681.1-934.333Z" transform="translate(-29.169 -331.791)" fill="#fff"/>
      <path id="Path_165169" data-name="Path 165169" d="M-2619.609-934.333a2.314,2.314,0,0,0,2.311,2.311,2.313,2.313,0,0,0,2.311-2.311,2.313,2.313,0,0,0-2.311-2.311A2.314,2.314,0,0,0-2619.609-934.333Zm3.157,0a.847.847,0,0,1-.846.846.847.847,0,0,1-.846-.846.847.847,0,0,1,.846-.846A.847.847,0,0,1-2616.453-934.333Z" transform="translate(-87.505 -331.791)" fill="#fff"/>
      <path id="Path_165170" data-name="Path 165170" d="M-2554.959-934.333a2.314,2.314,0,0,0,2.311,2.311,2.313,2.313,0,0,0,2.311-2.311,2.313,2.313,0,0,0-2.311-2.311A2.314,2.314,0,0,0-2554.959-934.333Zm3.156,0a.847.847,0,0,1-.846.846.847.847,0,0,1-.846-.846.847.847,0,0,1,.846-.846A.847.847,0,0,1-2551.8-934.333Z" transform="translate(-145.842 -331.791)" fill="#fff"/>
      <path id="Path_165171" data-name="Path 165171" d="M-2575.851-1295.67a.733.733,0,0,0,1.014-.213,7.435,7.435,0,0,0,0-8.129.732.732,0,0,0-1.014-.213.732.732,0,0,0-.213,1.014,5.97,5.97,0,0,1,0,6.527A.732.732,0,0,0-2575.851-1295.67Z" transform="translate(-126.691 0)" fill="#fff"/>
      <path id="Path_165172" data-name="Path 165172" d="M-2605.92-1284.656a.732.732,0,0,0,1.033-.076,4.31,4.31,0,0,0,0-5.6.732.732,0,0,0-1.033-.076.732.732,0,0,0-.076,1.033,2.836,2.836,0,0,1,0,3.684A.732.732,0,0,0-2605.92-1284.656Z" transform="translate(-99.629 -12.415)" fill="#fff"/>
      <path id="Path_165173" data-name="Path 165173" d="M-2708.74-1295.549a.73.73,0,0,0,.4-.119.732.732,0,0,0,.213-1.014,5.97,5.97,0,0,1,0-6.527.732.732,0,0,0-.213-1.014.732.732,0,0,0-1.014.213,7.435,7.435,0,0,0,0,8.128A.732.732,0,0,0-2708.74-1295.549Z" transform="translate(-5.433 -0.002)" fill="#fff"/>
      <path id="Path_165174" data-name="Path 165174" d="M-2676.573-1284.479a.73.73,0,0,0,.478-.178.733.733,0,0,0,.076-1.033,2.836,2.836,0,0,1,0-3.684.733.733,0,0,0-.076-1.033.732.732,0,0,0-1.033.076,4.31,4.31,0,0,0,0,5.6A.731.731,0,0,0-2676.573-1284.479Z" transform="translate(-34.672 -12.415)" fill="#fff"/>
    </g>
  </g>
</svg>
