<svg xmlns="http://www.w3.org/2000/svg" width="80" height="80" viewBox="0 0 80 80">
  <g id="t10-ic3" transform="translate(-18875 10044)">
    <rect id="Rectangle_35984" data-name="Rectangle 35984" width="80" height="80" rx="10" transform="translate(18875 -10044)" fill="#e01650"/>
    <g id="desprotegido" transform="translate(18878.75 -10031)">
      <path id="Path_165321" data-name="Path 165321" d="M83.393,7.234A6.49,6.49,0,0,1,76.911.752.752.752,0,0,0,76.159,0H66.407a.753.753,0,0,0-.721.542L62.612,11.127a.761.761,0,0,0,.722.962h5.278l-5.043,18.6a.76.76,0,0,0,.726.949h4.266L63.471,53.9a1.007,1.007,0,0,0,1.436.979L76.316,47.1a17.93,17.93,0,0,0,7.83-14.819V7.987a.752.752,0,0,0-.753-.752Zm-18.113,22.9,5.043-18.6a.761.761,0,0,0-.726-.949h-5.26L65.724,5.8H72.2a12.4,12.4,0,0,0,6.146,6.148V32.276a12.133,12.133,0,0,1-5.3,10.027l-6.375,4.35,3.567-15.6a.761.761,0,0,0-.733-.92Zm17.363,2.145a16.426,16.426,0,0,1-7.173,13.578L65.261,52.819l.916-4.007,7.717-5.267a13.635,13.635,0,0,0,5.953-11.269V11.454a.753.753,0,0,0-.473-.7A10.867,10.867,0,0,1,73.39,4.771a.753.753,0,0,0-.7-.473H66.159L66.97,1.5h8.472a8,8,0,0,0,7.2,7.2Z" transform="translate(-26.992 0)" fill="#fff"/>
      <path id="Path_165322" data-name="Path 165322" d="M35.62,33.568H31.211l5.043-18.6a.76.76,0,0,0-.726-.949H30.185L33.976.962A.761.761,0,0,0,33.254,0H23.236a.752.752,0,0,0-.752.752A6.49,6.49,0,0,1,16,7.234a.752.752,0,0,0-.752.752v24.29A17.931,17.931,0,0,0,23.079,47.1l10.31,7.035a.759.759,0,0,0,1.172-.551l1.807-19.191a.762.762,0,0,0-.749-.823ZM34.546,15.527,29.5,34.124a.76.76,0,0,0,.725.948h4.566l-1.15,12.209-7.3-4.978a12.133,12.133,0,0,1-5.3-10.027V11.95A12.4,12.4,0,0,0,27.2,5.8h3.806l-2.543,8.763a.76.76,0,0,0,.722.962ZM33.183,52.17l-9.257-6.318a16.427,16.427,0,0,1-7.173-13.576V8.7a8,8,0,0,0,7.2-7.2h8.3L31.442,4.3H26.7a.752.752,0,0,0-.7.473,10.871,10.871,0,0,1-5.988,5.986.752.752,0,0,0-.471.7V32.276A13.635,13.635,0,0,0,25.5,43.545l7.982,5.447Z" transform="translate(0 0)" fill="#fff"/>
    </g>
  </g>
</svg>
