<svg xmlns="http://www.w3.org/2000/svg" xmlns:xlink="http://www.w3.org/1999/xlink" width="190" height="100" viewBox="0 0 190 100">
  <defs>
    <linearGradient id="linear-gradient" x1="0.5" x2="0.5" y2="1" gradientUnits="objectBoundingBox">
      <stop offset="0" stop-color="#f95d2c" stop-opacity="0"/>
      <stop offset="0.091" stop-color="#f96826" stop-opacity="0.133"/>
      <stop offset="0.283" stop-color="#fb7e1d" stop-opacity="0.392"/>
      <stop offset="0.465" stop-color="#fc9014" stop-opacity="0.612"/>
      <stop offset="0.633" stop-color="#fd9f0e" stop-opacity="0.78"/>
      <stop offset="0.784" stop-color="#fea909" stop-opacity="0.898"/>
      <stop offset="0.911" stop-color="#feaf07" stop-opacity="0.973"/>
      <stop offset="1" stop-color="#ffb206"/>
    </linearGradient>
    <linearGradient id="linear-gradient-2" x1="0.5" x2="0.5" y2="1" gradientUnits="objectBoundingBox">
      <stop offset="0" stop-color="#ea3065" stop-opacity="0"/>
      <stop offset="0.091" stop-color="#ea3065" stop-opacity="0.133"/>
      <stop offset="0.283" stop-color="#ea3065" stop-opacity="0.392"/>
      <stop offset="0.465" stop-color="#ea3065" stop-opacity="0.612"/>
      <stop offset="0.633" stop-color="#ea3065" stop-opacity="0.78"/>
      <stop offset="0.784" stop-color="#ea3065" stop-opacity="0.898"/>
      <stop offset="0.911" stop-color="#ea3065" stop-opacity="0.973"/>
      <stop offset="1" stop-color="#ea3065"/>
    </linearGradient>
  </defs>
  <g id="t10-ic1" transform="translate(-180 -1417)">
    <g id="Group_107175" data-name="Group 107175" transform="translate(0 -195)">
      <g id="Group_96874" data-name="Group 96874" transform="translate(180 1665.666)">
        <rect id="Rectangle_5242" data-name="Rectangle 5242" width="12" height="46.333" transform="translate(0 0)" fill="url(#linear-gradient)"/>
      </g>
      <g id="Group_96875" data-name="Group 96875" transform="translate(370 1664) rotate(180)">
        <rect id="Rectangle_5242-2" data-name="Rectangle 5242" width="12" height="52" transform="translate(0 0)" fill="url(#linear-gradient-2)"/>
      </g>
    </g>
    <g id="t10-ic1-2" data-name="t10-ic1" transform="translate(217 1408.261)">
      <g id="Group_107787" data-name="Group 107787" transform="translate(1.583 10.322)">
        <path id="Path_164078" data-name="Path 164078" d="M1.75,29.364V94.2a4.05,4.05,0,0,0,4.05,4.05h34V81.662a3.619,3.619,0,0,1,3.619-3.619H72.731a3.619,3.619,0,0,1,3.619,3.619V98.245h34a4.05,4.05,0,0,0,4.05-4.05V29.364Z" transform="translate(-1.75 -12.286)" fill="#c0a4ee"/>
        <path id="Path_164079" data-name="Path 164079" d="M6.274,10.489h103.6a4.524,4.524,0,0,1,4.524,4.524V27.567H1.75V15.013a4.524,4.524,0,0,1,4.524-4.524Z" transform="translate(-1.75 -10.489)" fill="#7f13ba"/>
        <g id="Group_107785" data-name="Group 107785" transform="translate(5.655 6.955)">
          <path id="Path_164080" data-name="Path 164080" d="M111.556,21.343H49.52a1.583,1.583,0,0,1,0-3.167h62.036a1.583,1.583,0,0,1,0,3.167Z" transform="translate(-11.802 -18.176)" fill="#94e0da"/>
          <path id="Path_164081" data-name="Path 164081" d="M13.77,21.343H9.583a1.583,1.583,0,1,1,0-3.167H13.77a1.583,1.583,0,0,1,0,3.167Z" transform="translate(-8 -18.176)" fill="#94e0da"/>
          <path id="Path_164082" data-name="Path 164082" d="M27.083,21.343H22.9a1.583,1.583,0,1,1,0-3.167h4.187a1.583,1.583,0,0,1,0,3.167Z" transform="translate(-9.267 -18.176)" fill="#94e0da"/>
          <path id="Path_164083" data-name="Path 164083" d="M40.393,21.343H36.208a1.583,1.583,0,1,1,0-3.167h4.185a1.583,1.583,0,1,1,0,3.167Z" transform="translate(-10.535 -18.176)" fill="#94e0da"/>
        </g>
        <g id="Group_107786" data-name="Group 107786" transform="translate(7.465 24.542)">
          <path id="Path_164084" data-name="Path 164084" d="M33.358,37.614H29.417a3.4,3.4,0,0,0-3.393,3.393v7.534a3.4,3.4,0,0,0,3.393,3.393h3.941a3.4,3.4,0,0,0,3.393-3.393V41.007a3.4,3.4,0,0,0-3.393-3.393Zm.226,10.927a.226.226,0,0,1-.226.226H29.417a.226.226,0,0,1-.226-.226V41.007a.226.226,0,0,1,.226-.226h3.941a.226.226,0,0,1,.226.226Z" transform="translate(-11.525 -37.614)" fill="#607880"/>
          <path id="Path_164085" data-name="Path 164085" d="M49.382,37.614H45.443a3.4,3.4,0,0,0-3.393,3.393v7.534a3.4,3.4,0,0,0,3.393,3.393h3.941a3.4,3.4,0,0,0,3.393-3.393V41.007a3.4,3.4,0,0,0-3.395-3.393Zm.226,10.927a.226.226,0,0,1-.226.226H45.443a.226.226,0,0,1-.226-.226V41.007a.226.226,0,0,1,.226-.226h3.941a.226.226,0,0,1,.226.226Z" transform="translate(-13.051 -37.614)" fill="#607880"/>
          <path id="Path_164086" data-name="Path 164086" d="M81.428,37.614H77.489A3.4,3.4,0,0,0,74.1,41.007v7.534a3.4,3.4,0,0,0,3.393,3.393h3.939a3.4,3.4,0,0,0,3.393-3.393V41.007a3.4,3.4,0,0,0-3.393-3.393Zm.226,10.927a.226.226,0,0,1-.226.226H77.489a.226.226,0,0,1-.226-.226V41.007a.226.226,0,0,1,.226-.226h3.939a.226.226,0,0,1,.226.226Z" transform="translate(-16.102 -37.614)" fill="#607880"/>
          <path id="Path_164087" data-name="Path 164087" d="M113.478,37.614h-3.941a3.4,3.4,0,0,0-3.393,3.393v7.534a3.4,3.4,0,0,0,3.393,3.393h3.941a3.4,3.4,0,0,0,3.393-3.393V41.007A3.4,3.4,0,0,0,113.478,37.614Zm.226,10.927a.226.226,0,0,1-.226.226h-3.941a.226.226,0,0,1-.226-.226V41.007a.226.226,0,0,1,.226-.226h3.941a.226.226,0,0,1,.226.226Z" transform="translate(-19.153 -37.614)" fill="#607880"/>
          <path id="Path_164088" data-name="Path 164088" d="M17.334,59.515H13.393A3.4,3.4,0,0,0,10,62.908v7.534a3.4,3.4,0,0,0,3.393,3.393h3.941a3.4,3.4,0,0,0,3.393-3.393V62.908A3.4,3.4,0,0,0,17.334,59.515Zm.226,10.927a.227.227,0,0,1-.226.226H13.393a.227.227,0,0,1-.226-.226V62.908a.226.226,0,0,1,.226-.226h3.941a.226.226,0,0,1,.226.226Z" transform="translate(-10 -39.699)" fill="#607880"/>
          <path id="Path_164089" data-name="Path 164089" d="M33.358,59.515H29.417a3.4,3.4,0,0,0-3.393,3.393v7.534a3.4,3.4,0,0,0,3.393,3.393h3.941a3.4,3.4,0,0,0,3.393-3.393V62.908a3.4,3.4,0,0,0-3.393-3.393Zm.226,10.927a.227.227,0,0,1-.226.226H29.417a.227.227,0,0,1-.226-.226V62.908a.226.226,0,0,1,.226-.226h3.941a.226.226,0,0,1,.226.226Z" transform="translate(-11.525 -39.699)" fill="#607880"/>
          <path id="Path_164090" data-name="Path 164090" d="M97.455,59.515H93.512a3.4,3.4,0,0,0-3.393,3.393v7.534a3.4,3.4,0,0,0,3.393,3.393h3.943a3.4,3.4,0,0,0,3.393-3.393V62.908a3.4,3.4,0,0,0-3.393-3.393Zm.226,10.927a.227.227,0,0,1-.226.226H93.512a.227.227,0,0,1-.226-.226V62.908a.226.226,0,0,1,.226-.226h3.943a.227.227,0,0,1,.226.226Z" transform="translate(-17.627 -39.699)" fill="#607880"/>
          <path id="Path_164091" data-name="Path 164091" d="M17.334,81.415H13.393A3.4,3.4,0,0,0,10,84.808v7.535a3.4,3.4,0,0,0,3.393,3.393h3.941a3.4,3.4,0,0,0,3.393-3.393V84.808A3.4,3.4,0,0,0,17.334,81.415Zm.226,10.928a.227.227,0,0,1-.226.226H13.393a.227.227,0,0,1-.226-.226V84.808a.226.226,0,0,1,.226-.226h3.941a.226.226,0,0,1,.226.226Z" transform="translate(-10 -41.784)" fill="#607880"/>
          <path id="Path_164092" data-name="Path 164092" d="M33.358,81.415H29.417a3.4,3.4,0,0,0-3.393,3.393v7.535a3.4,3.4,0,0,0,3.393,3.393h3.941a3.4,3.4,0,0,0,3.393-3.393V84.808a3.4,3.4,0,0,0-3.393-3.393Zm.226,10.928a.227.227,0,0,1-.226.226H29.417a.227.227,0,0,1-.226-.226V84.808a.226.226,0,0,1,.226-.226h3.941a.226.226,0,0,1,.226.226Z" transform="translate(-11.525 -41.784)" fill="#607880"/>
          <path id="Path_164093" data-name="Path 164093" d="M97.455,81.415H93.512a3.4,3.4,0,0,0-3.393,3.393v7.535a3.4,3.4,0,0,0,3.393,3.393h3.943a3.4,3.4,0,0,0,3.393-3.393V84.808A3.4,3.4,0,0,0,97.455,81.415Zm.226,10.928a.227.227,0,0,1-.226.226H93.512a.227.227,0,0,1-.226-.226V84.808a.226.226,0,0,1,.226-.226h3.943a.227.227,0,0,1,.226.226Z" transform="translate(-17.627 -41.784)" fill="#607880"/>
          <path id="Path_164094" data-name="Path 164094" d="M113.478,81.415h-3.941a3.4,3.4,0,0,0-3.393,3.393v7.535a3.4,3.4,0,0,0,3.393,3.393h3.941a3.4,3.4,0,0,0,3.393-3.393V84.808A3.4,3.4,0,0,0,113.478,81.415Zm.226,10.928a.227.227,0,0,1-.226.226h-3.941a.227.227,0,0,1-.226-.226V84.808a.226.226,0,0,1,.226-.226h3.941a.226.226,0,0,1,.226.226Z" transform="translate(-19.153 -41.784)" fill="#607880"/>
          <path id="Path_164095" data-name="Path 164095" d="M19.144,48.767h-2.2V39.2a1.583,1.583,0,0,0-2.563-1.244l-3.78,2.98a1.583,1.583,0,1,0,1.96,2.487l1.217-.959v6.306h-2.2a1.583,1.583,0,0,0,0,3.167h7.56a1.583,1.583,0,1,0,0-3.167Z" transform="translate(-10 -37.614)" fill="#607880"/>
          <path id="Path_164096" data-name="Path 164096" d="M115.288,70.668h-2.2V61.1a1.583,1.583,0,0,0-2.563-1.244l-3.779,2.98a1.583,1.583,0,1,0,1.96,2.487l1.216-.959v6.306h-2.2a1.583,1.583,0,0,0,0,3.167h7.56a1.583,1.583,0,1,0,0-3.167Z" transform="translate(-19.153 -39.699)" fill="#607880"/>
          <path id="Path_164097" data-name="Path 164097" d="M67.217,48.767h-2.2V39.2a1.583,1.583,0,0,0-2.563-1.244l-3.781,2.98a1.584,1.584,0,1,0,1.961,2.487l1.217-.959v6.306h-2.2a1.583,1.583,0,0,0,0,3.167h7.561a1.583,1.583,0,1,0,0-3.167Z" transform="translate(-14.576 -37.614)" fill="#607880"/>
          <path id="Path_164098" data-name="Path 164098" d="M99.265,48.767h-2.2V39.2a1.583,1.583,0,0,0-2.563-1.244l-3.781,2.98a1.583,1.583,0,1,0,1.96,2.487l1.218-.96v6.306H91.7a1.583,1.583,0,1,0,0,3.167h7.562a1.583,1.583,0,1,0,0-3.167Z" transform="translate(-17.627 -37.614)" fill="#607880"/>
        </g>
        <rect id="Rectangle_36008" data-name="Rectangle 36008" width="36.557" height="31.076" rx="4" transform="translate(38.045 65.757)" fill="#ffca54"/>
        <path id="Path_164099" data-name="Path 164099" d="M75.878,81.08H68.639V72.123A3.619,3.619,0,0,0,65.02,68.5H60.187a3.619,3.619,0,0,0-3.619,3.619v1.763H49.329V72.126A10.869,10.869,0,0,1,60.187,61.268H65.02A10.869,10.869,0,0,1,75.878,72.126Z" transform="translate(-6.28 -15.323)" fill="#607880"/>
        <path id="Path_164100" data-name="Path 164100" d="M67.88,96.4a4.336,4.336,0,1,0-5.919,4.027v6.605a1.583,1.583,0,0,0,3.167,0v-6.605A4.329,4.329,0,0,0,67.88,96.4Z" transform="translate(-7.22 -18.254)" fill="#ffb206"/>
      </g>
      <g id="Group_107788" data-name="Group 107788" transform="translate(0 8.739)">
        <path id="Path_164101" data-name="Path 164101" d="M109.707,8.739H40.263a1.583,1.583,0,0,0,0,3.167h69.443a2.944,2.944,0,0,1,2.941,2.941V25.817H3.167V14.846a2.944,2.944,0,0,1,2.941-2.941H16.513a1.583,1.583,0,1,0,0-3.167H6.107A6.115,6.115,0,0,0,0,14.846V92.232a5.64,5.64,0,0,0,5.633,5.633H38.045v5.671a5.208,5.208,0,0,0,5.2,5.2H70.212a1.583,1.583,0,0,0,0-3.167H43.249a2.038,2.038,0,0,1-2.036-2.036V79.7a2.038,2.038,0,0,1,2.036-2.036H72.565A2.039,2.039,0,0,1,74.6,79.7v23.837a1.583,1.583,0,0,0,3.167,0V97.865h32.412a5.64,5.64,0,0,0,5.635-5.633V14.846a6.115,6.115,0,0,0-6.107-6.107ZM60.324,61.922H55.49a5.208,5.208,0,0,0-5.2,5.2v.181H46.216v-.181A9.284,9.284,0,0,1,55.49,57.85h4.833A9.284,9.284,0,0,1,69.6,67.125V74.5H65.526V67.125a5.208,5.208,0,0,0-5.2-5.2Zm52.324,30.311a2.469,2.469,0,0,1-2.466,2.466H77.769v-15a5.2,5.2,0,0,0-5-5.193V67.125A12.455,12.455,0,0,0,60.324,54.684H55.49A12.455,12.455,0,0,0,43.049,67.125v1.763a1.582,1.582,0,0,0,1.583,1.583h7.238a1.583,1.583,0,0,0,1.583-1.583V67.125a2.038,2.038,0,0,1,2.036-2.036h4.833a2.039,2.039,0,0,1,2.036,2.036V74.5H43.249a5.209,5.209,0,0,0-5.2,5.2v15H5.633a2.469,2.469,0,0,1-2.466-2.466V28.987h109.48Z" transform="translate(0 -8.739)"/>
        <path id="Path_164102" data-name="Path 164102" d="M28.2,11.906h5.438a1.583,1.583,0,0,0,0-3.167H28.2a1.583,1.583,0,0,0,0,3.167Z" transform="translate(-2.534 -8.739)"/>
        <path id="Path_164103" data-name="Path 164103" d="M111.556,21.343a1.583,1.583,0,0,0,0-3.167H49.52a1.583,1.583,0,0,0,0,3.167Z" transform="translate(-4.564 -9.637)"/>
        <path id="Path_164104" data-name="Path 164104" d="M9.583,18.176a1.583,1.583,0,0,0,0,3.167H13.77a1.583,1.583,0,1,0,0-3.167Z" transform="translate(-0.762 -9.637)"/>
        <path id="Path_164105" data-name="Path 164105" d="M22.9,21.343h4.187a1.583,1.583,0,0,0,0-3.167H22.9a1.583,1.583,0,1,0,0,3.167Z" transform="translate(-2.029 -9.637)"/>
        <path id="Path_164106" data-name="Path 164106" d="M34.625,19.759a1.583,1.583,0,0,0,1.583,1.583h4.185a1.583,1.583,0,1,0,0-3.167H36.208a1.584,1.584,0,0,0-1.583,1.583Z" transform="translate(-3.296 -9.637)"/>
        <path id="Path_164107" data-name="Path 164107" d="M29.417,51.934h3.941a3.4,3.4,0,0,0,3.393-3.393V41.007a3.4,3.4,0,0,0-3.393-3.393H29.417a3.4,3.4,0,0,0-3.393,3.393v7.534a3.4,3.4,0,0,0,3.393,3.393Zm-.226-10.927a.226.226,0,0,1,.226-.226h3.941a.226.226,0,0,1,.226.226v7.534a.226.226,0,0,1-.226.226H29.417a.226.226,0,0,1-.226-.226Z" transform="translate(-2.478 -11.488)"/>
        <path id="Path_164108" data-name="Path 164108" d="M45.443,51.934h3.941a3.4,3.4,0,0,0,3.393-3.393V41.007a3.4,3.4,0,0,0-3.393-3.393H45.443a3.4,3.4,0,0,0-3.393,3.393v7.534a3.4,3.4,0,0,0,3.393,3.393Zm-.226-10.927a.226.226,0,0,1,.226-.226h3.941a.226.226,0,0,1,.226.226v7.534a.226.226,0,0,1-.226.226H45.443a.226.226,0,0,1-.226-.226Z" transform="translate(-4.003 -11.488)"/>
        <path id="Path_164109" data-name="Path 164109" d="M77.489,51.934h3.939a3.4,3.4,0,0,0,3.393-3.393V41.007a3.4,3.4,0,0,0-3.393-3.393H77.489A3.4,3.4,0,0,0,74.1,41.007v7.534a3.4,3.4,0,0,0,3.393,3.393Zm-.223-10.927a.226.226,0,0,1,.226-.226h3.936a.226.226,0,0,1,.226.226v7.534a.226.226,0,0,1-.226.226H77.489a.226.226,0,0,1-.226-.226Z" transform="translate(-7.054 -11.488)"/>
        <path id="Path_164110" data-name="Path 164110" d="M109.537,51.934h3.941a3.4,3.4,0,0,0,3.393-3.393V41.007a3.4,3.4,0,0,0-3.393-3.393h-3.941a3.4,3.4,0,0,0-3.393,3.393v7.534a3.4,3.4,0,0,0,3.393,3.393Zm-.226-10.927a.226.226,0,0,1,.226-.226h3.941a.226.226,0,0,1,.226.226v7.534a.226.226,0,0,1-.226.226h-3.941a.226.226,0,0,1-.226-.226Z" transform="translate(-10.105 -11.488)"/>
        <path id="Path_164111" data-name="Path 164111" d="M13.393,73.835h3.941a3.4,3.4,0,0,0,3.393-3.393V62.908a3.4,3.4,0,0,0-3.393-3.393H13.393A3.4,3.4,0,0,0,10,62.908v7.534a3.4,3.4,0,0,0,3.393,3.393Zm-.226-10.927a.226.226,0,0,1,.226-.226h3.941a.226.226,0,0,1,.226.226v7.534a.227.227,0,0,1-.226.226H13.393a.227.227,0,0,1-.226-.226Z" transform="translate(-0.952 -13.573)"/>
        <path id="Path_164112" data-name="Path 164112" d="M29.417,73.835h3.941a3.4,3.4,0,0,0,3.393-3.393V62.908a3.4,3.4,0,0,0-3.393-3.393H29.417a3.4,3.4,0,0,0-3.393,3.393v7.534a3.4,3.4,0,0,0,3.393,3.393Zm-.226-10.927a.226.226,0,0,1,.226-.226h3.941a.226.226,0,0,1,.226.226v7.534a.227.227,0,0,1-.226.226H29.417a.227.227,0,0,1-.226-.226Z" transform="translate(-2.478 -13.573)"/>
        <path id="Path_164113" data-name="Path 164113" d="M93.512,73.835h3.943a3.4,3.4,0,0,0,3.393-3.393V62.908a3.4,3.4,0,0,0-3.393-3.393H93.512a3.4,3.4,0,0,0-3.393,3.393v7.534a3.4,3.4,0,0,0,3.393,3.393Zm-.226-10.927a.226.226,0,0,1,.226-.226h3.943a.227.227,0,0,1,.226.226v7.534a.227.227,0,0,1-.226.226H93.512a.227.227,0,0,1-.226-.226Z" transform="translate(-8.58 -13.573)"/>
        <path id="Path_164114" data-name="Path 164114" d="M13.393,95.736h3.941a3.4,3.4,0,0,0,3.393-3.393V84.808a3.4,3.4,0,0,0-3.393-3.393H13.393A3.4,3.4,0,0,0,10,84.808v7.535a3.4,3.4,0,0,0,3.393,3.393Zm-.226-10.928a.226.226,0,0,1,.226-.226h3.941a.226.226,0,0,1,.226.226v7.535a.227.227,0,0,1-.226.226H13.393a.227.227,0,0,1-.226-.226Z" transform="translate(-0.952 -15.658)"/>
        <path id="Path_164115" data-name="Path 164115" d="M29.417,95.736h3.941a3.4,3.4,0,0,0,3.393-3.393V84.808a3.4,3.4,0,0,0-3.393-3.393H29.417a3.4,3.4,0,0,0-3.393,3.393v7.535a3.4,3.4,0,0,0,3.393,3.393Zm-.226-10.928a.226.226,0,0,1,.226-.226h3.941a.226.226,0,0,1,.226.226v7.535a.227.227,0,0,1-.226.226H29.417a.227.227,0,0,1-.226-.226Z" transform="translate(-2.478 -15.658)"/>
        <path id="Path_164116" data-name="Path 164116" d="M93.512,95.736h3.943a3.4,3.4,0,0,0,3.393-3.393V84.808a3.4,3.4,0,0,0-3.393-3.393H93.512a3.4,3.4,0,0,0-3.393,3.393v7.535a3.4,3.4,0,0,0,3.393,3.393Zm-.226-10.928a.226.226,0,0,1,.226-.226h3.943a.227.227,0,0,1,.226.226v7.535a.227.227,0,0,1-.226.226H93.512a.227.227,0,0,1-.226-.226Z" transform="translate(-8.58 -15.658)"/>
        <path id="Path_164117" data-name="Path 164117" d="M109.537,95.736h3.941a3.4,3.4,0,0,0,3.393-3.393V84.808a3.4,3.4,0,0,0-3.393-3.393h-3.941a3.4,3.4,0,0,0-3.393,3.393v7.535a3.4,3.4,0,0,0,3.393,3.393Zm-.226-10.928a.226.226,0,0,1,.226-.226h3.941a.226.226,0,0,1,.226.226v7.535a.227.227,0,0,1-.226.226h-3.941a.227.227,0,0,1-.226-.226Z" transform="translate(-10.105 -15.658)"/>
        <path id="Path_164118" data-name="Path 164118" d="M11.583,48.767a1.583,1.583,0,1,0,0,3.167h7.56a1.583,1.583,0,1,0,0-3.167h-2.2V39.2a1.583,1.583,0,0,0-2.563-1.244l-3.78,2.98a1.583,1.583,0,1,0,1.96,2.487l1.217-.959v6.306Z" transform="translate(-0.952 -11.488)"/>
        <path id="Path_164119" data-name="Path 164119" d="M107.727,73.835h7.56a1.583,1.583,0,1,0,0-3.167h-2.2V61.1a1.583,1.583,0,0,0-2.563-1.244l-3.779,2.98a1.583,1.583,0,1,0,1.96,2.487l1.216-.959v6.306h-2.2a1.583,1.583,0,0,0,0,3.167Z" transform="translate(-10.105 -13.573)"/>
        <path id="Path_164120" data-name="Path 164120" d="M59.655,48.767a1.583,1.583,0,0,0,0,3.167h7.561a1.583,1.583,0,1,0,0-3.167h-2.2V39.2a1.583,1.583,0,0,0-2.563-1.244l-3.781,2.98a1.584,1.584,0,1,0,1.961,2.487l1.217-.959v6.306Z" transform="translate(-5.529 -11.488)"/>
        <path id="Path_164121" data-name="Path 164121" d="M91.7,48.767a1.583,1.583,0,1,0,0,3.167h7.562a1.583,1.583,0,1,0,0-3.167h-2.2V39.2a1.583,1.583,0,0,0-2.563-1.244l-3.781,2.98a1.583,1.583,0,1,0,1.96,2.487l1.218-.96v6.306Z" transform="translate(-8.58 -11.488)"/>
        <path id="Path_164122" data-name="Path 164122" d="M63.377,108.45a1.584,1.584,0,0,0,1.583-1.583v-4.934a5.919,5.919,0,1,0-3.167,0v4.934a1.584,1.584,0,0,0,1.583,1.583ZM60.625,96.236a2.752,2.752,0,1,1,2.752,2.751,2.752,2.752,0,0,1-2.752-2.751Z" transform="translate(-5.47 -16.505)"/>
      </g>
    </g>
  </g>
</svg>
