<svg xmlns="http://www.w3.org/2000/svg" width="295" height="269" viewBox="0 0 295 269">
  <g id="t7-h1" transform="translate(-6791 8227)">
    <rect id="Rectangle_36120" data-name="Rectangle 36120" width="295" height="269" rx="15" transform="translate(6791 -8227)" fill="#ffefcc"/>
    <path id="Rectangle_36120_-_Outline" data-name="Rectangle 36120 - Outline" d="M15,3A12,12,0,0,0,3,15V254a12,12,0,0,0,12,12H280a12,12,0,0,0,12-12V15A12,12,0,0,0,280,3H15m0-3H280a15,15,0,0,1,15,15V254a15,15,0,0,1-15,15H15A15,15,0,0,1,0,254V15A15,15,0,0,1,15,0Z" transform="translate(6791 -8227)" fill="#ffb206"/>
    <path id="Feature_One" data-name="Feature One" d="M64.865,16.843a1.549,1.549,0,0,0-.585-1.289,7.277,7.277,0,0,0-2.057-.956,19.736,19.736,0,0,1-2.406-.956q-3.04-1.493-3.04-4.1a3.68,3.68,0,0,1,.757-2.293A4.9,4.9,0,0,1,59.677,5.7a8.34,8.34,0,0,1,3.115-.553,7.3,7.3,0,0,1,3.024.6,4.788,4.788,0,0,1,2.079,1.713A4.474,4.474,0,0,1,68.636,10h-3.76a1.891,1.891,0,0,0-.585-1.482,2.282,2.282,0,0,0-1.584-.526,2.573,2.573,0,0,0-1.6.446,1.313,1.313,0,0,0,.059,2.224,8.128,8.128,0,0,0,2.267,1.01A13.885,13.885,0,0,1,66.1,12.793a4.477,4.477,0,0,1,2.535,4.028,3.819,3.819,0,0,1-1.547,3.223,6.88,6.88,0,0,1-4.243,1.171,8.418,8.418,0,0,1-3.443-.682,5.191,5.191,0,0,1-2.32-1.869A4.87,4.87,0,0,1,56.3,15.93h3.781a2.4,2.4,0,0,0,.65,1.853,3.072,3.072,0,0,0,2.111.6,2.427,2.427,0,0,0,1.477-.4A1.33,1.33,0,0,0,64.865,16.843Zm12.461,2.9a3.732,3.732,0,0,1-3.1,1.472,3.661,3.661,0,0,1-2.9-1.112,4.676,4.676,0,0,1-.983-3.2V9.377h3.62v7.552a1.3,1.3,0,0,0,1.45,1.493,1.892,1.892,0,0,0,1.772-.892V9.377h3.642V21H77.434ZM93.6,15.285a7.084,7.084,0,0,1-1.182,4.394,3.958,3.958,0,0,1-3.33,1.536,3.435,3.435,0,0,1-2.857-1.407L86.081,21H82.837V4.5h3.62v5.812a3.314,3.314,0,0,1,2.61-1.149,3.959,3.959,0,0,1,3.352,1.558A7.121,7.121,0,0,1,93.6,15.1Zm-3.631-.231a4.725,4.725,0,0,0-.446-2.386,1.5,1.5,0,0,0-1.37-.713,1.733,1.733,0,0,0-1.7.933V17.5a1.743,1.743,0,0,0,1.719.922A1.537,1.537,0,0,0,89.8,17.178,8.933,8.933,0,0,0,89.97,15.054Zm10.85,6.16a5.975,5.975,0,0,1-4.329-1.6,5.509,5.509,0,0,1-1.654-4.152v-.3A7.138,7.138,0,0,1,95.5,12.02a4.834,4.834,0,0,1,1.928-2.111,5.821,5.821,0,0,1,3.008-.747,5.031,5.031,0,0,1,3.867,1.52,5.973,5.973,0,0,1,1.418,4.238v1.407h-7.2a2.609,2.609,0,0,0,.849,1.536,2.525,2.525,0,0,0,1.7.559,3.254,3.254,0,0,0,2.686-1.2l1.654,1.955a4.624,4.624,0,0,1-1.917,1.488A6.48,6.48,0,0,1,100.819,21.215Zm-.408-9.26q-1.59,0-1.891,2.105h3.652v-.279a1.793,1.793,0,0,0-.44-1.348A1.753,1.753,0,0,0,100.411,11.955Zm12.848,5.779a.836.836,0,0,0-.483-.741,7.353,7.353,0,0,0-1.837-.58,8.376,8.376,0,0,1-2.234-.79,3.743,3.743,0,0,1-1.343-1.187,2.834,2.834,0,0,1-.462-1.6,3.212,3.212,0,0,1,1.321-2.637,5.443,5.443,0,0,1,3.459-1.037,6.03,6.03,0,0,1,3.7,1.042,3.258,3.258,0,0,1,1.4,2.739h-3.631q0-1.4-1.472-1.4a1.459,1.459,0,0,0-.956.317.981.981,0,0,0-.387.79.9.9,0,0,0,.473.784,4.466,4.466,0,0,0,1.509.494,13.043,13.043,0,0,1,1.821.462q2.621.9,2.621,3.233a3.044,3.044,0,0,1-1.413,2.589,6.2,6.2,0,0,1-3.658,1,6.322,6.322,0,0,1-2.664-.537,4.455,4.455,0,0,1-1.826-1.461,3.308,3.308,0,0,1-.655-1.944h3.384a1.4,1.4,0,0,0,.537,1.176,2.209,2.209,0,0,0,1.321.371,1.738,1.738,0,0,0,1.112-.3A.962.962,0,0,0,113.259,17.734Zm9.4-11.247v2.89h1.912v2.514h-1.912v5.317a1.358,1.358,0,0,0,.236.913,1.268,1.268,0,0,0,.935.258,5.311,5.311,0,0,0,.9-.064V20.9a6.681,6.681,0,0,1-2.041.312,3.792,3.792,0,0,1-2.761-.881,3.61,3.61,0,0,1-.892-2.675V11.891h-1.482V9.377h1.482V6.487ZM132.541,21a4.088,4.088,0,0,1-.344-1.042,3.366,3.366,0,0,1-2.793,1.257,4.124,4.124,0,0,1-2.793-.994,3.163,3.163,0,0,1-1.149-2.5,3.251,3.251,0,0,1,1.4-2.857,7.114,7.114,0,0,1,4.061-.967h1.117v-.615q0-1.608-1.386-1.608a1.133,1.133,0,0,0-1.289,1.274h-3.62a3.245,3.245,0,0,1,1.434-2.736,6.027,6.027,0,0,1,3.658-1.051,5.284,5.284,0,0,1,3.513,1.085,3.772,3.772,0,0,1,1.321,2.976v5.146a5.269,5.269,0,0,0,.494,2.449V21Zm-2.267-2.363a2.019,2.019,0,0,0,1.123-.29,1.818,1.818,0,0,0,.639-.655V15.833h-1.053q-1.891,0-1.891,1.7a1.036,1.036,0,0,0,.333.8A1.205,1.205,0,0,0,130.274,18.637Zm6.939-3.534a7.1,7.1,0,0,1,1.192-4.351,3.925,3.925,0,0,1,3.33-1.59,3.338,3.338,0,0,1,2.621,1.225V4.5h3.631V21h-3.255l-.183-1.246a3.428,3.428,0,0,1-2.836,1.461,3.918,3.918,0,0,1-3.287-1.59A7.325,7.325,0,0,1,137.214,15.1Zm3.62.226q0,3.094,1.8,3.094a1.782,1.782,0,0,0,1.719-1.01V12.986a1.734,1.734,0,0,0-1.7-1.031q-1.676,0-1.815,2.707Zm8.755-.247a6.86,6.86,0,0,1,.677-3.1,4.84,4.84,0,0,1,1.944-2.089,5.856,5.856,0,0,1,2.976-.73,5.344,5.344,0,0,1,4.114,1.617,6.2,6.2,0,0,1,1.5,4.4v.129a6.019,6.019,0,0,1-1.509,4.313,5.359,5.359,0,0,1-4.087,1.6,5.42,5.42,0,0,1-3.985-1.488,5.819,5.819,0,0,1-1.622-4.034Zm3.62.226a4.325,4.325,0,0,0,.5,2.363,1.682,1.682,0,0,0,1.493.752q1.934,0,1.977-2.976v-.365q0-3.126-2-3.126-1.815,0-1.966,2.7ZM41.587,53a4.088,4.088,0,0,1-.344-1.042,3.366,3.366,0,0,1-2.793,1.257,4.124,4.124,0,0,1-2.793-.994,3.163,3.163,0,0,1-1.149-2.5,3.251,3.251,0,0,1,1.4-2.857,7.114,7.114,0,0,1,4.061-.967h1.117v-.615q0-1.608-1.386-1.608a1.133,1.133,0,0,0-1.289,1.274h-3.62a3.245,3.245,0,0,1,1.434-2.736,6.027,6.027,0,0,1,3.658-1.051,5.284,5.284,0,0,1,3.513,1.085,3.772,3.772,0,0,1,1.321,2.976v5.146a5.269,5.269,0,0,0,.494,2.449V53ZM39.32,50.637a2.019,2.019,0,0,0,1.123-.29,1.818,1.818,0,0,0,.639-.655V47.833H40.029q-1.891,0-1.891,1.7a1.036,1.036,0,0,0,.333.8A1.205,1.205,0,0,0,39.32,50.637ZM53.64,51.743a3.732,3.732,0,0,1-3.1,1.472,3.661,3.661,0,0,1-2.9-1.112,4.676,4.676,0,0,1-.983-3.2v-7.53h3.62v7.552a1.3,1.3,0,0,0,1.45,1.493A1.892,1.892,0,0,0,53.5,49.53V41.377h3.642V53H53.747Zm9.7-13.256v2.89h1.912v2.514H63.34v5.317a1.358,1.358,0,0,0,.236.913,1.268,1.268,0,0,0,.935.258,5.311,5.311,0,0,0,.9-.064V52.9a6.681,6.681,0,0,1-2.041.312,3.792,3.792,0,0,1-2.761-.881,3.61,3.61,0,0,1-.892-2.675V43.891H58.237V41.377H59.72v-2.89ZM72.3,53.215a5.975,5.975,0,0,1-4.329-1.6,5.509,5.509,0,0,1-1.654-4.152v-.3a7.138,7.138,0,0,1,.661-3.147A4.834,4.834,0,0,1,68.9,41.909a5.821,5.821,0,0,1,3.008-.747,5.031,5.031,0,0,1,3.867,1.52A5.973,5.973,0,0,1,77.2,46.92v1.407H70a2.609,2.609,0,0,0,.849,1.536,2.525,2.525,0,0,0,1.7.559,3.254,3.254,0,0,0,2.686-1.2l1.654,1.955a4.624,4.624,0,0,1-1.917,1.488A6.48,6.48,0,0,1,72.3,53.215Zm-.408-9.26q-1.59,0-1.891,2.105h3.652v-.279a1.793,1.793,0,0,0-.44-1.348A1.753,1.753,0,0,0,71.891,43.955Zm10.087-2.578.118,1.364a3.942,3.942,0,0,1,3.319-1.579,3.316,3.316,0,0,1,2.712,1.085,5.165,5.165,0,0,1,.929,3.266V53H85.426V45.663a1.961,1.961,0,0,0-.354-1.294,1.64,1.64,0,0,0-1.289-.414,1.726,1.726,0,0,0-1.579.838V53h-3.62V41.377Zm13.3-2.89v2.89h1.912v2.514H95.276v5.317a1.358,1.358,0,0,0,.236.913,1.268,1.268,0,0,0,.935.258,5.311,5.311,0,0,0,.9-.064V52.9a6.681,6.681,0,0,1-2.041.312,3.792,3.792,0,0,1-2.761-.881,3.61,3.61,0,0,1-.892-2.675V43.891H90.174V41.377h1.482v-2.89ZM102.431,53H98.8V41.377h3.631ZM98.585,38.369a1.63,1.63,0,0,1,.559-1.275,2.364,2.364,0,0,1,2.9,0,1.735,1.735,0,0,1,0,2.551,2.364,2.364,0,0,1-2.9,0A1.63,1.63,0,0,1,98.585,38.369ZM105.5,53V43.891h-1.687V41.377H105.5V40.99a4.438,4.438,0,0,1,1.525-3.556,6.1,6.1,0,0,1,3.964-1.16,14.066,14.066,0,0,1,3.781.623l-.494,2.857-.6-.161a9.572,9.572,0,0,0-2.471-.312q-2.073,0-2.073,1.891v.2h2.277v2.514h-2.277V53Zm10.936,0H112.8V41.377h3.642Zm7.122-2.578a1.61,1.61,0,0,0,1.182-.414,1.517,1.517,0,0,0,.408-1.155h3.395a4.018,4.018,0,0,1-1.37,3.137,5.1,5.1,0,0,1-3.529,1.225,5.158,5.158,0,0,1-4-1.59,6.264,6.264,0,0,1-1.461-4.4v-.15a7.08,7.08,0,0,1,.65-3.11,4.732,4.732,0,0,1,1.875-2.073,5.589,5.589,0,0,1,2.9-.725,5.03,5.03,0,0,1,3.6,1.257,4.458,4.458,0,0,1,1.332,3.405H125.15a1.987,1.987,0,0,0-.44-1.386,1.52,1.52,0,0,0-1.182-.483q-1.407,0-1.644,1.794a12.658,12.658,0,0,0-.075,1.568,4.972,4.972,0,0,0,.419,2.428A1.45,1.45,0,0,0,123.561,50.422ZM136.623,53a4.088,4.088,0,0,1-.344-1.042,3.366,3.366,0,0,1-2.793,1.257,4.124,4.124,0,0,1-2.793-.994,3.163,3.163,0,0,1-1.149-2.5,3.251,3.251,0,0,1,1.4-2.857A7.114,7.114,0,0,1,135,45.9h1.117v-.615q0-1.608-1.386-1.608a1.133,1.133,0,0,0-1.289,1.274h-3.62a3.245,3.245,0,0,1,1.434-2.736,6.027,6.027,0,0,1,3.658-1.051,5.284,5.284,0,0,1,3.513,1.085,3.772,3.772,0,0,1,1.321,2.976v5.146a5.269,5.269,0,0,0,.494,2.449V53Zm-2.267-2.363a2.019,2.019,0,0,0,1.123-.29,1.818,1.818,0,0,0,.639-.655V47.833h-1.053q-1.891,0-1.891,1.7a1.036,1.036,0,0,0,.333.8A1.205,1.205,0,0,0,134.356,50.637Zm12.311-.215a1.61,1.61,0,0,0,1.182-.414,1.517,1.517,0,0,0,.408-1.155h3.395a4.018,4.018,0,0,1-1.37,3.137,5.1,5.1,0,0,1-3.529,1.225,5.158,5.158,0,0,1-4-1.59,6.264,6.264,0,0,1-1.461-4.4v-.15a7.08,7.08,0,0,1,.65-3.11,4.732,4.732,0,0,1,1.875-2.073,5.589,5.589,0,0,1,2.9-.725,5.03,5.03,0,0,1,3.6,1.257,4.458,4.458,0,0,1,1.332,3.405h-3.395a1.987,1.987,0,0,0-.44-1.386,1.52,1.52,0,0,0-1.182-.483q-1.407,0-1.644,1.794a12.659,12.659,0,0,0-.075,1.568,4.972,4.972,0,0,0,.419,2.428A1.45,1.45,0,0,0,146.667,50.422ZM157,53H153.37V41.377H157Zm-3.846-14.631a1.63,1.63,0,0,1,.559-1.275,2.364,2.364,0,0,1,2.9,0,1.735,1.735,0,0,1,0,2.551,2.364,2.364,0,0,1-2.9,0A1.63,1.63,0,0,1,153.155,38.369Zm5.618,8.712a6.86,6.86,0,0,1,.677-3.1,4.84,4.84,0,0,1,1.944-2.089,5.856,5.856,0,0,1,2.976-.73,5.344,5.344,0,0,1,4.114,1.617,6.2,6.2,0,0,1,1.5,4.4v.129a6.019,6.019,0,0,1-1.509,4.313,5.359,5.359,0,0,1-4.087,1.6,5.42,5.42,0,0,1-3.985-1.488,5.819,5.819,0,0,1-1.622-4.034Zm3.62.226a4.325,4.325,0,0,0,.5,2.363,1.682,1.682,0,0,0,1.493.752q1.934,0,1.977-2.976v-.365q0-3.126-2-3.126-1.815,0-1.966,2.7ZM164.864,36.5h3.824L165.7,39.873l-2.954-.005Zm10.044,4.877.118,1.364a3.942,3.942,0,0,1,3.319-1.579,3.316,3.316,0,0,1,2.712,1.085,5.165,5.165,0,0,1,.929,3.266V53h-3.631V45.663A1.961,1.961,0,0,0,178,44.369a1.64,1.64,0,0,0-1.289-.414,1.726,1.726,0,0,0-1.579.838V53h-3.62V41.377Z" transform="translate(6830 -8057)" fill="#12263f"/>
    <g id="t7-ic5" transform="translate(6888 -8187)">
      <path id="Path_163107" data-name="Path 163107" d="M46.03,104.02l16.86-11.235a47.539,47.539,0,0,0,21.17-39.567V27.959L46.03,8.944,8,27.959V53.218A47.539,47.539,0,0,0,29.17,92.785Zm0,0" transform="translate(-6.416 -7.173)" fill="#8f52f5"/>
      <path id="Path_163108" data-name="Path 163108" d="M58.347,116.2A41.141,41.141,0,0,1,40,81.907V60.565L71.692,44.719l31.692,15.846V81.907a41.146,41.146,0,0,1-18.35,34.3l-13.342,8.889Zm0,0" transform="translate(-32.077 -35.861)" fill="#b893f5"/>
      <path id="Path_163109" data-name="Path 163109" d="M122.745,262.032l-12.637-3.169H97.431l-12.637,3.169A6.338,6.338,0,0,0,80,268.179v9.744a41.241,41.241,0,0,0,10.424,10l13.345,8.892,13.342-8.889a41.213,41.213,0,0,0,10.427-10.007v-9.744A6.337,6.337,0,0,0,122.745,262.032Zm0,0" transform="translate(-64.154 -207.589)" fill="#ff366f"/>
      <path id="Path_163110" data-name="Path 163110" d="M168,232.945v6.338a6.338,6.338,0,1,0,12.677,0v-6.338Zm0,0" transform="translate(-134.724 -186.805)" fill="#ffdecf"/>
      <path id="Path_163111" data-name="Path 163111" d="M171.015,144.945v15.846l-6.338,4.754h-6.338L152,160.791V144.945Zm0,0" transform="translate(-121.893 -116.235)" fill="#ffdecf"/>
      <path id="Path_163112" data-name="Path 163112" d="M155.015,116.007h-1.585C152.321,114.422,136,112.44,136,123.93h9.134a15.006,15.006,0,0,0,6.712-1.585h1.585l4.754,6.338v-9.508A3.169,3.169,0,0,0,155.015,116.007Zm0,0" transform="translate(-109.062 -92.051)" fill="#50575e"/>
      <path id="Path_163113" data-name="Path 163113" d="M298.707,266.3a25.354,25.354,0,1,1-25.354-25.354A25.354,25.354,0,0,1,298.707,266.3Zm0,0" transform="translate(-198.878 -193.22)" fill="#ffc33d"/>
      <path id="Path_163114" data-name="Path 163114" d="M312.332,295.406l-15.687,15.687-5.6-5.6-6.722,6.722,5.6,5.6,5.6,5.6,1.12,1.12,22.41-22.41Zm0,0" transform="translate(-228.004 -236.894)" fill="#fff"/>
      <path id="Path_163115" data-name="Path 163115" d="M79.22,46.585c0-.18.009-26.779.009-26.779L39.615,0,0,19.807V46.045A49.053,49.053,0,0,0,21.875,86.927L39.615,98.748l13.666-9.1A26.916,26.916,0,1,0,79.22,46.584ZM39.615,94.946,23.634,84.294A45.885,45.885,0,0,1,3.169,46.045V21.765L39.615,3.543,76.061,21.765V46.221c-.526-.032-1.048-.08-1.585-.08s-1.06.049-1.585.08V23.72L39.615,7.083,6.338,23.721V46.045A42.734,42.734,0,0,0,25.393,81.653l14.222,9.476,10.366-6.907a26.853,26.853,0,0,0,1.5,2.815ZM48.8,81.206l-9.181,6.116-12.462-8.3c-.615-.411-1.211-.842-1.8-1.284V63.571H22.184v11.5A39.584,39.584,0,0,1,17.43,69.8V60.59a4.754,4.754,0,0,1,3.6-4.609l10.746-2.694a7.914,7.914,0,0,0,6.258,6.957v6.5H41.2v-6.5a7.911,7.911,0,0,0,6.256-6.957l7.054,1.772A26.8,26.8,0,0,0,48.8,81.2Zm-17.1-47.742h4.38a16.691,16.691,0,0,0,7.075-1.585h.429l3.961,5.281v6.6l-5.281,3.961H36.973l-5.281-3.961Zm-3.038-3.169a6.2,6.2,0,0,1,3.394-4.58,16,16,0,0,1,11.127-.7l.364.526h2.413a1.585,1.585,0,0,1,1.585,1.585v4.754L45.161,28.71H42.41l-.334.166a13.512,13.512,0,0,1-6,1.418ZM44.369,50.1v2.377a4.754,4.754,0,0,1-9.508,0V50.1l1.057.792h7.394Zm3.169-.062V47.725l3.169-2.377V27.125a4.754,4.754,0,0,0-4.754-4.754H44.9c-2.293-1.393-8-1.675-12.043-.411a9.861,9.861,0,0,0-7.5,9.918v1.585h3.169V45.348l3.169,2.377v2.307L20.254,52.908a7.909,7.909,0,0,0-5.993,7.682v4.279A39.573,39.573,0,0,1,9.507,46.045V25.68L39.615,10.626,69.722,25.68V46.045c0,.182-.011.363-.012.543a26.813,26.813,0,0,0-12.538,5.873ZM74.476,96.848A23.769,23.769,0,1,1,98.245,73.079,23.769,23.769,0,0,1,74.476,96.848Zm0,0"/>
      <path id="Path_163116" data-name="Path 163116" d="M416,136.945h19.015v3.169H416Zm0,0" transform="translate(-333.601 -109.82)"/>
      <path id="Path_163117" data-name="Path 163117" d="M416,168.945h12.677v3.169H416Zm0,0" transform="translate(-333.601 -135.481)"/>
      <path id="Path_163118" data-name="Path 163118" d="M416,200.945h6.338v3.169H416Zm0,0" transform="translate(-333.601 -161.143)"/>
      <path id="Path_163119" data-name="Path 163119" d="M287.573,299.784l-5.6-5.6-8.964,8.963,14.565,14.565,24.65-24.65-8.964-8.962Zm0,13.445-10.084-10.084,4.483-4.481,5.6,5.6,15.687-15.687,4.483,4.481Zm0,0" transform="translate(-218.932 -227.825)"/>
    </g>
  </g>
</svg>
