<svg xmlns="http://www.w3.org/2000/svg" width="295" height="269" viewBox="0 0 295 269">
  <g id="t7-h3" transform="translate(-7432 8230)">
    <rect id="Rectangle_36122" data-name="Rectangle 36122" width="295" height="269" rx="15" transform="translate(7432 -8230)" fill="#ffefcc"/>
    <path id="Rectangle_36122_-_Outline" data-name="Rectangle 36122 - Outline" d="M15,3A12,12,0,0,0,3,15V254a12,12,0,0,0,12,12H280a12,12,0,0,0,12-12V15A12,12,0,0,0,280,3H15m0-3H280a15,15,0,0,1,15,15V254a15,15,0,0,1-15,15H15A15,15,0,0,1,0,254V15A15,15,0,0,1,15,0Z" transform="translate(7432 -8230)" fill="#ffb206"/>
    <path id="Feature_One" data-name="Feature One" d="M59.865,16.843a1.549,1.549,0,0,0-.585-1.289,7.277,7.277,0,0,0-2.057-.956,19.736,19.736,0,0,1-2.406-.956q-3.04-1.493-3.04-4.1a3.68,3.68,0,0,1,.757-2.293A4.9,4.9,0,0,1,54.677,5.7a8.34,8.34,0,0,1,3.115-.553,7.3,7.3,0,0,1,3.024.6,4.788,4.788,0,0,1,2.079,1.713A4.474,4.474,0,0,1,63.636,10h-3.76a1.891,1.891,0,0,0-.585-1.482,2.282,2.282,0,0,0-1.584-.526,2.573,2.573,0,0,0-1.6.446,1.313,1.313,0,0,0,.059,2.224,8.128,8.128,0,0,0,2.267,1.01A13.885,13.885,0,0,1,61.1,12.793a4.477,4.477,0,0,1,2.535,4.028,3.819,3.819,0,0,1-1.547,3.223,6.88,6.88,0,0,1-4.243,1.171,8.418,8.418,0,0,1-3.443-.682,5.191,5.191,0,0,1-2.32-1.869A4.87,4.87,0,0,1,51.3,15.93h3.781a2.4,2.4,0,0,0,.65,1.853,3.072,3.072,0,0,0,2.111.6,2.427,2.427,0,0,0,1.477-.4A1.33,1.33,0,0,0,59.865,16.843Zm12.461,2.9a3.732,3.732,0,0,1-3.1,1.472,3.661,3.661,0,0,1-2.9-1.112,4.676,4.676,0,0,1-.983-3.2V9.377h3.62v7.552a1.3,1.3,0,0,0,1.45,1.493,1.892,1.892,0,0,0,1.772-.892V9.377h3.642V21H72.434ZM88.6,15.285a7.084,7.084,0,0,1-1.182,4.394,3.958,3.958,0,0,1-3.33,1.536,3.435,3.435,0,0,1-2.857-1.407L81.081,21H77.837V4.5h3.62v5.812a3.314,3.314,0,0,1,2.61-1.149,3.959,3.959,0,0,1,3.352,1.558A7.121,7.121,0,0,1,88.6,15.1Zm-3.631-.231a4.725,4.725,0,0,0-.446-2.386,1.5,1.5,0,0,0-1.37-.713,1.733,1.733,0,0,0-1.7.933V17.5a1.743,1.743,0,0,0,1.719.922A1.537,1.537,0,0,0,84.8,17.178,8.933,8.933,0,0,0,84.97,15.054Zm10.85,6.16a5.975,5.975,0,0,1-4.329-1.6,5.509,5.509,0,0,1-1.654-4.152v-.3A7.138,7.138,0,0,1,90.5,12.02a4.834,4.834,0,0,1,1.928-2.111,5.821,5.821,0,0,1,3.008-.747,5.031,5.031,0,0,1,3.867,1.52,5.973,5.973,0,0,1,1.418,4.238v1.407h-7.2a2.609,2.609,0,0,0,.849,1.536,2.525,2.525,0,0,0,1.7.559,3.254,3.254,0,0,0,2.686-1.2l1.654,1.955a4.624,4.624,0,0,1-1.917,1.488A6.48,6.48,0,0,1,95.819,21.215Zm-.408-9.26q-1.59,0-1.891,2.105h3.652v-.279a1.793,1.793,0,0,0-.44-1.348A1.753,1.753,0,0,0,95.411,11.955Zm12.848,5.779a.836.836,0,0,0-.483-.741,7.353,7.353,0,0,0-1.837-.58,8.376,8.376,0,0,1-2.234-.79,3.743,3.743,0,0,1-1.343-1.187,2.834,2.834,0,0,1-.462-1.6,3.212,3.212,0,0,1,1.321-2.637,5.443,5.443,0,0,1,3.459-1.037,6.03,6.03,0,0,1,3.7,1.042,3.258,3.258,0,0,1,1.4,2.739h-3.631q0-1.4-1.472-1.4a1.459,1.459,0,0,0-.956.317.981.981,0,0,0-.387.79.9.9,0,0,0,.473.784,4.466,4.466,0,0,0,1.509.494,13.043,13.043,0,0,1,1.821.462q2.621.9,2.621,3.233a3.044,3.044,0,0,1-1.413,2.589,6.2,6.2,0,0,1-3.658,1,6.322,6.322,0,0,1-2.664-.537,4.455,4.455,0,0,1-1.826-1.461,3.308,3.308,0,0,1-.655-1.944h3.384a1.4,1.4,0,0,0,.537,1.176,2.209,2.209,0,0,0,1.321.371,1.738,1.738,0,0,0,1.112-.3A.962.962,0,0,0,108.259,17.734Zm9.4-11.247v2.89h1.912v2.514h-1.912v5.317a1.358,1.358,0,0,0,.236.913,1.268,1.268,0,0,0,.935.258,5.311,5.311,0,0,0,.9-.064V20.9a6.681,6.681,0,0,1-2.041.312,3.792,3.792,0,0,1-2.761-.881,3.61,3.61,0,0,1-.892-2.675V11.891h-1.482V9.377h1.482V6.487ZM127.541,21a4.087,4.087,0,0,1-.344-1.042,3.366,3.366,0,0,1-2.793,1.257,4.124,4.124,0,0,1-2.793-.994,3.163,3.163,0,0,1-1.149-2.5,3.251,3.251,0,0,1,1.4-2.857,7.114,7.114,0,0,1,4.061-.967h1.117v-.615q0-1.608-1.386-1.608a1.133,1.133,0,0,0-1.289,1.274h-3.62a3.245,3.245,0,0,1,1.434-2.736,6.027,6.027,0,0,1,3.658-1.051,5.284,5.284,0,0,1,3.513,1.085,3.772,3.772,0,0,1,1.321,2.976v5.146a5.269,5.269,0,0,0,.494,2.449V21Zm-2.267-2.363a2.019,2.019,0,0,0,1.123-.29,1.818,1.818,0,0,0,.639-.655V15.833h-1.053q-1.891,0-1.891,1.7a1.036,1.036,0,0,0,.333.8A1.205,1.205,0,0,0,125.274,18.637Zm6.939-3.534a7.1,7.1,0,0,1,1.192-4.351,3.925,3.925,0,0,1,3.33-1.59,3.338,3.338,0,0,1,2.621,1.225V4.5h3.631V21h-3.255l-.183-1.246a3.428,3.428,0,0,1-2.836,1.461,3.918,3.918,0,0,1-3.287-1.59A7.325,7.325,0,0,1,132.214,15.1Zm3.62.226q0,3.094,1.8,3.094a1.782,1.782,0,0,0,1.719-1.01V12.986a1.734,1.734,0,0,0-1.7-1.031q-1.676,0-1.815,2.707Zm8.755-.247a6.86,6.86,0,0,1,.677-3.1,4.84,4.84,0,0,1,1.944-2.089,5.856,5.856,0,0,1,2.976-.73,5.344,5.344,0,0,1,4.114,1.617,6.2,6.2,0,0,1,1.5,4.4v.129a6.019,6.019,0,0,1-1.509,4.313,5.359,5.359,0,0,1-4.087,1.6,5.42,5.42,0,0,1-3.985-1.488,5.819,5.819,0,0,1-1.622-4.034Zm3.62.226a4.325,4.325,0,0,0,.5,2.363,1.682,1.682,0,0,0,1.493.752q1.934,0,1.977-2.976v-.365q0-3.126-2-3.126-1.815,0-1.966,2.7ZM57.609,53H53.979V41.377h3.631ZM53.764,38.369a1.63,1.63,0,0,1,.559-1.275,2.364,2.364,0,0,1,2.9,0,1.735,1.735,0,0,1,0,2.551,2.364,2.364,0,0,1-2.9,0A1.63,1.63,0,0,1,53.764,38.369Zm9.4,3.008.118,1.364A3.942,3.942,0,0,1,66.6,41.162a3.316,3.316,0,0,1,2.712,1.085,5.165,5.165,0,0,1,.929,3.266V53H66.611V45.663a1.961,1.961,0,0,0-.354-1.294,1.64,1.64,0,0,0-1.289-.414,1.726,1.726,0,0,0-1.579.838V53h-3.62V41.377Zm13.3-2.89v2.89h1.912v2.514H76.462v5.317a1.358,1.358,0,0,0,.236.913,1.268,1.268,0,0,0,.935.258,5.311,5.311,0,0,0,.9-.064V52.9a6.681,6.681,0,0,1-2.041.312,3.792,3.792,0,0,1-2.761-.881,3.61,3.61,0,0,1-.892-2.675V43.891H71.359V41.377h1.482v-2.89Zm8.959,14.728a5.975,5.975,0,0,1-4.329-1.6,5.509,5.509,0,0,1-1.654-4.152v-.3A7.138,7.138,0,0,1,80.1,44.02a4.834,4.834,0,0,1,1.928-2.111,5.821,5.821,0,0,1,3.008-.747,5.031,5.031,0,0,1,3.867,1.52,5.973,5.973,0,0,1,1.418,4.238v1.407h-7.2a2.609,2.609,0,0,0,.849,1.536,2.525,2.525,0,0,0,1.7.559,3.254,3.254,0,0,0,2.686-1.2l1.654,1.955a4.624,4.624,0,0,1-1.917,1.488A6.48,6.48,0,0,1,85.421,53.215Zm-.408-9.26q-1.59,0-1.891,2.105h3.652v-.279a1.793,1.793,0,0,0-.44-1.348A1.753,1.753,0,0,0,85.013,43.955ZM91.351,47.1a7.848,7.848,0,0,1,.58-3.115A4.67,4.67,0,0,1,93.6,41.9a4.389,4.389,0,0,1,2.524-.736,3.49,3.49,0,0,1,2.836,1.225l.129-1.01h3.287V52.56a4.9,4.9,0,0,1-.714,2.669,4.584,4.584,0,0,1-2.068,1.74,7.6,7.6,0,0,1-3.137.607,6.557,6.557,0,0,1-2.476-.483,4.47,4.47,0,0,1-1.832-1.257l1.515-2.127A3.319,3.319,0,0,0,96.324,54.9a2.156,2.156,0,0,0,2.406-2.471v-.365A3.4,3.4,0,0,1,96.1,53.215a4.2,4.2,0,0,1-3.437-1.627,6.743,6.743,0,0,1-1.311-4.356Zm3.631.226a4.135,4.135,0,0,0,.537,2.261,1.7,1.7,0,0,0,1.5.833,1.923,1.923,0,0,0,1.708-.784V44.75a1.875,1.875,0,0,0-1.687-.795,1.706,1.706,0,0,0-1.515.865A4.715,4.715,0,0,0,94.981,47.328Zm16.479-2.675-1.192-.086a2.142,2.142,0,0,0-2.191,1.074V53h-3.62V41.377h3.395l.118,1.493a2.8,2.8,0,0,1,2.546-1.708,3.53,3.53,0,0,1,1.01.129ZM116.584,53h-3.631V41.377h3.631Zm-3.846-14.631a1.63,1.63,0,0,1,.559-1.275,2.364,2.364,0,0,1,2.9,0,1.735,1.735,0,0,1,0,2.551,2.364,2.364,0,0,1-2.9,0A1.63,1.63,0,0,1,112.738,38.369Zm5.618,8.733a7.1,7.1,0,0,1,1.192-4.351,3.925,3.925,0,0,1,3.33-1.59,3.338,3.338,0,0,1,2.621,1.225V36.5h3.631V53h-3.255l-.183-1.246a3.428,3.428,0,0,1-2.836,1.461,3.918,3.918,0,0,1-3.287-1.59A7.325,7.325,0,0,1,118.356,47.1Zm3.62.226q0,3.094,1.8,3.094a1.782,1.782,0,0,0,1.719-1.01V44.986a1.734,1.734,0,0,0-1.7-1.031q-1.676,0-1.815,2.707ZM137.735,53a4.088,4.088,0,0,1-.344-1.042,3.366,3.366,0,0,1-2.793,1.257,4.124,4.124,0,0,1-2.793-.994,3.163,3.163,0,0,1-1.149-2.5,3.251,3.251,0,0,1,1.4-2.857,7.114,7.114,0,0,1,4.061-.967h1.117v-.615q0-1.608-1.386-1.608a1.133,1.133,0,0,0-1.289,1.274h-3.62a3.245,3.245,0,0,1,1.434-2.736,6.027,6.027,0,0,1,3.658-1.051,5.284,5.284,0,0,1,3.513,1.085,3.772,3.772,0,0,1,1.321,2.976v5.146a5.269,5.269,0,0,0,.494,2.449V53Zm-2.267-2.363a2.019,2.019,0,0,0,1.123-.29,1.818,1.818,0,0,0,.639-.655V47.833h-1.053q-1.891,0-1.891,1.7a1.036,1.036,0,0,0,.333.8A1.205,1.205,0,0,0,135.469,50.637Zm6.939-3.534a7.1,7.1,0,0,1,1.192-4.351,3.925,3.925,0,0,1,3.33-1.59,3.338,3.338,0,0,1,2.621,1.225V36.5h3.631V53h-3.255l-.183-1.246a3.428,3.428,0,0,1-2.836,1.461,3.918,3.918,0,0,1-3.287-1.59A7.325,7.325,0,0,1,142.408,47.1Zm3.62.226q0,3.094,1.8,3.094a1.782,1.782,0,0,0,1.719-1.01V44.986a1.734,1.734,0,0,0-1.7-1.031q-1.676,0-1.815,2.707Z" transform="translate(7476 -8060)" fill="#12263f"/>
    <g id="t7-ic7" transform="translate(7532 -8190)">
      <g id="Group_107187" data-name="Group 107187" transform="translate(1.465 50)">
        <g id="Group_107183" data-name="Group 107183" transform="translate(0 0)">
          <path id="Path_163120" data-name="Path 163120" d="M50.834,268.195V300.2a4.332,4.332,0,0,1-4.334,4.334H11.833A4.332,4.332,0,0,1,7.5,300.2V260.334A4.333,4.333,0,0,1,11.833,256H38.64a4.082,4.082,0,0,1,.711.061A4.313,4.313,0,0,1,41.7,257.27l7.861,7.861a4.313,4.313,0,0,1,1.209,2.353,4.1,4.1,0,0,1,.061.711Z" transform="translate(-7.499 -256)" fill="#e6f7fe"/>
        </g>
        <g id="Group_107184" data-name="Group 107184" transform="translate(26.218)">
          <path id="Path_163121" data-name="Path 163121" d="M158.791,267.484a4.315,4.315,0,0,0-1.209-2.353l-7.861-7.861a4.313,4.313,0,0,0-2.353-1.209,4.084,4.084,0,0,0-.711-.061h-4.923v9.317a7.8,7.8,0,0,0,7.8,7.8h1.517a2.167,2.167,0,0,1,2.167,2.167V300.2a4.332,4.332,0,0,1-4.334,4.334h5.634a4.334,4.334,0,0,0,4.334-4.334V268.194A4.1,4.1,0,0,0,158.791,267.484Z" transform="translate(-141.734 -256)" fill="#d3effd"/>
        </g>
        <g id="Group_107185" data-name="Group 107185" transform="translate(31.851 0.061)">
          <path id="Path_163122" data-name="Path 163122" d="M182,267.734h-9.256a2.167,2.167,0,0,1-2.167-2.167v-9.256a4.313,4.313,0,0,1,2.353,1.209l7.861,7.861A4.312,4.312,0,0,1,182,267.734Z" transform="translate(-170.577 -256.311)" fill="#bed8fb"/>
        </g>
        <g id="Group_107186" data-name="Group 107186" transform="translate(6.934 6.934)">
          <path id="Path_163123" data-name="Path 163123" d="M43,291.5H61.6v6.934H43Z" transform="translate(-43 -291.5)" fill="#b893f5"/>
        </g>
      </g>
      <g id="Group_107192" data-name="Group 107192" transform="translate(55.2 1.465)">
        <g id="Group_107188" data-name="Group 107188">
          <path id="Path_163124" data-name="Path 163124" d="M325.959,19.695V51.7a4.332,4.332,0,0,1-4.334,4.334H286.958a4.332,4.332,0,0,1-4.334-4.334V11.834A4.332,4.332,0,0,1,286.958,7.5h26.807a4.084,4.084,0,0,1,.711.061,4.314,4.314,0,0,1,2.353,1.209l7.861,7.861a4.313,4.313,0,0,1,1.209,2.353,4.084,4.084,0,0,1,.061.711Z" transform="translate(-282.624 -7.5)" fill="#e6f7fe"/>
        </g>
        <g id="Group_107189" data-name="Group 107189" transform="translate(26.218 0)">
          <path id="Path_163125" data-name="Path 163125" d="M433.916,18.984a4.315,4.315,0,0,0-1.209-2.353L424.846,8.77a4.313,4.313,0,0,0-2.353-1.209,4.082,4.082,0,0,0-.711-.061h-4.923v9.317a7.8,7.8,0,0,0,7.8,7.8h1.517a2.167,2.167,0,0,1,2.167,2.167V51.7a4.332,4.332,0,0,1-4.334,4.334h5.634a4.334,4.334,0,0,0,4.334-4.334V19.695a4.1,4.1,0,0,0-.061-.711Z" transform="translate(-416.859 -7.5)" fill="#d3effd"/>
        </g>
        <g id="Group_107190" data-name="Group 107190" transform="translate(31.851 0.061)">
          <path id="Path_163126" data-name="Path 163126" d="M457.125,19.234h-9.256a2.167,2.167,0,0,1-2.167-2.167V7.811a4.313,4.313,0,0,1,2.353,1.209l7.861,7.861A4.312,4.312,0,0,1,457.125,19.234Z" transform="translate(-445.702 -7.811)" fill="#bed8fb"/>
        </g>
        <g id="Group_107191" data-name="Group 107191" transform="translate(6.934 6.934)">
          <path id="Path_163127" data-name="Path 163127" d="M318.125,43h18.6v6.934h-18.6Z" transform="translate(-318.125 -43)" fill="#fa4d7f"/>
        </g>
      </g>
      <g id="Group_107193" data-name="Group 107193" transform="translate(16.457 15.589)">
        <path id="Path_163128" data-name="Path 163128" d="M113.2,87.727l-6.987-6.987a3.157,3.157,0,0,0-4.464,4.464l1.6,1.6H87.416a3.157,3.157,0,0,0-3.157,3.157V104.62a3.157,3.157,0,1,0,6.314,0v-11.5h12.776l-1.6,1.6a3.157,3.157,0,0,0,4.464,4.464l6.987-6.987A3.157,3.157,0,0,0,113.2,87.727Z" transform="translate(-84.259 -79.816)" fill="#ffb206"/>
      </g>
      <g id="Group_107194" data-name="Group 107194" transform="translate(53.676 56.45)">
        <path id="Path_163129" data-name="Path 163129" d="M275.745,309.073l6.987,6.987A3.157,3.157,0,1,0,287.2,311.6l-1.6-1.6h15.933a3.157,3.157,0,0,0,3.157-3.157V292.18a3.157,3.157,0,0,0-6.314,0v11.5H285.6l1.6-1.6a3.157,3.157,0,0,0-4.464-4.464l-6.987,6.987a3.157,3.157,0,0,0,0,4.464Z" transform="translate(-274.82 -289.023)" fill="#e01650"/>
      </g>
      <g id="Group_107195" data-name="Group 107195" transform="translate(0 0)">
        <path id="Path_163130" data-name="Path 163130" d="M44.565,258.06,36.7,250.2a5.74,5.74,0,0,0-3.136-1.615,5.609,5.609,0,0,0-.963-.082H5.8A5.805,5.805,0,0,0,0,254.3v39.867a5.805,5.805,0,0,0,5.8,5.8H40.467a5.805,5.805,0,0,0,5.8-5.8V285.9a1.465,1.465,0,0,0-2.93,0v8.264a2.872,2.872,0,0,1-2.869,2.869H5.8a2.872,2.872,0,0,1-2.869-2.869V254.3A2.872,2.872,0,0,1,5.8,251.43H31.851v7.852a3.636,3.636,0,0,0,3.632,3.632h7.853v16.153a1.465,1.465,0,0,0,2.93,0V262.16a5.333,5.333,0,0,0-.084-.961,5.728,5.728,0,0,0-1.616-3.139Zm-9.784,1.222v-6.865l7.565,7.567H35.483A.7.7,0,0,1,34.781,259.282Z" transform="translate(0 -199.965)"/>
        <path id="Path_163131" data-name="Path 163131" d="M36.965,293.863h18.6a1.465,1.465,0,0,0,1.465-1.465v-6.934A1.465,1.465,0,0,0,55.569,284h-18.6a1.465,1.465,0,0,0-1.465,1.465V292.4A1.465,1.465,0,0,0,36.965,293.863Zm1.465-6.934H54.1v4H38.43Z" transform="translate(-28.566 -228.531)"/>
        <path id="Path_163132" data-name="Path 163132" d="M123.565,355h-15.6a1.465,1.465,0,0,0,0,2.93h15.6a1.465,1.465,0,0,0,0-2.93Z" transform="translate(-85.699 -285.664)"/>
        <path id="Path_163133" data-name="Path 163133" d="M36.965,357.93H43.9a1.465,1.465,0,0,0,0-2.93H36.965a1.465,1.465,0,0,0,0,2.93Z" transform="translate(-28.566 -285.664)"/>
        <path id="Path_163134" data-name="Path 163134" d="M159.273,390.5H152.34a1.465,1.465,0,0,0,0,2.93h6.934a1.465,1.465,0,0,0,0-2.93Z" transform="translate(-121.407 -314.23)"/>
        <path id="Path_163135" data-name="Path 163135" d="M54.03,391.965a1.465,1.465,0,0,0-1.465-1.465h-15.6a1.465,1.465,0,0,0,0,2.93h15.6A1.465,1.465,0,0,0,54.03,391.965Z" transform="translate(-28.566 -314.23)"/>
        <path id="Path_163136" data-name="Path 163136" d="M130.707,426H116.84a1.465,1.465,0,0,0,0,2.93h13.867a1.465,1.465,0,0,0,0-2.93Z" transform="translate(-92.841 -342.797)"/>
        <path id="Path_163137" data-name="Path 163137" d="M47.1,427.465A1.465,1.465,0,0,0,45.632,426H36.965a1.465,1.465,0,0,0,0,2.93h8.667A1.465,1.465,0,0,0,47.1,427.465Z" transform="translate(-28.566 -342.797)"/>
        <path id="Path_163138" data-name="Path 163138" d="M107.965,464.43h15.6a1.465,1.465,0,0,0,0-2.93h-15.6a1.465,1.465,0,0,0,0,2.93Z" transform="translate(-85.699 -371.363)"/>
        <path id="Path_163139" data-name="Path 163139" d="M36.965,461.5a1.465,1.465,0,0,0,0,2.93H43.9a1.465,1.465,0,0,0,0-2.93Z" transform="translate(-28.566 -371.363)"/>
        <path id="Path_163140" data-name="Path 163140" d="M319.922,27.246a1.465,1.465,0,0,0,1.465-1.465V13.66a5.48,5.48,0,0,0-.079-.947,5.743,5.743,0,0,0-1.619-3.154L311.827,1.7A5.727,5.727,0,0,0,308.692.083,5.584,5.584,0,0,0,307.726,0H280.92a5.805,5.805,0,0,0-5.8,5.8V45.666a5.805,5.805,0,0,0,5.8,5.8h34.668a5.805,5.805,0,0,0,5.8-5.8V32.617a1.465,1.465,0,1,0-2.93,0V45.666a2.872,2.872,0,0,1-2.869,2.869H280.92a2.872,2.872,0,0,1-2.869-2.869V5.8A2.872,2.872,0,0,1,280.92,2.93h26.054v7.852a3.636,3.636,0,0,0,3.632,3.632h7.852V25.781A1.465,1.465,0,0,0,319.922,27.246ZM309.9,10.782V3.918l7.566,7.566H310.6a.7.7,0,0,1-.7-.7Z" transform="translate(-221.386 0)"/>
        <path id="Path_163141" data-name="Path 163141" d="M312.09,45.363h18.6a1.465,1.465,0,0,0,1.465-1.465V36.965a1.465,1.465,0,0,0-1.465-1.465h-18.6a1.465,1.465,0,0,0-1.465,1.465V43.9A1.465,1.465,0,0,0,312.09,45.363Zm1.465-6.934h15.674v4H313.555Z" transform="translate(-249.956 -28.566)"/>
        <path id="Path_163142" data-name="Path 163142" d="M398.69,106.5h-15.6a1.465,1.465,0,0,0,0,2.93h15.6a1.465,1.465,0,0,0,0-2.93Z" transform="translate(-307.089 -85.699)"/>
        <path id="Path_163143" data-name="Path 163143" d="M312.09,109.43h6.934a1.465,1.465,0,0,0,0-2.93H312.09a1.465,1.465,0,0,0,0,2.93Z" transform="translate(-249.956 -85.699)"/>
        <path id="Path_163144" data-name="Path 163144" d="M434.4,142h-6.934a1.465,1.465,0,0,0,0,2.93H434.4a1.465,1.465,0,0,0,0-2.93Z" transform="translate(-342.797 -114.266)"/>
        <path id="Path_163145" data-name="Path 163145" d="M329.155,143.465A1.465,1.465,0,0,0,327.69,142h-15.6a1.465,1.465,0,0,0,0,2.93h15.6A1.465,1.465,0,0,0,329.155,143.465Z" transform="translate(-249.956 -114.266)"/>
        <path id="Path_163146" data-name="Path 163146" d="M405.832,177.5H391.965a1.465,1.465,0,0,0,0,2.93h13.867a1.465,1.465,0,0,0,0-2.93Z" transform="translate(-314.23 -142.832)"/>
        <path id="Path_163147" data-name="Path 163147" d="M322.222,178.965a1.465,1.465,0,0,0-1.465-1.465H312.09a1.465,1.465,0,0,0,0,2.93h8.667A1.465,1.465,0,0,0,322.222,178.965Z" transform="translate(-249.956 -142.832)"/>
        <path id="Path_163148" data-name="Path 163148" d="M383.09,215.93h15.6a1.465,1.465,0,0,0,0-2.93h-15.6a1.465,1.465,0,0,0,0,2.93Z" transform="translate(-307.089 -171.398)"/>
        <path id="Path_163149" data-name="Path 163149" d="M312.09,213a1.465,1.465,0,0,0,0,2.93h6.934a1.465,1.465,0,0,0,0-2.93Z" transform="translate(-249.956 -171.398)"/>
        <path id="Path_163150" data-name="Path 163150" d="M101.216,73.671a4.623,4.623,0,0,0-7.24,5.634h-2.2a1.465,1.465,0,0,0,0,2.93h5.539a1.465,1.465,0,0,0,1.036-2.5l-1.6-1.6a1.692,1.692,0,1,1,2.391-2.393l6.988,6.986a1.694,1.694,0,0,1,0,2.393l-6.988,6.987a1.692,1.692,0,1,1-2.391-2.393l1.6-1.6a1.465,1.465,0,0,0-1.036-2.5H84.537a1.465,1.465,0,0,0-1.465,1.465v11.5a1.691,1.691,0,1,1-3.383,0V83.926a1.693,1.693,0,0,1,1.691-1.691H84.94a1.465,1.465,0,0,0,0-2.93H81.381a4.626,4.626,0,0,0-4.621,4.621v14.66a4.621,4.621,0,1,0,9.242,0V88.547h7.974a4.622,4.622,0,0,0,7.239,5.634l6.988-6.987a4.628,4.628,0,0,0,0-6.537Z" transform="translate(-61.768 -58.193)"/>
        <path id="Path_163151" data-name="Path 163151" d="M295.495,281.524a4.627,4.627,0,0,0-4.622,4.622v10.039H282.9a4.622,4.622,0,0,0-7.239-5.633l-6.987,6.987a4.621,4.621,0,0,0,0,6.536h0l6.987,6.987a4.623,4.623,0,0,0,7.241-5.633h12.594a4.627,4.627,0,0,0,4.621-4.622V286.146A4.626,4.626,0,0,0,295.495,281.524Zm1.692,19.282a1.694,1.694,0,0,1-1.692,1.692H279.562a1.465,1.465,0,0,0-1.036,2.5l1.6,1.6a1.692,1.692,0,1,1-2.393,2.393L270.745,302h0a1.692,1.692,0,0,1,0-2.393l6.987-6.987a1.692,1.692,0,0,1,2.393,2.393l-1.6,1.6a1.465,1.465,0,0,0,1.036,2.5h12.776a1.465,1.465,0,0,0,1.465-1.465v-11.5a1.692,1.692,0,1,1,3.384,0Z" transform="translate(-215.108 -226.539)"/>
      </g>
    </g>
  </g>
</svg>
