<svg xmlns="http://www.w3.org/2000/svg" width="181" height="182" viewBox="0 0 181 182">
  <g id="t7-ic3" transform="translate(-1130 -740)">
    <ellipse id="Ellipse_4993" data-name="Ellipse 4993" cx="90.5" cy="91" rx="90.5" ry="91" transform="translate(1130 740)" fill="#fff"/>
    <path id="Ellipse_4993_-_Outline" data-name="Ellipse 4993 - Outline" d="M90.5,4A86.679,86.679,0,0,0,73.067,5.767,85.741,85.741,0,0,0,42.148,18.85,86.987,86.987,0,0,0,5.758,73.458a88.385,88.385,0,0,0,0,35.084,86.941,86.941,0,0,0,51.081,62.626,85.677,85.677,0,0,0,16.228,5.065,86.891,86.891,0,0,0,34.866,0,85.741,85.741,0,0,0,30.919-13.083,86.987,86.987,0,0,0,36.39-54.608,88.385,88.385,0,0,0,0-35.084,86.941,86.941,0,0,0-51.081-62.626,85.677,85.677,0,0,0-16.228-5.065A86.679,86.679,0,0,0,90.5,4m0-4C140.482,0,181,40.742,181,91s-40.518,91-90.5,91S0,141.258,0,91,40.518,0,90.5,0Z" transform="translate(1130 740)" fill="#ffb206"/>
    <g id="rapido" transform="translate(1164 780.999)">
      <g id="Group_107182" data-name="Group 107182" transform="translate(2.206 2.215)">
        <path id="Path_163087" data-name="Path 163087" d="M30.585,275.707a39.036,39.036,0,0,1-5.238-19.562H9.965a54.334,54.334,0,0,0,7.3,27.218,7.682,7.682,0,1,0,13.322-7.655Zm0,0" transform="translate(-9.965 -201.65)" fill="#cfe7ff" fill-rule="evenodd"/>
        <path id="Path_163088" data-name="Path 163088" d="M410.539,256.148a39.035,39.035,0,0,1-5.238,19.562,7.683,7.683,0,0,0,13.322,7.656,54.325,54.325,0,0,0,7.3-27.218Zm0,0" transform="translate(-316.979 -201.652)" fill="#ff8b06" fill-rule="evenodd"/>
        <path id="Path_163089" data-name="Path 163089" d="M25.686,155.22A38.911,38.911,0,0,1,30.6,140.793L17.25,133.086a54.713,54.713,0,0,0-7.281,27.245H25.35a39.285,39.285,0,0,1,.336-5.111Zm0,0" transform="translate(-9.968 -105.836)" fill="#f3f9ff" fill-rule="evenodd"/>
        <path id="Path_163090" data-name="Path 163090" d="M42.855,62.89,56.2,70.6A39.395,39.395,0,0,1,70.508,56.3L62.791,42.93A54.622,54.622,0,0,0,42.855,62.89Zm0,0" transform="translate(-35.574 -35.64)" fill="#ffefcc" fill-rule="evenodd"/>
        <path id="Path_163091" data-name="Path 163091" d="M132.9,17.294l7.718,13.367a39.028,39.028,0,0,1,19.536-5.224V10a54.434,54.434,0,0,0-27.254,7.29Zm0,0" transform="translate(-105.681 -10.004)" fill="#ffe19e" fill-rule="evenodd"/>
        <path id="Path_163092" data-name="Path 163092" d="M256,10V25.436a39.208,39.208,0,0,1,9.661,1.207l.9.24a38.8,38.8,0,0,1,8.975,3.777l7.718-13.367A54.428,54.428,0,0,0,256,10Zm0,0" transform="translate(-201.529 -10.004)" fill="#ffc94f" fill-rule="evenodd"/>
        <path id="Path_163093" data-name="Path 163093" d="M351.96,42.93,344.243,56.3a39.4,39.4,0,0,1,14.305,14.3L371.9,62.89A54.633,54.633,0,0,0,351.96,42.93Zm0,0" transform="translate(-270.235 -35.64)" fill="#ffb206" fill-rule="evenodd"/>
        <path id="Path_163094" data-name="Path 163094" d="M422.2,133.086l-13.349,7.706a38.91,38.91,0,0,1,4.912,14.427,39.43,39.43,0,0,1,.336,5.111h15.381a54.713,54.713,0,0,0-7.281-27.245Zm0,0" transform="translate(-320.542 -105.836)" fill="#ffa200" fill-rule="evenodd"/>
        <path id="Path_163095" data-name="Path 163095" d="M239.471,244.707l10.754,1.757,32.607,5.327L251.926,240.1l-10.189-3.855c-2.253-.852-4.741.771-5.364,3.1s.72,4.975,3.1,5.364Zm0,0" transform="translate(-186.13 -185.978)" fill="gray" fill-rule="evenodd"/>
        <path id="Path_163096" data-name="Path 163096" d="M225.795,222.3l-10.754-1.756c-2.377-.389-3.72-3.038-3.1-5.364s3.111-3.949,5.364-3.1l10.189,3.855a11.287,11.287,0,1,0-1.7,6.363Zm0,0" transform="translate(-161.699 -161.819)" fill="#e6e6e6" fill-rule="evenodd"/>
      </g>
      <path id="Path_163098" data-name="Path 163098" d="M74.166,76.447a2.207,2.207,0,0,0,1.565-.649l.013-.012a2.214,2.214,0,0,0-3.1-3.164l-.048.048a2.214,2.214,0,0,0,1.568,3.778Zm0,0" transform="translate(-56.022 -56.056)"/>
      <path id="Path_163099" data-name="Path 163099" d="M112.877,49.321a57.008,57.008,0,0,0-16.1-32.709A56.727,56.727,0,0,0,23.9,10.422a2.214,2.214,0,0,0,2.563,3.612q1.072-.76,2.173-1.461l5.507,9.539A41.428,41.428,0,0,0,22.092,34.185l-9.539-5.506a51.823,51.823,0,0,1,3.235-4.546,2.215,2.215,0,0,0-3.465-2.76A56.743,56.743,0,0,0,7.585,85.031a9.9,9.9,0,1,0,17.16-9.866,36.867,36.867,0,0,1,57.99-44.511A36.9,36.9,0,0,1,92.956,63.409L70.08,54.755a13.526,13.526,0,1,0-2.771,10.354l24.132,3.943a37.286,37.286,0,0,1-2.832,6.116,9.9,9.9,0,0,0,17.16,9.867,56.947,56.947,0,0,0,7.109-35.714ZM20.907,77.375a5.469,5.469,0,1,1-9.485,5.446,51.782,51.782,0,0,1-6.964-23.9H15.442a41.525,41.525,0,0,0,5.465,18.45ZM15.729,51.31c-.14,1.059-.235,2.122-.291,3.186H4.466q.1-2.294.4-4.6a52.5,52.5,0,0,1,5.475-17.382l9.532,5.5A41.159,41.159,0,0,0,15.729,51.31ZM50.235,63.159A9.115,9.115,0,1,1,64.914,52.8L58.6,50.413a5.9,5.9,0,0,0-4.829.314,6.784,6.784,0,0,0-2.6,9.715,5.9,5.9,0,0,0,4.025,2.687l6.662,1.088a9.129,9.129,0,0,1-11.617-1.059ZM66.66,60.516l-.018,0L55.9,58.759a1.53,1.53,0,0,1-1.02-.719,2.356,2.356,0,0,1,.9-3.373,1.71,1.71,0,0,1,.768-.2,1.334,1.334,0,0,1,.474.086l10.147,3.838.064.024L77.45,62.279ZM58.891,15.493V4.479a51.922,51.922,0,0,1,22,5.87l-5.509,9.543a41,41,0,0,0-16.487-4.4ZM32.469,10.351A51.872,51.872,0,0,1,54.463,4.476V15.492a41,41,0,0,0-16.487,4.4Zm46.74,11.761,5.511-9.544a52.84,52.84,0,0,1,16.094,16.1l-9.551,5.515A41.434,41.434,0,0,0,79.209,22.112ZM93.479,38.02l9.551-5.514A52.307,52.307,0,0,1,108.487,49.9q.3,2.3.4,4.6H97.917q-.084-1.6-.291-3.186A41.139,41.139,0,0,0,93.479,38.02Zm8.451,44.805a5.468,5.468,0,0,1-9.485-5.445,41.044,41.044,0,0,0,3.408-7.606l2.7.441a2.214,2.214,0,0,0,1.141-4.257l-2.563-.969a41.819,41.819,0,0,0,.784-6.064H108.9a51.773,51.773,0,0,1-6.967,23.9Zm0,0" transform="translate(0 0)"/>
      <path id="Path_163101" data-name="Path 163101" d="M100.39,246.145a2.214,2.214,0,0,0,0,4.428h.053a2.214,2.214,0,1,0,0-4.428Zm0,0" transform="translate(-76.44 -191.649)"/>
      <path id="Path_163102" data-name="Path 163102" d="M176.26,119.282l-.026-.046a2.214,2.214,0,0,0-3.835,2.216l.026.045a2.214,2.214,0,1,0,3.835-2.215Zm0,0" transform="translate(-133.999 -91.975)"/>
      <path id="Path_163103" data-name="Path 163103" d="M322.019,122.621a2.212,2.212,0,0,0,1.919-1.107l.026-.046a2.214,2.214,0,1,0-3.835-2.215l-.026.046a2.215,2.215,0,0,0,1.916,3.322Zm0,0" transform="translate(-249.003 -91.988)"/>
      <path id="Path_163104" data-name="Path 163104" d="M395.852,250.6a2.214,2.214,0,0,0,0-4.429H395.8a2.214,2.214,0,1,0,0,4.429Zm0,0" transform="translate(-306.447 -191.673)"/>
    </g>
  </g>
</svg>
