<svg xmlns="http://www.w3.org/2000/svg" width="181" height="182" viewBox="0 0 181 182">
  <g id="t7-ic2" transform="translate(-710 -740)">
    <ellipse id="Ellipse_4994" data-name="Ellipse 4994" cx="90.5" cy="91" rx="90.5" ry="91" transform="translate(710 740)" fill="#fff"/>
    <path id="Ellipse_4994_-_Outline" data-name="Ellipse 4994 - Outline" d="M90.5,4A86.679,86.679,0,0,0,73.067,5.767,85.741,85.741,0,0,0,42.148,18.85,86.987,86.987,0,0,0,5.758,73.458a88.385,88.385,0,0,0,0,35.084,86.941,86.941,0,0,0,51.081,62.626,85.677,85.677,0,0,0,16.228,5.065,86.891,86.891,0,0,0,34.866,0,85.741,85.741,0,0,0,30.919-13.083,86.987,86.987,0,0,0,36.39-54.608,88.385,88.385,0,0,0,0-35.084,86.941,86.941,0,0,0-51.081-62.626,85.677,85.677,0,0,0-16.228-5.065A86.679,86.679,0,0,0,90.5,4m0-4C140.482,0,181,40.742,181,91s-40.518,91-90.5,91S0,141.258,0,91,40.518,0,90.5,0Z" transform="translate(710 740)" fill="#8f52f5"/>
    <g id="medio_1_" data-name="medio (1)" transform="translate(744 781)">
      <g id="Group_107180" data-name="Group 107180" transform="translate(2.206 2.214)">
        <path id="Path_163038" data-name="Path 163038" d="M30.587,276.207a39.033,39.033,0,0,1-5.239-19.563H9.965a54.328,54.328,0,0,0,7.3,27.22,7.684,7.684,0,0,0,13.324-7.657Zm0,0" transform="translate(-9.965 -202.145)" fill="#cfe7ff" fill-rule="evenodd"/>
        <path id="Path_163039" data-name="Path 163039" d="M410.538,256.645a39.03,39.03,0,0,1-5.239,19.564,7.683,7.683,0,0,0,13.324,7.656,54.333,54.333,0,0,0,7.3-27.219H410.538Zm0,0" transform="translate(-316.971 -202.146)" fill="#ff8b06" fill-rule="evenodd"/>
        <path id="Path_163040" data-name="Path 163040" d="M25.684,155.721A38.9,38.9,0,0,1,30.6,141.293l-13.35-7.707a54.717,54.717,0,0,0-7.281,27.247H25.348a39.277,39.277,0,0,1,.336-5.111Zm0,0" transform="translate(-9.965 -106.334)" fill="#f3f9ff" fill-rule="evenodd"/>
        <path id="Path_163041" data-name="Path 163041" d="M42.852,63.388,56.2,71.1a39.391,39.391,0,0,1,14.306-14.3L62.789,43.426A54.648,54.648,0,0,0,42.852,63.388Zm0,0" transform="translate(-35.57 -36.136)" fill="#ffefcc" fill-rule="evenodd"/>
        <path id="Path_163042" data-name="Path 163042" d="M132.9,17.79l7.718,13.369a39.022,39.022,0,0,1,19.538-5.225V10.5A54.442,54.442,0,0,0,132.9,17.79Zm0,0" transform="translate(-105.679 -10.5)" fill="#ffe19e" fill-rule="evenodd"/>
        <path id="Path_163043" data-name="Path 163043" d="M256,10.5V25.934a39.251,39.251,0,0,1,9.662,1.207l1.654-4.372-.753,4.612a38.817,38.817,0,0,1,8.976,3.778l7.718-13.369A54.446,54.446,0,0,0,256,10.5Zm0,0" transform="translate(-201.525 -10.5)" fill="#ffc94f" fill-rule="evenodd"/>
        <path id="Path_163044" data-name="Path 163044" d="M351.961,43.426l-7.718,13.369a39.4,39.4,0,0,1,14.305,14.3l13.35-7.707a54.637,54.637,0,0,0-19.936-19.962Zm0,0" transform="translate(-270.23 -36.136)" fill="#ffb206" fill-rule="evenodd"/>
        <path id="Path_163045" data-name="Path 163045" d="M422.2,133.586l-13.349,7.707a39,39,0,0,1,5.248,19.54h15.383a54.743,54.743,0,0,0-7.282-27.247Zm0,0" transform="translate(-320.537 -106.333)" fill="#ffa200" fill-rule="evenodd"/>
        <path id="Path_163046" data-name="Path 163046" d="M244.545,109.275,246.3,98.52l5.328-32.61L239.938,96.818l-3.854,10.189c-.853,2.253.771,4.741,3.1,5.364s4.976-.72,5.364-3.1Zm0,0" transform="translate(-185.84 -53.642)" fill="gray" fill-rule="evenodd"/>
        <path id="Path_163047" data-name="Path 163047" d="M222.143,207.206l-1.757,10.755c-.388,2.377-3.038,3.72-5.364,3.1s-3.949-3.11-3.1-5.363l3.855-10.19a11.292,11.292,0,1,0,6.364,1.7Zm0,0" transform="translate(-161.68 -162.328)" fill="#e6e6e6" fill-rule="evenodd"/>
      </g>
      <path id="Path_163049" data-name="Path 163049" d="M74.176,76.939a2.22,2.22,0,1,0-1.535-3.806l-.03.03,1.563,1.57-1.566-1.565a2.211,2.211,0,0,0,1.569,3.772Zm0,0" transform="translate(-56.028 -56.555)"/>
      <path id="Path_163050" data-name="Path 163050" d="M112.885,49.823a57.019,57.019,0,0,0-16.1-32.712A56.732,56.732,0,0,0,23.9,10.922a2.214,2.214,0,0,0,2.564,3.611q1.072-.76,2.174-1.46l5.508,9.54A41.448,41.448,0,0,0,22.093,34.687L12.554,29.18a52,52,0,0,1,3.235-4.546,2.214,2.214,0,0,0-3.464-2.76,56.746,56.746,0,0,0-4.74,63.662A9.9,9.9,0,1,0,24.746,75.67,36.88,36.88,0,0,1,56.681,20.363a37.343,37.343,0,0,1,6.685.6L54.723,43.814a13.541,13.541,0,1,0,11.536,3.822,13.727,13.727,0,0,0-1.181-1.051l3.94-24.117a36.882,36.882,0,0,1,19.6,53.2,9.9,9.9,0,0,0,17.161,9.867,56.955,56.955,0,0,0,7.109-35.716ZM20.908,77.88a5.469,5.469,0,1,1-9.485,5.446,51.779,51.779,0,0,1-6.966-23.9H15.443A41.55,41.55,0,0,0,20.908,77.88ZM15.73,51.814Q15.521,53.4,15.438,55H4.465q.1-2.294.4-4.6a52.489,52.489,0,0,1,5.476-17.384l9.532,5.5A41.162,41.162,0,0,0,15.73,51.814Zm44.754-4.58c0,.006,0,.013,0,.02L58.726,57.991a1.528,1.528,0,0,1-.719,1.019,2.355,2.355,0,0,1-3.372-.9,1.527,1.527,0,0,1-.113-1.242l3.847-10.169.009-.022,3.87-10.23Zm5.314,9.98A9.116,9.116,0,1,1,52.769,48.98L50.38,55.3a5.9,5.9,0,0,0,.314,4.829,6.886,6.886,0,0,0,4.281,3.457,6.63,6.63,0,0,0,1.725.225,6.883,6.883,0,0,0,3.71-1.078A5.9,5.9,0,0,0,63.1,58.7l1.09-6.666A9.051,9.051,0,0,1,65.8,57.214ZM32.47,10.851a51.875,51.875,0,0,1,22-5.874V15.994a41,41,0,0,0-16.487,4.4Zm36.1,1.993A2.215,2.215,0,0,0,65.925,14.2l-.969,2.561a41.6,41.6,0,0,0-6.061-.766V4.978a51.93,51.93,0,0,1,22,5.871l-5.509,9.542a40.747,40.747,0,0,0-5.642-2.359l.44-2.693a2.215,2.215,0,0,0-1.612-2.5Zm10.645,9.77,5.511-9.546a52.859,52.859,0,0,1,16.1,16.105L91.27,34.687A41.448,41.448,0,0,0,79.215,22.613ZM93.486,38.522l9.551-5.515A52.31,52.31,0,0,1,108.494,50.4q.3,2.3.4,4.6H97.923q-.083-1.6-.291-3.186a41.162,41.162,0,0,0-4.146-13.292Zm8.452,44.808a5.469,5.469,0,0,1-9.485-5.446,41.554,41.554,0,0,0,5.467-18.456H108.9a51.791,51.791,0,0,1-6.968,23.9Zm0,0" transform="translate(0 -0.501)"/>
      <path id="Path_163052" data-name="Path 163052" d="M100.387,246.641a2.215,2.215,0,1,0,0,4.429h.052a2.215,2.215,0,1,0,0-4.429Zm0,0" transform="translate(-76.436 -192.143)"/>
      <path id="Path_163053" data-name="Path 163053" d="M176.257,119.783l-.026-.046a2.214,2.214,0,0,0-3.835,2.215l.026.046a2.214,2.214,0,0,0,3.835-2.215Zm0,0" transform="translate(-133.995 -92.475)"/>
      <path id="Path_163054" data-name="Path 163054" d="M323.155,118.943a2.214,2.214,0,0,0-3.025.81l-.026.045a2.214,2.214,0,1,0,3.835,2.215l.026-.045a2.215,2.215,0,0,0-.81-3.025Zm0,0" transform="translate(-248.998 -92.487)"/>
      <path id="Path_163055" data-name="Path 163055" d="M395.8,251.105h.052a2.215,2.215,0,1,0,0-4.429H395.8a2.215,2.215,0,0,0,0,4.429Zm0,0" transform="translate(-306.442 -192.17)"/>
    </g>
  </g>
</svg>
