<svg xmlns="http://www.w3.org/2000/svg" width="181" height="182" viewBox="0 0 181 182">
  <g id="t7-ic1" transform="translate(-290 -740)">
    <ellipse id="Ellipse_4995" data-name="Ellipse 4995" cx="90.5" cy="91" rx="90.5" ry="91" transform="translate(290 740)" fill="#fff"/>
    <path id="Ellipse_4995_-_Outline" data-name="Ellipse 4995 - Outline" d="M90.5,4A86.679,86.679,0,0,0,73.067,5.767,85.741,85.741,0,0,0,42.148,18.85,86.987,86.987,0,0,0,5.758,73.458a88.385,88.385,0,0,0,0,35.084,86.941,86.941,0,0,0,51.081,62.626,85.677,85.677,0,0,0,16.228,5.065,86.891,86.891,0,0,0,34.866,0,85.741,85.741,0,0,0,30.919-13.083,86.987,86.987,0,0,0,36.39-54.608,88.385,88.385,0,0,0,0-35.084,86.941,86.941,0,0,0-51.081-62.626,85.677,85.677,0,0,0-16.228-5.065A86.679,86.679,0,0,0,90.5,4m0-4C140.482,0,181,40.742,181,91s-40.518,91-90.5,91S0,141.258,0,91,40.518,0,90.5,0Z" transform="translate(290 740)" fill="#ffb206"/>
    <g id="lento" transform="translate(324 781)">
      <g id="Group_107179" data-name="Group 107179" transform="translate(2.206 2.215)">
        <path id="Path_163018" data-name="Path 163018" d="M30.587,275.707a39.033,39.033,0,0,1-5.239-19.563H9.965a54.337,54.337,0,0,0,7.3,27.22,7.683,7.683,0,1,0,13.323-7.657Zm0,0" transform="translate(-9.965 -201.647)" fill="#cfe7ff" fill-rule="evenodd"/>
        <path id="Path_163019" data-name="Path 163019" d="M410.539,256.145a39.032,39.032,0,0,1-5.239,19.563,7.683,7.683,0,1,0,13.323,7.657,54.333,54.333,0,0,0,7.3-27.22Zm0,0" transform="translate(-316.973 -201.647)" fill="#ff8b06" fill-rule="evenodd"/>
        <path id="Path_163020" data-name="Path 163020" d="M25.684,155.221A38.911,38.911,0,0,1,30.6,140.793l-13.349-7.707a54.742,54.742,0,0,0-7.282,27.246H25.347a39.276,39.276,0,0,1,.336-5.111Zm0,0" transform="translate(-9.965 -105.835)" fill="#f3f9ff" fill-rule="evenodd"/>
        <path id="Path_163021" data-name="Path 163021" d="M42.852,62.891,56.2,70.6A39.4,39.4,0,0,1,70.507,56.3L62.789,42.93A54.636,54.636,0,0,0,42.852,62.891Zm0,0" transform="translate(-35.57 -35.64)" fill="#ffefcc" fill-rule="evenodd"/>
        <path id="Path_163022" data-name="Path 163022" d="M132.9,17.294l7.718,13.368a39.021,39.021,0,0,1,19.538-5.225V10a54.435,54.435,0,0,0-27.256,7.29Zm0,0" transform="translate(-105.679 -10.004)" fill="#ffe19e" fill-rule="evenodd"/>
        <path id="Path_163023" data-name="Path 163023" d="M256,10V25.437a39.21,39.21,0,0,1,9.662,1.207l.9.24a38.8,38.8,0,0,1,8.976,3.778l7.718-13.368A54.434,54.434,0,0,0,256,10Zm0,0" transform="translate(-201.525 -10.004)" fill="#ffc94f" fill-rule="evenodd"/>
        <path id="Path_163024" data-name="Path 163024" d="M351.961,42.93,344.243,56.3a39.416,39.416,0,0,1,14.306,14.3L371.9,62.891A54.626,54.626,0,0,0,351.961,42.93Zm0,0" transform="translate(-270.23 -35.64)" fill="#ffb206" fill-rule="evenodd"/>
        <path id="Path_163025" data-name="Path 163025" d="M422.2,133.086l-13.349,7.707a39,39,0,0,1,5.248,19.539h15.383a54.75,54.75,0,0,0-7.281-27.246Zm0,0" transform="translate(-320.537 -105.835)" fill="#ffa200" fill-rule="evenodd"/>
        <path id="Path_163026" data-name="Path 163026" d="M108.611,212.14l-10.755-1.757-32.609-5.328,30.908,11.691,10.189,3.855c2.253.852,4.74-.771,5.364-3.1s-.72-4.976-3.1-5.364Zm0,0" transform="translate(-53.007 -161.869)" fill="gray" fill-rule="evenodd"/>
        <path id="Path_163027" data-name="Path 163027" d="M206.545,210.334l10.755,1.757c2.377.388,3.721,3.038,3.1,5.364s-3.111,3.949-5.364,3.1L204.843,216.7a11.281,11.281,0,1,0,1.7-6.364Zm0,0" transform="translate(-161.695 -161.82)" fill="#e6e6e6" fill-rule="evenodd"/>
      </g>
      <path id="Path_163029" data-name="Path 163029" d="M74.167,76.446a2.207,2.207,0,0,0,1.565-.649l.022-.022a2.215,2.215,0,0,0-3.132-3.133l-.017.017,1.561,1.571L72.6,72.666a2.215,2.215,0,0,0,1.566,3.78Zm0,0" transform="translate(-56.022 -56.055)"/>
      <path id="Path_163030" data-name="Path 163030" d="M112.884,49.324a57.017,57.017,0,0,0-16.1-32.711,56.731,56.731,0,0,0-72.88-6.19,2.215,2.215,0,1,0,2.563,3.612q1.07-.762,2.173-1.461l5.508,9.54A41.448,41.448,0,0,0,22.092,34.187L12.554,28.68a52,52,0,0,1,3.235-4.546,2.214,2.214,0,0,0-3.464-2.76,56.746,56.746,0,0,0-4.74,63.661,9.9,9.9,0,1,0,17.161-9.867,36.611,36.611,0,0,1-4.625-23.278c.082-.626.182-1.247.295-1.864l22.863,8.648A13.54,13.54,0,1,0,47.1,47.139a13.752,13.752,0,0,0-1.051,1.182L21.921,44.379A36.883,36.883,0,1,1,88.614,75.173a9.9,9.9,0,0,0,17.16,9.867,56.944,56.944,0,0,0,7.11-35.716ZM56.677,47.6a9.116,9.116,0,1,1-8.234,13.028l6.316,2.39a5.759,5.759,0,0,0,2.045.375,6.09,6.09,0,0,0,2.785-.689,6.784,6.784,0,0,0,2.6-9.716A5.9,5.9,0,0,0,58.168,50.3L51.5,49.212A9.051,9.051,0,0,1,56.677,47.6ZM46.7,52.915l.016,0,10.739,1.754a1.53,1.53,0,0,1,1.019.719,2.356,2.356,0,0,1-.9,3.372,1.527,1.527,0,0,1-1.242.113L46.15,55.027l-.006,0L35.907,51.152ZM20.909,77.38a5.469,5.469,0,1,1-9.486,5.446,51.785,51.785,0,0,1-6.965-23.9H15.443A41.54,41.54,0,0,0,20.909,77.38ZM13.663,47.473l2.554.966c-.2.951-.36,1.91-.487,2.874q-.209,1.588-.291,3.186H4.466q.1-2.292.4-4.6a52.483,52.483,0,0,1,5.476-17.383l9.533,5.5a41.566,41.566,0,0,0-2.369,5.636l-2.7-.442a2.215,2.215,0,0,0-1.141,4.257ZM58.9,15.493V4.479a51.932,51.932,0,0,1,22,5.87l-5.51,9.543A40.985,40.985,0,0,0,58.9,15.493ZM32.47,10.351a51.862,51.862,0,0,1,22-5.874V15.494a41,41,0,0,0-16.488,4.4ZM79.214,22.113l5.511-9.545a52.843,52.843,0,0,1,16.1,16.1l-9.552,5.515A41.437,41.437,0,0,0,79.214,22.113ZM93.485,38.022l9.551-5.514A52.279,52.279,0,0,1,108.493,49.9q.3,2.3.4,4.6H97.923q-.083-1.6-.291-3.186a41.142,41.142,0,0,0-4.147-13.291Zm8.452,44.808a5.469,5.469,0,0,1-9.486-5.446,41.555,41.555,0,0,0,5.468-18.456H108.9a51.79,51.79,0,0,1-6.967,23.9Zm0,0" transform="translate(0 -0.001)"/>
      <path id="Path_163032" data-name="Path 163032" d="M100.39,246.141a2.215,2.215,0,0,0,0,4.429h.052a2.215,2.215,0,1,0,0-4.429Zm0,0" transform="translate(-76.439 -191.643)"/>
      <path id="Path_163033" data-name="Path 163033" d="M173.209,118.427a2.214,2.214,0,0,0-.813,3.024l.026.046a2.215,2.215,0,1,0,3.837-2.212l-.026-.045a2.214,2.214,0,0,0-3.025-.813Zm0,0" transform="translate(-133.995 -91.976)"/>
      <path id="Path_163034" data-name="Path 163034" d="M323.153,118.441a2.213,2.213,0,0,0-3.024.813l-.026.046a2.214,2.214,0,1,0,3.837,2.211l.027-.046A2.214,2.214,0,0,0,323.153,118.441Zm0,0" transform="translate(-248.999 -91.987)"/>
      <path id="Path_163035" data-name="Path 163035" d="M395.8,250.605h.053a2.215,2.215,0,0,0,0-4.429H395.8a2.215,2.215,0,0,0,0,4.429Zm0,0" transform="translate(-306.442 -191.671)"/>
    </g>
  </g>
</svg>
