<svg xmlns="http://www.w3.org/2000/svg" width="44.154" height="48.93" viewBox="0 0 44.154 48.93">
  <g id="t8-ico3" transform="translate(-24.779)">
    <circle id="Ellipse_4996" data-name="Ellipse 4996" cx="0.723" cy="0.723" r="0.723" transform="translate(46.412 13.044)" fill="#8f52f5"/>
    <path id="Path_163157" data-name="Path 163157" d="M52.955,322.871a.723.723,0,0,0-.723.723v2.357H26.224V308.884a.723.723,0,1,0-1.445,0v17.79a.723.723,0,0,0,.723.723H52.955a.723.723,0,0,0,.723-.723v-3.08A.723.723,0,0,0,52.955,322.871Z" transform="translate(0 -278.467)" fill="#8f52f5"/>
    <path id="Path_163158" data-name="Path 163158" d="M56.573,0a12.384,12.384,0,0,0-8.98,3.868c-.151-.01-.3-.016-.458-.016A7.186,7.186,0,0,0,44.213,17.6v3.46H25.5a.723.723,0,0,0-.723.723v5.739a.723.723,0,0,0,1.445,0V22.51H52.232v4.044H47.626a.723.723,0,0,0-.723.723v14.96a.723.723,0,0,0,.723.723H57.846a.723.723,0,0,0,.723-.723V27.277a.723.723,0,0,0-.723-.723H53.678V21.787a.723.723,0,0,0-.723-.723H48.549V18.087A7.183,7.183,0,0,0,52.011,5.765,8.017,8.017,0,0,1,64.6,12.36V14.2a.723.723,0,1,0,1.445,0V12.36A9.463,9.463,0,0,0,50.8,4.86a7.156,7.156,0,0,0-1.47-.664A10.913,10.913,0,0,1,67.488,12.36v8.659H66.042V17.09a.723.723,0,1,0-1.445,0v4.651a.723.723,0,0,0,.723.723h2.891a.723.723,0,0,0,.723-.723V12.36A12.374,12.374,0,0,0,56.573,0Zm.551,29.666H54.73a.723.723,0,0,0,0,1.445h2.394v1.638H54.73a.723.723,0,0,0,0,1.445h2.394v1.638H54.73a.723.723,0,0,0,0,1.445h2.394v1.638H54.73a.723.723,0,1,0,0,1.445h2.394v1.153H48.348V40.361h2.517a.723.723,0,1,0,0-1.445H48.348V37.278h2.517a.723.723,0,1,0,0-1.445H48.348V34.194h2.517a.723.723,0,1,0,0-1.445H48.348V31.111h2.517a.723.723,0,1,0,0-1.445H48.348V28h8.775v1.666ZM47.1,18.226v2.793H45.658V18.074A7.188,7.188,0,0,0,47.1,18.226Zm5.774-7.187A5.742,5.742,0,1,1,47.135,5.3,5.749,5.749,0,0,1,52.877,11.039Z" fill="#8f52f5"/>
    <path id="Path_163159" data-name="Path 163159" d="M64.906,342.915a.723.723,0,0,0,.723.723h5.31a.723.723,0,0,0,.723-.723v-2.627a.723.723,0,0,0-.723-.723h-5.31a.723.723,0,0,0-.723.723Zm1.445-1.9h3.865v1.181H66.351Z" transform="translate(-36.26 -306.845)" fill="#8f52f5"/>
    <path id="Path_163160" data-name="Path 163160" d="M65.629,284.975h5.31a.723.723,0,0,0,.723-.723v-2.627a.723.723,0,0,0-.723-.723h-5.31a.723.723,0,0,0-.723.723v2.627A.723.723,0,0,0,65.629,284.975Zm.723-2.627h3.865v1.181H66.351Z" transform="translate(-36.26 -253.835)" fill="#8f52f5"/>
    <path id="Path_163161" data-name="Path 163161" d="M64.906,401.579a.723.723,0,0,0,.723.723h5.31a.723.723,0,0,0,.723-.723v-2.626a.723.723,0,0,0-.723-.723h-5.31a.723.723,0,0,0-.723.723Zm1.445-1.9h3.865v1.181H66.351Z" transform="translate(-36.26 -359.857)" fill="#8f52f5"/>
    <path id="Path_163162" data-name="Path 163162" d="M162.265,284.975h5.31a.723.723,0,0,0,.723-.723v-2.627a.723.723,0,0,0-.723-.723h-5.31a.723.723,0,0,0-.723.723v2.627A.723.723,0,0,0,162.265,284.975Zm.723-2.627h3.865v1.181h-3.865Z" transform="translate(-123.585 -253.835)" fill="#8f52f5"/>
    <path id="Path_163163" data-name="Path 163163" d="M161.542,342.915a.723.723,0,0,0,.723.723h5.31a.723.723,0,0,0,.723-.723v-2.627a.723.723,0,0,0-.723-.723h-5.31a.723.723,0,0,0-.723.723Zm1.445-1.9h3.865v1.181h-3.865Z" transform="translate(-123.585 -306.845)" fill="#8f52f5"/>
    <path id="Path_163164" data-name="Path 163164" d="M161.542,401.579a.723.723,0,0,0,.723.723h5.31a.723.723,0,0,0,.723-.723v-2.626a.723.723,0,0,0-.723-.723h-5.31a.723.723,0,0,0-.723.723Zm1.445-1.9h3.865v1.181h-3.865Z" transform="translate(-123.585 -359.857)" fill="#8f52f5"/>
    <path id="Path_163165" data-name="Path 163165" d="M250.008,71.266a.723.723,0,0,0-.723.723v3.92a.723.723,0,0,0,1.445,0v-3.92A.723.723,0,0,0,250.008,71.266Z" transform="translate(-202.873 -64.399)" fill="#8f52f5"/>
  </g>
</svg>
