<svg xmlns="http://www.w3.org/2000/svg" width="80" height="80" viewBox="0 0 80 80">
  <g id="t9-ic4" transform="translate(-15933 10427)">
    <rect id="Rectangle_35959" data-name="Rectangle 35959" width="80" height="80" rx="10" transform="translate(15933 -10427)" fill="none"/>
    <g id="ddos" transform="translate(15933 -10429.374)">
      <g id="Group_108289" data-name="Group 108289" transform="translate(1.094 8.468)">
        <path id="Path_165210" data-name="Path 165210" d="M1.75,28V72.783a2.8,2.8,0,0,0,2.8,2.8H46.219a14.075,14.075,0,0,1,3.8-15.3v.034h18.8v-.032a14.075,14.075,0,0,1,3.8,15.3h4.139a2.8,2.8,0,0,0,2.8-2.8V28Z" transform="translate(-1.75 -16.202)" fill="#c7acf5"/>
        <path id="Path_165211" data-name="Path 165211" d="M93.368,68.472a1.094,1.094,0,0,1-1.094-1.094V65.1a6.406,6.406,0,0,1,3.77-5.831,1.094,1.094,0,0,1,.9,2A4.214,4.214,0,0,0,94.462,65.1v2.277a1.093,1.093,0,0,1-1.094,1.1Z" transform="translate(-35.696 -27.892)" fill="#eaeaf0"/>
        <path id="Path_165212" data-name="Path 165212" d="M4.875,9.124H76.438a3.125,3.125,0,0,1,3.125,3.125v8.673H1.75V12.249A3.125,3.125,0,0,1,4.875,9.124Z" transform="translate(-1.75 -9.124)" fill="#ffb206"/>
        <g id="Group_108288" data-name="Group 108288" transform="translate(3.906 4.805)">
          <path id="Path_165213" data-name="Path 165213" d="M91.883,19H49.031a1.094,1.094,0,0,1,0-2.187H91.883a1.094,1.094,0,1,1,0,2.188Z" transform="translate(-22.976 -16.812)" fill="#94e0da"/>
          <path id="Path_165214" data-name="Path 165214" d="M11.986,19H9.094a1.094,1.094,0,0,1,0-2.187h2.892a1.094,1.094,0,1,1,0,2.188Z" transform="translate(-8 -16.812)" fill="#94e0da"/>
          <path id="Path_165215" data-name="Path 165215" d="M25.3,19H22.406a1.094,1.094,0,0,1,0-2.187H25.3A1.094,1.094,0,0,1,25.3,19Z" transform="translate(-12.992 -16.812)" fill="#94e0da"/>
          <path id="Path_165216" data-name="Path 165216" d="M38.609,19H35.719a1.094,1.094,0,0,1,0-2.187h2.891a1.094,1.094,0,0,1,0,2.188Z" transform="translate(-17.984 -16.812)" fill="#94e0da"/>
          <path id="Path_165217" data-name="Path 165217" d="M82.107,72.3H94.659a3.125,3.125,0,0,1,3.125,3.125v1.5h-18.8v-1.5A3.125,3.125,0,0,1,82.107,72.3Z" transform="translate(-34.618 -37.62)" fill="#afafaf"/>
        </g>
        <path id="Path_165218" data-name="Path 165218" d="M94.987,79.646v.034h-18.8v-.032a14.063,14.063,0,1,0,18.8,0Z" transform="translate(-27.915 -35.57)" fill="#636363"/>
        <path id="Path_165219" data-name="Path 165219" d="M98.368,52.726a1.094,1.094,0,0,1-1.094-1.094V49.327a1.094,1.094,0,1,1,2.188,0v2.305a1.093,1.093,0,0,1-1.094,1.094Z" transform="translate(-37.571 -23.79)" fill="#de6246"/>
        <path id="Path_165220" data-name="Path 165220" d="M103.5,55.254a1.094,1.094,0,0,1-.773-1.867l1.629-1.63A1.094,1.094,0,1,1,105.9,53.3l-1.629,1.629A1.09,1.09,0,0,1,103.5,55.254Z" transform="translate(-39.495 -24.991)" fill="#de6246"/>
        <path id="Path_165221" data-name="Path 165221" d="M107.926,61.361h-2.305a1.094,1.094,0,0,1,0-2.187h2.3a1.094,1.094,0,0,1,0,2.188Z" transform="translate(-40.291 -27.893)" fill="#de6246"/>
        <path id="Path_165222" data-name="Path 165222" d="M17.766,53.693H12.844A1.093,1.093,0,0,1,11.75,52.6V41.162a1.094,1.094,0,0,1,1.094-1.094h4.923a3.6,3.6,0,0,1,3.594,3.594V50.1a3.6,3.6,0,0,1-3.594,3.594Zm-3.829-2.187h3.829A1.408,1.408,0,0,0,19.172,50.1V43.662a1.408,1.408,0,0,0-1.406-1.406H13.938Z" transform="translate(-5.5 -20.728)" fill="#607880"/>
        <path id="Path_165223" data-name="Path 165223" d="M37.017,53.693H32.094A1.093,1.093,0,0,1,31,52.6V41.162a1.094,1.094,0,0,1,1.094-1.094h4.923a3.6,3.6,0,0,1,3.594,3.594V50.1a3.6,3.6,0,0,1-3.593,3.594Zm-3.829-2.187h3.829A1.408,1.408,0,0,0,38.423,50.1V43.662a1.408,1.408,0,0,0-1.406-1.406H33.188Z" transform="translate(-12.719 -20.728)" fill="#607880"/>
        <path id="Path_165224" data-name="Path 165224" d="M54.625,56.137H53.219a2.973,2.973,0,0,1-2.969-2.969V49.553a2.972,2.972,0,0,1,2.969-2.969h1.406a2.973,2.973,0,0,1,2.969,2.969v3.615a2.972,2.972,0,0,1-2.969,2.969Zm-1.406-7.365a.782.782,0,0,0-.781.781v3.615a.782.782,0,0,0,.781.781h1.406a.782.782,0,0,0,.781-.781V49.553a.782.782,0,0,0-.781-.781Z" transform="translate(-19.937 -23.171)" fill="#607880"/>
        <path id="Path_165225" data-name="Path 165225" d="M72.718,53.693H67.8a1.094,1.094,0,0,1,0-2.187h4.922A1.408,1.408,0,0,0,74.124,50.1V47.974H67.8A1.093,1.093,0,0,1,66.7,46.88V43.662A3.6,3.6,0,0,1,70.3,40.068h4.922a1.094,1.094,0,0,1,0,2.188H70.3a1.408,1.408,0,0,0-1.406,1.406v2.125h6.329a1.093,1.093,0,0,1,1.094,1.094V50.1A3.6,3.6,0,0,1,72.718,53.693Z" transform="translate(-26.107 -20.728)" fill="#607880"/>
      </g>
      <g id="Group_108290" data-name="Group 108290" transform="translate(0 7.374)">
        <path id="Path_165226" data-name="Path 165226" d="M75.781,7.374H4.219A4.224,4.224,0,0,0,0,11.593V36.711a1.094,1.094,0,0,0,2.188,0V21.358H77.813V65.046a1.706,1.706,0,0,1-1.7,1.7H73.451a15.147,15.147,0,0,0-4.191-14.678v-.994a4.224,4.224,0,0,0-4.219-4.219H59.859V45.672a4.214,4.214,0,0,1,2.481-3.836,1.094,1.094,0,0,0-.9-2,6.406,6.406,0,0,0-3.77,5.831v1.188H52.489a4.224,4.224,0,0,0-4.219,4.219v1a15.233,15.233,0,0,0-2.426,3,1.094,1.094,0,0,0,1.864,1.146,13.042,13.042,0,0,1,2.052-2.553H67.77A12.968,12.968,0,1,1,45.8,63a1.094,1.094,0,1,0-2.187,0,15.159,15.159,0,0,0,.471,3.753l-40.189,0a1.706,1.706,0,0,1-1.7-1.7V51.437a1.094,1.094,0,0,0-2.188,0V65.048a3.9,3.9,0,0,0,3.891,3.891H44.823a15.154,15.154,0,0,0,27.886,0h3.4A3.9,3.9,0,0,0,80,65.048V11.593a4.224,4.224,0,0,0-4.219-4.219ZM50.458,51.482v-.4a2.034,2.034,0,0,1,2.031-2.031H65.041a2.034,2.034,0,0,1,2.031,2.031v.4ZM2.187,19.171V11.593A2.034,2.034,0,0,1,4.219,9.561H75.781a2.034,2.034,0,0,1,2.031,2.031v7.578Z" transform="translate(0 -7.374)"/>
        <path id="Path_165227" data-name="Path 165227" d="M91.883,16.812H49.031a1.094,1.094,0,0,0,0,2.188H91.883a1.094,1.094,0,1,0,0-2.187Z" transform="translate(-17.976 -10.913)"/>
        <path id="Path_165228" data-name="Path 165228" d="M11.986,16.812H9.094a1.094,1.094,0,0,0,0,2.188h2.892a1.094,1.094,0,1,0,0-2.187Z" transform="translate(-3 -10.913)"/>
        <path id="Path_165229" data-name="Path 165229" d="M25.3,16.812H22.406a1.094,1.094,0,0,0,0,2.188H25.3a1.094,1.094,0,0,0,0-2.187Z" transform="translate(-7.992 -10.913)"/>
        <path id="Path_165230" data-name="Path 165230" d="M38.609,16.812H35.719a1.094,1.094,0,0,0,0,2.188h2.891a1.094,1.094,0,0,0,0-2.187Z" transform="translate(-12.984 -10.913)"/>
        <path id="Path_165231" data-name="Path 165231" d="M99.462,51.632V49.327a1.094,1.094,0,1,0-2.187,0v2.305a1.094,1.094,0,0,0,2.188,0Z" transform="translate(-36.478 -22.696)"/>
        <path id="Path_165232" data-name="Path 165232" d="M104.352,51.758l-1.629,1.63a1.094,1.094,0,1,0,1.547,1.546L105.9,53.3a1.094,1.094,0,0,0-1.547-1.547Z" transform="translate(-38.401 -23.898)"/>
        <path id="Path_165233" data-name="Path 165233" d="M104.527,60.268a1.094,1.094,0,0,0,1.094,1.094h2.3a1.094,1.094,0,1,0,0-2.187h-2.3a1.094,1.094,0,0,0-1.094,1.094Z" transform="translate(-39.198 -26.799)"/>
        <path id="Path_165234" data-name="Path 165234" d="M17.766,53.693A3.6,3.6,0,0,0,21.36,50.1V43.662a3.6,3.6,0,0,0-3.594-3.594H12.844a1.094,1.094,0,0,0-1.094,1.094V52.6a1.093,1.093,0,0,0,1.094,1.094ZM13.938,42.256h3.829a1.408,1.408,0,0,1,1.406,1.406V50.1a1.408,1.408,0,0,1-1.406,1.406H13.938Z" transform="translate(-4.406 -19.634)"/>
        <path id="Path_165235" data-name="Path 165235" d="M37.017,53.693A3.6,3.6,0,0,0,40.611,50.1V43.662a3.6,3.6,0,0,0-3.594-3.594H32.094A1.094,1.094,0,0,0,31,41.162V52.6a1.093,1.093,0,0,0,1.094,1.094ZM33.188,42.256h3.829a1.408,1.408,0,0,1,1.406,1.406V50.1a1.408,1.408,0,0,1-1.406,1.406H33.188Z" transform="translate(-11.625 -19.634)"/>
        <path id="Path_165236" data-name="Path 165236" d="M54.625,56.137a2.973,2.973,0,0,0,2.969-2.969V49.553a2.972,2.972,0,0,0-2.969-2.969H53.219a2.973,2.973,0,0,0-2.969,2.969v3.615a2.972,2.972,0,0,0,2.969,2.969Zm-2.187-2.969V49.553a.782.782,0,0,1,.781-.781h1.406a.783.783,0,0,1,.781.781v3.615a.782.782,0,0,1-.781.781H53.219a.782.782,0,0,1-.781-.781Z" transform="translate(-18.844 -22.078)"/>
        <path id="Path_165237" data-name="Path 165237" d="M72.718,51.506H67.8a1.094,1.094,0,0,0,0,2.188h4.922A3.6,3.6,0,0,0,76.312,50.1V46.882a1.093,1.093,0,0,0-1.094-1.094h-6.33V43.663a1.408,1.408,0,0,1,1.406-1.406h4.923a1.094,1.094,0,0,0,0-2.187H70.3A3.6,3.6,0,0,0,66.7,43.663v3.219A1.093,1.093,0,0,0,67.8,47.975h6.329V50.1a1.408,1.408,0,0,1-1.406,1.406Z" transform="translate(-25.013 -19.635)"/>
        <path id="Path_165238" data-name="Path 165238" d="M1.094,66.979a1.093,1.093,0,0,0,1.094-1.094V63.644a1.094,1.094,0,0,0-2.188,0v2.241a1.093,1.093,0,0,0,1.094,1.094Z" transform="translate(0 -28.065)"/>
      </g>
    </g>
  </g>
</svg>
