<svg xmlns="http://www.w3.org/2000/svg" width="80" height="80" viewBox="0 0 80 80">
  <g id="t9-ic5" transform="translate(-15933 10211)">
    <rect id="Rectangle_35961" data-name="Rectangle 35961" width="80" height="80" rx="10" transform="translate(15933 -10211)" fill="none"/>
    <g id="hackear" transform="translate(15933 -10214.739)">
      <g id="Group_108242" data-name="Group 108242" transform="translate(1.094 9.833)">
        <path id="Path_165055" data-name="Path 165055" d="M1.75,29.364V74.147a2.8,2.8,0,0,0,2.8,2.8H28.031V65.49a2.5,2.5,0,0,1,2.5-2.5h20.25a2.5,2.5,0,0,1,2.5,2.5V76.945H76.764a2.8,2.8,0,0,0,2.8-2.8V29.364Z" transform="translate(-1.75 -17.567)" fill="#c7acf5"/>
        <path id="Path_165056" data-name="Path 165056" d="M4.875,10.489H76.438a3.125,3.125,0,0,1,3.125,3.125v8.672H1.75V13.614A3.125,3.125,0,0,1,4.875,10.489Z" transform="translate(-1.75 -10.489)" fill="#ffb206"/>
        <g id="Group_108240" data-name="Group 108240" transform="translate(3.906 4.804)">
          <path id="Path_165057" data-name="Path 165057" d="M91.883,20.364H49.031a1.094,1.094,0,0,1,0-2.187H91.883a1.094,1.094,0,0,1,0,2.188Z" transform="translate(-22.976 -18.176)" fill="#94e0da"/>
          <path id="Path_165058" data-name="Path 165058" d="M11.986,20.364H9.094a1.094,1.094,0,0,1,0-2.187h2.892a1.094,1.094,0,0,1,0,2.188Z" transform="translate(-8 -18.176)" fill="#94e0da"/>
          <path id="Path_165059" data-name="Path 165059" d="M25.3,20.364H22.406a1.094,1.094,0,0,1,0-2.187H25.3a1.094,1.094,0,0,1,0,2.188Z" transform="translate(-12.992 -18.176)" fill="#94e0da"/>
          <path id="Path_165060" data-name="Path 165060" d="M38.609,20.364H35.719a1.094,1.094,0,0,1,0-2.187h2.891a1.094,1.094,0,0,1,0,2.188Z" transform="translate(-17.984 -18.176)" fill="#94e0da"/>
        </g>
        <g id="Group_108241" data-name="Group 108241" transform="translate(5.156 16.953)">
          <path id="Path_165061" data-name="Path 165061" d="M31.09,37.614H28.368a2.346,2.346,0,0,0-2.344,2.344v5.2a2.346,2.346,0,0,0,2.344,2.344H31.09a2.346,2.346,0,0,0,2.344-2.344v-5.2A2.346,2.346,0,0,0,31.09,37.614Zm.156,7.548a.156.156,0,0,1-.156.156H28.368a.156.156,0,0,1-.156-.156v-5.2a.156.156,0,0,1,.156-.156H31.09a.156.156,0,0,1,.156.156Z" transform="translate(-16.009 -37.614)" fill="#607880"/>
          <path id="Path_165062" data-name="Path 165062" d="M47.115,37.614H44.394a2.346,2.346,0,0,0-2.344,2.344v5.2a2.346,2.346,0,0,0,2.344,2.344h2.723a2.346,2.346,0,0,0,2.344-2.344v-5.2A2.346,2.346,0,0,0,47.115,37.614Zm.156,7.548a.156.156,0,0,1-.156.156H44.394a.156.156,0,0,1-.156-.156v-5.2a.156.156,0,0,1,.156-.156h2.723a.156.156,0,0,1,.156.156Z" transform="translate(-22.019 -37.614)" fill="#607880"/>
          <path id="Path_165063" data-name="Path 165063" d="M79.161,37.614H76.44A2.346,2.346,0,0,0,74.1,39.958v5.2a2.346,2.346,0,0,0,2.344,2.344h2.721A2.346,2.346,0,0,0,81.5,45.162v-5.2A2.346,2.346,0,0,0,79.161,37.614Zm.156,7.548a.156.156,0,0,1-.156.156H76.44a.156.156,0,0,1-.156-.156v-5.2a.156.156,0,0,1,.156-.156h2.721a.156.156,0,0,1,.156.156Z" transform="translate(-34.036 -37.614)" fill="#607880"/>
          <path id="Path_165064" data-name="Path 165064" d="M111.21,37.614h-2.722a2.346,2.346,0,0,0-2.344,2.344v5.2a2.346,2.346,0,0,0,2.344,2.344h2.722a2.347,2.347,0,0,0,2.344-2.344v-5.2A2.347,2.347,0,0,0,111.21,37.614Zm.156,7.548a.156.156,0,0,1-.156.156h-2.722a.156.156,0,0,1-.156-.156v-5.2a.156.156,0,0,1,.156-.156h2.722a.156.156,0,0,1,.156.156Z" transform="translate(-46.054 -37.614)" fill="#607880"/>
          <path id="Path_165065" data-name="Path 165065" d="M15.066,59.515H12.344A2.346,2.346,0,0,0,10,61.859v5.2a2.346,2.346,0,0,0,2.344,2.344h2.723a2.346,2.346,0,0,0,2.344-2.344v-5.2A2.346,2.346,0,0,0,15.066,59.515Zm.156,7.548a.157.157,0,0,1-.156.156H12.344a.157.157,0,0,1-.156-.156v-5.2a.156.156,0,0,1,.156-.156h2.723a.156.156,0,0,1,.156.156Z" transform="translate(-10 -45.827)" fill="#607880"/>
          <path id="Path_165066" data-name="Path 165066" d="M31.09,59.515H28.368a2.346,2.346,0,0,0-2.344,2.344v5.2a2.346,2.346,0,0,0,2.344,2.344H31.09a2.346,2.346,0,0,0,2.344-2.344v-5.2A2.346,2.346,0,0,0,31.09,59.515Zm.156,7.548a.157.157,0,0,1-.156.156H28.368a.157.157,0,0,1-.156-.156v-5.2a.156.156,0,0,1,.156-.156H31.09a.156.156,0,0,1,.156.156Z" transform="translate(-16.009 -45.827)" fill="#607880"/>
          <path id="Path_165067" data-name="Path 165067" d="M95.187,59.515H92.463a2.347,2.347,0,0,0-2.344,2.344v5.2a2.347,2.347,0,0,0,2.344,2.344h2.724a2.347,2.347,0,0,0,2.344-2.344v-5.2A2.347,2.347,0,0,0,95.187,59.515Zm.156,7.548a.157.157,0,0,1-.156.156H92.463a.157.157,0,0,1-.156-.156v-5.2a.156.156,0,0,1,.156-.156h2.724a.157.157,0,0,1,.156.156Z" transform="translate(-40.045 -45.827)" fill="#607880"/>
          <path id="Path_165068" data-name="Path 165068" d="M15.066,81.415H12.344A2.346,2.346,0,0,0,10,83.759v5.2a2.346,2.346,0,0,0,2.344,2.344h2.723a2.346,2.346,0,0,0,2.344-2.344v-5.2A2.346,2.346,0,0,0,15.066,81.415Zm.156,7.549a.157.157,0,0,1-.156.156H12.344a.157.157,0,0,1-.156-.156v-5.2a.156.156,0,0,1,.156-.156h2.723a.156.156,0,0,1,.156.156Z" transform="translate(-10 -54.039)" fill="#607880"/>
          <path id="Path_165069" data-name="Path 165069" d="M31.09,81.415H28.368a2.346,2.346,0,0,0-2.344,2.344v5.2a2.346,2.346,0,0,0,2.344,2.344H31.09a2.346,2.346,0,0,0,2.344-2.344v-5.2A2.346,2.346,0,0,0,31.09,81.415Zm.156,7.549a.157.157,0,0,1-.156.156H28.368a.157.157,0,0,1-.156-.156v-5.2a.156.156,0,0,1,.156-.156H31.09a.156.156,0,0,1,.156.156Z" transform="translate(-16.009 -54.039)" fill="#607880"/>
          <path id="Path_165070" data-name="Path 165070" d="M95.187,81.415H92.463a2.347,2.347,0,0,0-2.344,2.344v5.2a2.347,2.347,0,0,0,2.344,2.344h2.724a2.347,2.347,0,0,0,2.344-2.344v-5.2A2.347,2.347,0,0,0,95.187,81.415Zm.156,7.549a.157.157,0,0,1-.156.156H92.463a.157.157,0,0,1-.156-.156v-5.2a.156.156,0,0,1,.156-.156h2.724a.157.157,0,0,1,.156.156Z" transform="translate(-40.045 -54.039)" fill="#607880"/>
          <path id="Path_165071" data-name="Path 165071" d="M111.21,81.415h-2.722a2.346,2.346,0,0,0-2.344,2.344v5.2a2.346,2.346,0,0,0,2.344,2.344h2.722a2.347,2.347,0,0,0,2.344-2.344v-5.2A2.347,2.347,0,0,0,111.21,81.415Zm.156,7.549a.157.157,0,0,1-.156.156h-2.722a.157.157,0,0,1-.156-.156v-5.2a.156.156,0,0,1,.156-.156h2.722a.156.156,0,0,1,.156.156Z" transform="translate(-46.054 -54.039)" fill="#607880"/>
          <path id="Path_165072" data-name="Path 165072" d="M16.316,45.318H14.8V38.708a1.094,1.094,0,0,0-1.771-.859l-2.611,2.059a1.094,1.094,0,1,0,1.354,1.718l.841-.663v4.356H11.094a1.094,1.094,0,0,0,0,2.188h5.223a1.094,1.094,0,0,0,0-2.187Z" transform="translate(-10 -37.614)" fill="#607880"/>
          <path id="Path_165073" data-name="Path 165073" d="M112.46,67.219h-1.518V60.609a1.094,1.094,0,0,0-1.771-.859l-2.611,2.059a1.094,1.094,0,1,0,1.354,1.718l.84-.663v4.356h-1.517a1.094,1.094,0,1,0,0,2.187h5.222a1.094,1.094,0,1,0,0-2.187Z" transform="translate(-46.054 -45.826)" fill="#607880"/>
          <path id="Path_165074" data-name="Path 165074" d="M64.389,45.318H62.87V38.708a1.094,1.094,0,0,0-1.771-.859l-2.612,2.059a1.094,1.094,0,1,0,1.354,1.718l.841-.662v4.356H59.165a1.094,1.094,0,0,0,0,2.188h5.223a1.094,1.094,0,0,0,0-2.187Z" transform="translate(-28.027 -37.614)" fill="#607880"/>
          <path id="Path_165075" data-name="Path 165075" d="M96.437,45.318H94.92V38.708a1.094,1.094,0,0,0-1.771-.859l-2.612,2.059a1.094,1.094,0,1,0,1.354,1.718l.841-.663v4.356H91.213a1.094,1.094,0,0,0,0,2.188h5.224a1.094,1.094,0,0,0,0-2.187Z" transform="translate(-40.045 -37.614)" fill="#607880"/>
        </g>
        <rect id="Rectangle_36088" data-name="Rectangle 36088" width="25.253" height="21.466" rx="4" transform="translate(26.28 45.423)" fill="#f21857"/>
        <path id="Path_165076" data-name="Path 165076" d="M67.668,74.954h-5V68.766a2.5,2.5,0,0,0-2.5-2.5H56.829a2.5,2.5,0,0,0-2.5,2.5v1.218h-5V68.768a7.508,7.508,0,0,1,7.5-7.5h3.339a7.508,7.508,0,0,1,7.5,7.5Z" transform="translate(-19.592 -29.531)" fill="#e8e8e8"/>
        <path id="Path_165077" data-name="Path 165077" d="M65.2,95.058a2.995,2.995,0,1,0-4.089,2.782V102.4a1.094,1.094,0,0,0,2.188,0V97.84A2.99,2.99,0,0,0,65.2,95.058Z" transform="translate(-23.297 -41.077)" fill="#f4d844"/>
      </g>
      <g id="Group_108243" data-name="Group 108243" transform="translate(0 8.739)">
        <path id="Path_165078" data-name="Path 165078" d="M75.781,8.739H27.813a1.094,1.094,0,0,0,0,2.187H75.781a2.034,2.034,0,0,1,2.031,2.031v7.578H2.188V12.958a2.034,2.034,0,0,1,2.031-2.031h7.188a1.094,1.094,0,1,0,0-2.187H4.219A4.224,4.224,0,0,0,0,12.958V66.413A3.9,3.9,0,0,0,3.891,70.3H26.28v3.918a3.6,3.6,0,0,0,3.594,3.594H48.5a1.094,1.094,0,1,0,0-2.187H29.875a1.407,1.407,0,0,1-1.406-1.406V57.756a1.407,1.407,0,0,1,1.406-1.406h20.25a1.408,1.408,0,0,1,1.406,1.406V74.222a1.094,1.094,0,0,0,2.188,0V70.3H76.108A3.9,3.9,0,0,0,80,66.413V12.958A4.224,4.224,0,0,0,75.781,8.739ZM41.669,45.476H38.331a3.6,3.6,0,0,0-3.594,3.594v.125H31.924V49.07a6.413,6.413,0,0,1,6.406-6.406h3.339a6.413,6.413,0,0,1,6.406,6.406v5.092H45.263V49.07A3.6,3.6,0,0,0,41.669,45.476ZM77.813,66.413a1.706,1.706,0,0,1-1.7,1.7H53.72V57.756a3.6,3.6,0,0,0-3.457-3.587v-5.1a8.6,8.6,0,0,0-8.594-8.594H38.331a8.6,8.6,0,0,0-8.594,8.594v1.218a1.093,1.093,0,0,0,1.094,1.094h5a1.094,1.094,0,0,0,1.094-1.094V49.07a1.407,1.407,0,0,1,1.406-1.406h3.339a1.408,1.408,0,0,1,1.406,1.406v5.092h-13.2a3.6,3.6,0,0,0-3.594,3.594V68.116H3.891a1.706,1.706,0,0,1-1.7-1.7V22.725H77.813Z" transform="translate(0 -8.739)"/>
        <path id="Path_165079" data-name="Path 165079" d="M27.714,10.926H31.47a1.094,1.094,0,1,0,0-2.187H27.714a1.094,1.094,0,0,0,0,2.187Z" transform="translate(-9.983 -8.739)"/>
        <path id="Path_165080" data-name="Path 165080" d="M91.883,20.364a1.094,1.094,0,0,0,0-2.187H49.031a1.094,1.094,0,0,0,0,2.188Z" transform="translate(-17.976 -12.278)"/>
        <path id="Path_165081" data-name="Path 165081" d="M9.094,18.176a1.094,1.094,0,0,0,0,2.188h2.892a1.094,1.094,0,1,0,0-2.187Z" transform="translate(-3 -12.278)"/>
        <path id="Path_165082" data-name="Path 165082" d="M22.406,20.364H25.3a1.094,1.094,0,0,0,0-2.187H22.406a1.094,1.094,0,0,0,0,2.188Z" transform="translate(-7.992 -12.278)"/>
        <path id="Path_165083" data-name="Path 165083" d="M34.625,19.27a1.094,1.094,0,0,0,1.094,1.094h2.891a1.094,1.094,0,0,0,0-2.187H35.719A1.094,1.094,0,0,0,34.625,19.27Z" transform="translate(-12.984 -12.278)"/>
        <path id="Path_165084" data-name="Path 165084" d="M28.368,47.506H31.09a2.346,2.346,0,0,0,2.344-2.344v-5.2a2.346,2.346,0,0,0-2.344-2.344H28.368a2.346,2.346,0,0,0-2.344,2.344v5.2A2.346,2.346,0,0,0,28.368,47.506Zm-.156-7.548a.156.156,0,0,1,.156-.156H31.09a.156.156,0,0,1,.156.156v5.2a.156.156,0,0,1-.156.156H28.368a.156.156,0,0,1-.156-.156Z" transform="translate(-9.759 -19.567)"/>
        <path id="Path_165085" data-name="Path 165085" d="M44.394,47.506h2.723a2.346,2.346,0,0,0,2.344-2.344v-5.2a2.346,2.346,0,0,0-2.344-2.344H44.394a2.346,2.346,0,0,0-2.344,2.344v5.2A2.346,2.346,0,0,0,44.394,47.506Zm-.156-7.548a.156.156,0,0,1,.156-.156h2.723a.156.156,0,0,1,.156.156v5.2a.156.156,0,0,1-.156.156H44.394a.156.156,0,0,1-.156-.156Z" transform="translate(-15.769 -19.567)"/>
        <path id="Path_165086" data-name="Path 165086" d="M76.44,47.506h2.721A2.346,2.346,0,0,0,81.5,45.162v-5.2a2.346,2.346,0,0,0-2.344-2.344H76.44A2.346,2.346,0,0,0,74.1,39.958v5.2A2.346,2.346,0,0,0,76.44,47.506Zm-.154-7.548a.156.156,0,0,1,.156-.156h2.719a.156.156,0,0,1,.156.156v5.2a.156.156,0,0,1-.156.156H76.44a.156.156,0,0,1-.156-.156Z" transform="translate(-27.786 -19.567)"/>
        <path id="Path_165087" data-name="Path 165087" d="M108.488,47.506h2.722a2.347,2.347,0,0,0,2.344-2.344v-5.2a2.347,2.347,0,0,0-2.344-2.344h-2.722a2.346,2.346,0,0,0-2.344,2.344v5.2A2.346,2.346,0,0,0,108.488,47.506Zm-.156-7.548a.156.156,0,0,1,.156-.156h2.722a.156.156,0,0,1,.156.156v5.2a.156.156,0,0,1-.156.156h-2.722a.156.156,0,0,1-.156-.156Z" transform="translate(-39.804 -19.567)"/>
        <path id="Path_165088" data-name="Path 165088" d="M12.344,69.407h2.723a2.346,2.346,0,0,0,2.344-2.344v-5.2a2.346,2.346,0,0,0-2.344-2.344H12.344A2.346,2.346,0,0,0,10,61.859v5.2A2.346,2.346,0,0,0,12.344,69.407Zm-.156-7.548a.156.156,0,0,1,.156-.156h2.723a.156.156,0,0,1,.156.156v5.2a.157.157,0,0,1-.156.156H12.344a.157.157,0,0,1-.156-.156Z" transform="translate(-3.75 -27.78)"/>
        <path id="Path_165089" data-name="Path 165089" d="M28.368,69.407H31.09a2.346,2.346,0,0,0,2.344-2.344v-5.2a2.346,2.346,0,0,0-2.344-2.344H28.368a2.346,2.346,0,0,0-2.344,2.344v5.2A2.346,2.346,0,0,0,28.368,69.407Zm-.156-7.548a.156.156,0,0,1,.156-.156H31.09a.156.156,0,0,1,.156.156v5.2a.157.157,0,0,1-.156.156H28.368a.157.157,0,0,1-.156-.156Z" transform="translate(-9.759 -27.78)"/>
        <path id="Path_165090" data-name="Path 165090" d="M92.463,69.407h2.724a2.347,2.347,0,0,0,2.344-2.344v-5.2a2.347,2.347,0,0,0-2.344-2.344H92.463a2.347,2.347,0,0,0-2.344,2.344v5.2A2.347,2.347,0,0,0,92.463,69.407Zm-.156-7.548a.156.156,0,0,1,.156-.156h2.724a.157.157,0,0,1,.156.156v5.2a.157.157,0,0,1-.156.156H92.463a.157.157,0,0,1-.156-.156Z" transform="translate(-33.795 -27.78)"/>
        <path id="Path_165091" data-name="Path 165091" d="M12.344,91.307h2.723a2.346,2.346,0,0,0,2.344-2.344V83.759a2.346,2.346,0,0,0-2.344-2.344H12.344A2.346,2.346,0,0,0,10,83.759v5.205A2.346,2.346,0,0,0,12.344,91.307Zm-.156-7.549a.156.156,0,0,1,.156-.156h2.723a.156.156,0,0,1,.156.156v5.205a.157.157,0,0,1-.156.156H12.344a.157.157,0,0,1-.156-.156Z" transform="translate(-3.75 -35.993)"/>
        <path id="Path_165092" data-name="Path 165092" d="M28.368,91.307H31.09a2.346,2.346,0,0,0,2.344-2.344V83.759a2.346,2.346,0,0,0-2.344-2.344H28.368a2.346,2.346,0,0,0-2.344,2.344v5.205A2.346,2.346,0,0,0,28.368,91.307Zm-.156-7.549a.156.156,0,0,1,.156-.156H31.09a.156.156,0,0,1,.156.156v5.205a.157.157,0,0,1-.156.156H28.368a.157.157,0,0,1-.156-.156Z" transform="translate(-9.759 -35.993)"/>
        <path id="Path_165093" data-name="Path 165093" d="M92.463,91.307h2.724a2.347,2.347,0,0,0,2.344-2.344V83.759a2.347,2.347,0,0,0-2.344-2.344H92.463a2.347,2.347,0,0,0-2.344,2.344v5.205A2.347,2.347,0,0,0,92.463,91.307Zm-.156-7.549a.156.156,0,0,1,.156-.156h2.724a.157.157,0,0,1,.156.156v5.205a.157.157,0,0,1-.156.156H92.463a.157.157,0,0,1-.156-.156Z" transform="translate(-33.795 -35.993)"/>
        <path id="Path_165094" data-name="Path 165094" d="M108.488,91.307h2.722a2.347,2.347,0,0,0,2.344-2.344V83.759a2.347,2.347,0,0,0-2.344-2.344h-2.722a2.346,2.346,0,0,0-2.344,2.344v5.205A2.346,2.346,0,0,0,108.488,91.307Zm-.156-7.549a.156.156,0,0,1,.156-.156h2.722a.156.156,0,0,1,.156.156v5.205a.157.157,0,0,1-.156.156h-2.722a.157.157,0,0,1-.156-.156Z" transform="translate(-39.804 -35.993)"/>
        <path id="Path_165095" data-name="Path 165095" d="M11.094,45.318a1.094,1.094,0,0,0,0,2.188h5.222a1.094,1.094,0,0,0,0-2.187H14.8V38.708a1.094,1.094,0,0,0-1.771-.859l-2.611,2.059a1.094,1.094,0,1,0,1.354,1.718l.841-.663v4.356Z" transform="translate(-3.75 -19.567)"/>
        <path id="Path_165096" data-name="Path 165096" d="M107.238,69.407h5.222a1.094,1.094,0,1,0,0-2.187h-1.518V60.609a1.094,1.094,0,0,0-1.771-.859l-2.611,2.059a1.094,1.094,0,1,0,1.354,1.718l.84-.663v4.356h-1.517a1.094,1.094,0,1,0,0,2.187Z" transform="translate(-39.804 -27.78)"/>
        <path id="Path_165097" data-name="Path 165097" d="M59.165,45.318a1.094,1.094,0,0,0,0,2.188h5.223a1.094,1.094,0,0,0,0-2.187H62.87V38.708a1.094,1.094,0,0,0-1.771-.859l-2.612,2.059a1.094,1.094,0,1,0,1.354,1.718l.841-.662v4.356Z" transform="translate(-21.777 -19.567)"/>
        <path id="Path_165098" data-name="Path 165098" d="M91.213,45.318a1.094,1.094,0,0,0,0,2.188h5.224a1.094,1.094,0,1,0,0-2.187H94.92V38.708a1.094,1.094,0,0,0-1.771-.859l-2.612,2.059a1.094,1.094,0,1,0,1.354,1.718l.841-.663v4.356Z" transform="translate(-33.795 -19.567)"/>
        <path id="Path_165099" data-name="Path 165099" d="M61.546,102.841a1.094,1.094,0,0,0,1.094-1.094V98.339a4.089,4.089,0,1,0-2.187,0v3.408A1.1,1.1,0,0,0,61.546,102.841Zm-1.9-8.437a1.9,1.9,0,1,1,1.9,1.9A1.9,1.9,0,0,1,59.645,94.4Z" transform="translate(-21.547 -39.328)"/>
      </g>
    </g>
  </g>
</svg>
