<svg xmlns="http://www.w3.org/2000/svg" width="80" height="80" viewBox="0 0 80 80">
  <g id="t9-ic1" transform="translate(-378 -841)">
    <rect id="Rectangle_35951" data-name="Rectangle 35951" width="80" height="80" rx="10" transform="translate(378 841)" fill="none"/>
    <g id="agrietamiento" transform="translate(378 835.252)">
      <g id="Group_107782" data-name="Group 107782" transform="translate(1.094 15.843)">
        <path id="Path_164062" data-name="Path 164062" d="M1.75,35.373H79.563V80.156a2.8,2.8,0,0,1-2.8,2.8H4.548a2.8,2.8,0,0,1-2.8-2.8V35.373Z" transform="translate(-1.75 -23.577)" fill="#c7acf5"/>
        <path id="Path_164063" data-name="Path 164063" d="M4.875,16.5H76.438a3.125,3.125,0,0,1,3.125,3.125V28.3H1.75V19.625A3.125,3.125,0,0,1,4.875,16.5Z" transform="translate(-1.75 -16.5)" fill="#ffb206"/>
        <g id="Group_107780" data-name="Group 107780" transform="translate(3.906 4.804)">
          <path id="Path_164064" data-name="Path 164064" d="M91.883,26.374H49.032a1.094,1.094,0,0,1,0-2.187H91.883a1.094,1.094,0,1,1,0,2.188Z" transform="translate(-22.977 -24.186)" fill="#94e0da"/>
          <path id="Path_164065" data-name="Path 164065" d="M11.986,26.374H9.094a1.094,1.094,0,0,1,0-2.187h2.892a1.094,1.094,0,0,1,0,2.188Z" transform="translate(-8 -24.186)" fill="#94e0da"/>
          <path id="Path_164066" data-name="Path 164066" d="M25.3,26.374H22.407a1.094,1.094,0,0,1,0-2.187H25.3a1.094,1.094,0,0,1,0,2.188Z" transform="translate(-12.992 -24.186)" fill="#94e0da"/>
          <path id="Path_164067" data-name="Path 164067" d="M38.609,26.374H35.719a1.094,1.094,0,0,1,0-2.187h2.891a1.094,1.094,0,0,1,0,2.188Z" transform="translate(-17.984 -24.186)" fill="#94e0da"/>
        </g>
        <path id="Path_164068" data-name="Path 164068" d="M67.668,57.779h-5V51.592a2.5,2.5,0,0,0-2.5-2.5H56.829a2.5,2.5,0,0,0-2.5,2.5v1.219h-5V51.592a7.509,7.509,0,0,1,7.5-7.5h3.339a7.509,7.509,0,0,1,7.5,7.5Z" transform="translate(-19.592 -26.847)" fill="#607880"/>
        <g id="Group_107781" data-name="Group 107781" transform="translate(26.281 30.932)">
          <path id="Path_164069" data-name="Path 164069" d="M73.833,65.992H65.911l-1.885,5.057h5.587L63.22,87.458H73.833a2.5,2.5,0,0,0,2.5-2.5V68.492a2.5,2.5,0,0,0-2.5-2.5Z" transform="translate(-51.083 -65.992)" fill="#f21857"/>
          <path id="Path_164070" data-name="Path 164070" d="M49.544,76.049l3.75-10.057H46.3a2.5,2.5,0,0,0-2.5,2.5V84.958a2.5,2.5,0,0,0,2.5,2.5h9.638l-.106-11.409Z" transform="translate(-43.8 -65.992)" fill="#f21857"/>
        </g>
      </g>
      <g id="Group_107783" data-name="Group 107783" transform="translate(0 14.748)">
        <path id="Path_164071" data-name="Path 164071" d="M75.781,14.748H6.094a1.094,1.094,0,0,0,0,2.188H75.781a2.034,2.034,0,0,1,2.031,2.031v7.578H2.188V18.968a1.094,1.094,0,1,0-2.188,0V72.423a3.9,3.9,0,0,0,3.891,3.891H76.109A3.9,3.9,0,0,0,80,72.422V18.968a4.224,4.224,0,0,0-4.219-4.22Zm2.031,57.674a1.706,1.706,0,0,1-1.7,1.7H3.891a1.706,1.706,0,0,1-1.7-1.7V28.734H77.813Z" transform="translate(0 -14.748)"/>
        <path id="Path_164072" data-name="Path 164072" d="M91.883,26.374a1.094,1.094,0,1,0,0-2.187H49.032a1.094,1.094,0,0,0,0,2.188Z" transform="translate(-17.977 -18.287)"/>
        <path id="Path_164073" data-name="Path 164073" d="M11.986,26.374a1.094,1.094,0,1,0,0-2.187H9.094a1.094,1.094,0,0,0,0,2.188Z" transform="translate(-3 -18.287)"/>
        <path id="Path_164074" data-name="Path 164074" d="M25.3,26.374a1.094,1.094,0,0,0,0-2.187H22.407a1.094,1.094,0,0,0,0,2.188Z" transform="translate(-7.992 -18.287)"/>
        <path id="Path_164075" data-name="Path 164075" d="M38.609,26.374a1.094,1.094,0,0,0,0-2.187H35.719a1.094,1.094,0,0,0,0,2.188Z" transform="translate(-12.984 -18.287)"/>
        <path id="Path_164076" data-name="Path 164076" d="M83.544,79.414a1.094,1.094,0,0,0-1.094,1.094v2.5a1.094,1.094,0,0,0,2.188,0v-2.5A1.094,1.094,0,0,0,83.544,79.414Z" transform="translate(-30.919 -38.998)"/>
        <path id="Path_164077" data-name="Path 164077" d="M45.644,79.686h20.25a3.6,3.6,0,0,0,3.594-3.594,1.094,1.094,0,0,0-2.187,0A1.408,1.408,0,0,1,65.894,77.5H56.881l5.813-14.918a1.094,1.094,0,0,0-1.019-1.491H57.663l1.07-2.869h7.161A1.408,1.408,0,0,1,67.3,59.626a1.094,1.094,0,1,0,2.188,0,3.6,3.6,0,0,0-3.457-3.587v-5.1a8.6,8.6,0,0,0-8.594-8.594H54.1a8.6,8.6,0,0,0-8.594,8.594v1.218A1.093,1.093,0,0,0,46.6,53.256h5a1.094,1.094,0,0,0,1.094-1.094V50.944A1.408,1.408,0,0,1,54.1,49.537h3.339a1.408,1.408,0,0,1,1.406,1.406v5.092h-.875a1.092,1.092,0,0,0-1.024.712L55.06,61.8a1.094,1.094,0,0,0,1.024,1.476h3.987l-3.75,9.632-.053-5.739a1.094,1.094,0,0,0-1.094-1.083H50.463l3.2-8.583a1.094,1.094,0,0,0-1.025-1.476H45.644a3.6,3.6,0,0,0-3.594,3.594V76.092a3.6,3.6,0,0,0,3.594,3.594ZM57.438,47.347H54.1a3.6,3.6,0,0,0-3.594,3.594v.125H47.693v-.125A6.413,6.413,0,0,1,54.1,44.534h3.339a6.413,6.413,0,0,1,6.406,6.409v5.092H61.032V50.944a3.6,3.6,0,0,0-3.594-3.6Zm-13.2,12.279a1.408,1.408,0,0,1,1.406-1.406h5.419l-3.2,8.581a1.094,1.094,0,0,0,1.025,1.476h5.2l.086,9.222H45.644a1.408,1.408,0,0,1-1.406-1.406Z" transform="translate(-15.769 -25.099)"/>
      </g>
    </g>
  </g>
</svg>
